<svg xmlns="http://www.w3.org/2000/svg" xmlns:xlink="http://www.w3.org/1999/xlink" width="21.328" height="23" viewBox="0 0 21.328 23">
  <defs>
    <clipPath id="clip-path">
      <rect id="Ret칙ngulo_1681" data-name="Ret칙ngulo 1681" width="21.327" height="23" transform="translate(0 4)" fill="#fff"/>
    </clipPath>
  </defs>
  <g id="Grupo_de_m치scara_22" data-name="Grupo de m치scara 22" transform="translate(0 -4)" clip-path="url(#clip-path)">
    <g id="Grupo_580" data-name="Grupo 580" transform="translate(0 5.125)">
      <path id="Caminho_3698" data-name="Caminho 3698" d="M1916.963,1075.783v.347a.358.358,0,0,1-.368.347h-25.119a1.435,1.435,0,0,1-1.477-1.387v-19.743a.359.359,0,0,1,.37-.347h.37a.357.357,0,0,1,.368.347v19.743a.359.359,0,0,0,.37.347H1916.6a.358.358,0,0,1,.368.347Zm-10.21-16.3-4.343,3.5a.393.393,0,0,1-.431.034l-4.72-2.654a.388.388,0,0,0-.446.047l-4.484,4.025a.338.338,0,0,0-.114.25v3.926a.372.372,0,0,0,.626.249l3.954-3.565a.387.387,0,0,1,.444-.048l5.432,3.017a.393.393,0,0,0,.4-.012l4.413-2.86a.361.361,0,0,1,.117-.051l8.717-2.111a.35.35,0,0,0,.278-.335v-5.546a.366.366,0,0,0-.469-.333l-9.231,2.4a.378.378,0,0,0-.143.071Zm.747,7.259-4.359,2.855a.391.391,0,0,1-.4.015l-5.485-3.019a.392.392,0,0,0-.444.049l-4.484,4.026a.339.339,0,0,0-.114.25v3.135a.36.36,0,0,0,.37.347h23.639a.36.36,0,0,0,.37-.347v-9.093a.364.364,0,0,0-.462-.335l-8.515,2.065a.379.379,0,0,0-.119.051Zm0,0" transform="translate(-1890 -1055)" fill="#f97d00"/>
    </g>
  </g>
</svg>
