<svg xmlns="http://www.w3.org/2000/svg" width="87" height="32" viewBox="0 0 87 32">
  <g id="Grupo_20290" data-name="Grupo 20290" transform="translate(-1067 -182)">
    <text id="Uma_empresa_do_grupo" data-name="Uma empresa do grupo" transform="translate(1067 190)" fill="#858585" font-size="7.8" font-family="RobotoSlab-Regular, Roboto Slab" letter-spacing="0.004em"><tspan x="0" y="0">Uma empresa do grupo</tspan></text>
    <g id="Grupo_20266" data-name="Grupo 20266" transform="translate(1067 194.818)">
      <path id="Caminho_6269" data-name="Caminho 6269" d="M210,141" transform="translate(-186.02 -137.859)" fill="red"/>
      <g id="Grupo_20265" data-name="Grupo 20265" transform="translate(24.549 4.349)" style="mix-blend-mode: normal;isolation: isolate">
        <g id="Grupo_20259" data-name="Grupo 20259" transform="translate(11.55 0)" style="mix-blend-mode: normal;isolation: isolate">
          <rect id="Retângulo_3047" data-name="Retângulo 3047" width="1.783" height="9.914" fill="#001446"/>
        </g>
        <g id="Grupo_20260" data-name="Grupo 20260" transform="translate(15.886 0)" style="mix-blend-mode: normal;isolation: isolate">
          <path id="Caminho_6270" data-name="Caminho 6270" d="M279.6,145.238v9.914h-1.644v-7.288l-.37.772-3.259,6.516h-1.293l-3.285-6.481-.393-.815v7.3h-1.6v-9.914h2.513l3.416,7.359,3.4-7.359Z" transform="translate(-267.76 -145.238)" fill="#001446"/>
        </g>
        <g id="Grupo_20261" data-name="Grupo 20261" transform="translate(30.287)" style="mix-blend-mode: normal;isolation: isolate">
          <path id="Caminho_6271" data-name="Caminho 6271" d="M327.464,147.264a2.565,2.565,0,0,0-.812-1.108,3.9,3.9,0,0,0-1.45-.687,8.515,8.515,0,0,0-2.145-.231H318.31v9.914h1.783v-3.094h2.963a8.633,8.633,0,0,0,2.145-.231,3.9,3.9,0,0,0,1.45-.687,2.565,2.565,0,0,0,.812-1.1,3.879,3.879,0,0,0,.234-1.385A3.933,3.933,0,0,0,327.464,147.264Zm-1.691,1.917a1.385,1.385,0,0,1-.431.562,2.375,2.375,0,0,1-.866.382,5.841,5.841,0,0,1-1.419.145h-2.963v-3.527h2.963a5.785,5.785,0,0,1,1.416.148,2.465,2.465,0,0,1,.869.393A1.644,1.644,0,0,1,325.772,149.18Z" transform="translate(-318.31 -145.238)" fill="#001446"/>
        </g>
        <g id="Grupo_20262" data-name="Grupo 20262" transform="translate(39.156)" style="mix-blend-mode: normal;isolation: isolate">
          <path id="Caminho_6272" data-name="Caminho 6272" d="M355.938,145.238H354.3l-4.857,9.914h1.849l1.085-2.219h5.484l1.088,2.219H360.8Zm1.188,6.191H353.1l2.02-4.1Z" transform="translate(-349.44 -145.238)" fill="#001446"/>
        </g>
        <g id="Grupo_20263" data-name="Grupo 20263" transform="translate(52.25)" style="mix-blend-mode: normal;isolation: isolate">
          <path id="Caminho_6273" data-name="Caminho 6273" d="M402.485,151.281l.493-.131a3.585,3.585,0,0,0,1.094-.783,2.435,2.435,0,0,0,.652-.926,3.013,3.013,0,0,0,.2-1.114,2.976,2.976,0,0,0-.265-1.265,2.5,2.5,0,0,0-.866-.994,4.371,4.371,0,0,0-1.462-.615,8.887,8.887,0,0,0-2.094-.214H395.4v9.914h1.786V151.4h3.268l2.641,3.749h2.273Zm-5.3-4.538h3.051a4.311,4.311,0,0,1,2.282.45,1.347,1.347,0,0,1,0,2.268,4.42,4.42,0,0,1-2.285.439h-3.051Z" transform="translate(-395.4 -145.238)" fill="#001446"/>
        </g>
        <g id="Grupo_20264" data-name="Grupo 20264" transform="translate(0)" style="mix-blend-mode: normal;isolation: isolate">
          <path id="Caminho_6274" data-name="Caminho 6274" d="M217.256,155.09a9.674,9.674,0,0,1-3.15-.471A5.248,5.248,0,0,1,212,153.381l1.254-1.117a5.066,5.066,0,0,0,3.842,1.293,5.8,5.8,0,0,0,2.226-.357q.844-.356.844-.962v-.027a.751.751,0,0,0-.193-.505,1.455,1.455,0,0,0-.45-.349,3.186,3.186,0,0,0-.732-.229q-.474-.1-.812-.148t-.9-.115l-.74-.088c-.192-.022-.472-.069-.835-.141a7.713,7.713,0,0,1-.916-.229,7.237,7.237,0,0,1-.828-.336,2.738,2.738,0,0,1-.739-.484,2.331,2.331,0,0,1-.474-.66,1.918,1.918,0,0,1-.193-.862v-.026A2.311,2.311,0,0,1,213.591,146a6.338,6.338,0,0,1,3.359-.767,9.029,9.029,0,0,1,2.926.444,4.959,4.959,0,0,1,1.961,1.117l-1.253,1.091a3.462,3.462,0,0,0-1.439-.808,7.2,7.2,0,0,0-2.21-.309A4.577,4.577,0,0,0,215,147.1a.986.986,0,0,0-.667.888v.054a.734.734,0,0,0,.226.544,1.685,1.685,0,0,0,.747.364q.523.141.965.216t1.262.168q.547.068.876.115t.876.161a6.291,6.291,0,0,1,.884.242,7.541,7.541,0,0,1,.756.344,2.227,2.227,0,0,1,.651.477,2.43,2.43,0,0,1,.4.653,2.121,2.121,0,0,1,.169.848v.028a2.371,2.371,0,0,1-1.31,2.113A6.978,6.978,0,0,1,217.256,155.09Z" transform="translate(-212 -145.238)" fill="#001446"/>
        </g>
      </g>
      <path id="Caminho_6275" data-name="Caminho 6275" d="M173.79,156.452h.2a.707.707,0,0,0-.108.083Z" transform="translate(-160.126 -148.908)" fill="#e70000" style="mix-blend-mode: normal;isolation: isolate"/>
      <path id="Caminho_6276" data-name="Caminho 6276" d="M160.249,129.984v7.692h-4.766l-7.883-7.441a3.006,3.006,0,0,1,1.538-.251Z" transform="translate(-141.398 -129.973)" fill="#0091da" style="mix-blend-mode: normal;isolation: isolate"/>
      <path id="Caminho_6277" data-name="Caminho 6277" d="M126.987,177.957v-7.692h4.766l7.883,7.441a3.006,3.006,0,0,1-1.538.251Z" transform="translate(-126.657 -158.786)" fill="#0091da" style="mix-blend-mode: normal;isolation: isolate"/>
      <path id="Caminho_6278" data-name="Caminho 6278" d="M174.53,156.42h-.04C174.516,156.4,174.53,156.4,174.53,156.42Z" transform="translate(-160.627 -148.876)" fill="#e70000"/>
      <path id="Caminho_6279" data-name="Caminho 6279" d="M139.915,138.333l-7.883-7.441a.558.558,0,0,0-.077.057l-.074.077-6.051,6.413,12.917,12.2,6.191-6.559Zm-3.923,3.744H131l3.852-3.9h4.84a.706.706,0,0,0-.108.083C138.89,138.849,135.992,142.077,135.992,142.077Z" transform="translate(-125.83 -130.63)" fill="#001446" style="mix-blend-mode: normal;isolation: isolate"/>
    </g>
  </g>
</svg>
