<svg id="call-answer_1_" data-name="call-answer (1)" xmlns="http://www.w3.org/2000/svg" width="20.045" height="20" viewBox="0 0 20.045 20">
  <g id="Grupo_2095" data-name="Grupo 2095" transform="translate(0 0)">
    <g id="Grupo_2094" data-name="Grupo 2094">
      <path id="Caminho_4518" data-name="Caminho 4518" d="M19.6,16.213l-3.1-3.1a1.614,1.614,0,0,0-2.276.043l-1.56,1.559-.308-.171a15.52,15.52,0,0,1-3.751-2.713A15.607,15.607,0,0,1,5.887,8.076c-.058-.1-.113-.205-.168-.3L6.766,6.73l.515-.515a1.613,1.613,0,0,0,.042-2.276l-3.1-3.1A1.612,1.612,0,0,0,1.95.886l-.872.877.024.024A5.045,5.045,0,0,0,.383,3.055a5.258,5.258,0,0,0-.32,1.286C-.346,7.73,1.2,10.827,5.405,15.03,11.215,20.839,15.9,20.4,16.1,20.378a5.231,5.231,0,0,0,1.29-.324,5.028,5.028,0,0,0,1.264-.716l.019.017.884-.866A1.616,1.616,0,0,0,19.6,16.213Z" transform="translate(0 -0.394)" fill="#f97d00"/>
    </g>
  </g>
</svg>
