<svg width="84" height="44" viewBox="0 0 84 44" fill="none" xmlns="http://www.w3.org/2000/svg">
<g clip-path="url(#clip0_126_3969)">
<path fill-rule="evenodd" clip-rule="evenodd" d="M34.6279 24.9028C34.6409 23.9271 34.8412 22.9708 35.2159 22.0727C35.5972 21.1745 36.1399 20.3604 36.8184 19.669C37.5033 18.9776 38.311 18.4219 39.2027 18.0278C40.0944 17.6401 41.0507 17.4268 42.0199 17.3945C45.8193 17.3945 48.1778 19.9404 48.1778 23.4102C48.1649 24.3795 47.9645 25.3422 47.5898 26.2404C47.215 27.1385 46.6722 27.9591 45.9938 28.6505C45.3089 29.3419 44.5012 29.8976 43.6095 30.2918C42.7178 30.6795 41.755 30.8927 40.7858 30.925C36.9864 30.925 34.6279 28.3856 34.6279 24.9222V24.9028ZM44.5141 22.3635C44.3913 22.0016 44.191 21.6656 43.9325 21.3813C43.6741 21.1035 43.3575 20.8838 43.0021 20.7351C42.6467 20.5865 42.2655 20.5219 41.8842 20.5348C39.6744 20.5348 38.2205 22.9644 38.2205 24.793C38.1753 25.1742 38.2141 25.5619 38.3369 25.9238C38.4532 26.2856 38.6535 26.6216 38.9119 26.9059C39.1769 27.1838 39.4935 27.4099 39.8489 27.5585C40.2042 27.7007 40.5855 27.7718 40.9667 27.7588C43.183 27.7588 44.6304 25.3293 44.6304 23.4942C44.6692 23.113 44.6304 22.7253 44.5141 22.3635Z" fill="white"/>
<path d="M14.1317 29.4838H0.730469L1.38955 26.9315L9.33724 19.7851H3.48955L4.29078 16.8257H14.8877L14.2222 19.3845L6.27447 26.5503H13.1237C13.2335 26.8734 13.3822 27.19 13.5631 27.4872C13.7375 27.7845 13.9508 28.0623 14.1834 28.3208C14.4225 28.5728 14.6809 28.7989 14.9652 28.9992C15.2495 29.1995 15.5532 29.3675 15.8699 29.5032L14.1317 29.4838Z" fill="white"/>
<path d="M40.275 17.1426C39.6611 17.2201 39.0666 17.3752 38.498 17.5949C37.9294 17.8211 37.3866 18.1183 36.8891 18.4737C36.3916 18.8291 35.9328 19.2491 35.5386 19.7143C35.1445 20.186 34.802 20.6965 34.5371 21.2521C32.5276 21.3685 31.2288 22.4217 30.5891 24.9094L29.4325 29.4841H25.8657L28.9156 17.6401H32.4823L31.9525 19.7208C32.9217 18.254 36.0168 17.1232 38.8728 16.9746C38.9891 16.9746 39.1054 16.9811 39.2217 16.9875C39.338 16.994 39.4608 17.0005 39.5771 17.0069C39.6934 17.0198 39.8097 17.0328 39.926 17.0457C40.0423 17.0586 40.1586 17.078 40.275 17.0909" fill="white"/>
<path fill-rule="evenodd" clip-rule="evenodd" d="M28.2954 26.8607L27.5847 29.5035H19.4431C15.8958 29.5035 13.7311 27.397 13.7311 24.1081C13.7182 23.1518 13.8927 22.2084 14.2481 21.3232C14.6034 20.4379 15.1333 19.6302 15.7988 18.9518C16.4708 18.2733 17.2656 17.7305 18.1379 17.3558C19.0167 16.9875 19.9601 16.7872 20.9164 16.7807C21.5948 16.729 22.2733 16.8195 22.913 17.0521C23.5527 17.2847 24.1342 17.653 24.6188 18.1312C25.097 18.6093 25.4782 19.1844 25.7173 19.8241C25.9564 20.4573 26.0598 21.1358 26.0145 21.8142C26.0081 22.0275 26.0016 22.2407 25.9758 22.4539C25.9564 22.6672 25.9305 22.8739 25.8918 23.0872C25.853 23.2939 25.8078 23.5007 25.7496 23.7075C25.6914 23.9142 25.6268 24.1145 25.5558 24.3149H17.6016C17.4013 25.7041 19.4302 26.9124 20.8582 26.9124L28.2954 26.8607ZM22.1699 22.1244H22.1634C22.1634 22.1244 22.1634 22.1309 22.157 22.1373L22.1699 22.1244ZM22.2022 21.9758C22.2087 21.9176 22.2216 21.8659 22.2281 21.8078C22.2345 21.7561 22.2474 21.6979 22.2474 21.6398C22.2539 21.5881 22.2539 21.5299 22.2604 21.4782C22.2668 21.265 22.2281 21.0518 22.1505 20.8515C22.0665 20.6576 21.9438 20.4767 21.7887 20.3281C21.6336 20.1859 21.4527 20.0696 21.2524 19.9985C21.0456 19.9339 20.8324 19.9081 20.6191 19.9275C20.309 19.9404 19.9988 20.005 19.7016 20.1149C19.4108 20.2247 19.1394 20.3798 18.8939 20.5801C18.6484 20.7739 18.4351 21.0065 18.2607 21.2715C18.0862 21.5299 17.957 21.8207 17.873 22.1244H22.1634C22.1764 22.0727 22.1893 22.021 22.2022 21.9758Z" fill="white"/>
<path fill-rule="evenodd" clip-rule="evenodd" d="M72.3052 34.0327V42.213H70.4249L70.3474 41.4053C70.2505 41.5539 70.1342 41.6896 69.9985 41.8059C69.8628 41.9223 69.7142 42.0256 69.5526 42.1032C69.3975 42.1872 69.2231 42.2453 69.0486 42.2776C68.8742 42.3164 68.6997 42.3293 68.5188 42.3164C68.1569 42.3099 67.8015 42.2259 67.472 42.0709C67.1489 41.9158 66.8582 41.6961 66.6191 41.4247C66.38 41.1533 66.1991 40.8367 66.0892 40.4878C65.9794 40.1453 65.9406 39.7835 65.9729 39.4216C65.9406 39.0533 65.9859 38.6721 66.1086 38.3232C66.2249 37.9678 66.4188 37.6383 66.6708 37.3604C66.9163 37.0826 67.2265 36.8564 67.5625 36.7013C67.9049 36.5463 68.2732 36.4623 68.648 36.4493C68.7902 36.4299 68.9323 36.4299 69.0745 36.4429C69.2231 36.4558 69.3652 36.4881 69.5009 36.5333C69.6366 36.5786 69.7659 36.6432 69.8886 36.7207C70.0114 36.7983 70.1212 36.8887 70.2182 36.9921V34.0327H72.3052ZM70.2375 39.0856C70.244 39.0663 70.244 39.0469 70.244 39.021C70.244 39.0016 70.244 38.9823 70.244 38.9564C70.244 38.937 70.244 38.9176 70.244 38.8918C70.244 38.8724 70.244 38.853 70.2375 38.8272C70.2246 38.7173 70.1923 38.6139 70.1406 38.517C70.0825 38.4201 70.0179 38.3296 69.9339 38.2586C69.8499 38.1875 69.7529 38.1293 69.6495 38.0906C69.5462 38.0518 69.4363 38.0324 69.3265 38.0324C68.5575 38.0324 68.2151 38.5364 68.2151 39.3441C68.2151 40.1518 68.6674 40.6041 69.3071 40.6041C69.4169 40.6106 69.5268 40.5912 69.6302 40.5524C69.7335 40.5136 69.8305 40.4555 69.9145 40.3844C69.992 40.3133 70.0631 40.2293 70.1148 40.1324C70.1729 40.0355 70.2052 39.9256 70.2182 39.8223C70.2246 39.7899 70.2311 39.7512 70.2311 39.7189C70.2311 39.6866 70.2311 39.6543 70.2311 39.6219C70.2311 39.5896 70.2311 39.5573 70.2311 39.525C70.2311 39.4927 70.2246 39.4604 70.2182 39.4281L70.2375 39.0856Z" fill="white"/>
<path fill-rule="evenodd" clip-rule="evenodd" d="M78.3403 38.9112C78.3403 39.0275 78.3403 40.9789 78.3403 41.0952C78.3403 41.2115 78.3467 41.3278 78.3532 41.4441C78.3661 41.5604 78.3726 41.6767 78.3855 41.793C78.3984 41.9029 78.4113 42.0192 78.4307 42.1355H76.5375L76.4276 41.6573C76.3243 41.7672 76.2079 41.8576 76.0852 41.9416C75.9624 42.0192 75.8267 42.0902 75.691 42.1419C75.5489 42.1936 75.4067 42.2324 75.2581 42.2518C75.1095 42.2776 74.9673 42.2841 74.8187 42.2712C74.5732 42.2841 74.3276 42.2518 74.1015 42.1678C73.8689 42.0902 73.6556 41.961 73.4812 41.793C73.3003 41.6315 73.1516 41.4312 73.0547 41.2115C72.9513 40.9918 72.8932 40.7527 72.8867 40.5072C72.8867 38.9952 74.2049 38.3102 76.279 38.3102C76.279 38.1164 76.1821 37.8579 75.3679 37.8579C75.2193 37.8644 75.0772 37.8773 74.9286 37.8967C74.7864 37.9161 74.6443 37.9484 74.5021 37.9872C74.3664 38.0259 74.2243 38.0712 74.095 38.1229C73.9593 38.181 73.8236 38.2392 73.7009 38.3102L73.3261 36.9662C73.507 36.8758 73.7009 36.7918 73.8947 36.7272C74.095 36.6561 74.2953 36.6044 74.4956 36.5592C74.6959 36.5139 74.9027 36.4816 75.1095 36.4622C75.3163 36.4429 75.523 36.4364 75.7298 36.4429C77.6166 36.4429 78.4243 37.4121 78.4243 38.9047L78.3403 38.9112ZM76.4147 39.6736C75.4907 39.6736 75.0449 39.9127 75.0449 40.3585C75.0449 40.6687 75.2516 40.8561 75.6393 40.8561C75.7233 40.8496 75.8073 40.8367 75.8849 40.8044C75.9689 40.7721 76.0399 40.7333 76.1046 40.6816C76.1756 40.6299 76.2338 40.5653 76.279 40.4942C76.3307 40.4296 76.363 40.3521 76.3889 40.2681C76.3953 40.2422 76.3953 40.2164 76.3953 40.1905C76.4018 40.1647 76.4018 40.1389 76.4018 40.113C76.4018 40.0872 76.4018 40.0613 76.3953 40.0355C76.3953 40.0096 76.3953 39.9838 76.3889 39.9579L76.4147 39.6736Z" fill="white"/>
<path d="M41.4446 38.4463C41.4446 37.658 41.4446 36.9989 41.3994 36.5078H43.144L43.2216 37.2186H43.2668C43.3573 37.0829 43.4736 36.9537 43.5963 36.8438C43.7256 36.734 43.8613 36.6435 44.0163 36.5725C44.165 36.4949 44.32 36.4432 44.488 36.4045C44.6496 36.3722 44.8176 36.3592 44.9856 36.3657C45.1471 36.3592 45.3086 36.3721 45.4637 36.4109C45.6253 36.4497 45.7739 36.5078 45.916 36.5918C46.0517 36.6694 46.181 36.7728 46.2908 36.8891C46.4006 37.0054 46.4976 37.1411 46.5686 37.2832C46.6203 37.2122 46.6785 37.1411 46.7431 37.0765C46.8013 37.0054 46.8723 36.9472 46.937 36.8891C47.008 36.8245 47.0791 36.7728 47.1502 36.7211C47.2277 36.6694 47.3053 36.6242 47.3828 36.5789C47.4668 36.5402 47.5508 36.5014 47.6348 36.4691C47.7188 36.4368 47.8093 36.4109 47.8933 36.3915C47.9837 36.3722 48.0742 36.3592 48.1646 36.3528C48.2551 36.3398 48.3456 36.3398 48.436 36.3398C49.6637 36.3398 50.4391 37.2574 50.4391 38.8405V42.11H48.4166V39.1442C48.4166 38.4075 48.1776 38.0328 47.6865 38.0328C47.609 38.0392 47.5379 38.0521 47.4668 38.0715C47.3957 38.0974 47.3246 38.1362 47.2665 38.1814C47.2083 38.2266 47.1566 38.2848 47.1114 38.3429C47.0726 38.4075 47.0403 38.4722 47.0145 38.5497C47.008 38.582 46.9951 38.6208 46.9886 38.6531C46.9822 38.6918 46.9757 38.7242 46.9693 38.7629C46.9628 38.7952 46.9563 38.834 46.9563 38.8663C46.9563 38.9051 46.9499 38.9438 46.9499 38.9762V42.11H44.921V39.1442C44.921 38.4075 44.6819 38.0328 44.1908 38.0328C44.1133 38.0392 44.0422 38.0521 43.9711 38.0715C43.9 38.0974 43.8354 38.1362 43.7773 38.1749C43.7191 38.2202 43.6674 38.2718 43.6222 38.3365C43.577 38.3946 43.5446 38.4592 43.5188 38.5303C43.5123 38.5626 43.4994 38.5949 43.493 38.6337C43.48 38.666 43.4736 38.7048 43.4671 38.7371C43.4606 38.7694 43.4606 38.8081 43.4542 38.8469C43.4542 38.8792 43.4542 38.918 43.4542 38.9503V42.0454H41.4253V38.4463H41.4446Z" fill="white"/>
<path fill-rule="evenodd" clip-rule="evenodd" d="M52.8621 42.0518C52.4809 41.9226 52.132 41.7158 51.8283 41.4444C51.531 41.173 51.292 40.837 51.1304 40.4687C50.9689 40.1004 50.8784 39.6998 50.8784 39.2927C50.8784 37.5869 52.0609 36.3204 54.1738 36.3204C54.568 36.2946 54.9686 36.3398 55.3433 36.4755C55.7181 36.6047 56.0606 36.805 56.3513 37.0764C56.6421 37.3478 56.8747 37.6709 57.0298 38.0392C57.1913 38.401 57.2689 38.7952 57.2689 39.1893C57.2753 39.6029 57.1978 40.0164 57.0363 40.3976C56.8747 40.7789 56.6292 41.1213 56.332 41.4056C56.0283 41.69 55.6664 41.9096 55.2787 42.0453C54.8846 42.181 54.471 42.2327 54.0575 42.2004C53.6504 42.2327 53.2498 42.181 52.8621 42.0518ZM54.9686 39.2604C54.9686 38.485 54.7877 37.8324 54.0575 37.8324C53.3273 37.8324 53.056 38.4463 53.056 39.2604C53.056 40.0746 53.3726 40.7143 54.0575 40.7143C54.639 40.7143 54.9686 40.178 54.9686 39.2604Z" fill="white"/>
<path d="M59.2656 36.4688L59.9505 38.8983C60.0733 39.3054 60.1444 39.7124 60.2155 40.1066C60.293 39.6995 60.3511 39.3312 60.4545 38.8983L61.0878 36.4688H63.3364L61.217 42.1097H59.0524L56.9395 36.514L59.2656 36.4688Z" fill="white"/>
<path d="M64.9582 43.9385C64.7256 43.6089 64.5123 43.26 64.3314 42.8917C64.1505 42.5299 64.0019 42.1486 63.8791 41.7609C63.7499 41.3732 63.6594 40.9791 63.5948 40.5785C63.5366 40.1779 63.5043 39.7708 63.5043 39.3637C63.485 38.9308 63.5043 38.4979 63.5625 38.0714C63.6142 37.6385 63.7111 37.2185 63.8339 36.8049C63.9631 36.3914 64.1182 35.9843 64.312 35.6031C64.5059 35.2154 64.732 34.8406 64.984 34.4917L66.4702 35.28C66.244 35.5708 66.0437 35.8745 65.8757 36.1975C65.7077 36.5206 65.5656 36.8566 65.4557 37.2055C65.3459 37.5545 65.2748 37.9099 65.2296 38.2717C65.1843 38.6335 65.1714 38.9954 65.1908 39.3637C65.1908 39.6997 65.2166 40.0422 65.2683 40.3782C65.32 40.7142 65.404 41.0437 65.5074 41.3668C65.6173 41.6898 65.7465 42.0065 65.908 42.3102C66.0631 42.6074 66.244 42.8982 66.4508 43.1695L64.9582 43.9385Z" fill="white"/>
<path d="M67.5555 33.4966C67.549 33.936 67.2776 34.3237 66.8706 34.4917C66.4635 34.6533 65.9983 34.5563 65.6881 34.2397C65.3844 33.9296 65.2939 33.4643 65.4619 33.0573C65.6299 32.6502 66.0306 32.3853 66.4635 32.3853C66.6121 32.3853 66.7542 32.4176 66.8899 32.4693C67.0192 32.5274 67.1419 32.6114 67.2453 32.7148C67.3422 32.8182 67.4262 32.9409 67.4779 33.0702C67.5296 33.2059 67.5555 33.348 67.5555 33.4966Z" fill="white"/>
<path d="M20.3672 5.71834C20.0183 5.84111 19.6758 5.9768 19.3334 6.11249C18.9909 6.25465 18.6485 6.3968 18.3125 6.53895C17.9765 6.68757 17.6405 6.84265 17.3045 6.99772C16.9685 7.1528 16.6389 7.31434 16.3094 7.48234C16.122 7.57926 15.9346 7.68265 15.7602 7.79249C15.5792 7.9088 15.4048 8.02511 15.2368 8.15434C15.0688 8.28357 14.9072 8.42572 14.7522 8.56788C14.5971 8.71003 14.4485 8.86511 14.3063 9.02018C14.1577 9.20111 13.938 9.41434 14.022 9.65342C14.106 9.89249 14.4614 9.79557 14.6746 9.79557L24.3734 9.84726C27.5718 9.84726 30.7832 9.84726 33.9882 9.89249C34.77 9.89249 34.8992 9.65342 34.7442 8.97495C34.5245 7.70203 34.3888 6.40326 34.2789 5.10449C34.3952 5.34357 34.5051 5.58911 34.6085 5.84111C34.7118 6.08665 34.8088 6.33865 34.8992 6.59065C34.9897 6.84265 35.0672 7.10111 35.1448 7.35957C35.2158 7.61803 35.2805 7.87649 35.3386 8.14142C35.8749 9.97003 35.8749 9.97003 37.7358 10.1057C42.0715 10.4353 46.4072 10.739 50.8269 11.0685C50.7042 11.1073 50.5814 11.146 50.4586 11.1719C50.3358 11.1977 50.2066 11.2171 50.0839 11.2365C49.9546 11.2494 49.8254 11.2559 49.7026 11.2559C49.5734 11.2623 49.4442 11.2559 49.3149 11.243C38.2592 11.3528 27.1971 11.6565 16.1414 11.243C15.8054 11.2365 15.4694 11.2236 15.1398 11.2106C14.8038 11.1913 14.4743 11.1719 14.1448 11.1396C13.8088 11.1137 13.4792 11.075 13.1497 11.0362C12.8137 10.9974 12.4842 10.9457 12.1546 10.894C11.7734 10.823 11.334 10.7777 11.2435 10.3254C11.2306 10.2285 11.2371 10.1316 11.2565 10.0346C11.2694 9.93772 11.3017 9.8408 11.3469 9.7568C11.3922 9.66634 11.4503 9.5888 11.5214 9.51772C11.5925 9.44665 11.67 9.38849 11.754 9.3368C12.1934 9.02018 12.6392 8.71649 13.1045 8.43218C13.5632 8.14788 14.0349 7.88295 14.5195 7.63742C15.0042 7.39188 15.4952 7.16572 15.9992 6.96542C16.5032 6.75865 17.0137 6.57772 17.5306 6.41618C17.7568 6.31926 17.9829 6.23526 18.2155 6.15772C18.4482 6.08018 18.6808 6.00911 18.9198 5.95095C19.1589 5.8928 19.398 5.84111 19.6371 5.79588C19.8826 5.75065 20.1217 5.71834 20.3672 5.68603" fill="white"/>
<path d="M54.9164 22.596L57.753 29.7683H53.9988L52.1702 24.8381L50.7035 27.4615L49.2432 29.7618H46.0576C46.1998 29.6584 46.3419 29.5486 46.4841 29.4323C46.6198 29.316 46.7555 29.1932 46.8782 29.0704C47.0075 28.9412 47.1302 28.812 47.2465 28.6763C47.3693 28.5341 47.4792 28.3984 47.5825 28.2498C48.0219 27.7135 48.3709 27.1126 48.6293 26.4664C48.8878 25.8267 49.0428 25.1483 49.101 24.4569C49.1527 23.7655 49.1075 23.0676 48.9524 22.3956C48.7973 21.7172 48.5453 21.071 48.1964 20.4701L49.1139 17.0132H52.6225L51.2527 22.1178L56.4348 17.0132H60.8739L54.9164 22.596Z" fill="#1D1C19"/>
<path d="M61.9923 17.0391H66.4055L66.0307 18.4606C66.2504 18.2022 66.4959 17.9695 66.7609 17.7692C67.0258 17.5625 67.3166 17.388 67.6203 17.2394C67.924 17.0972 68.2406 16.9809 68.5636 16.9034C68.8932 16.8194 69.2292 16.7742 69.5652 16.7612C69.9141 16.7418 70.2695 16.7742 70.6119 16.8711C70.9544 16.9615 71.2839 17.1102 71.5747 17.3105C71.8719 17.5108 72.1304 17.7563 72.3436 18.0406C72.5569 18.3249 72.7184 18.6415 72.8283 18.9775C73.1061 18.6351 73.4163 18.3249 73.7587 18.0535C74.1012 17.7822 74.476 17.5495 74.8701 17.3557C75.2643 17.1618 75.6778 17.0197 76.1043 16.9163C76.5307 16.8194 76.9701 16.7677 77.4095 16.7612C79.8003 16.7612 81.0667 18.228 81.0667 20.5606C81.0603 20.7609 81.0473 20.9548 81.028 21.1486C81.0086 21.3489 80.9827 21.5428 80.9504 21.7366C80.9181 21.9305 80.8793 22.1243 80.8341 22.3182C80.7889 22.5055 80.7372 22.6994 80.6855 22.8868L78.8504 29.8071H74.4695L76.1947 23.1452C76.2206 23.0612 76.2399 22.9772 76.2593 22.8932C76.2787 22.8028 76.2981 22.7188 76.311 22.6348C76.3239 22.5443 76.3369 22.4603 76.3433 22.3698C76.3498 22.2858 76.3563 22.1954 76.3627 22.1114C76.3886 21.9305 76.3692 21.7495 76.3175 21.5751C76.2593 21.4006 76.1689 21.2391 76.0396 21.1098C75.9169 20.9806 75.7618 20.8772 75.5873 20.8126C75.4193 20.748 75.2384 20.7286 75.0575 20.748C73.875 20.748 73.1578 21.5945 72.7507 23.0418L70.9415 29.7877H66.5283L68.2923 23.1258C68.3181 23.0418 68.3375 22.9578 68.3569 22.8738C68.3763 22.7834 68.3892 22.6994 68.4086 22.6154C68.4215 22.5249 68.4279 22.4409 68.4409 22.3505C68.4473 22.2665 68.4538 22.176 68.4538 22.092C68.4796 21.9111 68.4603 21.7237 68.4021 21.5492C68.3439 21.3748 68.247 21.2132 68.1178 21.084C67.9821 20.9548 67.827 20.8578 67.6526 20.7997C67.4781 20.7415 67.2907 20.7222 67.1098 20.748C65.9273 20.748 65.2101 21.5945 64.803 23.0418L62.9744 29.7877H58.5806L61.9923 17.0391Z" fill="#1D1C19"/>
<path d="M0.161713 16.8126C-0.00628657 17.9369 -0.070902 16.1535 0.110021 15.0551C0.278021 14.0729 0.581713 13.1231 1.01464 12.2249C1.4411 11.3268 1.99033 10.4868 2.63648 9.73722C3.2891 8.98768 4.0451 8.3286 4.87218 7.77937C5.70571 7.23014 6.60387 6.79722 7.55371 6.49353C7.57956 7.05568 7.64418 7.61784 7.64418 8.18645C6.01587 7.92153 4.10325 6.60337 1.6931 6.53876C0.962944 6.51291 1.62202 6.16399 2.28756 5.82799C5.11125 4.41937 8.05771 3.24984 11.0817 2.34522C14.1057 1.43414 17.2008 0.78799 20.3346 0.406759C23.4685 0.0255282 26.6346 -0.0907795 29.7879 0.070759C32.9411 0.225836 36.0749 0.652297 39.1571 1.34368C44.966 2.66184 50.4196 5.07845 56.0346 7.05568C56.726 7.30768 57.4174 7.54676 58.1153 7.77291C58.8066 7.99907 59.5109 8.2123 60.2153 8.41261C60.9196 8.61937 61.6303 8.80676 62.3411 8.98122C63.0519 9.14922 63.7691 9.31076 64.4863 9.45937C65.2229 9.57568 65.966 9.67907 66.7156 9.76307C67.4586 9.84707 68.2082 9.91814 68.9577 9.9763C69.7008 10.0345 70.4503 10.0797 71.1999 10.1055C71.9559 10.1314 72.7054 10.1443 73.4549 10.1443C76.298 10.2671 79.1346 10.7065 81.4543 12.464C83.4833 14.0212 83.9549 15.8046 83.5479 18.3828C83.3799 19.5135 83.1085 19.4166 83.2894 18.3117C83.6836 15.5655 80.666 13.5883 78.3011 12.6449C75.2254 11.5206 71.7879 11.9406 68.5765 11.7274C57.2688 10.9972 47.5442 4.56153 36.3722 2.57784C25.2066 0.594144 14.2026 1.83476 4.05802 6.86184C3.9611 6.31907 3.06941 6.2286 2.96602 5.70522L8.01894 6.48707C8.18694 6.54522 8.33556 6.65507 8.44541 6.79722C8.54879 6.94584 8.61341 7.11384 8.61987 7.29476C8.63279 7.47568 8.58756 7.6566 8.4971 7.81168C8.40664 7.96676 8.27094 8.08953 8.10941 8.16707C4.81402 9.2203 1.07925 11.7145 0.530021 15.0874L0.161713 16.8126Z" fill="#1D1C19"/>
</g>
<defs>
<clipPath id="clip0_126_3969">
<rect width="84" height="43.9385" fill="white"/>
</clipPath>
</defs>
</svg>
