<?xml version="1.0" encoding="utf-8"?>
<!-- Generator: Adobe Illustrator 24.2.1, SVG Export Plug-In . SVG Version: 6.00 Build 0)  -->
<svg version="1.1" id="Camada_1" xmlns="http://www.w3.org/2000/svg" xmlns:xlink="http://www.w3.org/1999/xlink" x="0px" y="0px"
	 viewBox="0 0 136.3 69.1" style="enable-background:new 0 0 136.3 69.1;" xml:space="preserve">
<style type="text/css">
	.st0{fill:#FFFFFF;}
</style>
<g>
	<path class="st0" d="M72.7,38.3c0-3.1-1.8-4.8-4.5-4.8c-3.6,0-6,3.9-6,6.9c0,3.1,1.8,4.8,4.5,4.8C70.3,45.3,72.7,41.3,72.7,38.3
		 M56.4,40.6c0-6.3,5.4-12.2,12-12.2c6.2,0,10,4.1,10,9.8c0,6.3-5.4,12.2-12,12.2C60.3,50.4,56.4,46.3,56.4,40.6"/>
	<path class="st0" d="M23.1,48.1H1.3l1.1-4.1l12.9-11.6H5.8l1.3-4.8h17.2l-1.1,4.1L10.3,43.3H17h4.4c0,0,0.9,3.3,4.5,4.8H23.1z"/>
	<path class="st0" d="M65.6,28c-6.7,0.7-9.3,6.7-9.3,6.7c-3.3,0.2-5.4,1.9-6.4,5.9L48,48.1h-5.8l5-19.3h5.8l-0.9,3.4
		c1.6-2.4,6.6-4.2,11.3-4.4C64.4,27.8,65.6,28,65.6,28"/>
	<path class="st0" d="M36.1,36.1c0.1-0.3,0.2-0.7,0.2-1.1c0-1.4-0.9-2.5-2.7-2.5c-1.8,0-3.6,1.2-4.5,3.6H36.1z M46.1,43.8L45,48.1
		H31.7c-5.8,0-9.3-3.4-9.3-8.8c0-5.9,4.5-11.9,11.7-11.9c5.8,0,8.3,3.9,8.3,8.2c0,1.4-0.3,2.8-0.8,4.1H28.7c-0.3,2.3,3,4.2,5.3,4.2
		L46.1,43.8z"/>
	<path d="M99.2,27.8h-7.2l-8.4,8.3l2.2-8.3H80l-1.5,5.7c1,1.6,1.5,3.6,1.5,5.6c0,2.7-0.9,5.1-2.5,7.1C76.8,47,76,47.9,75,48.6h5.2
		l2.4-3.8l2.4-4.2l3,8h6.1l-4.6-11.7L99.2,27.8z"/>
	<path d="M101,27.8h7.2l-0.6,2.3c1.4-1.5,3.3-2.8,5.7-2.8c2.8,0,4.6,1.5,5.3,3.6c1.9-2.2,4.4-3.6,7.4-3.6c3.9,0,6,2.4,6,6.2
		c0,1.1-0.3,2.5-0.6,3.8l-3,11.3h-7.1l2.8-10.8c0.2-0.5,0.3-1.2,0.3-1.7c0-1.4-0.7-2.2-2.2-2.2c-1.9,0-3.1,1.4-3.7,3.8l-2.9,11h-7.2
		l2.9-10.8c0.2-0.5,0.3-1.2,0.3-1.7c0-1.4-0.7-2.2-2.2-2.2c-1.9,0-3.1,1.4-3.7,3.8l-2.9,11h-7.2L101,27.8z"/>
	<path class="st0" d="M33.2,9.4c-2.2,0.9-4.5,1.7-6.6,2.9c-1.2,0.7-2.4,1.4-3.3,2.5c-0.2,0.3-0.6,0.6-0.5,1c0.2,0.5,0.7,0.2,1.1,0.2
		c5.3,0,10.5,0,15.8,0.1c5.2,0,10.4,0,15.6,0.1c1.3,0,1.4-0.4,1.2-1.5c-0.4-2.1-0.6-4.2-0.8-6.3c0.9,1.6,1.2,3.3,1.7,4.9
		c0.9,3,0.8,3,3.9,3.2c7.1,0.5,14.1,1,21.3,1.6c-0.9,0.4-1.7,0.3-2.5,0.3c-18,0.2-36,0.6-54,0.1c-2.2-0.1-4.3-0.2-6.5-0.6
		c-0.6-0.1-1.3-0.2-1.5-0.9c-0.2-0.7,0.3-1.2,0.8-1.6c2.8-2.3,6.1-3.5,9.4-4.7C30.1,10,31.6,9.5,33.2,9.4"/>
	<path class="st0" d="M114.8,61.7c0,0.2,0,0.4,0,0.6c-0.1,0.7-0.7,1.3-1.5,1.3c-1,0-1.7-0.7-1.7-2c0-1.1,0.5-2.1,1.7-2.1
		c0.8,0,1.3,0.6,1.5,1.3c0,0.1,0,0.3,0,0.4V61.7z M114.8,53.2v4.7h0c-0.5-0.6-1.4-0.9-2.4-0.9c-2.2,0-4.2,1.8-4.2,4.7
		c0,2.9,2,4.6,4,4.6c1.1,0,2.2-0.4,2.9-1.5h0l0.1,1.3h3c0-0.5-0.1-1.6-0.1-2.8V53.2H114.8z"/>
	<path class="st0" d="M124.5,62.5c0,0.2,0,0.3,0,0.5c-0.1,0.5-0.7,0.9-1.2,0.9c-0.6,0-1-0.3-1-0.8c0-0.7,0.7-1.1,2.2-1.1V62.5z
		 M127.7,60.9c0-2.4-1.3-3.9-4.3-3.9c-1.9,0-3.2,0.5-3.8,0.8l0.6,2.1c0.6-0.3,1.7-0.7,2.6-0.7c1.3,0,1.5,0.4,1.5,0.7V60
		c-3.3,0-5.4,1.1-5.4,3.5c0,1.4,1.1,2.8,3,2.8c1,0,1.9-0.2,2.5-1h0.1l0.2,0.8h3c-0.1-0.4-0.1-1.3-0.1-2.2V60.9z"/>
	<path class="st0" d="M69.4,60.1c0-1.3,0-2.3-0.1-3.1h2.8l0.1,1.1h0.1c0.3-0.4,1-1.3,2.7-1.3c1.1,0,2.1,0.5,2.5,1.5h0
		c0.4-0.5,0.8-0.9,1.3-1.1c0.5-0.3,1-0.4,1.6-0.4c1.9,0,3.2,1.4,3.2,3.9v5.1h-3.2v-4.6c0-1.1-0.4-1.8-1.1-1.8
		c-0.6,0-0.9,0.4-1.1,0.8c-0.1,0.2-0.1,0.5-0.1,0.7v4.9h-3.2v-4.6c0-1.1-0.4-1.8-1.1-1.8c-0.7,0-1,0.5-1.1,0.8
		c-0.1,0.2-0.1,0.5-0.1,0.7v4.9h-3.2V60.1z"/>
	<path class="st0" d="M89.3,63.7c-1.1,0-1.6-1-1.6-2.3c0-1.1,0.4-2.3,1.6-2.3c1.1,0,1.5,1,1.5,2.3C90.8,62.9,90.2,63.7,89.3,63.7
		L89.3,63.7z M89.2,66.1c2.8,0,5.1-1.7,5.1-4.7c0-2.7-2-4.5-4.9-4.5c-3.3,0-5.2,2-5.2,4.7C84.2,64.4,86.5,66.1,89.2,66.1L89.2,66.1z
		"/>
	<path class="st0" d="M97.5,57l1.1,3.8c0.2,0.7,0.3,1.3,0.4,1.9h0.1c0.1-0.6,0.2-1.2,0.4-1.9l1-3.8h3.6l-3.4,8.8h-3.4L93.8,57H97.5z
		"/>
	<path class="st0" d="M108.8,67.6c-1.2-1.6-2-3.7-2-5.9c0-2.5,0.5-4.7,2-6.4l-2.4-1.3c-1.7,2.1-2.3,4.8-2.3,7.7
		c0,2.7,0.8,5.2,2.3,7.3L108.8,67.6z"/>
	<path class="st0" d="M110.6,52.3c0,1-0.8,1.7-1.7,1.7c-0.9,0-1.7-0.8-1.7-1.7c0-1,0.8-1.7,1.7-1.7
		C109.8,50.6,110.6,51.4,110.6,52.3"/>
	<path d="M0.9,24.7c0.9-5.5,7-9.6,12.3-11.3c1.3-0.4,1.3-2.5-0.1-2.7c-2.7-0.4-5.5-0.8-8.2-1.3c0.2,0.9,1.6,1,1.8,1.9
		c16.5-8.2,34.4-10.2,52.6-7c18,3.2,34,13.7,52.4,14.9c5.2,0.3,10.8-0.4,15.8,1.5c3.8,1.5,8.8,4.7,8.1,9.1c-0.3,1.8,0.1,1.9,0.4,0.1
		c0.7-4.2-0.1-7.1-3.4-9.6c-3.8-2.9-8.4-3.6-13-3.8c-4.9-0.2-9.7-0.2-14.6-1.1c-4.7-0.9-9.2-2.3-13.7-3.9c-9.1-3.2-18-7.1-27.5-9.3
		C54.4,0.2,44.6-0.4,35,0.6c-10.9,1.1-21.4,4.2-31.2,9c-1.1,0.5-2.2,1.1-1,1.2c3.9,0.1,7,2.2,9.7,2.7c-0.1-0.9-0.1-1.8-0.1-2.7
		c-6.2,2-11.1,7.5-12.1,13.9c-0.3,1.8-0.2,4.7,0.1,2.9L0.9,24.7z"/>
</g>
</svg>
