<svg xmlns="http://www.w3.org/2000/svg" width="30" height="30" viewBox="0 0 30 30"><defs><style>.a{fill:#F47920;}</style></defs><g transform="translate(-224 -1116.513)"><path class="a" d="M1865.758,890.32a15,15,0,1,0,15-15,15.018,15.018,0,0,0-15,15Zm27.273,0a12.273,12.273,0,1,1-12.273-12.273,12.287,12.287,0,0,1,12.273,12.273Zm0,0" transform="translate(-1641.758 241.193)"/><path class="a" d="M1930.917,908.545v1.445a3.907,3.907,0,0,0-3.185,3.487c0,2.039,2.143,3.7,4.777,3.7a1.273,1.273,0,1,1,0,2.465,3.156,3.156,0,0,1-2.068-.933,1.928,1.928,0,0,0-2.243-.15A1.054,1.054,0,0,0,1928,920.3a6.85,6.85,0,0,0,2.913,1.606v1.439a1.644,1.644,0,0,0,3.184,0V921.9a3.906,3.906,0,0,0,3.185-3.487c0-2.04-2.143-3.7-4.777-3.7a1.274,1.274,0,1,1,0-2.466,2.913,2.913,0,0,1,1.722.645,1.936,1.936,0,0,0,2.252-.029,1.049,1.049,0,0,0-.036-1.743,6.655,6.655,0,0,0-2.345-1.135v-1.436a1.644,1.644,0,0,0-3.184,0Zm0,0" transform="translate(-1693.461 215.966)"/></g></svg>