<svg xmlns="http://www.w3.org/2000/svg" xmlns:xlink="http://www.w3.org/1999/xlink" width="60" height="42.857" viewBox="0 0 60 42.857">
    <defs>
        <style>.a{fill:url(#a);}.b{fill:#e7e7e7;}.c{fill:#fff;}</style>
        <radialGradient id="a" cx="14.677" cy="6.074" r="79.212" gradientTransform="matrix(0.706, 0, 0, -0.706, 2.846, 1.832)" gradientUnits="userSpaceOnUse">
            <stop offset="0" stop-color="#9dd5f6" />
            <stop offset="0.071" stop-color="#98d3f5" />
            <stop offset="0.158" stop-color="#89cef3" />
            <stop offset="0.252" stop-color="#70c6ef" />
            <stop offset="0.351" stop-color="#4ebbea" />
            <stop offset="0.455" stop-color="#23ade3" />
            <stop offset="0.5" stop-color="#0da6e0" />
            <stop offset="1" stop-color="#2e77bc" />
        </radialGradient>
    </defs>
    <g transform="translate(0)">
        <path class="a" d="M58.147,5h-48A5.136,5.136,0,0,0,5,10.143V41a5.136,5.136,0,0,0,5.143,5.143h48A5.136,5.136,0,0,0,63.29,41V10.143A5.136,5.136,0,0,0,58.147,5Z" transform="translate(-4.145 -4.145)" />
        <path class="b" d="M54.857,1.714a3.439,3.439,0,0,1,3.429,3.429V37.714a3.439,3.439,0,0,1-3.429,3.429H5.143a3.439,3.439,0,0,1-3.429-3.429V5.143A3.439,3.439,0,0,1,5.143,1.714H54.857m0-1.714H5.143A5.136,5.136,0,0,0,0,5.143V37.714a5.136,5.136,0,0,0,5.143,5.143H54.857A5.136,5.136,0,0,0,60,37.714V5.143A5.136,5.136,0,0,0,54.857,0Z" />
        <g transform="translate(5.044 15.102)">
            <path class="c" d="M69.4,111.091h2.941L70.871,107.5Zm23.034-3.249v1.642h4.754v1.847H92.434v1.813h5.318l2.462-2.685-2.343-2.616Z" transform="translate(-62.577 -104.166)" />
            <path class="c" d="M78.334,88H70.512l-1.784,1.932L67.064,88H50.907l-1.424,3.249L48.025,88H41.353v1.5L40.615,88H34.972L29.5,100.62h6.535l.84-2.018h1.852l.823,2.018h7.273V99.1l.652,1.556H51.25L51.9,99.1v1.556H66.807l1.835-1.966,1.75,1.966h7.684l-5.66-6.276ZM55.744,98.824H53.531v-7.1l-3.139,7.1H48.454l-3.139-7.1v7.1H40.907l-.823-2.018H35.555l-.84,2.018H32.347l3.877-9.046h3.225l3.688,8.567V89.778H46.67l2.847,6.139,2.607-6.139h3.619Zm18.4.034H71.335L68.66,95.866,65.9,98.859H57.3V89.8h8.731l2.676,2.975L71.473,89.8H74.32L70.1,94.327Z" transform="translate(-29.5 -88)" />
        </g>
    </g>
</svg>