<svg xmlns="http://www.w3.org/2000/svg" width="61" height="43.857" viewBox="0 0 61 43.857">
    <g transform="translate(-70.5 -799.5)">
        <path d="M54.857,42.857H5.143A5.136,5.136,0,0,1,0,37.714V5.143A5.136,5.136,0,0,1,5.143,0H54.857A5.136,5.136,0,0,1,60,5.143V37.714A5.136,5.136,0,0,1,54.857,42.857Z" transform="translate(71 800)" stroke="#e7e7e7" stroke-width="1" />
        <path d="M54.857,1.714a3.439,3.439,0,0,1,3.429,3.429V37.714a3.439,3.439,0,0,1-3.429,3.429H5.143a3.439,3.439,0,0,1-3.429-3.429V5.143A3.439,3.439,0,0,1,5.143,1.714H54.857m0-1.714H5.143A5.136,5.136,0,0,0,0,5.143V37.714a5.136,5.136,0,0,0,5.143,5.143H54.857A5.136,5.136,0,0,0,60,37.714V5.143A5.136,5.136,0,0,0,54.857,0Z" transform="translate(71 800)" fill="#e7e7e7" />
        <g transform="translate(-1004.084 432.104)">
            <path d="M136.65,123a5.116,5.116,0,0,1,1.642-.265,5.19,5.19,0,0,1,5.086,4.155l3.557-.727a8.82,8.82,0,0,0-11.437-6.608Z" transform="translate(951.609 261.796)" fill="#fff100" />
            <path d="M58.875,161.616l2.407-2.725a5.194,5.194,0,0,1,0-7.773L58.875,148.4a8.827,8.827,0,0,0,0,13.216Z" transform="translate(1025.184 234.713)" fill="#00a3df" />
            <path d="M143.287,249.4a5.206,5.206,0,0,1-6.736,3.883l-1.15,3.444a8.829,8.829,0,0,0,11.444-6.6Z" transform="translate(951.701 141.358)" fill="#ee4023" />
            <g transform="translate(1102.799 383.121)">
                <path d="M350.393,158.574a3.149,3.149,0,0,1-2.263.908,3.077,3.077,0,0,1-1.635-.492l-1.181,1.877a5.393,5.393,0,0,0,6.631-.7l-1.552-1.589Zm-2.134-7.652a5.383,5.383,0,0,0-4.594,8.318l9.749-4.171A5.39,5.39,0,0,0,348.259,150.922Zm-3.232,5.722a3.081,3.081,0,0,1-.023-.378,3.169,3.169,0,0,1,3.217-3.118,3.134,3.134,0,0,1,2.369,1.128Zm11.452-8.144v10.392l1.8.749-.855,2.051-1.786-.742a1.993,1.993,0,0,1-.878-.742,2.324,2.324,0,0,1-.348-1.287V148.5Zm6.5,4.806a3.183,3.183,0,0,1,4.11,2.377l2.172-.447a5.384,5.384,0,0,0-5.276-4.307,5.46,5.46,0,0,0-1.7.272Zm-2.566,7.032,1.468-1.658a3.172,3.172,0,0,1,0-4.746l-1.468-1.658a5.38,5.38,0,0,0,0,8.061Zm6.676-3.391a3.16,3.16,0,0,1-4.11,2.369l-.7,2.1a5.381,5.381,0,0,0,6.986-4.027Z" transform="translate(-342.793 -148.5)" fill="#fff" />
            </g>
        </g>
    </g>
</svg>