<svg xmlns="http://www.w3.org/2000/svg" width="60" height="42" viewBox="0 0 60 42">
    <defs>
        <style>.a{fill:#fff;}.b{fill:none;}.c{fill:#e7e7e7;}.d{fill:#7673c0;}.e{fill:#eb001b;}.f{fill:#00a1df;}</style>
    </defs>
    <g transform="translate(-99 -70)">
        <g transform="translate(-474 63)">
            <g transform="translate(153)">
                <path class="a" d="M54.857,42H5.143A5.085,5.085,0,0,1,0,36.96V5.04A5.085,5.085,0,0,1,5.143,0H54.857A5.085,5.085,0,0,1,60,5.04V36.96A5.085,5.085,0,0,1,54.857,42Z" transform="translate(420 7)" />
                <g transform="translate(420 7)">
                    <path class="b" d="M54.857,42H5.143A5.085,5.085,0,0,1,0,36.96V5.04A5.085,5.085,0,0,1,5.143,0H54.857A5.085,5.085,0,0,1,60,5.04V36.96A5.085,5.085,0,0,1,54.857,42Z" />
                    <path class="c" d="M54.857,1.68a3.4,3.4,0,0,1,3.429,3.36V36.96a3.4,3.4,0,0,1-3.429,3.36H5.143a3.4,3.4,0,0,1-3.429-3.36V5.04A3.4,3.4,0,0,1,5.143,1.68H54.857m0-1.68H5.143A5.085,5.085,0,0,0,0,5.04V36.96A5.085,5.085,0,0,0,5.143,42H54.857A5.085,5.085,0,0,0,60,36.96V5.04A5.085,5.085,0,0,0,54.857,0Z" />
                </g>
            </g>
        </g>
        <g transform="translate(-774.145 -7160.131)">
            <path d="M362.187,342.034v-1.718a1.016,1.016,0,0,0-1.074-1.085,1.059,1.059,0,0,0-.962.487,1,1,0,0,0-.9-.487.9.9,0,0,0-.8.406V339.3h-.6v2.734h.6V340.52a.638.638,0,0,1,.67-.727c.4,0,.6.258.6.721v1.52h.6V340.52a.644.644,0,0,1,.67-.727c.406,0,.6.258.6.721v1.52Zm3.349-1.366V339.3h-.6v.332a1.036,1.036,0,0,0-.859-.4,1.431,1.431,0,1,0,0,2.863,1.036,1.036,0,0,0,.859-.4v.332h.6Zm-2.213,0a.827.827,0,1,1,.83.876.819.819,0,0,1-.836-.876Zm14.935-1.431a1.538,1.538,0,0,1,.573.109,1.431,1.431,0,0,1,.467.3,1.386,1.386,0,0,1,.309.455,1.517,1.517,0,0,1,0,1.145,1.383,1.383,0,0,1-.309.455,1.43,1.43,0,0,1-.467.3,1.62,1.62,0,0,1-1.174,0,1.413,1.413,0,0,1-.464-.3,1.4,1.4,0,0,1-.306-.455,1.52,1.52,0,0,1,0-1.145,1.4,1.4,0,0,1,.306-.455,1.413,1.413,0,0,1,.464-.3,1.54,1.54,0,0,1,.6-.117Zm0,.573a.888.888,0,0,0-.341.063.8.8,0,0,0-.272.18.839.839,0,0,0-.18.286.993.993,0,0,0,0,.71.836.836,0,0,0,.18.286.8.8,0,0,0,.272.18.931.931,0,0,0,.678,0,.819.819,0,0,0,.286-.18.83.83,0,0,0,.18-.286.993.993,0,0,0,0-.71.83.83,0,0,0-.18-.286.819.819,0,0,0-.286-.18.887.887,0,0,0-.344-.08Zm-9.487.859a1.3,1.3,0,0,0-1.3-1.431,1.431,1.431,0,1,0,.04,2.863,1.66,1.66,0,0,0,1.119-.384l-.286-.441a1.3,1.3,0,0,1-.8.286.759.759,0,0,1-.819-.67h2.03A1.877,1.877,0,0,0,368.771,340.668Zm-2.035-.24a.7.7,0,0,1,.719-.661.679.679,0,0,1,.693.664Zm4.54-.429a1.76,1.76,0,0,0-.859-.235c-.326,0-.521.12-.521.321s.206.235.464.269l.286.04c.6.086.956.338.956.819s-.458.893-1.245.893a1.973,1.973,0,0,1-1.182-.355l.286-.464a1.457,1.457,0,0,0,.91.286c.407,0,.624-.12.624-.332,0-.155-.155-.24-.481-.286l-.286-.04c-.613-.086-.945-.361-.945-.807,0-.544.447-.876,1.145-.876a2.044,2.044,0,0,1,1.114.286Zm2.863-.155h-.97v1.234c0,.286.1.458.4.458a1.1,1.1,0,0,0,.527-.155l.172.509a1.4,1.4,0,0,1-.744.212c-.7,0-.95-.378-.95-1.013v-1.245h-.555V339.3h.555v-.83h.6v.83h.97Zm2.058-.613a1.272,1.272,0,0,1,.424.074l-.183.573a.967.967,0,0,0-.372-.069c-.389,0-.573.252-.573.7v1.532h-.6v-2.734h.59v.332a.807.807,0,0,1,.721-.4Zm4.117,2.4a.275.275,0,0,1,.258.163.266.266,0,0,1,0,.212.274.274,0,0,1-.149.143.27.27,0,0,1-.109.023.286.286,0,0,1-.258-.166.269.269,0,0,1,0-.212.273.273,0,0,1,.149-.143.284.284,0,0,1,.094-.02Zm0,.484a.2.2,0,0,0,.083-.017.214.214,0,0,0,.066-.046.212.212,0,0,0-.066-.344.205.205,0,0,0-.083-.017.215.215,0,0,0-.083.017.208.208,0,0,0-.069.046.206.206,0,0,0,.152.349Zm.017-.341a.115.115,0,0,1,.074.023.071.071,0,0,1,.026.06.069.069,0,0,1-.02.052.1.1,0,0,1-.06.026l.083.095h-.066l-.077-.095h-.026v.095h-.054v-.263Zm-.063.049v.069h.063a.061.061,0,0,0,.034,0,21.752,21.752,0,0,0,0-.052.061.061,0,0,0-.034,0Z" transform="translate(534.048 6921.892)" />
            <g transform="translate(886.145 7238.131)">
                <rect class="d" width="9.018" height="16.206" transform="translate(12.165 2.204)" />
                <path class="e" d="M350.493,271.122a10.289,10.289,0,0,1,3.936-8.1,10.306,10.306,0,1,0,0,16.206A10.289,10.289,0,0,1,350.493,271.122Z" transform="translate(-337.755 -260.813)" />
                <path class="f" d="M450.3,318.121V317.8h.135v-.069h-.341v.069h.135v.332Zm.661,0v-.4h-.1l-.12.286-.12-.286h-.106v.4h.074v-.3l.112.26h.077l.112-.26v.3Z" transform="translate(-417.932 -301.428)" />
                <path class="f" d="M412.672,271.119a10.306,10.306,0,0,1-16.672,8.1,10.306,10.306,0,0,0,0-16.206,10.306,10.306,0,0,1,16.675,8.1Z" transform="translate(-379.326 -260.811)" />
            </g>
        </g>
    </g>
</svg>