<svg xmlns="http://www.w3.org/2000/svg" xmlns:xlink="http://www.w3.org/1999/xlink" width="60" height="42" viewBox="0 0 60 42">
    <defs>
        <style>.a{fill:#fff;}.b{fill:none;}.c{fill:#e7e7e7;}.d{fill:url(#a);}.e{fill:url(#b);}.f{fill:url(#c);}.g{fill:url(#d);}.h{fill:url(#e);}</style>
        <linearGradient id="a" x1="-9.591" y1="-11.905" x2="-9.549" y2="-11.905" gradientUnits="objectBoundingBox">
            <stop offset="0" stop-color="#007940" />
            <stop offset="0.228" stop-color="#00873f" />
            <stop offset="0.743" stop-color="#40a737" />
            <stop offset="1" stop-color="#5cb531" />
        </linearGradient>
        <linearGradient id="b" x1="-3.111" y1="-0.528" x2="-3.097" y2="-0.528" xlink:href="#a" />
        <linearGradient id="c" x1="-10.468" y1="-11.393" x2="-10.423" y2="-11.393" xlink:href="#a" />
        <linearGradient id="d" x1="-0.88" y1="-0.528" x2="-0.866" y2="-0.528" gradientUnits="objectBoundingBox">
            <stop offset="0" stop-color="#1f286f" />
            <stop offset="0.475" stop-color="#004e94" />
            <stop offset="0.826" stop-color="#0066b1" />
            <stop offset="1" stop-color="#006fbc" />
        </linearGradient>
        <linearGradient id="e" x1="-1.998" y1="-0.527" x2="-1.984" y2="-0.527" gradientUnits="objectBoundingBox">
            <stop offset="0" stop-color="#6c2c2f" />
            <stop offset="0.174" stop-color="#882730" />
            <stop offset="0.573" stop-color="#be1833" />
            <stop offset="0.859" stop-color="#dc0436" />
            <stop offset="1" stop-color="#e60039" />
        </linearGradient>
    </defs>
    <g transform="translate(-573 -7)">
        <g transform="translate(153)">
            <path class="a" d="M54.857,42H5.143A5.085,5.085,0,0,1,0,36.96V5.04A5.085,5.085,0,0,1,5.143,0H54.857A5.085,5.085,0,0,1,60,5.04V36.96A5.085,5.085,0,0,1,54.857,42Z" transform="translate(420 7)" />
            <g transform="translate(420 7)">
                <path class="b" d="M54.857,42H5.143A5.085,5.085,0,0,1,0,36.96V5.04A5.085,5.085,0,0,1,5.143,0H54.857A5.085,5.085,0,0,1,60,5.04V36.96A5.085,5.085,0,0,1,54.857,42Z" />
                <path class="c" d="M54.857,1.68a3.4,3.4,0,0,1,3.429,3.36V36.96a3.4,3.4,0,0,1-3.429,3.36H5.143a3.4,3.4,0,0,1-3.429-3.36V5.04A3.4,3.4,0,0,1,5.143,1.68H54.857m0-1.68H5.143A5.085,5.085,0,0,0,0,5.04V36.96A5.085,5.085,0,0,0,5.143,42H54.857A5.085,5.085,0,0,0,60,36.96V5.04A5.085,5.085,0,0,0,54.857,0Z" />
            </g>
        </g>
        <g transform="translate(516.5 -96.4)">
            <path class="a" d="M105.142,132.553a5.856,5.856,0,0,1-5.847,5.847H67.5V115.247a5.856,5.856,0,0,1,5.847-5.847h31.795Z" transform="translate(0)" />
            <path class="d" d="M332.1,257.107h2.413c.072,0,.227-.021.3-.021a1.078,1.078,0,0,0,.856-1.083,1.113,1.113,0,0,0-.856-1.083,1.361,1.361,0,0,0-.3-.021H332.1Z" transform="translate(-237.312 -130.495)" />
            <path class="e" d="M316.218,128.4a4.19,4.19,0,0,0-4.187,4.187v4.352h5.909a2.632,2.632,0,0,1,.413.021c1.33.072,2.32.763,2.32,1.959a1.956,1.956,0,0,1-1.908,1.908v.041c1.361.093,2.393.856,2.393,2.021,0,1.268-1.155,2.094-2.671,2.094H312v8.508h6.147a4.19,4.19,0,0,0,4.187-4.187V128.4Z" transform="translate(-219.285 -17.041)" />
            <path class="f" d="M335.369,224.211a.979.979,0,0,0-.856-.99c-.041,0-.165-.021-.227-.021H332.1v2.021h2.186a.672.672,0,0,0,.227-.021A.972.972,0,0,0,335.369,224.211Z" transform="translate(-237.312 -102.064)" />
            <path class="g" d="M91.718,128.4a4.19,4.19,0,0,0-4.187,4.187v10.334a8.247,8.247,0,0,0,3.61.938,2,2,0,0,0,2.228-2.073v-4.868h3.589v4.847c0,1.887-1.176,3.424-5.156,3.424a17.764,17.764,0,0,1-4.3-.526v8.807h6.147a4.19,4.19,0,0,0,4.187-4.187V128.4Z" transform="translate(-17.937 -17.041)" />
            <path class="h" d="M204.187,128.4A4.19,4.19,0,0,0,200,132.587v5.476c1.062-.9,2.9-1.475,5.868-1.33a19.032,19.032,0,0,1,3.29.505v1.774a8.084,8.084,0,0,0-3.176-.918c-2.259-.165-3.61.938-3.61,2.877,0,1.959,1.361,3.063,3.61,2.877a8.444,8.444,0,0,0,3.176-.918V144.7a18.62,18.62,0,0,1-3.29.505c-2.97.134-4.806-.433-5.868-1.33v9.643h6.147a4.19,4.19,0,0,0,4.187-4.187V128.4Z" transform="translate(-118.835 -17.041)" />
        </g>
    </g>
</svg>