<svg xmlns="http://www.w3.org/2000/svg" width="60" height="42" viewBox="0 0 60 42">
    <defs>
        <style>.a{fill:#fff;}.b{fill:none;}.c{fill:#e7e7e7;}.d{fill:#1a1f71;}</style>
    </defs>
    <g transform="translate(-22 -70)">
        <g transform="translate(-478 63)">
            <g transform="translate(80)">
                <path class="a" d="M54.857,42H5.143A5.085,5.085,0,0,1,0,36.96V5.04A5.085,5.085,0,0,1,5.143,0H54.857A5.085,5.085,0,0,1,60,5.04V36.96A5.085,5.085,0,0,1,54.857,42Z" transform="translate(420 7)" />
                <g transform="translate(420 7)">
                    <path class="b" d="M54.857,42H5.143A5.085,5.085,0,0,1,0,36.96V5.04A5.085,5.085,0,0,1,5.143,0H54.857A5.085,5.085,0,0,1,60,5.04V36.96A5.085,5.085,0,0,1,54.857,42Z" />
                    <path class="c" d="M54.857,1.68a3.4,3.4,0,0,1,3.429,3.36V36.96a3.4,3.4,0,0,1-3.429,3.36H5.143a3.4,3.4,0,0,1-3.429-3.36V5.04A3.4,3.4,0,0,1,5.143,1.68H54.857m0-1.68H5.143A5.085,5.085,0,0,0,0,5.04V36.96A5.085,5.085,0,0,0,5.143,42H54.857A5.085,5.085,0,0,0,60,36.96V5.04A5.085,5.085,0,0,0,54.857,0Z" />
                </g>
            </g>
        </g>
        <g transform="translate(-39 -87.8)">
            <path class="d" d="M85.347,169.058l-6.155,14.679H75.175l-3.026-11.718a1.616,1.616,0,0,0-.9-1.288,15.392,15.392,0,0,0-3.747-1.249l.09-.425h6.464a1.779,1.779,0,0,1,1.751,1.494l1.6,8.5,3.953-9.992Zm5.421,0-3.142,14.679h-3.8l3.142-14.679Zm10.3,9.889c.013-3.876-5.357-4.095-5.318-5.82.013-.528.515-1.082,1.61-1.223a7.22,7.22,0,0,1,3.747.657l.67-3.116a10.136,10.136,0,0,0-3.554-.644c-3.76,0-6.4,2-6.413,4.855-.026,2.112,1.88,3.3,3.322,3.992,1.481.721,1.983,1.185,1.97,1.828-.013.979-1.185,1.416-2.266,1.442a8.016,8.016,0,0,1-3.9-.927l-.7,3.219a11.564,11.564,0,0,0,4.224.785C98.456,183.969,101.057,182,101.07,178.947Zm9.915,4.79H114.5l-3.065-14.679H108.19a1.741,1.741,0,0,0-1.622,1.082l-5.7,13.6h3.992l.785-2.189h4.867Zm-4.236-5.189,2-5.511,1.146,5.511ZM95.636,187.78H94.09v1.442h1.725v.438H93.575v-3.979h2.163v.438H94.09v1.262h1.545Zm.979-2.331h.515v4.2h-.515Zm1.828,2.872a.908.908,0,0,0,.979.992,2.012,2.012,0,0,0,.8-.142l.09.373a2.416,2.416,0,0,1-.953.18,1.329,1.329,0,0,1-1.4-1.442,1.376,1.376,0,0,1,1.339-1.532,1.2,1.2,0,0,1,1.185,1.339,1.329,1.329,0,0,1-.013.245H98.443Zm1.532-.373a.745.745,0,0,0-.721-.837.851.851,0,0,0-.8.837Zm3.322,1.61a2.045,2.045,0,0,1-.824.167,1.359,1.359,0,0,1-1.429-1.455,1.457,1.457,0,0,1,1.532-1.519,1.624,1.624,0,0,1,.721.155l-.116.4a1.3,1.3,0,0,0-.605-.142,1.078,1.078,0,0,0-.013,2.15,1.362,1.362,0,0,0,.644-.142Zm1.468-3.451v.682h.747v.4h-.747v1.545c0,.361.1.554.386.554a.865.865,0,0,0,.3-.039l.026.4a1.317,1.317,0,0,1-.464.077.737.737,0,0,1-.567-.219,1.1,1.1,0,0,1-.206-.747V187.2H103.8v-.4h.438v-.528Zm1.468,1.571c0-.335,0-.631-.026-.888h.451l.026.567h.013a.867.867,0,0,1,.8-.631.528.528,0,0,1,.142.013v.489a.737.737,0,0,0-.18-.013.72.72,0,0,0-.7.657,1.4,1.4,0,0,0-.013.245v1.519h-.515v-1.957Zm4.61.515a1.4,1.4,0,0,1-1.429,1.519,1.355,1.355,0,0,1-1.365-1.468,1.4,1.4,0,0,1,1.416-1.519A1.364,1.364,0,0,1,110.843,188.192Zm-2.266.039c0,.631.361,1.095.863,1.095s.863-.464.863-1.107c0-.489-.245-1.095-.863-1.095C108.847,187.124,108.577,187.69,108.577,188.231Zm3.065-.67a7.121,7.121,0,0,0-.026-.773h.464l.026.476h.013a1.05,1.05,0,0,1,.94-.528c.4,0,1,.232,1,1.223v1.7h-.515v-1.648c0-.464-.167-.85-.657-.85a.75.75,0,0,0-.7.528.7.7,0,0,0-.039.245v1.725h-.515Z" />
        </g>
    </g>
</svg>