<svg xmlns="http://www.w3.org/2000/svg" width="60" height="42.857" viewBox="0 0 60 42.857">
    <g transform="translate(-171 -699)">
        <path d="M58.147,5h-48A5.136,5.136,0,0,0,5,10.143V41a5.136,5.136,0,0,0,5.143,5.143h48A5.136,5.136,0,0,0,63.29,41V10.143A5.136,5.136,0,0,0,58.147,5Z" transform="translate(167 695)" fill="#0079be" />
        <path d="M192.317,80.757a11.034,11.034,0,0,0-11.286-10.91h-5.078a10.658,10.658,0,0,0-10.886,10.91,10.826,10.826,0,0,0,10.886,10.722h5.078C186.932,91.508,192.317,86.658,192.317,80.757Z" transform="translate(22.387 639.895)" fill="#fff" />
        <path d="M190.945,83.93a9.9,9.9,0,1,0,9.881,9.9,9.893,9.893,0,0,0-9.881-9.9Z" transform="translate(7.427 626.726)" fill="#0079be" />
        <path d="M237.066,151.7a6.286,6.286,0,0,1,4.02-5.857v11.714a6.283,6.283,0,0,1-4.02-5.856Zm8.5,5.859V145.847a6.277,6.277,0,0,1,0,11.717Z" transform="translate(-44.939 568.828)" fill="#fff" />
        <path d="M54.857,1.714a3.439,3.439,0,0,1,3.429,3.429V37.714a3.439,3.439,0,0,1-3.429,3.429H5.143a3.439,3.439,0,0,1-3.429-3.429V5.143A3.439,3.439,0,0,1,5.143,1.714H54.857m0-1.714H5.143A5.136,5.136,0,0,0,0,5.143V37.714a5.136,5.136,0,0,0,5.143,5.143H54.857A5.136,5.136,0,0,0,60,37.714V5.143A5.136,5.136,0,0,0,54.857,0Z" transform="translate(171 699)" fill="#e7e7e7" />
    </g>
</svg>