<svg xmlns="http://www.w3.org/2000/svg" width="60" height="42" viewBox="0 0 60 42">
    <defs>
        <style>.a{fill:#fff;}.b{fill:none;}.c{fill:#e7e7e7;}.d{fill:#ffbf00;}.e{fill:#161615;stroke:#161615;stroke-miterlimit:5;stroke-width:0.216px;}</style>
    </defs>
    <g transform="translate(-500 -7)">
        <g transform="translate(80)">
            <path class="a" d="M54.857,42H5.143A5.085,5.085,0,0,1,0,36.96V5.04A5.085,5.085,0,0,1,5.143,0H54.857A5.085,5.085,0,0,1,60,5.04V36.96A5.085,5.085,0,0,1,54.857,42Z" transform="translate(420 7)" />
            <g transform="translate(420 7)">
                <path class="b" d="M54.857,42H5.143A5.085,5.085,0,0,1,0,36.96V5.04A5.085,5.085,0,0,1,5.143,0H54.857A5.085,5.085,0,0,1,60,5.04V36.96A5.085,5.085,0,0,1,54.857,42Z" />
                <path class="c" d="M54.857,1.68a3.4,3.4,0,0,1,3.429,3.36V36.96a3.4,3.4,0,0,1-3.429,3.36H5.143a3.4,3.4,0,0,1-3.429-3.36V5.04A3.4,3.4,0,0,1,5.143,1.68H54.857m0-1.68H5.143A5.085,5.085,0,0,0,0,5.04V36.96A5.085,5.085,0,0,0,5.143,42H54.857A5.085,5.085,0,0,0,60,36.96V5.04A5.085,5.085,0,0,0,54.857,0Z" />
            </g>
        </g>
        <g transform="translate(333 -6)">
            <g transform="translate(184 21)">
                <rect class="a" width="25.553" height="25.5" transform="translate(0)" />
                <rect class="d" width="5.228" height="11.31" transform="translate(0.907 0.907)" />
                <rect class="d" width="5.228" height="11.31" transform="translate(7.042 0.907)" />
                <rect class="d" width="5.228" height="11.31" transform="translate(13.23 0.907)" />
                <rect class="d" width="5.228" height="11.31" transform="translate(19.365 0.907)" />
                <rect class="d" width="5.228" height="11.31" transform="translate(0.907 13.23)" />
                <rect class="d" width="5.228" height="11.31" transform="translate(7.042 13.23)" />
                <rect class="d" width="5.228" height="11.31" transform="translate(13.23 13.23)" />
                <rect class="d" width="5.228" height="11.31" transform="translate(19.365 13.23)" />
                <g transform="translate(1.808 2.572)">
                    <path class="e" d="M123.788,303.8v-8.164h1.186a5.377,5.377,0,0,1,.822.053,1.5,1.5,0,0,1,.631.261,1.408,1.408,0,0,1,.476.667,3.469,3.469,0,0,1,.178,1.23,3.118,3.118,0,0,1-.12.886,1.85,1.85,0,0,1-.345.674.958.958,0,0,1-.523.337v.023q.3.04.508.842l.769,3.191H126.3l-.576-2.548a2.965,2.965,0,0,0-.148-.494.6.6,0,0,0-.2-.265.555.555,0,0,0-.321-.083h-.308v3.39Zm.96-6.876v2.2h.315a.921.921,0,0,0,1.017-1.137,1.033,1.033,0,0,0-.275-.861,1.23,1.23,0,0,0-.742-.2Z" transform="translate(-123.788 -295.638)" />
                </g>
                <g transform="translate(8.238 2.572)">
                    <path class="e" d="M214.353,303.8v-8.164h2.825v1.288h-1.866v2.01h1.708v1.288h-1.708v2.29h1.881V303.8Z" transform="translate(-214.353 -295.638)" />
                </g>
                <g transform="translate(13.969 2.572)">
                    <path class="e" d="M295.066,303.8v-8.164H296.3q2.612,0,2.612,4.081a8.1,8.1,0,0,1-.2,1.976,3.411,3.411,0,0,1-.566,1.261,2.048,2.048,0,0,1-.825.654,2.626,2.626,0,0,1-1.017.193Zm.907-6.876v5.589h.506a1.035,1.035,0,0,0,.729-.336,2.368,2.368,0,0,0,.552-.972,4.784,4.784,0,0,0,.209-1.488,5.126,5.126,0,0,0-.123-1.172,3.247,3.247,0,0,0-.333-.885,1.687,1.687,0,0,0-.477-.548.959.959,0,0,0-.557-.187Z" transform="translate(-295.066 -295.638)" />
                </g>
                <g transform="translate(20.615 2.572)">
                    <path class="e" d="M388.665,303.8v-8.164h2.825v1.288h-1.866v2.01h1.708v1.288h-1.708v2.29h1.881V303.8Z" transform="translate(-388.665 -295.638)" />
                </g>
                <g transform="translate(2.052 14.755)">
                    <path class="e" d="M130.052,467.519l-.089,1.347a1.626,1.626,0,0,0-.975-.351.676.676,0,0,0-.528.266,1.339,1.339,0,0,0-.226.871.842.842,0,0,0,.169.615,9.067,9.067,0,0,0,.769.584,2.912,2.912,0,0,1,.88.925,2.963,2.963,0,0,1,.281,1.43,3.577,3.577,0,0,1-.24,1.407,1.6,1.6,0,0,1-1.558,1.059,2,2,0,0,1-.553-.06q-.2-.06-.675-.255l.089-1.479a1.608,1.608,0,0,0,1.084.505.8.8,0,0,0,.584-.274,1.072,1.072,0,0,0,.266-.779,1.008,1.008,0,0,0-.206-.719,6.446,6.446,0,0,0-.77-.608,2.381,2.381,0,0,1-1.123-2.286,3.74,3.74,0,0,1,.233-1.423,1.739,1.739,0,0,1,.613-.814,1.466,1.466,0,0,1,.827-.253A2.291,2.291,0,0,1,130.052,467.519Z" transform="translate(-127.233 -467.227)" />
                </g>
                <g transform="translate(7.811 14.895)">
                    <path class="e" d="M208.342,477.361V469.2h.96v3.3h1.923v-3.3h.96v8.164h-.96v-3.578H209.3v3.578Z" transform="translate(-208.342 -469.197)" />
                </g>
                <g transform="translate(13.739 14.755)">
                    <path class="e" d="M291.832,471.425a8.776,8.776,0,0,1,.248-2.2,3.391,3.391,0,0,1,.731-1.471,1.546,1.546,0,0,1,2.324.007,3.458,3.458,0,0,1,.739,1.483,8.605,8.605,0,0,1,.251,2.185,8.815,8.815,0,0,1-.25,2.2,3.539,3.539,0,0,1-.736,1.5,1.534,1.534,0,0,1-2.33.007,3.461,3.461,0,0,1-.73-1.492A9,9,0,0,1,291.832,471.425Zm.916,0a7.882,7.882,0,0,0,.126,1.455,2.938,2.938,0,0,0,.4,1.088.8.8,0,0,0,1.4,0,2.912,2.912,0,0,0,.4-1.088,7.932,7.932,0,0,0,.126-1.455,7.361,7.361,0,0,0-.131-1.422,2.919,2.919,0,0,0-.409-1.077.785.785,0,0,0-1.38,0,2.927,2.927,0,0,0-.408,1.077A7.366,7.366,0,0,0,292.748,471.425Z" transform="translate(-291.832 -467.227)" />
                </g>
                <g transform="translate(20.533 14.895)">
                    <path class="e" d="M387.51,477.361V469.2h1.214a1.944,1.944,0,0,1,1.445.557,2.667,2.667,0,0,1,.552,1.91,3.128,3.128,0,0,1-.5,1.975,1.638,1.638,0,0,1-1.341.624h-.405v3.1Zm.96-6.876v2.49h.337q.913,0,.913-1.217a1.51,1.51,0,0,0-.252-.972.82.82,0,0,0-.661-.3Z" transform="translate(-387.51 -469.197)" />
                </g>
            </g>
        </g>
    </g>
</svg>