<svg xmlns="http://www.w3.org/2000/svg" width="60" height="42.857" viewBox="0 0 60 42.857">
    <defs>
        <style>.a{fill:#f8f8f8;}.b{fill:#e7e7e7;}.c{fill:#f79f1a;}.d{fill:#ea001b;}.e{fill:#ff5f01;}</style>
    </defs>
    <g transform="translate(0 0)">
        <path class="a" d="M54.857,42.857H5.143A5.136,5.136,0,0,1,0,37.714V5.143A5.136,5.136,0,0,1,5.143,0H54.857A5.136,5.136,0,0,1,60,5.143V37.714A5.136,5.136,0,0,1,54.857,42.857Z" />
        <path class="b" d="M54.857,1.714a3.439,3.439,0,0,1,3.429,3.429V37.714a3.439,3.439,0,0,1-3.429,3.429H5.143a3.439,3.439,0,0,1-3.429-3.429V5.143A3.439,3.439,0,0,1,5.143,1.714H54.857m0-1.714H5.143A5.136,5.136,0,0,0,0,5.143V37.714a5.136,5.136,0,0,0,5.143,5.143H54.857A5.136,5.136,0,0,0,60,37.714V5.143A5.136,5.136,0,0,0,54.857,0Z" />
        <g transform="translate(12.762 10.75)">
            <path class="c" d="M172.439,73.231A10.661,10.661,0,1,1,161.778,62.55,10.674,10.674,0,0,1,172.439,73.231Z" transform="translate(-137.963 -62.55)" />
            <path class="d" d="M95.512,73.231A10.661,10.661,0,1,1,84.851,62.549,10.674,10.674,0,0,1,95.512,73.231Z" transform="translate(-74.19 -62.549)" />
            <path class="e" d="M155.19,75.8a10.732,10.732,0,0,0,0,16.833,10.732,10.732,0,0,0,0-16.833Z" transform="translate(-137.963 -73.531)" />
        </g>
    </g>
</svg>