<svg xmlns="http://www.w3.org/2000/svg" width="30.009" height="35.505" viewBox="0 0 30.009 35.505"><defs><style>.a{fill:#F47920;}.b{fill:#f2f2f2;}</style></defs><g transform="translate(-228 -1514.912)"><path class="a" d="M159.8,50.426a1.485,1.485,0,0,0-.4.056l-1.514.421-1.573-3.873a3.43,3.43,0,0,0-2.936-1.989H138.659a3.431,3.431,0,0,0-2.936,1.989L134.153,50.9l-1.5-.416a1.516,1.516,0,0,0-.4-.056,1.234,1.234,0,0,0-1.235,1.314v.9a1.606,1.606,0,0,0,1.594,1.613h.171l-.254.625a12.22,12.22,0,0,0-.751,3.847v7.694a1.606,1.606,0,0,0,1.6,1.612h2.083a1.605,1.605,0,0,0,1.594-1.612V64.5h17.92v1.922a1.605,1.605,0,0,0,1.6,1.612h2.083a1.605,1.605,0,0,0,1.594-1.612V58.728a12.2,12.2,0,0,0-.751-3.847l-.254-.625h.193a1.606,1.606,0,0,0,1.6-1.613v-.9A1.235,1.235,0,0,0,159.8,50.426ZM135.3,53.38l2.379-5.857a2.062,2.062,0,0,1,1.76-1.194H152.6a2.063,2.063,0,0,1,1.76,1.194l2.379,5.857a.8.8,0,0,1-.792,1.193H136.088A.8.8,0,0,1,135.3,53.38Zm5.31,7.41a.643.643,0,0,1-.638.645H135.45a.643.643,0,0,1-.638-.645V58.6a.643.643,0,0,1,.638-.645h4.519a.643.643,0,0,1,.638.645Zm16.574,0a.643.643,0,0,1-.638.645h-4.519a.643.643,0,0,1-.638-.645V58.6a.643.643,0,0,1,.638-.645h4.519a.643.643,0,0,1,.638.645Z" transform="translate(96.977 1482.385)"/><ellipse class="b" cx="10.453" cy="10.457" rx="10.453" ry="10.457" transform="translate(232.547 1514.912)"/><ellipse class="a" cx="0.747" cy="0.747" rx="0.747" ry="0.747" transform="translate(239.852 1523.355)"/><ellipse class="a" cx="0.747" cy="0.747" rx="0.747" ry="0.747" transform="translate(244.596 1526.387)"/><path class="a" d="M22.2,9.919l-.271-.37a1.165,1.165,0,0,1-.011-1.358l.264-.373a1.165,1.165,0,0,0-.4-1.7l-.4-.216a1.16,1.16,0,0,1-.6-1.219l.077-.45a1.163,1.163,0,0,0-1.1-1.355L19.3,2.861a1.167,1.167,0,0,1-1.069-.838L18.1,1.583A1.16,1.16,0,0,0,16.526.84L16.1,1.02A1.16,1.16,0,0,1,14.78.727l-.3-.34A1.16,1.16,0,0,0,12.733.4l-.3.344a1.164,1.164,0,0,1-1.322.311L10.687.881a1.165,1.165,0,0,0-1.567.769L9,2.092a1.156,1.156,0,0,1-1.054.853l-.458.026A1.162,1.162,0,0,0,6.411,4.344l.084.45A1.161,1.161,0,0,1,5.917,6.02l-.4.223a1.162,1.162,0,0,0-.373,1.7l.271.37a1.165,1.165,0,0,1,.011,1.358l-.264.373a1.165,1.165,0,0,0,.4,1.7l.4.216a1.16,1.16,0,0,1,.6,1.219l-.077.45a1.163,1.163,0,0,0,1.1,1.355L8.044,15a1.167,1.167,0,0,1,1.069.838l.128.439a1.16,1.16,0,0,0,1.578.743l.421-.179a1.16,1.16,0,0,1,1.325.293l.3.34a1.16,1.16,0,0,0,1.743-.015l.3-.344a1.164,1.164,0,0,1,1.322-.311l.425.176a1.165,1.165,0,0,0,1.567-.769l.121-.443A1.156,1.156,0,0,1,19.4,14.92l.458-.026a1.162,1.162,0,0,0,1.076-1.373l-.084-.45a1.161,1.161,0,0,1,.578-1.226l.4-.223A1.161,1.161,0,0,0,22.2,9.919ZM9.493,7.415a1.8,1.8,0,1,1,1.8,1.8A1.8,1.8,0,0,1,9.493,7.415Zm2.149,4.646a.44.44,0,0,1-.619.059h0a.44.44,0,0,1-.059-.619l4.726-5.693a.439.439,0,1,1,.677.56Zm4.4.187a1.8,1.8,0,1,1,1.8-1.8A1.8,1.8,0,0,1,16.043,12.247Z" transform="translate(229.301 1516.687)"/></g></svg>