<svg xmlns="http://www.w3.org/2000/svg" width="30" height="30" viewBox="0 0 30 30"><defs><style>.a{fill:#F47920;}</style></defs><path class="a" d="M29,17A12,12,0,1,0,17,29,12,12,0,0,0,29,17m3,0A15,15,0,1,1,17,2,15,15,0,0,1,32,17M14,13.25A2.25,2.25,0,1,1,11.75,11,2.307,2.307,0,0,1,14,13.25m10.5,0A2.25,2.25,0,1,1,22.25,11a2.307,2.307,0,0,1,2.25,2.25M17,24.845a8.19,8.19,0,0,1-6.285-2.715L12.845,20A4.9,4.9,0,0,0,17,21.845,4.9,4.9,0,0,0,21.155,20l2.13,2.13A8.19,8.19,0,0,1,17,24.845Z" transform="translate(-2 -2)"/></svg>