<svg xmlns="http://www.w3.org/2000/svg" width="30" height="30" viewBox="0 0 30 30"><defs><style>.a{fill:#000;}</style></defs><path class="a" d="M29,17A12,12,0,1,0,17,29,12,12,0,0,0,29,17m3,0A15,15,0,1,1,17,2,15,15,0,0,1,32,17m-9.75-6A2.25,2.25,0,1,1,20,13.25,2.307,2.307,0,0,1,22.25,11M14,13.25A2.25,2.25,0,1,1,11.75,11,2.307,2.307,0,0,1,14,13.25M17,20a8.14,8.14,0,0,1,6.285,2.715l-2.13,2.13A4.862,4.862,0,0,0,17,23a4.862,4.862,0,0,0-4.155,1.845l-2.13-2.13A8.14,8.14,0,0,1,17,20Z" transform="translate(-2 -2)"/></svg>
