<svg xmlns="http://www.w3.org/2000/svg" width="30" height="30.842" viewBox="0 0 30 30.842"><defs><style>.a{fill:#F47920;}</style></defs><path class="a" d="M17.274,22.818a5.4,5.4,0,1,1,5.4-5.4,5.4,5.4,0,0,1-5.4,5.4m11.458-3.9a11.981,11.981,0,0,0,.108-1.5,13.186,13.186,0,0,0-.108-1.542l3.254-2.514a.778.778,0,0,0,.185-.987L29.086,7.043a.758.758,0,0,0-.941-.339l-3.84,1.542A11.178,11.178,0,0,0,21.7,6.734l-.571-4.087A.78.78,0,0,0,20.358,2H14.19a.78.78,0,0,0-.771.648l-.571,4.087a11.178,11.178,0,0,0-2.606,1.511L6.4,6.7a.758.758,0,0,0-.941.339L2.378,12.378a.76.76,0,0,0,.185.987l3.254,2.514a13.186,13.186,0,0,0-.108,1.542,11.981,11.981,0,0,0,.108,1.5l-3.254,2.56a.76.76,0,0,0-.185.987L5.462,27.8a.775.775,0,0,0,.941.339l3.84-1.558a10.71,10.71,0,0,0,2.606,1.527l.571,4.087a.78.78,0,0,0,.771.648h6.168a.78.78,0,0,0,.771-.648l.571-4.087a11.229,11.229,0,0,0,2.606-1.527l3.84,1.558a.775.775,0,0,0,.941-.339l3.084-5.336a.778.778,0,0,0-.185-.987Z" transform="translate(-2.271 -2)"/></svg>