<svg xmlns="http://www.w3.org/2000/svg" xmlns:xlink="http://www.w3.org/1999/xlink" width="89" height="309" viewBox="0 0 89 309"><defs><style>.a{fill:#fff;}.b{opacity:0.266;clip-path:url(#a);}.c{fill:#aba4a6;stroke:#000;stroke-miterlimit:10;stroke-width:8px;}</style><clipPath id="a"><rect class="a" width="89" height="309" transform="translate(7961.289 704)"/></clipPath></defs><g class="b" transform="translate(-7961.289 -704)"><g transform="translate(7961 704)"><path class="c" d="M291.6,441.812v-1.485L178.326,553.6h1.485Z" transform="translate(-134.038 -238.479)"/><path class="c" d="M121.186,526.467h1.485l141.8-141.8v-1.485Z" transform="translate(-106.908 -211.349)"/><path class="c" d="M251.559,326.046,94,483.606v1.485L251.559,327.532Z" transform="translate(-94 -184.219)"/><path class="c" d="M251.559,268.906,94,426.466v1.485L251.559,270.392Z" transform="translate(-94 -157.088)"/><path class="c" d="M251.559,211.766,94,369.325v1.485L251.559,213.252Z" transform="translate(-94 -129.958)"/><path class="c" d="M251.559,154.626,94,312.186v1.485L251.559,156.112Z" transform="translate(-94 -102.828)"/><path class="c" d="M251.559,97.486,94,255.046v1.485L251.559,98.972Z" transform="translate(-94 -75.698)"/><path class="c" d="M243.338,56,94,205.338v1.485L244.823,56Z" transform="translate(-94 -56)"/><path class="c" d="M213.328,56,94,175.328v1.485L214.814,56Z" transform="translate(-94 -56)"/><path class="c" d="M183.319,56,94,145.319V146.8L184.8,56Z" transform="translate(-94 -56)"/><path class="c" d="M153.309,56,94,115.309v1.485L154.794,56Z" transform="translate(-94 -56)"/><path class="c" d="M123.3,56,94,85.3v1.485L124.784,56Z" transform="translate(-94 -56)"/><path class="c" d="M318.728,498.952v-1.485l-83.262,83.262h1.485Z" transform="translate(-161.169 -265.609)"/><path class="c" d="M345.858,556.091v-1.485l-53.252,53.252h1.485Z" transform="translate(-188.299 -292.739)"/><path class="c" d="M94,56v.774L94.774,56Z" transform="translate(-94 -56)"/><path class="c" d="M372.988,613.231v-1.485l-23.242,23.242h1.485Z" transform="translate(-215.429 -319.869)"/><path class="c" d="M277.828,412.812v-1.485l-128.5,128.5h1.485Z" transform="translate(-120.269 -224.71)"/><path class="c" d="M251.559,355.672v-1.485L94,511.745v.953h.533Z" transform="translate(-94 -197.579)"/><path class="c" d="M251.559,297.046,94,454.606v1.485L251.559,298.532Z" transform="translate(-94 -170.449)"/><path class="c" d="M251.559,239.906,94,397.466v1.485L251.559,241.392Z" transform="translate(-94 -143.319)"/><path class="c" d="M251.559,182.766,94,340.326v1.485L251.559,184.252Z" transform="translate(-94 -116.189)"/><path class="c" d="M251.559,125.626,94,283.186v1.485L251.559,127.112Z" transform="translate(-94 -89.059)"/><path class="c" d="M251.559,68.486,94,226.046v1.485L251.559,69.972Z" transform="translate(-94 -61.929)"/><path class="c" d="M228.107,56,94,190.107v1.485L229.593,56Z" transform="translate(-94 -56)"/><path class="c" d="M198.1,56,94,160.1v1.485L199.583,56Z" transform="translate(-94 -56)"/><path class="c" d="M168.088,56,94,130.088v1.485L169.573,56Z" transform="translate(-94 -56)"/><path class="c" d="M138.078,56,94,100.078v1.485L139.563,56Z" transform="translate(-94 -56)"/><path class="c" d="M108.068,56,94,70.068v1.485L109.554,56Z" transform="translate(-94 -56)"/><path class="c" d="M304.959,469.952v-1.485l-98.492,98.492h1.485Z" transform="translate(-147.399 -251.84)"/><path class="c" d="M332.089,527.091v-1.485l-68.483,68.483h1.485Z" transform="translate(-174.529 -278.97)"/><path class="c" d="M359.219,584.231v-1.485l-38.473,38.473h1.485Z" transform="translate(-201.66 -306.1)"/><path class="c" d="M386.349,641.372v-1.485l-8.463,8.463h1.485Z" transform="translate(-228.79 -333.23)"/></g></g></svg>