<svg xmlns="http://www.w3.org/2000/svg" width="93.671" height="30" viewBox="0 0 93.671 30"><defs><style>.a{fill:#6c6c6c;}</style></defs><g transform="translate(8.176 3.73)"><path class="a" d="M80.445,13.757v6.684h-.051a4.231,4.231,0,0,0-3.47-1.234c-3.238,0-6.168,2.518-6.143,6.733,0,4.216,2.879,6.53,5.835,6.53a4.694,4.694,0,0,0,4.215-2.134h.051l.18,1.825H85.4c-.05-.668-.1-2.339-.1-3.985V13.757Zm0,12.208a5,5,0,0,1-.051.875,2.142,2.142,0,0,1-2.132,1.8c-1.467,0-2.521-1.054-2.521-2.878,0-1.594.8-2.958,2.545-2.958a2.161,2.161,0,0,1,2.134,1.8,4.18,4.18,0,0,1,.026.567Z" transform="translate(-14.013 -10.032)"/><path class="a" d="M96.4,23.786c0-3.393-1.852-5.577-6.194-5.577a11.98,11.98,0,0,0-5.527,1.181l.848,3.033a8.791,8.791,0,0,1,3.829-1c1.9,0,2.211.566,2.211,1.028v.077c-4.78,0-7.814,1.567-7.814,4.96a4.1,4.1,0,0,0,4.422,3.985,4.76,4.76,0,0,0,3.7-1.388h.1l.257,1.08H96.6a18.013,18.013,0,0,1-.2-3.136v-4.24ZM91.718,26.15a3.056,3.056,0,0,1-.051.7,1.868,1.868,0,0,1-1.722,1.31c-.9,0-1.388-.411-1.388-1.131,0-1.028,1.027-1.567,3.162-1.567Z" transform="translate(-11.106 -9.034)"/><path class="a" d="M24.511,22.71c0-1.8-.051-3.266-.1-4.4h4.036l.18,1.62h.1a4.573,4.573,0,0,1,3.959-1.927,3.766,3.766,0,0,1,3.623,2.134h.05a5.725,5.725,0,0,1,1.878-1.594,5.113,5.113,0,0,1,2.391-.54c2.8,0,4.6,1.953,4.6,5.654v7.3H40.549V24.38c0-1.644-.564-2.518-1.67-2.518a1.592,1.592,0,0,0-1.542,1.157,3.394,3.394,0,0,0-.129.976v6.967H32.529V24.38c0-1.644-.564-2.518-1.67-2.518a1.642,1.642,0,0,0-1.542,1.13,2.567,2.567,0,0,0-.129.952v7.017H24.511Z" transform="translate(-24.407 -9.08)"/><path class="a" d="M49.639,31.268c4.062,0,7.377-2.467,7.377-6.785,0-3.8-2.9-6.477-7.094-6.477-4.859,0-7.557,2.878-7.557,6.734,0,4.165,3.315,6.528,7.248,6.528ZM49.69,27.9c-1.568,0-2.288-1.465-2.288-3.265,0-1.645.617-3.264,2.314-3.264,1.542,0,2.21,1.49,2.21,3.264,0,2.108-.821,3.265-2.21,3.265Z" transform="translate(-20.382 -9.08)"/><path class="a" d="M59.062,18.258l1.593,5.474a24.424,24.424,0,0,1,.618,2.751h.1c.155-.925.308-1.774.566-2.751l1.44-5.474h5.192L63.585,30.9H58.6L53.766,18.258Z" transform="translate(-17.826 -9.023)"/><path class="a" d="M72.856,34.231A13.964,13.964,0,0,1,69.962,25.7c0-3.545.742-6.773,2.911-9.241L69.41,14.6c-2.416,3.053-3.335,6.91-3.335,11.1a17.839,17.839,0,0,0,3.336,10.414Z" transform="translate(-15.068 -9.844)"/><path class="a" d="M74.595,13.215a2.5,2.5,0,1,1-2.5-2.5A2.5,2.5,0,0,1,74.595,13.215Z" transform="translate(-14.279 -10.714)"/></g><path class="a" d="M18.072,14.443a3.776,3.776,0,0,0,1.667.459c.585,0,.828-.192.828-.51s-.191-.484-.9-.725c-1.3-.433-1.795-1.134-1.782-1.872,0-1.17.993-2.049,2.533-2.049a4.092,4.092,0,0,1,1.744.37l-.332,1.337a3.1,3.1,0,0,0-1.349-.357c-.471,0-.738.191-.738.5s.241.458,1.005.726c1.184.406,1.669,1.017,1.681,1.922,0,1.17-.9,2.024-2.686,2.024a4.4,4.4,0,0,1-2.011-.446Z" transform="translate(-17.728 -7.201)"/><path class="a" d="M24.036,13.626c.05.8.852,1.185,1.757,1.185a5.11,5.11,0,0,0,1.717-.268l.255,1.311a5.892,5.892,0,0,1-2.252.394,2.987,2.987,0,0,1-3.322-3.169,3.118,3.118,0,0,1,3.144-3.322c2.011,0,2.775,1.567,2.775,3.107a4.553,4.553,0,0,1-.064.763ZM26.314,12.3a1.123,1.123,0,0,0-1.094-1.26,1.279,1.279,0,0,0-1.2,1.26Z" transform="translate(-16.728 -7.199)"/><path class="a" d="M27.965,11.885c0-.776-.026-1.425-.05-1.986h1.642l.076.841h.038a2.155,2.155,0,0,1,1.884-.994,1.762,1.762,0,0,1,1.706,1.07h.024a2.706,2.706,0,0,1,.815-.764,2.369,2.369,0,0,1,1.184-.306c1.2,0,2.1.84,2.1,2.711v3.665H35.5V12.738c0-.9-.293-1.426-.916-1.426a.962.962,0,0,0-.9.675,2,2,0,0,0-.064.5v3.639H31.733v-3.5c0-.776-.28-1.311-.9-1.311a.991.991,0,0,0-.9.688,1.307,1.307,0,0,0-.076.5v3.627H27.965Z" transform="translate(-15.445 -7.201)"/><path class="a" d="M38.842,8.634A.965.965,0,0,1,37.8,9.6a.969.969,0,1,1,1.044-.967Zm-2,7.954V10.365h1.935v6.224Z" transform="translate(-13.455 -7.667)"/><path class="a" d="M39.621,11.882c0-.776-.026-1.425-.05-1.986h1.68l.089.865h.038A2.234,2.234,0,0,1,43.3,9.756c1.273,0,2.228.854,2.228,2.687V16.12H43.592V12.672c0-.8-.279-1.349-.979-1.349a1.061,1.061,0,0,0-.993.725,1.383,1.383,0,0,0-.064.484V16.12H39.621Z" transform="translate(-12.832 -7.199)"/><path class="a" d="M51.848,12.941a3.123,3.123,0,0,1-3.283,3.322,3.049,3.049,0,0,1-3.221-3.207,3.115,3.115,0,0,1,3.335-3.31A3.026,3.026,0,0,1,51.848,12.941Zm-4.5.064c0,1.07.444,1.87,1.272,1.87.764,0,1.235-.75,1.235-1.883,0-.917-.356-1.859-1.235-1.859C47.7,11.133,47.343,12.088,47.343,13Z" transform="translate(-11.538 -7.201)"/><path class="a" d="M52.979,9.871l.841,2.889c.152.535.253,1.018.356,1.514h.038c.1-.508.2-.979.343-1.514l.8-2.889H57.4L55.08,16.095H53.145L50.88,9.871Z" transform="translate(-10.297 -7.173)"/><path class="a" d="M62.914,12.941a3.124,3.124,0,0,1-3.284,3.322,3.049,3.049,0,0,1-3.221-3.207,3.115,3.115,0,0,1,3.336-3.31A3.027,3.027,0,0,1,62.914,12.941ZM58.408,13c0,1.07.446,1.87,1.273,1.87.764,0,1.234-.75,1.234-1.883,0-.917-.356-1.859-1.234-1.859C58.764,11.133,58.408,12.088,58.408,13Z" transform="translate(-9.058 -7.201)"/><path class="a" d="M62.654,14.443a3.776,3.776,0,0,0,1.667.459c.585,0,.828-.192.828-.51s-.191-.484-.9-.725c-1.3-.433-1.795-1.134-1.781-1.872,0-1.17.993-2.049,2.533-2.049a4.09,4.09,0,0,1,1.743.37l-.331,1.337a3.1,3.1,0,0,0-1.349-.357c-.471,0-.738.191-.738.5s.241.458,1.005.726c1.184.406,1.667,1.017,1.68,1.922,0,1.17-.9,2.024-2.685,2.024a4.392,4.392,0,0,1-2.011-.446Z" transform="translate(-7.735 -7.201)"/></svg>