<svg xmlns="http://www.w3.org/2000/svg" width="72" height="54" viewBox="0 0 72 54">
  <g id="Group_605" data-name="Group 605" transform="translate(-994 -263)">
    <rect id="Rectangle_1760" data-name="Rectangle 1760" width="72" height="54" transform="translate(994 263)" fill="none"/>
    <g id="Group_585" data-name="Group 585" transform="translate(996 112)">
      <path id="Path_3647" data-name="Path 3647" d="M343.85,166A11.85,11.85,0,1,0,355.7,177.85,11.85,11.85,0,0,0,343.85,166Zm0,20.376a8.526,8.526,0,1,1,8.525-8.527A8.536,8.536,0,0,1,343.85,186.376Z" transform="translate(-288.288)" fill="#c4c4c4"/>
      <path id="Path_3648" data-name="Path 3648" d="M233.851,166a11.85,11.85,0,1,0,11.85,11.85A11.849,11.849,0,0,0,233.851,166Zm0,20.376a8.526,8.526,0,1,1,8.526-8.527A8.536,8.536,0,0,1,233.851,186.376Z" transform="translate(-192.773)" fill="#c4c4c4"/>
      <path id="Path_3649" data-name="Path 3649" d="M121.85,166A11.85,11.85,0,1,0,133.7,177.85,11.85,11.85,0,0,0,121.85,166Zm0,20.376a8.526,8.526,0,1,1,8.525-8.527A8.536,8.536,0,0,1,121.85,186.376Z" transform="translate(-95.517)" fill="#c4c4c4"/>
      <path id="Path_3650" data-name="Path 3650" d="M11.849,166A11.85,11.85,0,1,0,23.7,177.85,11.849,11.849,0,0,0,11.849,166Zm0,20.376a8.526,8.526,0,1,1,8.526-8.527A8.536,8.536,0,0,1,11.849,186.376Z" fill="#c4c4c4"/>
    </g>
  </g>
</svg>
