<svg xmlns="http://www.w3.org/2000/svg" width="72" height="54" viewBox="0 0 72 54">
  <g id="Group_604" data-name="Group 604" transform="translate(-884 -263)">
    <rect id="Rectangle_1759" data-name="Rectangle 1759" width="72" height="54" transform="translate(884 263)" fill="none"/>
    <g id="Group_593" data-name="Group 593" transform="translate(885 117.772)">
      <path id="Path_3683" data-name="Path 3683" d="M69.032,165.769a.5.5,0,0,1-.039.2l-.022.046-7.32,14.357a.516.516,0,0,1-.087.117.522.522,0,0,1-.092.073.491.491,0,0,1-.262.075H47.926a.562.562,0,0,0-.561.563v4.187a.5.5,0,0,1-.5.5H22.169a.5.5,0,0,1-.5-.5V181.2a.561.561,0,0,0-.426-.546.537.537,0,0,0-.135-.017H.5a.5.5,0,0,1-.428-.241A.492.492,0,0,1,0,180.129a.507.507,0,0,1,.039-.2l.022-.046,7.322-14.359a.542.542,0,0,1,.087-.115.464.464,0,0,1,.091-.073.506.506,0,0,1,.264-.075H21.107a.561.561,0,0,0,.561-.563v-4.2a.5.5,0,0,1,.5-.5H46.863a.5.5,0,0,1,.355.148.512.512,0,0,1,.147.356v4.2a.556.556,0,0,0,.1.314h0a.562.562,0,0,0,.465.248h20.6a.5.5,0,0,1,.355.148.517.517,0,0,1,.073.093A.494.494,0,0,1,69.032,165.769Z" fill="#ccc"/>
      <path id="Path_3684" data-name="Path 3684" d="M102.528,194.186l-3.4,6.666a.56.56,0,0,1-.5.306H83.918a.562.562,0,0,0-.561.563v4.128a.562.562,0,0,1-.561.563H65.743a.562.562,0,0,1-.561-.563v-4.128a.562.562,0,0,0-.561-.563H46.51a.563.563,0,0,1-.5-.819l3.4-6.666a.56.56,0,0,1,.5-.306H64.621a.562.562,0,0,0,.561-.563v-4.139a.562.562,0,0,1,.561-.563H82.8a.562.562,0,0,1,.561.563V192.8a.562.562,0,0,0,.561.563h18.111A.562.562,0,0,1,102.528,194.186Z" transform="translate(-39.754 -24.314)" fill="#fff"/>
      <path id="Path_3685" data-name="Path 3685" d="M74.27,188.1V206.41H65.743a.562.562,0,0,1-.561-.563V201.72a.562.562,0,0,0-.561-.563H46.51a.563.563,0,0,1-.5-.819l3.4-6.666a.56.56,0,0,1,.5-.306H64.621a.562.562,0,0,0,.561-.563v-4.139a.562.562,0,0,1,.561-.563H74.27Z" transform="translate(-39.754 -24.313)" fill="#fff"/>
    </g>
  </g>
</svg>
