<svg xmlns="http://www.w3.org/2000/svg" width="72" height="54" viewBox="0 0 72 54">
  <g id="Group_602" data-name="Group 602" transform="translate(-694 -263)">
    <rect id="Rectangle_1757" data-name="Rectangle 1757" width="72" height="54" transform="translate(694 263)" fill="none"/>
    <g id="Group_592" data-name="Group 592" transform="translate(699 141.965)">
      <g id="Group_574" data-name="Group 574" transform="translate(0 132.5)">
        <path id="Path_3678" data-name="Path 3678" d="M30.6,162.035c16.9,0,30.622-6.614,30.622-14.783,0-8.138-13.72-14.752-30.622-14.752C13.678,132.5,0,139.114,0,147.252c0,8.169,13.678,14.783,30.6,14.783Z" transform="translate(0 -132.5)" fill="#c4c4c4"/>
        <g id="Group_573" data-name="Group 573" transform="translate(11.288 5.241)">
          <path id="Path_3679" data-name="Path 3679" d="M178.326,230.854a2.811,2.811,0,0,1-2.6-1.509,7.73,7.73,0,0,1-.721.459l-.011.006-.05.025a1.078,1.078,0,0,1-.492.162.493.493,0,0,1-.275-.083l-.025-.017-.022-.02a1.4,1.4,0,0,1-.463-.809l-.1-.73.512.2c.062-.047.144-.11.228-.175l.133-.1a2.618,2.618,0,0,0,.843-.9l.008-.021.007-.011c.157-.322.4-.784.616-1.191l.178-.337a4.668,4.668,0,0,1,4.013-2.911h.015a.874.874,0,0,1,.788.389c.023.023.505-.319.82-.318a.747.747,0,0,1,.568.215,3.07,3.07,0,0,1,.749,1.654,6.675,6.675,0,0,1,2.369-2.02,1.5,1.5,0,0,1,.681-.118h.075a1.749,1.749,0,0,1,1.392.557,1.512,1.512,0,0,1,.241.388,2.676,2.676,0,0,1,1.864-.824q.077,0,.157.005a1.554,1.554,0,0,1,1.573,1.564v.017a1.681,1.681,0,0,1-1.575,1.648h-.013a1.565,1.565,0,0,1-1.346-.653,1.355,1.355,0,0,0-.118.411l0,.011c2.366,1.394,3.115-.577,3.382-.854,1.034-1.074,2.011-2.088,3.856-2.081h.051a2.11,2.11,0,0,1,1.842,1.024l2.49-4.164a.21.21,0,0,1,.181-.1l2.224.008a.21.21,0,0,1,.182.313c-.913,1.6-5.042,8.859-5.075,8.95.432-.1,1.013-.774,2.352-2.169,0,0,.433-.54.959-.366.312.1.695.269.693.651,0,.317-1.544,3.825-4.721,3.825h-.011a1.475,1.475,0,0,1-1.45-.728,6.177,6.177,0,0,1-2.68.648,2.2,2.2,0,0,1-2.11-1.414,2.773,2.773,0,0,1-.239-1.153,4.463,4.463,0,0,1-1.093.107c-.1,0-.211,0-.323-.006a2.031,2.031,0,0,1-1.793-.948l-.131.238c-.481.871-1.423,2.609-1.668,3.061a.208.208,0,0,1-.185.109l-2.372-.009a.21.21,0,0,1-.181-.316l2.409-4.131c.225-.885-1.21.328-2.339,1.67C181.718,229.017,180.47,230.862,178.326,230.854Zm.18-2.715c1.642,0,2.243-2.118,1.973-2.345-.612-.515-2.094-.1-2.4,1.481A.672.672,0,0,0,178.506,228.138Zm15-1.828a1.772,1.772,0,0,0-.525,1.528c.058.157,1.1.639,2.055-.566a1.633,1.633,0,0,0,.4-1.334C195.375,225.751,194.639,225.252,193.508,226.31Z" transform="translate(-164.1 -214.464)" fill="#fff"/>
          <path id="Path_3680" data-name="Path 3680" d="M121.192,184a2.286,2.286,0,0,1-1.639-.7,2.746,2.746,0,0,1-.766-1.939,3.835,3.835,0,0,1,1.889-3.157c1.358-.9,3.853-2.423,9.3-1.666,1.706.237,5.588,1.729,11.512,1.176a3.676,3.676,0,0,1,.535-.061c.385,0,.844.132.844.761,0,1.108-2.793,2.341-4.686,2.341a20.147,20.147,0,0,1-6.192-1.316c-.63-.21-1.174-.392-1.566-.48a19.847,19.847,0,0,0-4.055-.667c-2.863,0-4.138.893-4.643,1.425a1.867,1.867,0,0,0-.574,1.384.53.53,0,0,0,.589.522,1.15,1.15,0,0,0,.214-.021,3.193,3.193,0,0,0,1.942-1.345.658.658,0,0,1,.611-.405.609.609,0,0,1,.583.776C124.949,181.58,123.571,184,121.192,184Z" transform="translate(-115.871 -176.334)" fill="#fff"/>
          <path id="Path_3681" data-name="Path 3681" d="M98.459,219a3.853,3.853,0,0,1-4.055-3.89,3.745,3.745,0,0,1,.877-2.356,4.683,4.683,0,0,1,2.548-1.582l.054-.013h.056a.691.691,0,0,1,.782.672.779.779,0,0,1-.553.7l-.013.006-.014.005a2.715,2.715,0,0,0-1.306,2,1.47,1.47,0,0,0,.99,1.44l.018,0c2.7.562,4.116-1.583,6.586-4.889a2.973,2.973,0,0,0-1.267.431,1.674,1.674,0,0,1-.529.235.653.653,0,0,1-.627-.532l-.014-.055v-.056a1.123,1.123,0,0,1,.222-.556l.011-.015.012-.014c.654-.736,2.126-1,3.349-1.143,1.766-2.683,2.273-2.9,2.709-2.9a.856.856,0,0,1,.283.05l.046.015c.26.087,1.2.615-.076,2.307.231-.032.813-.072.951-.234.314-1.719,2.281-2.187,2.834-.388.23.748-.3,1.215-.753,1.539a10.859,10.859,0,0,1-3.83,1.207C103.552,217.748,101.37,219,98.459,219Z" transform="translate(-94.404 -202.876)" fill="#fff"/>
        </g>
      </g>
      <path id="Path_3682" data-name="Path 3682" d="M41.607,169.559c-7.67,0-14.889-1.37-20.328-3.857-5.661-2.589-8.779-6.117-8.779-9.936s3.118-7.328,8.779-9.913C26.721,143.369,33.94,142,41.607,142s14.88,1.368,20.33,3.853c5.672,2.587,8.8,6.107,8.8,9.913s-3.124,7.346-8.8,9.936C56.49,168.189,49.27,169.559,41.607,169.559Zm0-25.765c-7.415,0-14.369,1.311-19.582,3.691-4.913,2.243-7.73,5.262-7.73,8.281,0,3.076,2.746,6.025,7.731,8.3,5.21,2.383,12.164,3.695,19.582,3.695s14.367-1.312,19.585-3.695c4.924-2.248,7.748-5.275,7.748-8.3s-2.824-6.036-7.747-8.281C55.971,145.1,49.016,143.794,41.607,143.794Z" transform="translate(-11.005 -8.364)" fill="#fff"/>
    </g>
  </g>
</svg>
