<svg xmlns="http://www.w3.org/2000/svg" width="72" height="54" viewBox="0 0 72 54">
  <g id="Group_601" data-name="Group 601" transform="translate(-596 -263)">
    <rect id="Rectangle_1756" data-name="Rectangle 1756" width="72" height="54" transform="translate(596 263)" fill="none"/>
    <g id="Group_591" data-name="Group 591" transform="translate(606 157.186)">
      <path id="Path_3676" data-name="Path 3676" d="M25.987,119C11.635,119,0,125.227,0,132.908s11.635,13.907,25.987,13.907,25.987-6.226,25.987-13.907S40.339,119,25.987,119Zm16.894,20.978a33.984,33.984,0,0,1-12.94,3.533q-1.153.1-2.334.14-.8.03-1.62.029A39.256,39.256,0,0,1,11.74,141.2q-.955-.378-1.844-.811-.409-.2-.8-.411c-3.785-2.025-5.956-4.6-5.956-7.071s2.171-5.046,5.956-7.072a33.532,33.532,0,0,1,12.27-3.469q1.136-.118,2.3-.174c.767-.039,1.542-.058,2.324-.058a39.579,39.579,0,0,1,13.926,2.356q.927.354,1.791.758c.4.188.8.384,1.177.588,3.785,2.025,5.956,4.6,5.956,7.072S46.666,137.953,42.881,139.978Z" transform="translate(0 0)" fill="#ccc"/>
      <path id="Path_3677" data-name="Path 3677" d="M129.295,153.5c-3.284,5.678-9.24,14.546-11.764,18.264q-1.153.1-2.334.14c1.12-3.2,2.87-10.1-2.905-10.1-5.615,0-10.732,5.081-12.962,7.653q-.955-.378-1.844-.811a129.966,129.966,0,0,1,11.467-18.022q1.136-.118,2.3-.175c-1.295,3.288-2.426,8.478,3.326,8.478,5.727,0,10.473-3.769,12.924-6.181Q128.43,153.1,129.295,153.5Z" transform="translate(-87.59 -28.255)" fill="#ccc"/>
    </g>
  </g>
</svg>
