<svg xmlns="http://www.w3.org/2000/svg" width="72" height="54" viewBox="0 0 72 54">
  <g id="Group_600" data-name="Group 600" transform="translate(-495 -263)">
    <rect id="Rectangle_1755" data-name="Rectangle 1755" width="72" height="54" transform="translate(495 263)" fill="none"/>
    <g id="Group_590" data-name="Group 590" transform="translate(498 124.382)">
      <g id="Group_570" data-name="Group 570" transform="translate(0 153)">
        <path id="Path_3672" data-name="Path 3672" d="M16.061,153H10.208a.517.517,0,0,0-.517.517v15.039s-.129,1.726-1.682,1.726-1.664-1.726-1.664-1.726v-3.45a.517.517,0,0,0-.517-.517H.517a.517.517,0,0,0-.517.517v4.359s.333,6.018,8.169,6.018c8.137,0,8.383-7.41,8.383-7.41l.026-14.554A.517.517,0,0,0,16.061,153Z" transform="translate(0 -153)" fill="#c4c4c4"/>
        <path id="Path_3673" data-name="Path 3673" d="M148,196.308a2.44,2.44,0,0,1,2.369,2.2.386.386,0,0,1-.385.436H145.43a.129.129,0,0,1-.129-.139A2.563,2.563,0,0,1,148,196.308Zm7.2,5.835a.389.389,0,0,0,.388-.4c-.1-5.99-2.594-9.309-8.051-9.309-4.492,0-7.435,4.265-7.435,8.906,0,5.36,3.408,8.4,7.9,8.4a7.218,7.218,0,0,0,7.091-4.506.389.389,0,0,0-.359-.535h-4.288a.385.385,0,0,0-.3.148,2.781,2.781,0,0,1-2.141.972c-1.568,0-2.48-1.557-2.736-3.239a.386.386,0,0,1,.384-.44H155.2Z" transform="translate(-122.002 -187.34)" fill="#c4c4c4"/>
        <path id="Path_3674" data-name="Path 3674" d="M274.9,196.308a2.441,2.441,0,0,1,2.369,2.2.386.386,0,0,1-.385.436H272.33a.129.129,0,0,1-.129-.139A2.563,2.563,0,0,1,274.9,196.308Zm7.2,5.835a.389.389,0,0,0,.388-.4c-.1-5.99-2.594-9.309-8.051-9.309-4.492,0-7.435,4.265-7.435,8.906,0,5.36,3.408,8.4,7.9,8.4A7.218,7.218,0,0,0,282,205.236a.389.389,0,0,0-.359-.535h-4.288a.385.385,0,0,0-.3.148,2.781,2.781,0,0,1-2.141.972c-1.568,0-2.48-1.557-2.736-3.239a.386.386,0,0,1,.384-.44H282.1Z" transform="translate(-232.505 -187.34)" fill="#c4c4c4"/>
        <path id="Path_3675" data-name="Path 3675" d="M399.583,192.439c-3.313,0-4.325,2.16-4.325,2.16v-1.373a.388.388,0,0,0-.388-.388H390.28a.388.388,0,0,0-.388.388v20.347a.388.388,0,0,0,.388.388h4.75a.388.388,0,0,0,.388-.388V207.08a4.557,4.557,0,0,0,4.085,2.16s6.167-.1,6.167-8.321S400.711,192.439,399.583,192.439ZM397.7,204.561c-1.881,0-2.529-1.637-2.529-3.656s.749-3.657,2.529-3.657,2.529,1.637,2.529,3.657S399.581,204.561,397.7,204.561Z" transform="translate(-339.513 -187.343)" fill="#c4c4c4"/>
      </g>
    </g>
  </g>
</svg>
