<svg xmlns="http://www.w3.org/2000/svg" width="72" height="54" viewBox="0 0 72 54">
  <g id="Group_599" data-name="Group 599" transform="translate(-400 -263)">
    <rect id="Rectangle_1754" data-name="Rectangle 1754" width="72" height="54" transform="translate(400 263)" fill="none"/>
    <g id="Group_589" data-name="Group 589" transform="translate(416 269.938)">
      <path id="Path_3670" data-name="Path 3670" d="M20.3,0A20.3,20.3,0,1,0,40.6,20.3,20.3,20.3,0,0,0,20.3,0Zm0,37.741A17.443,17.443,0,1,1,37.74,20.3,17.461,17.461,0,0,1,20.3,37.741Z" fill="#c4c4c4"/>
      <g id="Group_568" data-name="Group 568" transform="translate(4.957 2.778)">
        <path id="Path_3671" data-name="Path 3671" d="M93.194,61.165l0,0v0a.048.048,0,0,1-.027.02h0l-.178-.068-14.96-5.665a.476.476,0,0,0-.337,0L62.73,61.122l-.181.069a.051.051,0,0,1-.025-.019v0a.007.007,0,0,1,0-.006.055.055,0,0,1,0-.041L62.648,61,74.287,50.5a.476.476,0,0,0,.146-.25L77.769,35.2l.007-.031.021-.1a.085.085,0,0,1,.037-.038.04.04,0,0,1,.022-.006h0a.046.046,0,0,1,.02,0,.086.086,0,0,1,.039.042s0,0,0,0l.02.091.007.034L81.28,50.247a.476.476,0,0,0,.146.25L93.063,61s0,0,0,0l.133.12h0A.055.055,0,0,1,93.194,61.165Z" transform="translate(-62.515 -35.03)" fill="#c4c4c4"/>
      </g>
    </g>
  </g>
</svg>
