<svg xmlns="http://www.w3.org/2000/svg" width="72" height="54" viewBox="0 0 72 54">
  <g id="Group_598" data-name="Group 598" transform="translate(-316 -263)">
    <rect id="Rectangle_1753" data-name="Rectangle 1753" width="72" height="54" transform="translate(316 263)" fill="none"/>
    <g id="Group_588" data-name="Group 588" transform="translate(329 245.699)">
      <path id="Path_3662" data-name="Path 3662" d="M44.4,23.971A20.433,20.433,0,1,0,64.833,44.4,20.433,20.433,0,0,0,44.4,23.971Zm0,36.326A15.893,15.893,0,1,1,60.292,44.4,15.892,15.892,0,0,1,44.4,60.3Z" transform="translate(-21.855)" fill="#c4c4c4"/>
      <path id="Path_3663" data-name="Path 3663" d="M44.736,199.142H.353A.353.353,0,0,1,0,198.79V187.341a.353.353,0,0,1,.353-.353H44.736a.353.353,0,0,1,.353.353V198.79A.353.353,0,0,1,44.736,199.142Z" transform="translate(0 -148.661)" fill="#c4c4c4"/>
      <g id="Group_566" data-name="Group 566" transform="translate(2.751 40.366)">
        <path id="Path_3664" data-name="Path 3664" d="M36.966,210.143a.661.661,0,0,0-.66.662v4.77l-3.878-5.168a.66.66,0,0,0-1.188.4v6.752a.66.66,0,1,0,1.321,0v-4.77l3.878,5.168a.66.66,0,0,0,1.188-.4V210.8A.661.661,0,0,0,36.966,210.143Z" transform="translate(-31.24 -210.143)" fill="#fff"/>
        <path id="Path_3665" data-name="Path 3665" d="M413.96,210.143a.661.661,0,0,0-.66.662v4.77l-3.878-5.168a.66.66,0,0,0-1.188.4v6.752a.66.66,0,1,0,1.321,0v-4.77l3.878,5.168a.66.66,0,0,0,1.188-.4V210.8A.661.661,0,0,0,413.96,210.143Z" transform="translate(-375.035 -210.143)" fill="#fff"/>
        <path id="Path_3666" data-name="Path 3666" d="M122.511,210.143a.661.661,0,0,0-.66.662v6.752a.66.66,0,1,0,1.321,0V210.8A.661.661,0,0,0,122.511,210.143Z" transform="translate(-113.871 -210.143)" fill="#fff"/>
        <path id="Path_3667" data-name="Path 3667" d="M157.46,211.468h3.381a.662.662,0,0,0,0-1.324H157.46a2.35,2.35,0,0,0,0,4.7h1.7a1.026,1.026,0,0,1,0,2.052h-3.382a.662.662,0,0,0,0,1.324h3.382a2.35,2.35,0,0,0,0-4.7h-1.7a1.026,1.026,0,0,1,0-2.052Z" transform="translate(-144.206 -210.144)" fill="#fff"/>
        <path id="Path_3668" data-name="Path 3668" d="M242.144,211.468h3.381a.662.662,0,0,0,0-1.324h-3.381a2.35,2.35,0,0,0,0,4.7h1.7a1.026,1.026,0,0,1,0,2.052h-3.382a.662.662,0,0,0,0,1.324h3.382a2.35,2.35,0,0,0,0-4.7h-1.7a1.026,1.026,0,0,1,0-2.052Z" transform="translate(-221.433 -210.144)" fill="#fff"/>
        <path id="Path_3669" data-name="Path 3669" d="M327.677,210.143a3.2,3.2,0,0,0-3.193,3.2v4.214a.66.66,0,1,0,1.321,0v-2.714h3.745v2.714a.66.66,0,1,0,1.321,0v-4.214A3.2,3.2,0,0,0,327.677,210.143Zm-1.873,3.376v-.176a1.873,1.873,0,1,1,3.745,0v.176Z" transform="translate(-298.66 -210.143)" fill="#fff"/>
      </g>
    </g>
  </g>
</svg>
