<svg xmlns="http://www.w3.org/2000/svg" width="72" height="54" viewBox="0 0 72 54">
  <g id="Group_597" data-name="Group 597" transform="translate(-235 -263)">
    <rect id="Rectangle_1752" data-name="Rectangle 1752" width="72" height="54" transform="translate(235 263)" fill="none"/>
    <g id="Group_587" data-name="Group 587" transform="translate(208.002 269.938)">
      <path id="Path_3659" data-name="Path 3659" d="M79.6,20.345,68.048.161A.32.32,0,0,0,67.771,0h-9.9a.32.32,0,0,0-.277.161L46.042,20.345a.32.32,0,0,0,0,.319L57.59,40.847a.379.379,0,0,0,.022.034h0a.322.322,0,0,0,.093.082.3.3,0,0,0,.123.041.207.207,0,0,0,.038,0h9.9a.32.32,0,0,0,.277-.161L79.6,20.663A.32.32,0,0,0,79.6,20.345Zm-22.561.311a.322.322,0,0,1,0-.3L62.819,9.574,68.6,20.353a.322.322,0,0,1,0,.3L62.819,31.434Z" transform="translate(-0.001 0)" fill="#c4c4c4"/>
      <path id="Path_3660" data-name="Path 3660" d="M67.765.354l-.805,1.5-3.113,5.8L62.818,9.574,57.034,20.353a.318.318,0,0,0,0,.3l5.784,10.779-1.029,1.917-3.219,6h0l-.688,1.282-.177.331-.01.017a.209.209,0,0,1-.064-.06l-.01-.016-.033-.058L46.041,20.663a.32.32,0,0,1,0-.319L57.589.161A.32.32,0,0,1,57.866,0h9.688A.24.24,0,0,1,67.765.354Z" transform="translate(0 0)" fill="#c4c4c4"/>
      <path id="Path_3661" data-name="Path 3661" d="M67.765.354l-.805,1.5-3.113,5.8L62.818,9.574,57.034,20.353a.318.318,0,0,0,0,.3l5.784,10.779-1.029,1.917-3.219,6h0l-.688,1.282-.177.331-.01.017a.209.209,0,0,1-.064-.06l-.01-.016-.033-.058L46.041,20.663a.32.32,0,0,1,0-.319L57.589.161A.32.32,0,0,1,57.866,0h9.688A.24.24,0,0,1,67.765.354Z" transform="translate(0 0)" fill="#c4c4c4"/>
    </g>
  </g>
</svg>
