<svg xmlns="http://www.w3.org/2000/svg" width="72" height="54" viewBox="0 0 72 54">
  <g id="Group_596" data-name="Group 596" transform="translate(-154 -263)">
    <rect id="Rectangle_1751" data-name="Rectangle 1751" width="72" height="54" transform="translate(154 263)" fill="none"/>
    <path id="Path_3768" data-name="Path 3768" d="M22.8,85C10.205,85,0,91.817,0,100.227s10.205,15.227,22.8,15.227,22.8-6.817,22.8-15.227S35.385,85,22.8,85Zm11.442,5.962a1.225,1.225,0,0,1,0,1.981A14.565,14.565,0,0,1,29.459,95c-.043-.156-.088-.311-.136-.463-1.008-3.274-2.876-5.689-5.106-6.419C29.247,88.359,32.712,89.834,34.237,90.962Zm-15.36,7.952a35.124,35.124,0,0,0,7.837,0q.041.59.042,1.214c0,5.339-2.384,8.882-3.96,8.882s-3.961-3.542-3.961-8.882Q18.834,99.505,18.877,98.914Zm7.252-3.3a28.618,28.618,0,0,1-3.334.19q-.586,0-1.147-.022H21.64c-.762-.028-1.488-.086-2.179-.167.815-2.732,2.261-4.373,3.334-4.373S25.314,92.887,26.129,95.618ZM11.356,90.951a16.706,16.706,0,0,1,6.813-2.492l.171-.028a27.225,27.225,0,0,1,3.033-.311c-2.335.764-4.271,3.374-5.242,6.881a14.466,14.466,0,0,1-4.779-2.068A1.225,1.225,0,0,1,11.356,90.951Zm12.82,21.58c-.077,0-.154.007-.231.01h0q-.57.023-1.147.023c-10.526,0-19.419-5.649-19.419-12.337a9.56,9.56,0,0,1,3.557-7.014c.793,2.216,4.113,4.126,8.6,5.141q-.077.87-.077,1.775c0,6.759,3.285,12.239,7.338,12.239s7.337-5.48,7.337-12.239q0-.9-.077-1.775c4.487-1.015,7.807-2.925,8.6-5.141a9.563,9.563,0,0,1,3.557,7.014C42.213,106.62,34.087,112.064,24.176,112.531Zm5.147-17.992c.041.156.086.311.136.463C29.416,94.846,29.371,94.691,29.323,94.539Z" transform="translate(167 189.938)" fill="#c4c4c4"/>
  </g>
</svg>
