<svg xmlns="http://www.w3.org/2000/svg" width="72" height="54" viewBox="0 0 72 54">
  <g id="Group_595" data-name="Group 595" transform="translate(-68 -263)">
    <rect id="Rectangle_1750" data-name="Rectangle 1750" width="72" height="54" transform="translate(68 263)" fill="none"/>
    <g id="Group_586" data-name="Group 586" transform="translate(83 269)">
      <path id="Path_3651" data-name="Path 3651" d="M21.138,0A21.138,21.138,0,1,0,42.275,21.134,21.139,21.139,0,0,0,21.138,0Z" fill="#c4c4c4"/>
      <path id="Path_3652" data-name="Path 3652" d="M54.22,72.333A18.163,18.163,0,1,1,72.381,54.17,18.182,18.182,0,0,1,54.22,72.333Z" transform="translate(-33.083 -33.033)" fill="#fff"/>
      <g id="Group_563" data-name="Group 563" transform="translate(5.862 5.862)">
        <path id="Path_3653" data-name="Path 3653" d="M204.835,71.8a.182.182,0,0,1,.116-.251,15.386,15.386,0,0,1,8.183,0,.182.182,0,0,1,.116.25l-4.039,8.954a.182.182,0,0,1-.332,0Z" transform="translate(-193.77 -71)" fill="#c4c4c4"/>
        <path id="Path_3654" data-name="Path 3654" d="M127.715,100.93a15.363,15.363,0,0,1,3.9,3.683.183.183,0,0,1,.019.184l-6.848,15.155a.182.182,0,0,1-.326.011l-2.493-4.656a.182.182,0,0,0-.16-.1h-4.933a.182.182,0,0,0-.16.1l-2.493,4.656a.182.182,0,0,1-.326-.011l-6.838-15.169a.183.183,0,0,1,.02-.184,15.356,15.356,0,0,1,3.888-3.668.182.182,0,0,1,.264.075l5.487,11.645a.182.182,0,0,0,.164.1h4.937a.182.182,0,0,0,.165-.1l5.469-11.645A.182.182,0,0,1,127.715,100.93Z" transform="translate(-104.064 -98.431)" fill="#c4c4c4"/>
        <path id="Path_3655" data-name="Path 3655" d="M71.732,212.725a.182.182,0,0,0-.343.033,15.3,15.3,0,0,0,7.6,16.871.182.182,0,0,0,.252-.235Z" transform="translate(-71 -200.925)" fill="#c4c4c4"/>
        <path id="Path_3656" data-name="Path 3656" d="M204.822,329.7a15.379,15.379,0,0,0,8.447,0l-4.221-9.374Z" transform="translate(-193.772 -299.738)" fill="#c4c4c4"/>
        <path id="Path_3657" data-name="Path 3657" d="M341.019,229.775a.182.182,0,0,0,.252.236,15.3,15.3,0,0,0,7.607-16.836.182.182,0,0,0-.343-.033Z" transform="translate(-318.709 -201.307)" fill="#c4c4c4"/>
      </g>
    </g>
  </g>
</svg>
