<svg xmlns="http://www.w3.org/2000/svg" width="22" height="20" viewBox="0 0 22 20">
  <path id="emoticon-kiss-outline" d="M9,9.5A1.5,1.5,0,1,1,7.5,8,1.538,1.538,0,0,1,9,9.5m7,0A1.5,1.5,0,1,1,14.5,8,1.538,1.538,0,0,1,16,9.5m-2,4.62L11.88,12l-1.06,1.06,1.06,1.06-1.06,1.06,1.06,1.06L10.82,17.3l1.06,1.06L14,16.24l-1.06-1.06L14,14.12M16.85,13a2.051,2.051,0,0,0-1.45,3.5L18.9,20l3.5-3.5a2.051,2.051,0,0,0-2.9-2.9l-.6.6-.6-.59A2.042,2.042,0,0,0,16.85,13M15,18.92a7.989,7.989,0,1,1,4-7.42,4.184,4.184,0,0,1,1.95-.5,10.008,10.008,0,1,0-4.5,9.38Z" transform="translate(-1 -2)" fill="#F47920"/>
</svg>
