<svg xmlns="http://www.w3.org/2000/svg" width="26.255" height="26.255" viewBox="0 0 26.255 26.255"><defs><style>.a{fill:#fff;}.b{fill:#622279;}</style></defs><g transform="translate(-728 -30.143)"><path class="a" d="M1896,1083.255l2.259-6.772a12.908,12.908,0,1,1,5.093,4.838Zm0,0" transform="translate(-1168 -1026.857)"/><path class="b" d="M1921.752,1077.668a9.329,9.329,0,0,0-2.792-2.412c-.5-.285-1.1-.316-1.38.19a11.372,11.372,0,0,1-.9.979,1.669,1.669,0,0,1-2.374-.237l-3.605-3.605a1.669,1.669,0,0,1-.234-2.371,11.535,11.535,0,0,1,.979-.9c.5-.285.473-.885.19-1.382a9.353,9.353,0,0,0-2.413-2.791,1.231,1.231,0,0,0-1.45.219l-.8.8c-2.524,2.524-1.282,5.373,1.242,7.9l4.616,4.615c2.524,2.524,5.376,3.769,7.9,1.244l.8-.8a1.237,1.237,0,0,0,.217-1.452Zm0,0" transform="translate(-1172.168 -1030.33)"/></g></svg>