<svg xmlns="http://www.w3.org/2000/svg" width="16" height="16" viewBox="0 0 16 16"><defs><style>.a{fill:#858585;stroke:rgba(0,0,0,0);}.b{fill:none;}</style></defs><g transform="translate(-1860 -584)"><g transform="translate(1851.486 585)"><path class="a" d="M2914.92-362.1a1.181,1.181,0,0,1-.164-1.662l2.859-3.483a1.178,1.178,0,0,1,.78-.417,1.705,1.705,0,0,0,.388,1l1.464,1.758-1.268-.284-2.4,2.921a1.176,1.176,0,0,1-.913.432A1.177,1.177,0,0,1,2914.92-362.1Zm8.326-.088-4.241-5.1a.734.734,0,0,1,.1-1.034.735.735,0,0,1,1.033.095l4.242,5.1a.733.733,0,0,1-.095,1.033.732.732,0,0,1-.469.17A.735.735,0,0,1,2923.247-362.192Zm-2.253-6.345a1.629,1.629,0,0,0-.139-.136l.453-2.832a1.183,1.183,0,0,1,1.353-.979,1.18,1.18,0,0,1,.979,1.352l-.775,4.844Zm-8.479-3.792a3.67,3.67,0,0,1,3.67-3.671,3.671,3.671,0,0,1,3.671,3.671,3.67,3.67,0,0,1-3.671,3.67A3.67,3.67,0,0,1,2912.515-372.33Zm12.027,1.453a2.18,2.18,0,0,0-.267-1.428l.252-.242a.735.735,0,0,1,1.039.023.734.734,0,0,1-.023,1.038l-1.067,1.021Zm-3.371-1.956a1.674,1.674,0,0,1-.909-1.485,1.683,1.683,0,0,1,1.682-1.683,1.683,1.683,0,0,1,1.683,1.683,1.675,1.675,0,0,1-.469,1.162,1.677,1.677,0,0,1-1.213.521A1.657,1.657,0,0,1,2921.17-372.832Z" transform="translate(-2903 376)"/></g><rect class="b" width="16" height="16" transform="translate(1860 584)"/></g></svg>