<svg xmlns="http://www.w3.org/2000/svg" width="14.97" height="16" viewBox="0 0 14.97 16"><defs><style>.a{fill:#f97d00;}</style></defs><path class="a" d="M257.662,68.615a.829.829,0,0,0-1.172-.026l-.286.273a2.464,2.464,0,0,1,.3,1.613l-.074.465,1.205-1.153A.83.83,0,0,0,257.662,68.615Z" transform="translate(-242.922 -64.688)"/><path class="a" d="M53.546,178.681a1.329,1.329,0,0,0-.882.471l-3.229,3.935a1.334,1.334,0,1,0,2.062,1.692l2.708-3.3,1.432.321-1.653-1.987A1.919,1.919,0,0,1,53.546,178.681Z" transform="translate(-46.903 -169.267)"/><path class="a" d="M187.448,75.3a1.335,1.335,0,0,0-1.528,1.106l-.512,3.2a1.864,1.864,0,0,1,.157.154l2.113,2.54.876-5.471A1.334,1.334,0,0,0,187.448,75.3Z" transform="translate(-175.989 -71.332)"/><path class="a" d="M174.376,3.578a1.867,1.867,0,0,0,2.245-.366,1.9,1.9,0,1,0-2.245.366Z" transform="translate(-164.6)"/><path class="a" d="M148.5,162.378a.829.829,0,0,0-1.275,1.061l4.791,5.758a.829.829,0,0,0,1.275-1.061Z" transform="translate(-139.897 -153.599)"/><path class="a" d="M17.806,4.146A4.146,4.146,0,1,0,13.66,8.292,4.146,4.146,0,0,0,17.806,4.146Z" transform="translate(-9.514)"/></svg>