<svg xmlns="http://www.w3.org/2000/svg" width="16" height="16" viewBox="0 0 16 16"><defs><style>.a{fill:#58595b;}.b{fill:#fff;}.c{fill:none;}</style></defs><g transform="translate(-158 -902)"><g transform="translate(158 867.143)"><g transform="translate(0 35.857)"><g transform="translate(0 0)"><path class="a" d="M15.793,47.436,9.23,36.552a1.437,1.437,0,0,0-2.462,0L.206,47.436a1.437,1.437,0,0,0,1.231,2.18H14.562a1.437,1.437,0,0,0,1.231-2.18Z" transform="translate(0 -35.857)"/></g></g><g transform="translate(-0.172 -0.826)"><g transform="translate(7.304 40.141)"><path class="b" d="M234.448,173.005c-.489,0-.87.262-.87.727,0,1.418.167,3.456.167,4.874,0,.369.322.524.7.524.286,0,.691-.155.691-.524,0-1.418.167-3.456.167-4.874A.766.766,0,0,0,234.448,173.005Z" transform="translate(-233.578 -173.005)"/></g><g transform="translate(7.27 47.083)"><path class="b" d="M233.569,353.306a.918.918,0,0,0,0,1.835.918.918,0,0,0,0-1.835Z" transform="translate(-232.651 -353.306)"/></g></g></g><rect class="c" width="16" height="16" transform="translate(158 902)"/></g></svg>