<svg xmlns="http://www.w3.org/2000/svg" xmlns:xlink="http://www.w3.org/1999/xlink" width="87.973" height="87.973" viewBox="0 0 87.973 87.973"><defs><style>.a{fill:#fafafa;}.b{fill:#f4f4f4;}.c{fill:#cb6600;}.d{fill:#f97d00;}.e{filter:url(#a);}</style><filter id="a" x="0" y="0" width="87.973" height="87.973" filterUnits="userSpaceOnUse"><feOffset dy="3" input="SourceAlpha"/><feGaussianBlur stdDeviation="3" result="b"/><feFlood flood-opacity="0.161"/><feComposite operator="in" in2="b"/><feComposite in="SourceGraphic"/></filter></defs><g transform="translate(-559 -350)"><g transform="translate(568 356)"><g class="e" transform="matrix(1, 0, 0, 1, -9, -6)"><path class="a" d="M69.973,34.987A34.986,34.986,0,0,1,10.247,59.725,34.986,34.986,0,0,1,59.725,10.247,34.759,34.759,0,0,1,69.973,34.987Z" transform="translate(9 6)"/></g><path class="b" d="M290.991,34.987a34.986,34.986,0,0,1-34.986,34.986V0a34.986,34.986,0,0,1,34.986,34.987Z" transform="translate(-221.018)"/></g><g transform="translate(0.581 1.399)"><path class="c" d="M213.684,212.095l-10.658,10.659-.974.974a2.665,2.665,0,0,1-1.892.782h-.04a2.629,2.629,0,0,1-1.865-.772L192.518,218a2.637,2.637,0,0,1,3.729-3.729l3.85,3.848,2.929-2.929,6.878-6.877a2.673,2.673,0,0,1,3.78,3.781Z" transform="translate(399.46 173.071)"/><path class="d" d="M266.663,212.094l-10.658,10.659V215.19l6.878-6.877a2.673,2.673,0,1,1,3.78,3.781Z" transform="translate(346.481 173.072)"/></g></g></svg>