<svg xmlns="http://www.w3.org/2000/svg" width="16" height="16" viewBox="0 0 16 16"><defs><style>.a{fill:#858585;}.b{fill:none;}</style></defs><g transform="translate(-1860 -528)"><path class="a" d="M12.708-5.435l-1.395-.8,1.209-.7a.421.421,0,0,0,.219-.279.451.451,0,0,0-.06-.359.454.454,0,0,0-.279-.213.432.432,0,0,0-.359.053l-1.661.97L7.873-8.2l2.511-1.435,1.661.97a.292.292,0,0,0,.12.053.616.616,0,0,0,.12.013.491.491,0,0,0,.232-.06.376.376,0,0,0,.166-.166.451.451,0,0,0,.06-.359.421.421,0,0,0-.219-.279l-1.209-.7,1.395-.8a.466.466,0,0,0,.219-.286.47.47,0,0,0-.046-.352.456.456,0,0,0-.286-.213.44.44,0,0,0-.352.04l-1.395.8-.013-1.382a.44.44,0,0,0-.139-.332.473.473,0,0,0-.339-.133.446.446,0,0,0-.325.139.4.4,0,0,0-.126.325l.013,1.913L7.408-9v-2.883l1.687-.943a.454.454,0,0,0,.213-.279.426.426,0,0,0-.04-.345.444.444,0,0,0-.279-.226.432.432,0,0,0-.359.053l-1.222.677v-1.594a.451.451,0,0,0-.133-.332A.451.451,0,0,0,6.943-15a.451.451,0,0,0-.332.133.451.451,0,0,0-.133.332v1.594l-1.222-.677a.432.432,0,0,0-.359-.053.444.444,0,0,0-.279.226.426.426,0,0,0-.04.345.454.454,0,0,0,.213.279l1.687.943V-9L3.967-10.444l.013-1.913a.4.4,0,0,0-.126-.325.446.446,0,0,0-.325-.139H3.515a.457.457,0,0,0-.325.133.44.44,0,0,0-.139.332l-.013,1.382-1.395-.8a.46.46,0,0,0-.352-.046A.423.423,0,0,0,1-11.6a.47.47,0,0,0-.046.352.466.466,0,0,0,.219.286l1.395.8-1.209.7a.421.421,0,0,0-.219.279.451.451,0,0,0,.06.359.376.376,0,0,0,.166.166A.491.491,0,0,0,1.6-8.6a.616.616,0,0,0,.12-.013.292.292,0,0,0,.12-.053L3.5-9.633,6.013-8.2,3.5-6.764l-1.661-.97a.432.432,0,0,0-.359-.053.454.454,0,0,0-.279.213.451.451,0,0,0-.06.359.421.421,0,0,0,.219.279l1.209.7-1.395.8a.466.466,0,0,0-.219.286A.47.47,0,0,0,1-4.8a.463.463,0,0,0,.179.166.491.491,0,0,0,.232.06.521.521,0,0,0,.113-.013.488.488,0,0,0,.113-.04l1.395-.8L3.05-4.041a.44.44,0,0,0,.139.332.457.457,0,0,0,.325.133h.013a.446.446,0,0,0,.325-.139.4.4,0,0,0,.126-.325L3.967-5.954,6.478-7.4v2.883l-1.687.943a.454.454,0,0,0-.213.279.426.426,0,0,0,.04.345.45.45,0,0,0,.173.179.479.479,0,0,0,.239.06.521.521,0,0,0,.113-.013.293.293,0,0,0,.113-.053l1.222-.677v1.594a.451.451,0,0,0,.133.332.451.451,0,0,0,.332.133.451.451,0,0,0,.332-.133.451.451,0,0,0,.133-.332V-3.456l1.222.677a.293.293,0,0,0,.113.053.521.521,0,0,0,.113.013.479.479,0,0,0,.239-.06.45.45,0,0,0,.173-.179.426.426,0,0,0,.04-.345.454.454,0,0,0-.213-.279L7.408-4.519V-7.4L9.918-5.954,9.905-4.041a.4.4,0,0,0,.126.325.446.446,0,0,0,.325.139h.013a.457.457,0,0,0,.325-.133.44.44,0,0,0,.139-.332l.013-1.382,1.395.8a.488.488,0,0,0,.113.04.521.521,0,0,0,.113.013.491.491,0,0,0,.232-.06.463.463,0,0,0,.179-.166.47.47,0,0,0,.046-.352.466.466,0,0,0-.219-.286Z" transform="translate(1861.057 544)"/><rect class="b" width="16" height="16" transform="translate(1860 528)"/></g></svg>