<svg xmlns="http://www.w3.org/2000/svg" width="13" height="15.883" viewBox="0 0 13 15.883">
    <defs>
        <style>.a{fill:#858585;}</style>
    </defs>
    <path class="a" d="M198.576,108.4h.464v11.409a1.377,1.377,0,0,0,1.375,1.375h8.447v.423a.878.878,0,0,1-.877.877h-9.408a.878.878,0,0,1-.877-.877v-12.33A.876.876,0,0,1,198.576,108.4Z" transform="translate(-197.7 -106.602)" />
    <path class="a" d="M92.481,14.085h-4.7a.878.878,0,0,1-.877-.877V.877A.878.878,0,0,1,87.777,0h6.268V.29a.854.854,0,0,0,0,.093v2.4a1.237,1.237,0,0,0,1.236,1.236h2.4c.025,0,.051,0,.076,0h.305v9.189a.878.878,0,0,1-.877.877h-4.7ZM89.237,11.1H95.37a.415.415,0,1,0,0-.829H89.235a.415.415,0,1,0,0,.829Zm0-2.116H95.37a.415.415,0,1,0,0-.829H89.235a.415.415,0,1,0,0,.829ZM95.37,5.91H89.235a.415.415,0,1,0,0,.829H95.37a.415.415,0,1,0,0-.829Z" transform="translate(-85.061)" />
    <path class="a" d="M90.686,4.311h-2.41a.736.736,0,0,1-.73-.73V1.17A.369.369,0,0,1,87.917.8a.36.36,0,0,1,.259.109l2.772,2.772A.369.369,0,0,1,90.686,4.311Z" transform="translate(-78.067 -0.787)" />
</svg>