<svg xmlns="http://www.w3.org/2000/svg" xmlns:xlink="http://www.w3.org/1999/xlink" width="87.973" height="87.973" viewBox="0 0 87.973 87.973"><defs><style>.a{fill:#fafafa;}.b{fill:#f4f4f4;}.c{fill:#f97d00;}.c,.d{stroke:rgba(0,0,0,0);stroke-miterlimit:10;}.d{fill:#cb6600;}.e{filter:url(#a);}</style><filter id="a" x="0" y="0" width="87.973" height="87.973" filterUnits="userSpaceOnUse"><feOffset dy="3" input="SourceAlpha"/><feGaussianBlur stdDeviation="3" result="b"/><feFlood flood-opacity="0.161"/><feComposite operator="in" in2="b"/><feComposite in="SourceGraphic"/></filter></defs><g transform="translate(-640 -272)"><g transform="translate(81 -78)"><g transform="translate(568 356)"><g class="e" transform="matrix(1, 0, 0, 1, -9, -6)"><path class="a" d="M69.973,34.987A34.986,34.986,0,0,1,10.247,59.725,34.986,34.986,0,0,1,59.725,10.247,34.759,34.759,0,0,1,69.973,34.987Z" transform="translate(9 6)"/></g><path class="b" d="M290.991,34.987a34.986,34.986,0,0,1-34.986,34.986V0a34.986,34.986,0,0,1,34.986,34.987Z" transform="translate(-221.018)"/></g></g><g transform="translate(0 0.001)"><path class="c" d="M5122.987,4370.006v-4.893h.053a1.99,1.99,0,0,0,0-3.98h-.053v-1.783h.026c.62,0,1.5-.336,1.5-1.138,0-3.076.361-7.494.361-10.569a1.66,1.66,0,0,0-1.86-1.577h-.026V4336H5123a2.452,2.452,0,0,1,2.1,1.186l17.549,29.1a2.452,2.452,0,0,1-2.1,3.718Z" transform="translate(-4439 -4040)"/><path class="d" d="M0,0V4.893H.053A2.02,2.02,0,0,1,2.017,6.883,2,2,0,0,1,.053,8.873H0v1.783H.026c.62,0,1.5.336,1.5,1.138,0,3.076.361,7.494.361,10.569a1.66,1.66,0,0,1-1.86,1.577H0V34.006H.013a2.452,2.452,0,0,0,2.1-1.186L19.66,3.718A2.452,2.452,0,0,0,17.562,0Z" transform="translate(684 330.006) rotate(180)"/></g></g></svg>