<svg xmlns="http://www.w3.org/2000/svg" width="35.902" height="32.003" viewBox="0 0 35.902 32.003"><defs><style>.a{fill:#58595b;}</style></defs><g transform="translate(0 -33.234)"><g transform="translate(0 33.234)"><path class="a" d="M196.215,37.924l-21.988-4.653a1.734,1.734,0,0,0-2.049,1.334l-.418,2.685,25.37,5.369.418-2.685A1.734,1.734,0,0,0,196.215,37.924Z" transform="translate(-161.684 -33.234)"/><path class="a" d="M25.284,169.269a1.75,1.75,0,0,0-2.148-1.215l-4.174,1.159-9.84-2.083L8.04,172.243,1.278,174.12a1.75,1.75,0,0,0-1.215,2.148L3.874,190a1.75,1.75,0,0,0,2.148,1.215l21.858-6.066A1.75,1.75,0,0,0,29.095,183l-.654-2.357,2.451.518a1.733,1.733,0,0,0,2.049-1.333l1.551-7.329-8.83-1.869Zm2.524,6.979.541-2.555a.714.714,0,0,1,.843-.549l2.555.541a.713.713,0,0,1,.549.843l-.541,2.555a.713.713,0,0,1-.843.548l-2.555-.541A.714.714,0,0,1,27.809,176.248Zm-26.15-.758,6.049-1.678,14.273-3.961,1.536-.427a.32.32,0,0,1,.083-.011.33.33,0,0,1,.314.236l.18.649.565,2.036L2.179,178.573l-.745-2.685A.327.327,0,0,1,1.658,175.49Zm26.066,7.89a.328.328,0,0,1-.225.4L5.642,189.844a.318.318,0,0,1-.083.012.33.33,0,0,1-.314-.236l-2.223-8.01L25.5,175.371l1.371,4.94Z" transform="translate(0 -159.275)"/><path class="a" d="M93.006,445.122a.714.714,0,0,0-.876-.5l-2.553.709a.713.713,0,0,0-.495.876l.708,2.552a.713.713,0,0,0,.876.495l2.553-.708a.713.713,0,0,0,.5-.876Z" transform="translate(-83.833 -420.469)"/></g></g></svg>