<svg xmlns="http://www.w3.org/2000/svg" width="44.132" height="43.891" viewBox="0 0 44.132 43.891"><defs><style>.a{fill:#F47920;stroke:#F47920;stroke-miterlimit:10;stroke-width:0.094px;}</style></defs><g transform="translate(-1295.187 -401.233)"><g transform="translate(1295.262 401.292)"><g transform="translate(0 0)"><path class="a" d="M124.422,32.432a22.25,22.25,0,0,1,28.452.343c-1.2,1.143-2.4,2.285-3.542,3.485a17.41,17.41,0,0,0-21.367-.286c-1.143-1.2-2.342-2.342-3.542-3.542Z" transform="translate(-116.481 -27.44)"/><path class="a" d="M110.694,52.732a22.227,22.227,0,0,1,4.742-11.255c1.2,1.2,2.4,2.342,3.542,3.542A17.27,17.27,0,0,0,115.55,56.1a18.074,18.074,0,0,0,3.828,10.112c-1.2,1.086-2.342,2.285-3.542,3.428a22.182,22.182,0,0,1-5.142-16.911Z" transform="translate(-110.523 -33.458)"/><path class="a" d="M172.865,45.719c1.2-1.2,2.4-2.4,3.6-3.542a21.926,21.926,0,0,1-.4,27.424c-1.2-1.143-2.342-2.342-3.542-3.542a17.057,17.057,0,0,0,.343-20.339Z" transform="translate(-137.101 -33.758)"/><path class="a" d="M125.322,93.1c1.143-1.2,2.342-2.4,3.542-3.542a17.322,17.322,0,0,0,20.339-.286c1.2,1.2,2.4,2.342,3.6,3.6a22.375,22.375,0,0,1-27.48.229Z" transform="translate(-116.867 -53.948)"/></g><path class="a" d="M139.928,45.823a1.154,1.154,0,0,0-.3.042l-1.153.318-1.2-2.916a2.612,2.612,0,0,0-2.234-1.5h-11.2a2.611,2.611,0,0,0-2.234,1.5l-1.2,2.912-1.138-.314a1.138,1.138,0,0,0-.3-.043.934.934,0,0,0-.94.99v.679a1.215,1.215,0,0,0,1.214,1.214h.13l-.193.47a9.106,9.106,0,0,0-.572,2.9v5.793a1.215,1.215,0,0,0,1.214,1.214h1.586a1.215,1.215,0,0,0,1.214-1.214V56.419h13.64v1.447a1.215,1.215,0,0,0,1.214,1.214h1.585a1.215,1.215,0,0,0,1.214-1.214V52.073a9.106,9.106,0,0,0-.572-2.9l-.193-.471h.147a1.215,1.215,0,0,0,1.214-1.214v-.679A.934.934,0,0,0,139.928,45.823Zm-18.649,2.224,1.811-4.41a1.57,1.57,0,0,1,1.34-.9h10.02a1.569,1.569,0,0,1,1.34.9l1.811,4.41a.606.606,0,0,1-.6.9H121.882A.606.606,0,0,1,121.279,48.047Zm4.042,5.579a.487.487,0,0,1-.485.485H121.4a.487.487,0,0,1-.486-.485V51.975a.487.487,0,0,1,.486-.485h3.439a.487.487,0,0,1,.485.485Zm12.616,0a.487.487,0,0,1-.485.485h-3.44a.487.487,0,0,1-.485-.485V51.975a.487.487,0,0,1,.485-.485h3.44a.487.487,0,0,1,.485.485Z" transform="translate(-106.442 -28.335)"/></g></g></svg>