<svg xmlns="http://www.w3.org/2000/svg" width="14" height="14" viewBox="0 0 14 14"><defs><style>.a{fill:#858585;}</style></defs><path class="a" d="M1.75,2.188V.438a.438.438,0,1,1,.875,0v1.75a.438.438,0,0,1-.875,0Zm7.438.438a.437.437,0,0,0,.438-.437V.438a.438.438,0,1,0-.875,0v1.75A.437.437,0,0,0,9.188,2.625ZM14,10.5A3.5,3.5,0,1,1,10.5,7,3.5,3.5,0,0,1,14,10.5Zm-.875,0A2.625,2.625,0,1,0,10.5,13.125,2.628,2.628,0,0,0,13.125,10.5ZM3.5,5.25H1.75V7H3.5ZM1.75,9.625H3.5V7.875H1.75ZM4.375,7h1.75V5.25H4.375Zm0,2.625h1.75V7.875H4.375Zm-3.5.788V4.375H10.5v1.75h.875V2.712a.955.955,0,0,0-.948-.962h-.365v.438a.875.875,0,1,1-1.75,0V1.75H3.063v.438a.875.875,0,1,1-1.75,0V1.75H.948A.955.955,0,0,0,0,2.712v7.7a.956.956,0,0,0,.949.962H6.125V10.5H.948A.083.083,0,0,1,.875,10.413ZM8.75,7V5.25H7V7ZM10.5,8.313h-.438v2.625h2.625V10.5A2.19,2.19,0,0,0,10.5,8.313Z" transform="translate(0)"/></svg>