<svg xmlns="http://www.w3.org/2000/svg" width="18" height="19.002" viewBox="0 0 18 19.002"><defs><style>.a{fill:#999;}</style></defs><path class="a" d="M.633-3.5v-17h2v1.5a1.424,1.424,0,0,0,.445,1.039,1.445,1.445,0,0,0,1.058.445h.984a1.445,1.445,0,0,0,1.058-.445,1.424,1.424,0,0,0,.445-1.039v-1.5h6.012v1.5a1.424,1.424,0,0,0,.445,1.039,1.445,1.445,0,0,0,1.058.445h.984a1.445,1.445,0,0,0,1.058-.445,1.424,1.424,0,0,0,.445-1.039v-1.5h2v17Zm17-11h-16v10h16ZM4.641-8.49h-2v-2h2Zm0,2.988h-2v-2h2ZM7.629-8.49h-2v-2h2Zm0,2.988h-2v-2h2ZM10.635-11.5h-2v-2h2Zm0,3.006h-2v-2h2Zm0,2.988h-2v-2h2ZM13.641-11.5h-2v-2h2Zm0,3.006h-2v-2h2Zm0,2.988h-2v-2h2ZM16.629-11.5H14.643v-2h1.986Zm0,3.006H14.643v-2h1.986Zm-1.893-10h-.2a.79.79,0,0,1-.631-.315,1.058,1.058,0,0,1-.26-.687v-2a1.018,1.018,0,0,1,.26-.724.831.831,0,0,1,.631-.278h.2a.79.79,0,0,1,.631.315,1.058,1.058,0,0,1,.26.687v1.893a1.223,1.223,0,0,1-.26.789.783.783,0,0,1-.631.325Zm-10,0h-.2a.79.79,0,0,1-.631-.315,1.058,1.058,0,0,1-.26-.687v-2a1.018,1.018,0,0,1,.26-.724A.831.831,0,0,1,4.53-22.5h.2a.79.79,0,0,1,.631.315,1.058,1.058,0,0,1,.26.687v1.893a1.223,1.223,0,0,1-.26.789.783.783,0,0,1-.631.325Z" transform="translate(-0.633 22.5)"/></svg>