<svg xmlns="http://www.w3.org/2000/svg" width="15" height="11.25" viewBox="0 0 15 11.25"><defs><style>.a{fill:#858585;}</style></defs><path class="a" d="M15,8.625a7.545,7.545,0,0,1-2.187,5.313l-.675-.675a6.549,6.549,0,0,0,0-9.275l.675-.675A7.545,7.545,0,0,1,15,8.625m-2.5-1.5v-1h-2a1,1,0,0,0-1,1v1a1,1,0,0,0,1,1h1v1h-2v1h2a1,1,0,0,0,1-1v-1a1,1,0,0,0-1-1h-1v-1h2M5.262,4.875a4.318,4.318,0,0,1,4.475,0h1.944a5.6,5.6,0,0,0-8.363,0H5.262M8.25,8.625a.769.769,0,0,1,.75.75v.75a1,1,0,0,1-1,1H6v-5H8a1,1,0,0,1,1,1v.75a.769.769,0,0,1-.75.75m-.25.5H7v1H8v-1m0-2H7v1H8v-1M2.862,3.987l-.675-.675a7.545,7.545,0,0,0,0,10.625l.675-.675a6.549,6.549,0,0,1,0-9.275M4.5,11.125v-2h-1v2h-1v-4a1,1,0,0,1,1-1h1a1,1,0,0,1,1,1v4h-1m0-3v-1h-1v1h1m5.238,4.25a4.318,4.318,0,0,1-4.475,0H3.319a5.6,5.6,0,0,0,8.363,0Z" transform="translate(0 -3)"/></svg>