<svg xmlns="http://www.w3.org/2000/svg" width="21.57" height="20.478" viewBox="0 0 21.57 20.478"><defs><style>.a{fill:#fff;}</style></defs><g transform="translate(0 -15.492)"><path class="a" d="M10.785,15.492A10.786,10.786,0,0,0,5.759,35.821l.283.149h9.486l.283-.149a10.786,10.786,0,0,0-5.026-20.329Zm4.091,17.894h-2l-.447-3.2c.3-.053.6-.119.9-.2a.543.543,0,0,0,.354-.3,13.164,13.164,0,0,0,1.251-6.5.543.543,0,0,0-.394-.486,13.413,13.413,0,0,0-7.519,0,.543.543,0,0,0-.394.486,13.164,13.164,0,0,0,1.251,6.5.542.542,0,0,0,.354.3c.307.082.607.148.9.2l-.447,3.2h-2A8.188,8.188,0,0,1,3,28.862q1.623-.232,3.248-.367A13.828,13.828,0,0,1,5.536,24.8a8.627,8.627,0,0,0-2.947,1.209,8.2,8.2,0,0,1,16.392,0q-.127-.087-.27-.17a9.869,9.869,0,0,0-2.678-1.016,13.833,13.833,0,0,1-.712,3.666q1.625.135,3.249.367A8.189,8.189,0,0,1,14.876,33.386Z"/></g></svg>