<svg xmlns="http://www.w3.org/2000/svg" width="38.512" height="30" viewBox="0 0 38.512 30">
  <g id="Grupo_15736" data-name="Grupo 15736" transform="translate(-246.799 -244)">
    <path id="União_36" data-name="União 36" d="M18527.42,1280a2.108,2.108,0,0,1-2.107-2.1v-2.512H18502.8v2.512a2.107,2.107,0,0,1-2.107,2.1h-2.752a2.107,2.107,0,0,1-2.1-2.1v-10.042a15.7,15.7,0,0,1,.99-5.019l.336-.814h-.256a2.109,2.109,0,0,1-2.107-2.107v-1.177a1.625,1.625,0,0,1,1.633-1.716,2.071,2.071,0,0,1,.525.074l2,.549,2.08-5.051a4.535,4.535,0,0,1,3.879-2.6h18.279a4.537,4.537,0,0,1,3.879,2.6l2.074,5.051,2-.549a2.086,2.086,0,0,1,.527-.074,1.623,1.623,0,0,1,1.631,1.716v1.177a2.107,2.107,0,0,1-2.105,2.107h-.256l.334.814a15.7,15.7,0,0,1,.99,5.019V1277.9a2.105,2.105,0,0,1-2.1,2.1Zm-6.855-12.312v2.861a.848.848,0,0,0,.846.842h5.973a.847.847,0,0,0,.842-.842v-2.861a.844.844,0,0,0-.842-.842h-5.973A.845.845,0,0,0,18520.564,1267.689Zm-20.676,0v2.861a.845.845,0,0,0,.842.837h5.973a.841.841,0,0,0,.842-.837v-2.861a.842.842,0,0,0-.842-.842h-5.973A.846.846,0,0,0,18499.889,1267.689Zm26.7-5.251a1.05,1.05,0,0,0,1.047-1.558l-3.145-7.642a2.716,2.716,0,0,0-2.324-1.558h-16.225a2.732,2.732,0,0,0-2.33,1.558l-3.145,7.642a1.053,1.053,0,0,0,1.047,1.558h25.074Z" transform="translate(-18248.002 -1006)" fill="#f47920"/>
  </g>
</svg>
