<svg xmlns="http://www.w3.org/2000/svg" width="17.005" height="17" viewBox="0 0 17.005 17"><defs><style>.a,.b{fill:#f97d00;}.a{stroke:#f97d00;}.b{stroke:#fff;}.c{stroke:none;}.d{fill:none;}</style></defs><g transform="translate(0.5 0.5)"><path class="a" d="M15.833.308A.8.8,0,0,0,15.2,0h-8a.8.8,0,0,0-.566.234l-6.4,6.4A.8.8,0,0,0,0,7.2v8a.8.8,0,0,0,.8.8H13.6a.8.8,0,0,0,.8-.8V7.3l1.576-6.3A.8.8,0,0,0,15.833.308ZM13.6,15.2H.8V8H13.6Zm0-8H.8L7.2.8h8Z" transform="translate(-0.002)"/><g class="a" transform="translate(0.839 7.801)"><rect class="c" width="12.702" height="7.379"/><rect class="d" x="0.5" y="0.5" width="11.702" height="6.379"/></g><rect class="b" width="2.775" height="0.469" transform="translate(8.733 10.024)"/></g></svg>
