<svg xmlns="http://www.w3.org/2000/svg" width="19.999" height="16.729" viewBox="0 0 19.999 16.729"><defs><style>.a{fill:#f97d00;}</style></defs><path class="a" d="M150.114,48.96a1.1,1.1,0,0,0-.293.041l-1.115.306-1.158-2.818a2.525,2.525,0,0,0-2.161-1.447h-8.742a2.526,2.526,0,0,0-2.161,1.447L133.327,49.3l-1.1-.3a1.128,1.128,0,0,0-.293-.04.9.9,0,0,0-.909.956v.657a1.175,1.175,0,0,0,1.174,1.173h.126l-.187.455a8.8,8.8,0,0,0-.553,2.8v5.6a1.175,1.175,0,0,0,1.174,1.173h1.534a1.175,1.175,0,0,0,1.174-1.173V59.2h11.1v1.4a1.175,1.175,0,0,0,1.174,1.173h1.533a1.175,1.175,0,0,0,1.174-1.173V55a8.79,8.79,0,0,0-.553-2.8l-.187-.455h.142a1.175,1.175,0,0,0,1.174-1.173v-.656A.9.9,0,0,0,150.114,48.96Zm-15.944,2.149,1.751-4.262a1.518,1.518,0,0,1,1.3-.869h7.6a1.519,1.519,0,0,1,1.3.869l1.751,4.262a.586.586,0,0,1-.583.868H134.751A.585.585,0,0,1,134.169,51.109Zm3.909,5.391a.471.471,0,0,1-.469.469h-3.326a.471.471,0,0,1-.47-.469V54.9a.471.471,0,0,1,.47-.469h3.326a.471.471,0,0,1,.469.469Zm10.109,0a.471.471,0,0,1-.469.469h-3.326a.471.471,0,0,1-.469-.469V54.9a.471.471,0,0,1,.469-.469h3.326a.471.471,0,0,1,.469.469Z" transform="translate(-131.024 -45.042)"/></svg>