<svg xmlns="http://www.w3.org/2000/svg" width="15.947" height="15.947" viewBox="0 0 15.947 15.947"><defs><style>.a{fill:none;}.b{fill:#858585;}</style></defs><path class="a" d="M0,0H15.947V15.947H0Z"/><g transform="translate(1.993 2.658)"><path class="b" d="M13.578,4.671A.993.993,0,0,0,12.634,4H5.326a1,1,0,0,0-.944.671L3,8.651v5.316a.666.666,0,0,0,.664.664h.664a.666.666,0,0,0,.664-.664V13.3h7.973v.664a.666.666,0,0,0,.664.664H14.3a.666.666,0,0,0,.664-.664V8.651Zm-8.02.658H12.4l.691,1.993H4.867Zm8.073,6.644h-9.3v-3.1l.08-.226h9.149l.073.226Z" transform="translate(-3 -4)"/><circle class="b" cx="0.997" cy="0.997" r="0.997" transform="translate(1.993 5.316)"/><circle class="b" cx="0.997" cy="0.997" r="0.997" transform="translate(7.973 5.316)"/></g></svg>