<svg xmlns="http://www.w3.org/2000/svg" width="176.5" height="65" viewBox="0 0 176.5 65"><defs><style>.a{fill:none;stroke:#58595b;stroke-miterlimit:10;stroke-width:3px;}.b,.c,.d{fill:#58595b;}.b{font-size:34px;font-family:RobotoCondensed-Light, Roboto;font-weight:300;}.c{font-size:28px;font-family:Roboto-Regular, Roboto;}</style></defs><g transform="translate(-3)"><path class="a" d="M22.966,30.5C10.3,30.5,0,40.532,0,52.864A22.122,22.122,0,0,0,6.527,68.457a31.346,31.346,0,0,1-3.75,7.127,1.992,1.992,0,0,0-.2,1.825,1.44,1.44,0,0,0,1.311.983c4.151,0,7.664-1.2,11.651-3.985a57.211,57.211,0,0,0,7.437.821c12.662,0,22.966-10.032,22.966-22.374C45.932,40.532,35.628,30.5,22.966,30.5Z" transform="translate(132.059 -21)"/><text class="b" transform="translate(33.868 32)"><tspan x="0" y="0">Carro</tspan></text><text class="c" transform="translate(3 58)"><tspan x="0" y="0">PRÓPRIO</tspan></text><path class="d" d="M1931.636,909.253v2.274a5.822,5.822,0,0,0,1.94,11.31,1.94,1.94,0,1,1,0,3.88,3.513,3.513,0,0,1-2.52-1.468,1.94,1.94,0,1,0-2.97,2.5,8.046,8.046,0,0,0,3.55,2.528v2.264a1.94,1.94,0,1,0,3.881,0v-2.274a5.821,5.821,0,0,0-1.941-11.31,1.941,1.941,0,0,1,0-3.881,3.115,3.115,0,0,1,2.1,1.015,1.941,1.941,0,0,0,2.7-2.789,7.509,7.509,0,0,0-2.858-1.787v-2.26a1.94,1.94,0,1,0-3.881,0Zm0,0" transform="translate(-1778.073 -889.582)"/></g></svg>