<svg xmlns="http://www.w3.org/2000/svg" width="125.688" height="51.116" viewBox="0 0 125.688 51.116">
  <g id="Grupo_11033" data-name="Grupo 11033" transform="translate(181.585 22.528)">
    <g id="Grupo_5776" data-name="Grupo 5776">
      <g id="Carro" style="isolation: isolate">
        <g id="Grupo_19046" data-name="Grupo 19046" style="isolation: isolate">
          <path id="Caminho_7161" data-name="Caminho 7161" d="M-151.3-8.519a6.592,6.592,0,0,1-.534,2.04,4.58,4.58,0,0,1-1.1,1.529,4.753,4.753,0,0,1-1.661.959,6.773,6.773,0,0,1-2.2.333,5.4,5.4,0,0,1-2.308-.483,5.045,5.045,0,0,1-1.773-1.368,6.313,6.313,0,0,1-1.139-2.128,8.94,8.94,0,0,1-.4-2.748v-1.877a9,9,0,0,1,.4-2.753,6.214,6.214,0,0,1,1.144-2.128,5.144,5.144,0,0,1,1.8-1.368A5.588,5.588,0,0,1-156.7-19a6.555,6.555,0,0,1,2.143.328,4.545,4.545,0,0,1,1.635.959,4.763,4.763,0,0,1,1.1,1.538,6.46,6.46,0,0,1,.528,2.056h-1.272a6.168,6.168,0,0,0-.41-1.615,3.455,3.455,0,0,0-.8-1.195,3.415,3.415,0,0,0-1.231-.738,5.035,5.035,0,0,0-1.686-.257,4.174,4.174,0,0,0-1.866.405,4,4,0,0,0-1.4,1.144,5.25,5.25,0,0,0-.877,1.779,8.3,8.3,0,0,0-.3,2.313v1.9a8.545,8.545,0,0,0,.287,2.272,5.44,5.44,0,0,0,.841,1.794,3.9,3.9,0,0,0,1.364,1.174,3.96,3.96,0,0,0,1.856.42,4.2,4.2,0,0,0,2.983-.948,4.547,4.547,0,0,0,1.241-2.846Z" fill="#1d1c19"/>
          <path id="Caminho_7162" data-name="Caminho 7162" d="M-141.517-3.863a3.526,3.526,0,0,1-.159-.7c-.038-.278-.063-.56-.077-.847a4.352,4.352,0,0,1-.656.678,4.292,4.292,0,0,1-.851.552,5.018,5.018,0,0,1-1.036.38,4.923,4.923,0,0,1-1.22.144,4.331,4.331,0,0,1-1.471-.237,3.231,3.231,0,0,1-1.128-.661,2.965,2.965,0,0,1-.723-1,3.035,3.035,0,0,1-.257-1.252,3.044,3.044,0,0,1,.349-1.461,3.167,3.167,0,0,1,1.005-1.107,4.912,4.912,0,0,1,1.6-.7,8.5,8.5,0,0,1,2.106-.241h2.277v-1.261a2.431,2.431,0,0,0-.733-1.871,3.03,3.03,0,0,0-2.138-.682,3.888,3.888,0,0,0-1.19.174,3,3,0,0,0-.938.482,2.3,2.3,0,0,0-.615.712,1.791,1.791,0,0,0-.221.866l-1.23-.009a2.565,2.565,0,0,1,.307-1.21,3.369,3.369,0,0,1,.867-1.041,4.464,4.464,0,0,1,1.343-.734,5.237,5.237,0,0,1,1.738-.276,5.6,5.6,0,0,1,1.626.225,3.545,3.545,0,0,1,1.276.677,3.078,3.078,0,0,1,.831,1.128,3.9,3.9,0,0,1,.3,1.579v5.373q0,.288.021.6c.013.2.036.4.066.595s.067.374.108.549a3.007,3.007,0,0,0,.143.456v.123Zm-3.856-.882a4.35,4.35,0,0,0,1.236-.169,4.02,4.02,0,0,0,1.031-.467,3.64,3.64,0,0,0,.8-.692,3.46,3.46,0,0,0,.544-.857V-9.369h-2.1a7.618,7.618,0,0,0-1.687.169,4.076,4.076,0,0,0-1.256.487,2.3,2.3,0,0,0-.785.774,1.977,1.977,0,0,0-.271,1.031,2.068,2.068,0,0,0,.174.845,2,2,0,0,0,.5.687,2.352,2.352,0,0,0,.784.462A3.008,3.008,0,0,0-145.373-4.745Z" fill="#1d1c19"/>
          <path id="Caminho_7163" data-name="Caminho 7163" d="M-132.145-13.912a4.575,4.575,0,0,0-.831-.072,3.255,3.255,0,0,0-1.128.185,2.833,2.833,0,0,0-.887.518,3.005,3.005,0,0,0-.645.789,4.351,4.351,0,0,0-.416,1.01v7.619h-1.22v-11.1h1.2l.02,1.764a3.67,3.67,0,0,1,1.225-1.441,3.3,3.3,0,0,1,1.9-.528,2.722,2.722,0,0,1,.461.041,1.525,1.525,0,0,1,.349.093Z" fill="#1d1c19"/>
          <path id="Caminho_7164" data-name="Caminho 7164" d="M-125.08-13.912a4.575,4.575,0,0,0-.831-.072,3.255,3.255,0,0,0-1.128.185,2.821,2.821,0,0,0-.887.518,3.005,3.005,0,0,0-.645.789,4.351,4.351,0,0,0-.416,1.01v7.619h-1.22v-11.1h1.2l.02,1.764a3.67,3.67,0,0,1,1.225-1.441,3.3,3.3,0,0,1,1.9-.528,2.722,2.722,0,0,1,.461.041,1.54,1.54,0,0,1,.349.093Z" fill="#1d1c19"/>
          <path id="Caminho_7165" data-name="Caminho 7165" d="M-124.024-9.574a6.823,6.823,0,0,1,.354-2.237,5.309,5.309,0,0,1,1-1.768,4.572,4.572,0,0,1,1.558-1.163,4.8,4.8,0,0,1,2.03-.421,4.885,4.885,0,0,1,2.056.421,4.566,4.566,0,0,1,1.564,1.163,5.248,5.248,0,0,1,.995,1.768,6.93,6.93,0,0,1,.348,2.237v.338A6.918,6.918,0,0,1-114.467-7a5.233,5.233,0,0,1-.995,1.769,4.527,4.527,0,0,1-1.559,1.159,4.88,4.88,0,0,1-2.04.415,4.888,4.888,0,0,1-2.041-.415,4.593,4.593,0,0,1-1.564-1.159,5.251,5.251,0,0,1-1-1.769,6.811,6.811,0,0,1-.354-2.235Zm1.231.338a6.059,6.059,0,0,0,.246,1.738,4.476,4.476,0,0,0,.717,1.445,3.526,3.526,0,0,0,1.169.99,3.358,3.358,0,0,0,1.6.37,3.329,3.329,0,0,0,1.595-.37,3.525,3.525,0,0,0,1.163-.99,4.457,4.457,0,0,0,.718-1.445,6.059,6.059,0,0,0,.246-1.738v-.338a5.977,5.977,0,0,0-.246-1.718,4.519,4.519,0,0,0-.718-1.451,3.535,3.535,0,0,0-1.174-1,3.365,3.365,0,0,0-1.605-.374,3.283,3.283,0,0,0-1.584.374,3.58,3.58,0,0,0-1.164,1,4.538,4.538,0,0,0-.717,1.451,5.977,5.977,0,0,0-.246,1.718Z" fill="#1d1c19"/>
        </g>
      </g>
      <g id="Próprio" style="isolation: isolate">
        <g id="Grupo_19047" data-name="Grupo 19047" style="isolation: isolate">
          <path id="Caminho_7166" data-name="Caminho 7166" d="M-178.991,16.59v5.547h-2.594V7.207h5.711a6.971,6.971,0,0,1,2.312.354,4.911,4.911,0,0,1,1.708.99,4.227,4.227,0,0,1,1.061,1.507,4.884,4.884,0,0,1,.364,1.9,4.966,4.966,0,0,1-.364,1.947,3.866,3.866,0,0,1-1.061,1.457,4.812,4.812,0,0,1-1.708.912,7.7,7.7,0,0,1-2.312.319Zm0-2.082h3.117a3.985,3.985,0,0,0,1.287-.185,2.363,2.363,0,0,0,.887-.522,2.018,2.018,0,0,0,.507-.806,3.14,3.14,0,0,0,.159-1.02,3.183,3.183,0,0,0-.159-1,2.3,2.3,0,0,0-.507-.857,2.454,2.454,0,0,0-.887-.594,3.37,3.37,0,0,0-1.287-.221h-3.117Z" fill="#1d1c19"/>
          <path id="Caminho_7167" data-name="Caminho 7167" d="M-162.6,13.318c-.164-.027-.33-.047-.5-.061s-.34-.021-.517-.021a2.761,2.761,0,0,0-1.467.349,2.132,2.132,0,0,0-.84.964v7.588h-2.492V11.042h2.379l.061,1.241a3.223,3.223,0,0,1,1.041-1.061,2.711,2.711,0,0,1,1.461-.385,3.038,3.038,0,0,1,.488.046,2.025,2.025,0,0,1,.394.1Z" fill="#1d1c19"/>
          <path id="Caminho_7168" data-name="Caminho 7168" d="M-161.857,16.486a6.863,6.863,0,0,1,.354-2.24,5.311,5.311,0,0,1,1.015-1.789,4.646,4.646,0,0,1,1.615-1.189,5.19,5.19,0,0,1,2.164-.431,5.288,5.288,0,0,1,2.184.431,4.629,4.629,0,0,1,1.625,1.189,5.267,5.267,0,0,1,1.01,1.789,6.971,6.971,0,0,1,.348,2.24V16.7a7,7,0,0,1-.348,2.245,5.187,5.187,0,0,1-1.01,1.79,4.607,4.607,0,0,1-1.621,1.179,5.282,5.282,0,0,1-2.168.426,5.315,5.315,0,0,1-2.179-.426,4.613,4.613,0,0,1-1.62-1.179,5.23,5.23,0,0,1-1.015-1.79,6.889,6.889,0,0,1-.354-2.245Zm2.492.216a6.25,6.25,0,0,0,.154,1.415,3.52,3.52,0,0,0,.482,1.164,2.409,2.409,0,0,0,.835.784,2.4,2.4,0,0,0,1.205.288,2.384,2.384,0,0,0,1.195-.288,2.368,2.368,0,0,0,.83-.784,3.674,3.674,0,0,0,.482-1.164,6.08,6.08,0,0,0,.159-1.415v-.216a5.967,5.967,0,0,0-.159-1.4,3.606,3.606,0,0,0-.487-1.158,2.5,2.5,0,0,0-.836-.8,2.342,2.342,0,0,0-1.2-.3,2.288,2.288,0,0,0-1.2.3,2.525,2.525,0,0,0-.825.8,3.514,3.514,0,0,0-.482,1.158,6.134,6.134,0,0,0-.154,1.4Zm3.343-10.315h2.84l-2.84,3.107h-2Z" fill="#1d1c19"/>
          <path id="Caminho_7169" data-name="Caminho 7169" d="M-139.719,16.7A8.509,8.509,0,0,1-140,18.947a5.443,5.443,0,0,1-.83,1.79,3.925,3.925,0,0,1-1.354,1.179,3.875,3.875,0,0,1-1.84.426,4.22,4.22,0,0,1-1.672-.308,3.618,3.618,0,0,1-1.251-.891V26.4h-2.491V11.042h2.3l.1,1.128a3.588,3.588,0,0,1,1.267-.989,3.992,3.992,0,0,1,1.717-.344,4.081,4.081,0,0,1,1.866.41,3.819,3.819,0,0,1,1.359,1.153,5.332,5.332,0,0,1,.83,1.785,8.79,8.79,0,0,1,.282,2.3Zm-2.481-.216a6.357,6.357,0,0,0-.149-1.4,3.687,3.687,0,0,0-.456-1.148,2.279,2.279,0,0,0-.79-.775,2.263,2.263,0,0,0-1.158-.282,2.483,2.483,0,0,0-1.354.339,2.382,2.382,0,0,0-.841.923v4.922a2.527,2.527,0,0,0,.836.938,2.442,2.442,0,0,0,1.379.354,2.176,2.176,0,0,0,1.154-.292,2.388,2.388,0,0,0,.784-.79,3.644,3.644,0,0,0,.451-1.164A6.64,6.64,0,0,0-142.2,16.7Z" fill="#1d1c19"/>
          <path id="Caminho_7170" data-name="Caminho 7170" d="M-131.8,13.318c-.164-.027-.33-.047-.5-.061s-.34-.021-.518-.021a2.759,2.759,0,0,0-1.466.349,2.139,2.139,0,0,0-.841.964v7.588h-2.492V11.042h2.379l.062,1.241a3.213,3.213,0,0,1,1.041-1.061,2.708,2.708,0,0,1,1.461-.385,3.037,3.037,0,0,1,.487.046,2.039,2.039,0,0,1,.395.1Z" fill="#1d1c19"/>
          <path id="Caminho_7171" data-name="Caminho 7171" d="M-130.224,8.16a1.321,1.321,0,0,1,.364-.953,1.376,1.376,0,0,1,1.041-.379,1.392,1.392,0,0,1,1.046.379,1.313,1.313,0,0,1,.369.953,1.282,1.282,0,0,1-.369.939,1.4,1.4,0,0,1-1.046.374A1.385,1.385,0,0,1-129.86,9.1,1.29,1.29,0,0,1-130.224,8.16Zm2.646,13.977h-2.492V11.042h2.492Z" fill="#1d1c19"/>
          <path id="Caminho_7172" data-name="Caminho 7172" d="M-125.333,16.486a6.862,6.862,0,0,1,.354-2.24,5.344,5.344,0,0,1,1.015-1.789,4.664,4.664,0,0,1,1.615-1.189,5.19,5.19,0,0,1,2.164-.431,5.288,5.288,0,0,1,2.184.431,4.611,4.611,0,0,1,1.625,1.189,5.25,5.25,0,0,1,1.01,1.789,6.943,6.943,0,0,1,.349,2.24V16.7a6.97,6.97,0,0,1-.349,2.245,5.171,5.171,0,0,1-1.01,1.79A4.6,4.6,0,0,1-118,21.916a5.287,5.287,0,0,1-2.169.426,5.315,5.315,0,0,1-2.179-.426,4.621,4.621,0,0,1-1.62-1.179,5.262,5.262,0,0,1-1.015-1.79,6.889,6.889,0,0,1-.354-2.245Zm2.492.216a6.25,6.25,0,0,0,.154,1.415,3.541,3.541,0,0,0,.482,1.164,2.411,2.411,0,0,0,.836.784,2.4,2.4,0,0,0,1.2.288,2.384,2.384,0,0,0,1.195-.288,2.36,2.36,0,0,0,.83-.784,3.7,3.7,0,0,0,.483-1.164A6.136,6.136,0,0,0-117.5,16.7v-.216a6.022,6.022,0,0,0-.158-1.4,3.63,3.63,0,0,0-.488-1.158,2.5,2.5,0,0,0-.835-.8,2.343,2.343,0,0,0-1.2-.3,2.291,2.291,0,0,0-1.195.3,2.544,2.544,0,0,0-.825.8,3.535,3.535,0,0,0-.482,1.158,6.133,6.133,0,0,0-.154,1.4Z" fill="#1d1c19"/>
        </g>
      </g>
    </g>
    <g id="Grupo_12264" data-name="Grupo 12264">
      <g id="Grupo_5748" data-name="Grupo 5748">
        <path id="bubble" d="M-80.46-21.528c-12.985,0-23.553,10.288-23.553,22.935A22.686,22.686,0,0,0-97.319,17.4a32.144,32.144,0,0,1-3.846,7.309,2.044,2.044,0,0,0-.205,1.872,1.478,1.478,0,0,0,1.344,1.008c4.257,0,7.86-1.229,11.949-4.087a58.641,58.641,0,0,0,7.627.842C-67.464,24.343-56.9,14.055-56.9,1.4-56.906-11.24-67.474-21.528-80.46-21.528Z" fill="none" stroke="#1d1c19" stroke-miterlimit="10" stroke-width="2"/>
      </g>
      <g id="Símbolo_62" data-name="Símbolo 62">
        <g id="Grupo_4396" data-name="Grupo 4396">
          <path id="Caminho_4516" data-name="Caminho 4516" d="M-68.141-4.475a1.3,1.3,0,0,0-.356.05l-1.344.371-1.4-3.414a3.06,3.06,0,0,0-2.62-1.753H-87a3.06,3.06,0,0,0-2.62,1.753l-1.4,3.409-1.334-.367a1.341,1.341,0,0,0-.356-.049,1.094,1.094,0,0,0-1.1,1.086c0,.024,0,.048,0,.072v.8A1.424,1.424,0,0,0-92.39-1.1h.153l-.227.551a10.658,10.658,0,0,0-.67,3.391V9.628a1.425,1.425,0,0,0,1.424,1.421h1.859a1.424,1.424,0,0,0,1.423-1.421v-1.7h15.987V9.623a1.425,1.425,0,0,0,1.424,1.421h1.859a1.424,1.424,0,0,0,1.423-1.421V2.837A10.631,10.631,0,0,0-68.4-.554l-.227-.551h.172a1.425,1.425,0,0,0,1.424-1.421v-.8a1.1,1.1,0,0,0-1.05-1.148Zm-21.866,2.6,2.123-5.163A1.838,1.838,0,0,1-86.313-8.09h11.752A1.84,1.84,0,0,1-72.99-7.038l2.123,5.163a.709.709,0,0,1-.27.965.709.709,0,0,1-.437.086H-89.3a.71.71,0,0,1-.79-.618A.708.708,0,0,1-90-1.872Zm4.739,6.531a.57.57,0,0,1-.569.568H-89.87a.57.57,0,0,1-.57-.568V2.726a.57.57,0,0,1,.57-.568h4.033a.569.569,0,0,1,.569.568Zm14.791,0a.57.57,0,0,1-.569.568h-4.033a.57.57,0,0,1-.569-.568V2.726a.569.569,0,0,1,.569-.568h4.038a.569.569,0,0,1,.569.568Z" fill="#1d1c19"/>
        </g>
      </g>
    </g>
  </g>
</svg>
