<svg xmlns="http://www.w3.org/2000/svg" width="40" height="51.401" viewBox="0 0 40 51.401"><defs><style>.a{fill:#F47920;}</style></defs><g transform="translate(-811 -129)"><g transform="translate(811.001 129)"><path class="a" d="M169.378,52.219a1.979,1.979,0,0,0-.531.075l-2.018.561-2.1-5.162a4.572,4.572,0,0,0-3.913-2.652H141.2a4.573,4.573,0,0,0-3.913,2.652l-2.094,5.155-1.993-.555a2.02,2.02,0,0,0-.531-.074,1.645,1.645,0,0,0-1.646,1.751v1.2a2.141,2.141,0,0,0,2.125,2.149h.228l-.338.833a16.289,16.289,0,0,0-1,5.127V73.538a2.14,2.14,0,0,0,2.126,2.148h2.777a2.14,2.14,0,0,0,2.125-2.148V70.977h23.886v2.561a2.14,2.14,0,0,0,2.126,2.148h2.776a2.14,2.14,0,0,0,2.125-2.148V63.284a16.266,16.266,0,0,0-1-5.128l-.339-.833h.257a2.14,2.14,0,0,0,2.126-2.149v-1.2A1.646,1.646,0,0,0,169.378,52.219Zm-32.658,3.937,3.171-7.807a2.748,2.748,0,0,1,2.346-1.591h17.547a2.749,2.749,0,0,1,2.346,1.591l3.171,7.807a1.071,1.071,0,0,1-1.055,1.59H137.774A1.071,1.071,0,0,1,136.719,56.156Zm7.078,9.876a.857.857,0,0,1-.85.859h-6.023a.857.857,0,0,1-.851-.859V63.109a.857.857,0,0,1,.851-.859h6.023a.857.857,0,0,1,.85.859Zm22.092,0a.857.857,0,0,1-.85.859h-6.023a.857.857,0,0,1-.85-.859V63.109a.857.857,0,0,1,.85-.859h6.023a.857.857,0,0,1,.85.859Z" transform="translate(-131.024 -24.285)"/><g transform="translate(2.208 0)"><path class="a" d="M152.906,34.262l-2.665-.679-2.665.679-.21-2.862-1.415-2.418,2.5-1.086,1.786-2.208,1.787,2.208,2.5,1.085L153.115,31.4Z" transform="translate(-132.564 -24.873)"/><path class="a" d="M139.208,36.792l-1.6-.406-1.6.406-.123-1.708-.839-1.432,1.485-.644,1.073-1.326,1.073,1.326,1.486.643-.839,1.432Z" transform="translate(-132.993 -24.518)"/><path class="a" d="M164.273,36.792l-1.6-.406-1.6.406-.124-1.708-.838-1.432,1.485-.644,1.074-1.326,1.073,1.326,1.485.643-.839,1.432Z" transform="translate(-131.941 -24.518)"/><path class="a" d="M145.1,43.628l-2.286-2.857a12.781,12.781,0,0,0-2.9-2.66l-.424-.282,1.692-3.384.553.414a7.413,7.413,0,0,1,2.893,4.985Z" transform="translate(-132.827 -24.354)"/><path class="a" d="M155.214,43.628l.472-3.783a7.413,7.413,0,0,1,2.893-4.985l.553-.415,1.693,3.382-.424.283a12.805,12.805,0,0,0-2.9,2.659Z" transform="translate(-132.135 -24.354)"/><path class="a" d="M153.334,41.63a11.9,11.9,0,0,1,2.753-7.6l-.888-.739a13.056,13.056,0,0,0-3.019,8.341v2.418h1.154Z" transform="translate(-132.253 -24.422)"/><path class="a" d="M155.994,31.458h1.155v1.155h-1.155Z" transform="translate(-132.055 -24.531)"/><path class="a" d="M157.629,29.279h1.154v1.154h-1.154Z" transform="translate(-131.98 -24.66)"/><path class="a" d="M146.885,44.049h1.154V41.63a13.054,13.054,0,0,0-3.019-8.341l-.888.739a11.9,11.9,0,0,1,2.753,7.6Z" transform="translate(-132.614 -24.422)"/><path class="a" d="M142.916,31.458h1.155v1.155h-1.155Z" transform="translate(-132.657 -24.531)"/><path class="a" d="M141.282,29.279h1.154v1.154h-1.154Z" transform="translate(-132.732 -24.66)"/><path class="a" d="M149.455,34.183h1.155v1.154h-1.155Z" transform="translate(-132.356 -24.369)"/><path class="a" d="M149.455,36.362h1.155v7.5h-1.155Z" transform="translate(-132.356 -24.24)"/><path class="a" d="M164.712,39.632h1.155v1.154h-1.155Z" transform="translate(-131.669 -24.046)"/><path class="a" d="M164.712,41.811h1.155v1.155h-1.155Z" transform="translate(-131.669 -23.917)"/><path class="a" d="M165.8,40.721h1.155v1.155H165.8Z" transform="translate(-131.604 -23.981)"/><path class="a" d="M163.622,40.721h1.155v1.155h-1.155Z" transform="translate(-131.733 -23.981)"/><path class="a" d="M163.078,24.919h1.154v1.155h-1.154Z" transform="translate(-131.766 -24.919)"/><path class="a" d="M163.078,27.1h1.154v1.155h-1.154Z" transform="translate(-131.766 -24.79)"/><path class="a" d="M164.167,26.009h1.155v1.155h-1.155Z" transform="translate(-131.701 -24.854)"/><path class="a" d="M161.988,26.009h1.155v1.155h-1.155Z" transform="translate(-131.83 -24.854)"/><path class="a" d="M134.2,41.811h1.155v1.155H134.2Z" transform="translate(-133.043 -23.917)"/><path class="a" d="M134.2,43.991h1.155v1.155H134.2Z" transform="translate(-133.043 -23.787)"/><path class="a" d="M135.288,42.9h1.155v1.155h-1.155Z" transform="translate(-132.979 -23.852)"/><path class="a" d="M133.108,42.9h1.155v1.155h-1.155Z" transform="translate(-133.108 -23.852)"/><path class="a" d="M134.2,24.919h1.155v1.155H134.2Z" transform="translate(-133.043 -24.919)"/><path class="a" d="M134.2,27.1h1.155v1.155H134.2Z" transform="translate(-133.043 -24.79)"/><path class="a" d="M135.288,26.009h1.155v1.155h-1.155Z" transform="translate(-132.979 -24.854)"/><path class="a" d="M133.108,26.009h1.155v1.155h-1.155Z" transform="translate(-133.108 -24.854)"/></g></g></g></svg>