<svg xmlns="http://www.w3.org/2000/svg" width="44.032" height="32" viewBox="0 0 44.032 32"><defs><style>.a{fill:#f97d00;}</style></defs><g transform="translate(4.926 13.431)"><rect class="a" width="8.2" height="1.642"/></g><g transform="translate(4.926 17.665)"><rect class="a" width="12.306" height="1.642"/></g><g transform="translate(4.926 21.899)"><g transform="translate(0 0)"><rect class="a" width="29.538" height="1.642"/></g></g><g transform="translate(4.926 25.525)"><rect class="a" width="4.926" height="1.642"/></g><g transform="translate(11.174 25.525)"><rect class="a" width="4.926" height="1.642"/></g><g transform="translate(18.164 25.525)"><rect class="a" width="4.926" height="1.642"/></g><g transform="translate(22.564 12.388)"><path class="a" d="M276.968,217.288a3.217,3.217,0,0,0-1.632.451,3.284,3.284,0,1,0,0,5.667,3.217,3.217,0,0,0,1.632.451,3.284,3.284,0,0,0,0-6.568Zm-2.864,4.866a1.524,1.524,0,0,1-.421.06,1.642,1.642,0,1,1,0-3.284,1.936,1.936,0,0,1,.421.06,3.186,3.186,0,0,0,0,3.164Zm2.864.06a1.642,1.642,0,1,1,1.642-1.642A1.65,1.65,0,0,1,276.968,222.214Z" transform="translate(-270.4 -217.288)"/></g><g transform="translate(0 0)"><path class="a" d="M42.551,78.941l-29.8-9.413a2.035,2.035,0,0,0-2.67,1.387L7.628,78.672h-5.5A2.142,2.142,0,0,0,0,80.8V99.276a2.131,2.131,0,0,0,2.132,2.132H33.389a2.117,2.117,0,0,0,1.777-.962,9.954,9.954,0,0,0,1.179.269,2.112,2.112,0,0,0,2.028-1.491l5.565-17.613A2.059,2.059,0,0,0,42.551,78.941ZM10.575,74.052l14.64,4.62H15.776L9.717,76.757ZM9.292,78.118l1.777.563H9.119ZM34.1,99.276h-.009a.714.714,0,0,1-.711.711H2.132a.714.714,0,0,1-.711-.711V80.8a.714.714,0,0,1,.711-.711H33.389a.714.714,0,0,1,.711.711V99.276ZM37.02,98.8a.717.717,0,0,1-.893.459l-.615-.191V86.4l4.932,1.56Zm3.849-12.2-5.357-1.69V81.931l6.215,1.959Zm1.716-5.417-.425,1.352-6.683-2.106a2.13,2.13,0,0,0-2.089-1.751H29.93L11,72.7l.425-1.352a.714.714,0,0,1,.893-.459l29.8,9.4A.67.67,0,0,1,42.585,81.186Z" transform="translate(0 -69.408)"/></g></svg>