<svg xmlns="http://www.w3.org/2000/svg" width="41.355" height="32.4" viewBox="0 0 41.355 32.4"><defs><style>.a{fill:#f97d00;stroke:#fff;stroke-width:0.4px;}</style></defs><g transform="translate(0.2 0.2)"><path class="a" d="M1.118,0A1.118,1.118,0,1,1,0,1.118,1.118,1.118,0,0,1,1.118,0Z" transform="translate(21.938 29.764)"/><path class="a" d="M48.55,86.645A5.146,5.146,0,0,0,43.805,83.5H13.15A5.146,5.146,0,0,0,8,88.65v21.7a5.146,5.146,0,0,0,5.15,5.15H26.433a1.03,1.03,0,1,0,0-2.06H13.15a3.1,3.1,0,0,1-3.09-3.09V89.68H46.9v20.67a3.1,3.1,0,0,1-3.09,3.09H35.7a1.03,1.03,0,1,0,0,2.06h8.1a5.146,5.146,0,0,0,5.15-5.15V88.65a5.11,5.11,0,0,0-.4-2ZM13.15,85.56H43.805a3.1,3.1,0,0,1,2.911,2.06H10.239A3.1,3.1,0,0,1,13.15,85.56Z" transform="translate(-8 -83.5)"/><circle class="a" cx="1.118" cy="1.118" r="1.118" transform="translate(34.427 24.593)"/><circle class="a" cx="1.118" cy="1.118" r="1.118" transform="translate(30.17 24.593)"/><circle class="a" cx="1.118" cy="1.118" r="1.118" transform="translate(20.942 24.593)"/><circle class="a" cx="1.118" cy="1.118" r="1.118" transform="translate(25.556 24.593)"/><path class="a" d="M251.118,274.236h7.6a1.118,1.118,0,0,0,0-2.236h-7.6a1.118,1.118,0,1,0,0,2.236Z" transform="translate(-229.475 -252.7)"/><path class="a" d="M251.118,234.236h15.1a1.118,1.118,0,0,0,0-2.236h-15.1a1.118,1.118,0,1,0,0,2.236Z" transform="translate(-230.669 -216.795)"/><path class="a" d="M251.118,194.236h15.1a1.118,1.118,0,0,0,0-2.236h-15.1a1.118,1.118,0,1,0,0,2.236Z" transform="translate(-230.669 -180.891)"/><path class="a" d="M55,206.655a1.118,1.118,0,0,0,1.118,1.118H69.537a1.118,1.118,0,0,0,1.118-1.118,7.835,7.835,0,0,0-4.337-7,5.032,5.032,0,1,0-6.98,0A7.835,7.835,0,0,0,55,206.655Zm5.032-10.623a2.8,2.8,0,1,1,2.8,2.8A2.8,2.8,0,0,1,60.032,196.032Zm2.8,5.032a5.6,5.6,0,0,1,5.479,4.473H57.349A5.6,5.6,0,0,1,62.827,201.064Z" transform="translate(-50.768 -180.813)"/></g></svg>