<svg xmlns="http://www.w3.org/2000/svg" width="22.519" height="23.057" viewBox="0 0 22.519 23.057"><defs><style>.a{fill:none;stroke:#858585;stroke-width:1.2px;}</style></defs><g transform="translate(4221.635 342.62)"><path class="a" d="M20.975,13.994a8.916,8.916,0,0,0,.068-1.066,6.737,6.737,0,0,0-.082-1.066l2.309-1.8a.565.565,0,0,0,.137-.7L21.221,5.579a.555.555,0,0,0-.669-.246L17.833,6.426a8,8,0,0,0-1.844-1.066l-.41-2.9A.545.545,0,0,0,15.033,2H10.661a.532.532,0,0,0-.533.464l-.41,2.9A8.217,8.217,0,0,0,7.875,6.426L5.156,5.333a.54.54,0,0,0-.669.246L2.3,9.363a.529.529,0,0,0,.137.7l2.309,1.8a6.438,6.438,0,0,0-.014,2.131L2.424,15.8a.565.565,0,0,0-.137.7l2.186,3.784a.555.555,0,0,0,.669.246l2.718-1.093A8,8,0,0,0,9.705,20.5l.41,2.9a.556.556,0,0,0,.546.464h4.371a.522.522,0,0,0,.533-.464l.41-2.9a8.217,8.217,0,0,0,1.844-1.066l2.718,1.093a.54.54,0,0,0,.669-.246l2.186-3.784a.529.529,0,0,0-.137-.7l-2.281-1.8Zm-8.128,3.033a4.1,4.1,0,1,1,4.1-4.1A4.11,4.11,0,0,1,12.847,17.027Z" transform="translate(-4223.223 -344.02)"/></g></svg>