<svg xmlns="http://www.w3.org/2000/svg" width="15.937" height="16" viewBox="0 0 15.937 16"><defs><style>.a{fill:#f97d00;}.b{fill:#fff;}</style></defs><path class="a" d="M.469,16A.469.469,0,0,1,0,15.53V13.606H0a.468.468,0,0,1,.469-.45H.938V1.4A1.407,1.407,0,0,1,2.344,0h7.5A1.407,1.407,0,0,1,11.25,1.4V8.469h.469a1.407,1.407,0,0,1,1.406,1.4v1.408a.938.938,0,0,0,1.876,0V7.531H13.594a.469.469,0,0,1-.469-.47V3.25L12.4,2.765a.469.469,0,0,1,.519-.78L15.1,3.442A1.873,1.873,0,0,1,15.937,5v6.279a1.875,1.875,0,1,1-3.749,0V9.874a.469.469,0,0,0-.469-.468H11.25v3.75h.469a.469.469,0,0,1,.469.468V15.53a.469.469,0,0,1-.469.47ZM14.063,6.593H15V5a.933.933,0,0,0-.418-.78l-.52-.347Z"/><path class="b" d="M1.905,8.876c0-.909.815-1.7,1.045-2.146a.49.49,0,0,1,.874.012c.207.432,1.039,1.225,1.039,2.135A1.43,1.43,0,0,1,3.384,10.32,1.43,1.43,0,0,1,1.905,8.876Zm1.453.486-.2-.042A.578.578,0,0,0,3.359,9.362ZM.486,3.829A.482.482,0,0,1,0,3.351V.479A.482.482,0,0,1,.486,0H6.321a.483.483,0,0,1,.487.479V3.351a.483.483,0,0,1-.487.479Zm.486-.958H5.835V.958H.972Z" transform="translate(2.7 1.945)"/></svg>
