<svg width="120" height="140" viewBox="0 0 120 140" fill="none" xmlns="http://www.w3.org/2000/svg">
<g clip-path="url(#clip0)">
<path d="M118.454 95.2486L69.2318 13.6177C67.2926 10.4018 63.7552 8.40399 59.9998 8.40399C56.2444 8.40399 52.707 10.4018 50.7675 13.6179L1.5457 95.2486C-0.458438 98.5725 -0.517734 102.737 1.39078 106.117C3.29977 109.496 6.89648 111.596 10.7777 111.596H109.222C113.103 111.596 116.7 109.496 118.609 106.116C120.517 102.736 120.458 98.572 118.454 95.2486ZM111.806 102.275C111.281 103.205 110.29 103.783 109.222 103.783H10.7777C9.70922 103.783 8.71898 103.205 8.19375 102.275C7.66828 101.344 7.68469 100.198 8.23617 99.2831L57.4584 17.6522C57.9923 16.767 58.9662 16.2169 60 16.2169C61.0336 16.2169 62.0074 16.767 62.5413 17.6522L111.763 99.2831C112.315 100.198 112.331 101.344 111.806 102.275Z" fill="#F47920"/>
<path d="M60.0361 40.5481C57.0642 40.5481 54.7448 42.1428 54.7448 44.9698C54.7448 53.5953 55.7595 65.9899 55.7595 74.6156C55.7597 76.8626 57.717 77.8048 60.0363 77.8048C61.7759 77.8048 64.2403 76.8626 64.2403 74.6156C64.2403 65.9902 65.2549 53.5955 65.2549 44.9698C65.2549 42.143 62.8631 40.5481 60.0361 40.5481Z" fill="#F47920"/>
<path d="M60.109 82.8061C56.9198 82.8061 54.5276 85.343 54.5276 88.3875C54.5276 91.3594 56.9196 93.9689 60.109 93.9689C63.0809 93.9689 65.618 91.3594 65.618 88.3875C65.618 85.343 63.0806 82.8061 60.109 82.8061Z" fill="#F47920"/>
</g>
<defs>
<clipPath id="clip0">
<rect width="120" height="140" fill="white"/>
</clipPath>
</defs>
</svg>
