<svg xmlns="http://www.w3.org/2000/svg" width="16" height="11.36" viewBox="0 0 16 11.36"><defs><style>.a{fill:#f97d00;}</style></defs><path class="a" d="M16,70.118a1.8,1.8,0,0,1-.257.911l-5.052-5.351,5-4.139A1.807,1.807,0,0,1,16,62.544v7.573ZM8,66.649l6.953-5.759A2.062,2.062,0,0,0,14,60.651H2a2.054,2.054,0,0,0-.953.239ZM9.939,66.3,8.329,67.635a.523.523,0,0,1-.658,0L6.061,66.3.945,71.72A2.058,2.058,0,0,0,2,72.011H14a2.058,2.058,0,0,0,1.055-.291ZM.312,61.539A1.808,1.808,0,0,0,0,62.544v7.573a1.794,1.794,0,0,0,.257.911l5.051-5.352Z" transform="translate(0 -60.651)"/></svg>