<svg xmlns="http://www.w3.org/2000/svg" width="65.896" height="47.948" viewBox="0 0 65.896 47.948"><defs><style>.a{fill:#dcdcdc;}</style></defs><g transform="translate(0 -66.65)"><g transform="translate(0 66.65)"><path class="a" d="M51.489,114.6H37.351V100.312h4.672A1.462,1.462,0,0,0,43.208,98L34.12,85.42a1.448,1.448,0,0,0-2.356,0L22.675,98a1.458,1.458,0,0,0,1.185,2.316h4.672V114.6H12.7c-7.069-.39-12.7-7-12.7-14.165a13.414,13.414,0,0,1,6.652-11.58A8.993,8.993,0,0,1,6.1,85.716a9.12,9.12,0,0,1,9.129-9.129,8.973,8.973,0,0,1,3.124.552,18.276,18.276,0,0,1,34.725,6.032A15.9,15.9,0,0,1,51.489,114.6Z" transform="translate(0 -66.65)"/></g></g></svg>