<svg xmlns="http://www.w3.org/2000/svg" width="61" height="61" viewBox="0 0 61 61"><defs><style>.a{fill:none;stroke:#dcdcdc;stroke-miterlimit:10;}.b{fill:#f47920;}.c{fill:#f97d00;stroke:#f97d00;stroke-width:0.3px;}</style></defs><g transform="translate(-1144 -63)"><g transform="translate(860.5 30.694)"><circle class="a" cx="30" cy="30" r="30" transform="translate(284 32.806)"/><g transform="translate(47.699 -195.692)"><path class="b" d="M18527.875,1280a2.108,2.108,0,0,1-2.111-2.1v-2.507H18502.8v2.507a2.1,2.1,0,0,1-2.107,2.1h-2.752a2.1,2.1,0,0,1-2.1-2.1v-10.037a15.7,15.7,0,0,1,.99-5.019l.336-.819h-.256a2.107,2.107,0,0,1-2.107-2.1v-1.177a1.622,1.622,0,0,1,1.633-1.716,1.883,1.883,0,0,1,.525.074l2,.549,2.078-5.056a4.549,4.549,0,0,1,3.881-2.6h18.729a4.572,4.572,0,0,1,3.555,1.991,8.5,8.5,0,0,0-1.865,2.177l-.006,0v0l-.381-.93a2.724,2.724,0,0,0-2.326-1.558h-16.678a2.721,2.721,0,0,0-2.326,1.558l-3.148,7.646a1.05,1.05,0,0,0,1.051,1.553h23.512a8.59,8.59,0,0,0,7.656,4.707h.008c.023.265.033.5.033.716V1277.9a2.1,2.1,0,0,1-2.107,2.1Zm-6.855-12.311v2.86a.844.844,0,0,0,.842.842h5.973a.842.842,0,0,0,.842-.842v-2.86a.842.842,0,0,0-.842-.842h-5.973A.844.844,0,0,0,18521.02,1267.686Zm-21.131,0v2.86a.846.846,0,0,0,.842.842h5.973a.842.842,0,0,0,.842-.842v-2.86a.845.845,0,0,0-.842-.842h-5.973A.849.849,0,0,0,18499.889,1267.686Z" transform="translate(-18248.002 -1006)"/><g transform="translate(277.829 245.714)"><path class="b" d="M128.778,135.427a6.857,6.857,0,0,1,13.714-.029,6.857,6.857,0,1,1-13.714.029Zm1.694-.036a5.155,5.155,0,1,0,5.133-5.117A5.185,5.185,0,0,0,130.472,135.391Z" transform="translate(-128.778 -128.58)"/><path class="c" d="M48.6,21.431h-3.32V17.438a.608.608,0,1,0-1.217,0v4.6a.608.608,0,0,0,.608.608H48.6a.608.608,0,1,0,0-1.217Z" transform="translate(-38.513 -13.828)"/></g></g></g></g></svg>