<svg xmlns="http://www.w3.org/2000/svg" xmlns:xlink="http://www.w3.org/1999/xlink" width="26.847" height="24.219" viewBox="0 0 26.847 24.219"><defs><style>.a{fill:#fff;stroke:#fff;stroke-linecap:square;stroke-width:1.3px;}.b{filter:url(#a);}</style><filter id="a" x="0" y="0" width="26.847" height="24.219" filterUnits="userSpaceOnUse"><feOffset dy="1" input="SourceAlpha"/><feGaussianBlur stdDeviation="0.5" result="b"/><feFlood flood-opacity="0.361"/><feComposite operator="in" in2="b"/><feComposite in="SourceGraphic"/></filter></defs><g class="b" transform="matrix(1, 0, 0, 1, 0, 0)"><path class="a" d="M16.558,29.836a5.724,5.724,0,0,0-4.723,2.609,8.645,8.645,0,0,0-.561.91,8.637,8.637,0,0,0-.561-.91,5.679,5.679,0,0,0-9.067-.652A6.834,6.834,0,0,0,0,36.332a8.369,8.369,0,0,0,2.305,5.491,51.318,51.318,0,0,0,5.769,5.39c.873.744,1.775,1.512,2.735,2.353l.029.025a.661.661,0,0,0,.87,0l.029-.025c.961-.84,1.863-1.609,2.735-2.353a51.31,51.31,0,0,0,5.769-5.39,8.369,8.369,0,0,0,2.305-5.491A6.834,6.834,0,0,0,20.9,31.793,5.713,5.713,0,0,0,16.558,29.836ZM13.616,46.208c-.752.641-1.526,1.3-2.342,2.01-.816-.709-1.59-1.369-2.343-2.01-4.582-3.9-7.61-6.485-7.61-9.876a5.516,5.516,0,0,1,1.315-3.666,4.409,4.409,0,0,1,3.353-1.509,4.453,4.453,0,0,1,3.645,2.052,7.831,7.831,0,0,1,1.011,2.011.661.661,0,0,0,1.256,0,7.832,7.832,0,0,1,1.011-2.011,4.36,4.36,0,0,1,7-.543,5.515,5.515,0,0,1,1.315,3.666C21.226,39.723,18.2,42.3,13.616,46.208Z" transform="translate(2.15 -28.69)"/></g></svg>