<svg xmlns="http://www.w3.org/2000/svg" xmlns:xlink="http://www.w3.org/1999/xlink" width="48.829" height="38.749" viewBox="0 0 48.829 38.749"><defs><style>.a,.c,.d,.e{fill:none;}.b{clip-path:url(#a);}.c,.e{stroke:#606060;}.c,.d{stroke-linecap:round;stroke-linejoin:round;stroke-width:2.5px;}.d,.f{stroke:#707070;}.e{stroke-width:2px;}.f{fill:#606060;}.g{stroke:none;}</style><clipPath id="a"><rect class="a" width="48.829" height="38.749"/></clipPath></defs><g class="b"><path class="c" d="M-1035.3,1226.144l4.426-2.948,9.449,14.037s-.738,1.648-1.737,1.375" transform="translate(1036.547 -1201.163)"/><path class="c" d="M-1019.717,1216.669l7.275-4.487h13.874s2.4.853,2.334,2.725a5.366,5.366,0,0,1-1.514,3.265l13.591-6.913s3.116-1.987,4.709.382-1.56,4.346-1.56,4.346l-15.943,9.361-13.86,1.383-1.441,1.009" transform="translate(1026.546 -1193)"/><path class="d" d="M-983.409,1231.97s6.079.028,7.547,0,1.638-.424,1.638-.424" transform="translate(1003.241 -1206.522)"/><g class="e" transform="translate(16.547)"><circle class="g" cx="8" cy="8" r="8"/><circle class="a" cx="8" cy="8" r="7"/></g><path class="f" d="M3.582-1.652A.919.919,0,0,0,3.3-2.327a2.421,2.421,0,0,0-.925-.5,3.189,3.189,0,0,1-1.34-.716,1.607,1.607,0,0,1-.453-1.2A1.685,1.685,0,0,1,1-5.919a1.8,1.8,0,0,1,1.147-.549V-7.44h.694v.976a1.679,1.679,0,0,1,1.14.631A2.242,2.242,0,0,1,4.39-4.425H3.529a1.579,1.579,0,0,0-.275-.967.9.9,0,0,0-.767-.369,1.03,1.03,0,0,0-.778.27,1.025,1.025,0,0,0-.259.74.925.925,0,0,0,.268.69,2.626,2.626,0,0,0,.962.5,3.324,3.324,0,0,1,1.332.723,1.584,1.584,0,0,1,.435,1.176,1.618,1.618,0,0,1-.453,1.2A2,2,0,0,1,2.751.075V.914H2.065V.075A2.014,2.014,0,0,1,.826-.477,1.8,1.8,0,0,1,.36-1.863l.009-.022H1.2a1.2,1.2,0,0,0,.341.965,1.253,1.253,0,0,0,.837.288A1.318,1.318,0,0,0,3.265-.9.933.933,0,0,0,3.582-1.652Z" transform="translate(22.547 11)"/></g></svg>