<svg xmlns="http://www.w3.org/2000/svg" width="50" height="50" viewBox="0 0 50 50"><defs><style>.a{fill:#fff;stroke:#F47920;}.b{fill:none;}.c{fill:#F47920;}.d{stroke:none;}</style></defs><g transform="translate(9491 -8619.036)"><g transform="translate(-9491 8619.036)"><g class="a" transform="translate(0 0)"><circle class="d" cx="25" cy="25" r="25"/><circle class="b" cx="25" cy="25" r="24.5"/></g></g><g transform="translate(-9481.5 8628.536)"><rect class="b" width="31" height="31"/><g transform="translate(1.974 3.293)"><path class="c" d="M26.379,5.709H22.085L19.607,3H11.481L9,5.709H4.709A2.717,2.717,0,0,0,2,8.418V24.67a2.717,2.717,0,0,0,2.709,2.709h21.67a2.717,2.717,0,0,0,2.709-2.709V8.418A2.717,2.717,0,0,0,26.379,5.709ZM15.544,23.316a6.774,6.774,0,0,1-6.772-6.772H6.063l3.386-3.386,3.386,3.386H10.126a5.416,5.416,0,0,0,5.418,5.418,5.356,5.356,0,0,0,2.194-.474l1,1A6.877,6.877,0,0,1,15.544,23.316Zm6.095-3.386-3.386-3.386h2.709a5.416,5.416,0,0,0-5.418-5.418,5.356,5.356,0,0,0-2.194.474l-1-.989a6.716,6.716,0,0,1,9.968,5.932h2.709Z" transform="translate(-2 -3)"/></g></g></g></svg>