<svg xmlns="http://www.w3.org/2000/svg" width="20" height="20" viewBox="0 0 20 20"><defs><style>.a{fill:none;}.b{fill:#f37920;}</style></defs><path class="a" d="M0,0H20V20H0Z"/><path class="b" d="M10,6.727A3.273,3.273,0,1,0,13.273,10,3.272,3.272,0,0,0,10,6.727Zm7.315,2.455a7.359,7.359,0,0,0-6.5-6.5V1H9.182V2.685a7.359,7.359,0,0,0-6.5,6.5H1v1.636H2.685a7.359,7.359,0,0,0,6.5,6.5V19h1.636V17.315a7.359,7.359,0,0,0,6.5-6.5H19V9.182H17.315ZM10,15.727A5.727,5.727,0,1,1,15.727,10,5.723,5.723,0,0,1,10,15.727Z"/></svg>