<svg xmlns="http://www.w3.org/2000/svg" width="33.602" height="32" viewBox="0 0 33.602 32"><defs><style>.a{fill:#58595b;}</style></defs><g transform="translate(-136 -710)"><g transform="translate(-280)"><g transform="translate(-13.084 2)"><g transform="translate(429.084 708)"><g transform="translate(0 0)"><g transform="translate(6.043 0)"><path class="a" d="M27.173,23.275a.749.749,0,1,0,.749.749A.749.749,0,0,0,27.173,23.275Z" transform="translate(-14.436 -11.897)"/><path class="a" d="M12.672,23.944H30.653A2.249,2.249,0,0,0,32.9,21.7V10.321a2.249,2.249,0,0,0-2.248-2.246H12.672a2.249,2.249,0,0,0-2.248,2.246V21.7A2.249,2.249,0,0,0,12.672,23.944Zm17.981-1.5H12.672a.75.75,0,0,1-.749-.749V15.56H31.4V21.7A.75.75,0,0,1,30.653,22.447ZM12.672,9.572H30.653a.75.75,0,0,1,.749.749v.749H11.922v-.749A.75.75,0,0,1,12.672,9.572Z" transform="translate(-10.424 -8.075)"/><path class="a" d="M34.169,23.275h-3a.749.749,0,1,0,0,1.5h3a.749.749,0,1,0,0-1.5Z" transform="translate(-15.44 -11.897)"/></g><g transform="translate(0 13.656)"><path class="a" d="M-422.079,140.47a7.846,7.846,0,0,1,3.162.657.717.717,0,0,0,.288.06h8.156a1.44,1.44,0,0,1,1.437,1.435,1.437,1.437,0,0,1-1.437,1.435h-5.859a.718.718,0,0,0-.718.717.718.718,0,0,0,.718.717h5.859a2.874,2.874,0,0,0,2.873-2.87,2.906,2.906,0,0,0-.025-.375c4.1-4.21,4.678-4.8,4.7-4.831a1.442,1.442,0,0,1,2.025-.171,1.437,1.437,0,0,1,.168,2.025l-6.442,7.694a5,5,0,0,1-3.481,1.4H-420.2a3.573,3.573,0,0,0-2.493,1.006l-.61.588-5.626-5.621A7.416,7.416,0,0,1-422.079,140.47Z" transform="translate(433.992 -136.909)"/><path class="a" d="M-496.491,250.152a.717.717,0,0,1,.889-.1c.124.076-.233-.249,6.22,6.189a.719.719,0,0,1,0,1.011l-2.968,2.922-7.057-7.1Z" transform="translate(499.402 -241.828)"/></g></g></g></g></g></g></svg>