<svg xmlns="http://www.w3.org/2000/svg" width="15.158" height="12" viewBox="0 0 15.158 12">
  <g id="ICON_speed" data-name="ICON/ speed" transform="translate(2473.157 -1897.985)">
    <g id="Group_521" data-name="Group 521" transform="translate(-2473.157 1897.985)">
      <path id="Path_3568" data-name="Path 3568" d="M7.98,10.778a2.537,2.537,0,0,0-.4-.036,2.508,2.508,0,0,0-2.213,1.205,2.6,2.6,0,0,0,.948,3.508,2.459,2.459,0,0,0,1.263.281,2.558,2.558,0,0,0,2.21-1.263,2.435,2.435,0,0,0-.213-2.751l.845-3.249ZM8.672,13.9a1.214,1.214,0,0,1-1.094.574,1.2,1.2,0,0,1-.631-.112A1.263,1.263,0,0,1,7.581,12a1.243,1.243,0,0,1,.629.17A1.264,1.264,0,0,1,8.672,13.9ZM7.579,5A7.79,7.79,0,0,0,0,12.895,7.39,7.39,0,0,0,1.235,17H4.421V15.737H1.895a6.063,6.063,0,0,1-.632-2.842A6.546,6.546,0,0,1,7.579,6.263a6.546,6.546,0,0,1,6.316,6.631,6.063,6.063,0,0,1-.632,2.842H10.737V17h3.158a7.412,7.412,0,0,0,1.263-4.105A7.79,7.79,0,0,0,7.579,5Z" transform="translate(0 -5)" fill="#858585"/>
    </g>
  </g>
</svg>
