<svg xmlns="http://www.w3.org/2000/svg" width="14.013" height="14.01" viewBox="0 0 14.013 14.01"><defs><style>.a{fill:#858585;stroke:#858585;stroke-width:0.3px;}</style></defs><g transform="translate(-415.85 -3812.85)"><rect class="a" width="2.057" height="0.686" transform="translate(424.056 3821.396)"/><path class="a" d="M13.567.264A.686.686,0,0,0,13.027,0H6.172a.685.685,0,0,0-.485.2L.2,5.685A.685.685,0,0,0,0,6.17v6.855a.685.685,0,0,0,.686.686H11.656a.685.685,0,0,0,.686-.686V6.254l1.35-5.4A.686.686,0,0,0,13.567.264ZM11.656,13.025H.688V6.855H11.656Zm0-6.855H.688L6.172.686h6.855Z" transform="translate(415.998 3813)"/></g></svg>