<svg xmlns="http://www.w3.org/2000/svg" width="15.2" height="15.2" viewBox="0 0 15.2 15.2">
  <g id="calendar" transform="translate(2379.2 -1896.8)">
    <path id="Path_3532" data-name="Path 3532" d="M1.9,2.375V.475a.475.475,0,1,1,.95,0v1.9a.475.475,0,0,1-.95,0Zm8.075.475a.475.475,0,0,0,.475-.475V.475a.475.475,0,1,0-.95,0v1.9A.475.475,0,0,0,9.975,2.85ZM15.2,11.4a3.8,3.8,0,1,1-3.8-3.8A3.8,3.8,0,0,1,15.2,11.4Zm-.95,0a2.85,2.85,0,1,0-2.85,2.85A2.853,2.853,0,0,0,14.25,11.4ZM3.8,5.7H1.9V7.6H3.8ZM1.9,10.45H3.8V8.55H1.9ZM4.75,7.6h1.9V5.7H4.75Zm0,2.85h1.9V8.55H4.75Zm-3.8.855V4.75H11.4v1.9h.95V2.945A1.036,1.036,0,0,0,11.321,1.9h-.4v.475a.95.95,0,1,1-1.9,0V1.9h-5.7v.475a.95.95,0,1,1-1.9,0V1.9h-.4A1.037,1.037,0,0,0,0,2.945v8.361A1.038,1.038,0,0,0,1.03,12.35H6.65V11.4H1.03A.09.09,0,0,1,.95,11.305ZM9.5,7.6V5.7H7.6V7.6Zm1.9,1.425h-.475v2.85h2.85V11.4A2.377,2.377,0,0,0,11.4,9.025Z" transform="translate(-2379.2 1896.8)" fill="#858585"/>
  </g>
</svg>
