<svg xmlns="http://www.w3.org/2000/svg" width="16.005" height="16.005" viewBox="0 0 16.005 16.005"><defs><style>.a{fill:none;}.b{fill:#858585;}</style></defs><g transform="translate(-413 -3849.995)"><g transform="translate(413 3849.995)"><path class="a" d="M0,0H16V16H0Z"/></g><g transform="translate(414.334 3851.329)"><path class="b" d="M8.669,15.337A6.669,6.669,0,0,1,8.669,2c3.674,0,6.669,2.694,6.669,6a4,4,0,0,1-4,4h-1.18a.33.33,0,0,0-.333.333.352.352,0,0,0,.087.22,1.7,1.7,0,0,1,.427,1.114A1.668,1.668,0,0,1,8.669,15.337Zm0-12a5.335,5.335,0,0,0,0,10.67A.33.33,0,0,0,9,13.67a.361.361,0,0,0-.093-.233,1.663,1.663,0,0,1,1.247-2.768h1.18A2.667,2.667,0,0,0,14,8C14,5.428,11.61,3.334,8.669,3.334Z" transform="translate(-2 -2)"/><circle class="b" cx="1" cy="1" r="1" transform="translate(2.001 5.335)"/><circle class="b" cx="1" cy="1" r="1" transform="translate(4.001 2.667)"/><circle class="b" cx="1" cy="1" r="1" transform="translate(7.336 2.667)"/><circle class="b" cx="1" cy="1" r="1" transform="translate(9.336 5.335)"/></g></g></svg>