<svg xmlns="http://www.w3.org/2000/svg" width="16" height="16" viewBox="0 0 16 16"><defs><style>.a{fill:none;}.b{fill:#858585;}</style></defs><g transform="translate(-414 -3700)"><g transform="translate(414 3700)"><path class="a" d="M0,0H16V16H0Z"/></g><g transform="translate(416.667 3702)"><path class="b" d="M14.513,5.82l.007-.007-2.48-2.48-.707.707L12.74,5.447a1.664,1.664,0,0,0,.593,3.22A1.7,1.7,0,0,0,14,8.527v4.807a.667.667,0,0,1-1.333,0v-3A1.337,1.337,0,0,0,11.333,9h-.667V4.333A1.337,1.337,0,0,0,9.333,3h-4A1.337,1.337,0,0,0,4,4.333V15h6.667V10h1v3.333a1.667,1.667,0,0,0,3.333,0V7A1.668,1.668,0,0,0,14.513,5.82ZM9.333,10v3.667h-4V9h4Zm0-2.333h-4V4.333h4Zm4,0A.667.667,0,1,1,14,7,.669.669,0,0,1,13.333,7.667Z" transform="translate(-4 -3)"/></g></g></svg>