<svg xmlns="http://www.w3.org/2000/svg" width="11" height="12" viewBox="0 0 11 12">
  <g id="ICON_gearshift" data-name="ICON/ gearshift" transform="translate(-303 -1212)">
    <g id="Group_491" data-name="Group 491" transform="translate(303 1212)">
      <path id="Path_3551" data-name="Path 3551" d="M31.334,9.092V2.907a1.5,1.5,0,1,0-1,0V5.5h-3V2.907a1.5,1.5,0,1,0-1,0V5.5h-3V2.907a1.5,1.5,0,1,0-1,0V6a.5.5,0,0,0,.5.5h3.5V9.092a1.5,1.5,0,1,0,1,0V6.5h3V9.092a1.5,1.5,0,1,0,1,0Z" transform="translate(-21.334)" fill="#858585"/>
    </g>
  </g>
</svg>
