<svg xmlns="http://www.w3.org/2000/svg" width="61" height="61" viewBox="0 0 61 61"><defs><style>.a{fill:none;stroke:#dcdcdc;stroke-miterlimit:10;}.b{fill:#F47920;}</style></defs><g transform="translate(-1143.5 -63.5)"><g transform="translate(860.5 30.694)"><circle class="a" cx="30" cy="30" r="30" transform="translate(283.5 33.306)"/><path class="b" d="M311.148,49.246a3.278,3.278,0,1,1-.994,2.352A3.214,3.214,0,0,1,311.148,49.246Z"/><path class="b" d="M318.047,77.889a1.626,1.626,0,0,1-1.2.47h-6.691a1.672,1.672,0,1,1,0-3.344h1.673V61.633h-1.673a1.673,1.673,0,1,1,0-3.345H313.5a1.612,1.612,0,0,1,1.674,1.672V75.015h1.672a1.7,1.7,0,0,1,1.2,2.874Z"/></g></g></svg>