<svg xmlns="http://www.w3.org/2000/svg" width="28.87" height="28.87" viewBox="0 0 28.87 28.87"><defs><style>.a{fill:#F47920;}.b{fill:#fff;fill-rule:evenodd;}</style></defs><rect class="a" width="28.87" height="28.87"/><path class="b" d="M19.33,7.31H9.54A2.23,2.23,0,0,0,7.31,9.54h0v9.79a2.23,2.23,0,0,0,2.23,2.23h9.79a2.23,2.23,0,0,0,2.23-2.23V9.54a2.23,2.23,0,0,0-2.23-2.23Zm-1.84,2a.4.4,0,0,1,.4-.4h1.72a.4.4,0,0,1,.4.4V11a.4.4,0,0,1-.4.4H17.89a.4.4,0,0,1-.4-.4Zm-5.68,4.13a2.82,2.82,0,0,1,3.65-1.6,2.85,2.85,0,0,1,1.8,2.63,2.82,2.82,0,1,1-5.64,0,2.77,2.77,0,0,1,.19-1.06Zm8.24,5.92a.72.72,0,0,1-.72.72H9.54a.72.72,0,0,1-.72-.72V13.41h1.41a4.33,4.33,0,1,0,8.41,2.05,4.18,4.18,0,0,0,0-2.05h1.41Z"/></svg>