<svg xmlns="http://www.w3.org/2000/svg" width="16" height="16" viewBox="0 0 16 16"><defs><style>.a{fill:#fff;}.b{fill:#858585;}</style></defs><g transform="translate(-427 -134)"><rect class="a" width="16" height="16" transform="translate(427 134)"/><g transform="translate(428 135.985)"><path class="b" d="M7.37,10.336A2.343,2.343,0,0,0,7,10.3a2.316,2.316,0,0,0-2.044,1.113,2.4,2.4,0,0,0,.875,3.24A2.271,2.271,0,0,0,7,14.917,2.362,2.362,0,0,0,9.042,13.75a2.249,2.249,0,0,0-.2-2.541l.78-3Zm.64,2.883A1.121,1.121,0,0,1,7,13.75a1.112,1.112,0,0,1-.583-.1A1.167,1.167,0,0,1,7,11.47a1.148,1.148,0,0,1,.581.157A1.168,1.168,0,0,1,8.01,13.22ZM7,5a7.2,7.2,0,0,0-7,7.292,6.825,6.825,0,0,0,1.141,3.792H4.083V14.917H1.75a5.6,5.6,0,0,1-.583-2.625A6.046,6.046,0,0,1,7,6.167a6.046,6.046,0,0,1,5.833,6.125,5.6,5.6,0,0,1-.583,2.625H9.917v1.167h2.917A6.846,6.846,0,0,0,14,12.292,7.2,7.2,0,0,0,7,5Z" transform="translate(0 -5)"/></g></g></svg>