<svg xmlns="http://www.w3.org/2000/svg" width="35.4" height="35.402" viewBox="0 0 35.4 35.402">
  <g id="Versão_Logo_Reduzido" data-name="Versão Logo Reduzido" transform="translate(0 0.001)">
    <path id="Subtração_2" data-name="Subtração 2" d="M-11395.2,20.4h-8.731a3.069,3.069,0,0,1-3.065-3.066V-11.935a3.069,3.069,0,0,1,3.065-3.066h29.27a3.069,3.069,0,0,1,3.065,3.066V17.334a3.069,3.069,0,0,1-3.065,3.066h-14.234a21.963,21.963,0,0,1-.941-6.381c0-6.239,1.492-10.976,4.561-14.48l-5.422-2.911c-3.469,4.378-5.228,10.232-5.228,17.4a28.175,28.175,0,0,0,.727,6.373Zm9.932-31.226A3.928,3.928,0,0,0-11389.2-6.9a3.928,3.928,0,0,0,3.925,3.922,3.925,3.925,0,0,0,3.919-3.922A3.936,3.936,0,0,0-11385.271-10.824Z" transform="translate(11407 15)" fill="#f47920"/>
  </g>
</svg>
