<svg xmlns="http://www.w3.org/2000/svg" width="160.313" height="84.205" viewBox="0 0 160.313 84.205"><defs><style>.a{fill:#585857;}.b{fill:#f15a29;}</style></defs><g transform="translate(-1.005 0.003)"><path class="a" d="M66.067,13.54H57.7L47.76,23.331l2.6-9.791H43.55l-1.78,6.64a13.3,13.3,0,0,1,1.78,6.5,13.135,13.135,0,0,1-2.959,8.3,12.75,12.75,0,0,1-2.911,2.887h6.086l2.815-4.475,2.791-4.811,3.512,9.406H60.1L54.712,24.269Z" transform="translate(51.552 19.037)"/><path class="a" d="M54.189,13.869h8.444l-.722,2.718a9.334,9.334,0,0,1,6.712-3.224,6.183,6.183,0,0,1,6.3,4.234,11.427,11.427,0,0,1,8.708-4.234,6.567,6.567,0,0,1,7.1,7.217,18.954,18.954,0,0,1-.7,4.4l-3.56,13.279H78.1l3.32-12.774a8.588,8.588,0,0,0,.313-1.973,2.406,2.406,0,0,0-2.574-2.574c-2.261,0-3.657,1.636-4.426,4.426l-3.44,12.894H62.9L66.29,25.489a8.588,8.588,0,0,0,.313-1.973,2.406,2.406,0,0,0-2.574-2.574c-2.261,0-3.633,1.636-4.426,4.426L56.138,38.263H47.67Z" transform="translate(65.594 18.756)"/><path class="b" d="M47.781,25.576a5.076,5.076,0,0,0-5.292-5.653c-4.234,0-7.049,4.643-7.049,8.155a5.124,5.124,0,0,0,5.292,5.677c4.282,0,7.049-4.643,7.049-8.179M28.536,28.27A14.6,14.6,0,0,1,42.705,13.836a11.042,11.042,0,0,1,11.812,11.5A14.626,14.626,0,0,1,40.348,39.769,11.066,11.066,0,0,1,28.536,28.246" transform="translate(38.684 19.414)"/><path class="b" d="M27.244,37.593H1.6l1.251-4.811,15.2-13.688H6.868l1.54-5.653h20.3l-1.3,4.811L12.185,31.915H25.3a9.623,9.623,0,0,0,5.244,5.677Z" transform="translate(0.836 18.896)"/><path class="b" d="M49.2,13.791a14.266,14.266,0,0,0-10.994,7.866c-3.825.217-6.327,2.237-7.554,6.952l-2.213,8.853H21.61l5.75-22.685h6.856L33.181,18.77c1.852-2.815,7.794-4.98,13.255-5.22a18.427,18.427,0,0,1,2.694.241" transform="translate(28.963 19.051)"/><path class="b" d="M28.083,23.625a4.4,4.4,0,0,0,.217-1.251,2.863,2.863,0,0,0-3.151-2.983,5.677,5.677,0,0,0-5.268,4.21h8.2ZM39.87,32.67l-1.323,5.076H22.886C16.1,37.746,11.941,33.7,11.941,27.4A13.857,13.857,0,0,1,25.725,13.377,9.069,9.069,0,0,1,35.492,23a14.8,14.8,0,0,1-.89,4.811H19.3c-.361,2.67,3.512,4.98,6.255,4.98Z" transform="translate(15.37 18.767)"/><path class="a" d="M61.666,37.378v.746a1.732,1.732,0,0,1-1.732,1.516,2.141,2.141,0,0,1-2.093-2.406c0-1.347.65-2.406,2.093-2.406a1.732,1.732,0,0,1,1.732,1.516,3.055,3.055,0,0,1,0,.481Zm0-10.224v5.581h0a3.536,3.536,0,0,0-2.911-1.107A5.172,5.172,0,0,0,53.7,37.258a4.98,4.98,0,0,0,4.811,5.461,3.9,3.9,0,0,0,3.464-1.756h0l.144,1.516h3.584V27.13H61.666Z" transform="translate(74.043 38.14)"/><path class="a" d="M65.73,35.653a2.408,2.408,0,0,1,0,.577,1.54,1.54,0,0,1-1.443,1.083c-.746,0-1.131-.337-1.131-.938s.842-1.323,2.6-1.323v.6ZM69.6,33.729c0-2.839-1.516-4.667-5.1-4.667a9.839,9.839,0,0,0-4.547.986l.674,2.55a7.217,7.217,0,0,1,3.055-.866c1.588,0,1.828.481,1.828.842h0c-3.945,0-6.423,1.323-6.423,4.138a3.368,3.368,0,0,0,3.633,3.32,3.993,3.993,0,0,0,3.055-1.155h0l.192.914h3.608a14.1,14.1,0,0,1-.168-2.646V33.729Z" transform="translate(81.647 40.851)"/><path class="b" d="M34.368,32.816V29.159h3.32l.144,1.347h0A3.729,3.729,0,0,1,41.1,29.015a3.151,3.151,0,0,1,2.983,1.78h0a4.811,4.811,0,0,1,1.54-1.347,4.042,4.042,0,0,1,1.973-.457c2.406,0,3.8,1.636,3.8,4.811v6.086H47.551V34.211c0-1.4-.457-2.141-1.371-2.141a1.275,1.275,0,0,0-1.275.986,3.369,3.369,0,0,0,0,.794V39.7H40.936V34.211c0-1.4-.457-2.141-1.371-2.141a1.371,1.371,0,0,0-1.275.962,2.406,2.406,0,0,0,0,.794V39.7H34.32v-6.88Z" transform="translate(46.829 40.753)"/><path class="b" d="M47.823,37.177c-1.275,0-1.876-1.227-1.876-2.718s.505-2.718,1.9-2.718S49.7,33.016,49.7,34.459s-.7,2.718-1.876,2.718Zm0,2.815a5.605,5.605,0,0,0,6.062-5.677,5.413,5.413,0,0,0-5.894-5.292,5.581,5.581,0,0,0-6.231,5.653,5.509,5.509,0,0,0,6.014,5.437Z" transform="translate(57.286 40.746)"/><path class="b" d="M50.918,29.06l1.323,4.571a21.541,21.541,0,0,1,.529,2.406h0c.12-.77.265-1.492.457-2.406l1.179-4.571h4.258l-4.09,10.585H50.533L46.54,29.06Z" transform="translate(64.006 40.853)"/><path class="b" d="M57.285,43.973a11.788,11.788,0,0,1-2.406-7.217,11.258,11.258,0,0,1,2.406-7.722L54.423,27.47a14.747,14.747,0,0,0-2.742,9.31,15.156,15.156,0,0,0,2.839,8.8Z" transform="translate(71.207 38.618)"/><path class="b" d="M57.318,27.943a2.069,2.069,0,1,1-.6-1.478,2.069,2.069,0,0,1,.6,1.478" transform="translate(73.34 36.34)"/><path class="b" d="M27.507,5.309A67.216,67.216,0,0,0,19.737,8.8a12.509,12.509,0,0,0-3.849,2.935c-.265.337-.7.746-.529,1.2s.818.289,1.227.289h37c1.516,0,1.684-.457,1.467-1.8a70.94,70.94,0,0,1-.89-7.409,28.867,28.867,0,0,1,2.021,5.822c1.01,3.464,1.01,3.488,4.595,3.777l25.067,1.828a6.88,6.88,0,0,1-2.887.337c-21.194.192-42.364.77-63.557,0a54.1,54.1,0,0,1-7.626-.674c-.746-.144-1.564-.217-1.8-1.083s.409-1.443.986-1.9A37.865,37.865,0,0,1,22.143,6.68,20.231,20.231,0,0,1,27.6,5.309" transform="translate(12.529 5.641)"/><path class="a" d="M2.027,28.872C3.085,22.4,10.254,17.638,16.461,15.617a1.684,1.684,0,0,0-.168-3.224L6.67,10.9c.192,1.01,1.925,1.179,2.093,2.213A97.862,97.862,0,0,1,70.756,4.936c21.17,3.753,40.054,16.118,61.681,17.561,6.158.385,12.75-.409,18.644,1.8,4.523,1.708,10.32,5.533,9.478,10.729-.337,2.117.168,2.285.505.144.77-4.956-.12-8.348-4.017-11.331a26.318,26.318,0,0,0-15.324-4.45,111.141,111.141,0,0,1-17.176-1.3A116.289,116.289,0,0,1,108.429,13.5C97.6,9.627,87.163,5.08,76.025,2.554a106.5,106.5,0,0,0-70.63,8.588c-1.275.674-2.406,1.323-1.131,1.4,4.595.1,8.275,2.622,11.4,3.151a18.265,18.265,0,0,0-.192-3.248A20.953,20.953,0,0,0,1.233,28.872c-.361,2.117-.241,5.533,0,3.368Z" transform="translate(0 0)"/></g></svg>