<svg xmlns="http://www.w3.org/2000/svg" width="40" height="42.395" viewBox="0 0 40 42.395"><defs><style>.a{fill:#F47920;}</style></defs><g transform="translate(-677.172 -138.057)"><g transform="translate(677.172 138.057)"><g transform="translate(10.631)"><path class="a" d="M1865.758,886.383a11.063,11.063,0,1,0,11.063-11.063,11.076,11.076,0,0,0-11.063,11.063Zm20.115,0a9.052,9.052,0,1,1-9.052-9.052,9.062,9.062,0,0,1,9.052,9.052Zm0,0" transform="translate(-1865.758 -875.32)"/><path class="a" d="M1929.707,908.318V909.5a3.017,3.017,0,0,0,1.005,5.862,1.006,1.006,0,1,1,0,2.011,1.821,1.821,0,0,1-1.306-.761,1.006,1.006,0,1,0-1.539,1.294,4.171,4.171,0,0,0,1.84,1.31v1.173a1.006,1.006,0,1,0,2.011,0v-1.178a3.017,3.017,0,0,0-1.006-5.862,1.006,1.006,0,0,1,0-2.012,1.614,1.614,0,0,1,1.088.526,1.006,1.006,0,0,0,1.4-1.446,3.892,3.892,0,0,0-1.481-.926v-1.171a1.006,1.006,0,1,0-2.011,0Zm0,0" transform="translate(-1919.619 -903.039)"/></g><g transform="translate(0 20.744)"><path class="a" d="M-420.851,141.112a9.245,9.245,0,0,1,3.728.776.845.845,0,0,0,.34.071h9.617a1.7,1.7,0,0,1,1.694,1.694,1.7,1.7,0,0,1-1.694,1.694h-6.91a.847.847,0,0,0-.847.847.847.847,0,0,0,.847.847h6.91a3.391,3.391,0,0,0,3.387-3.387,3.408,3.408,0,0,0-.03-.443c4.834-4.969,5.516-5.667,5.545-5.7a1.7,1.7,0,0,1,2.388-.2,1.7,1.7,0,0,1,.2,2.39l-7.6,9.08a5.9,5.9,0,0,1-4.1,1.651h-11.258a4.21,4.21,0,0,0-2.94,1.187l-.72.695-6.635-6.634A8.744,8.744,0,0,1-420.851,141.112Z" transform="translate(435.275 -136.909)"/><path class="a" d="M-495.969,250.19a.845.845,0,0,1,1.049-.119c.147.089-.274-.294,7.335,7.3a.848.848,0,0,1,0,1.194l-3.5,3.448-8.321-8.385Z" transform="translate(499.402 -240.366)"/></g></g></g></svg>