<svg xmlns="http://www.w3.org/2000/svg" width="44.127" height="43.427" viewBox="0 0 44.127 43.427"><defs><style>.a{fill:#F47920;}</style></defs><g transform="translate(-673.803 -135.057)"><g transform="translate(673.803 135.057)"><g transform="translate(0 2.87)"><path class="a" d="M1865.758,885.9a10.584,10.584,0,1,0,10.583-10.584,10.6,10.6,0,0,0-10.583,10.584Zm19.243,0a8.659,8.659,0,1,1-8.659-8.659A8.669,8.669,0,0,1,1885,885.9Zm0,0" transform="translate(-1865.758 -875.32)"/><path class="a" d="M1929.617,908.274V909.4a2.886,2.886,0,0,0,.962,5.608.962.962,0,1,1,0,1.924,1.742,1.742,0,0,1-1.249-.728.962.962,0,1,0-1.473,1.238,3.99,3.99,0,0,0,1.76,1.253v1.123a.962.962,0,1,0,1.924,0v-1.127a2.886,2.886,0,0,0-.962-5.607.962.962,0,0,1,0-1.924,1.544,1.544,0,0,1,1.041.5.962.962,0,0,0,1.339-1.383,3.723,3.723,0,0,0-1.417-.886v-1.12a.962.962,0,1,0-1.924,0Zm0,0" transform="translate(-1919.966 -903.224)"/></g><g transform="translate(3.223 22.714)"><path class="a" d="M-421.2,140.93a8.844,8.844,0,0,1,3.567.742.808.808,0,0,0,.325.068h9.2a1.625,1.625,0,0,1,1.62,1.62,1.622,1.622,0,0,1-1.62,1.62h-6.61a.81.81,0,0,0-.81.81.81.81,0,0,0,.81.81h6.61a3.244,3.244,0,0,0,3.241-3.24,3.265,3.265,0,0,0-.028-.424c4.625-4.754,5.277-5.422,5.3-5.455a1.626,1.626,0,0,1,2.284-.193,1.624,1.624,0,0,1,.19,2.287l-7.267,8.687a5.641,5.641,0,0,1-3.927,1.579h-10.77a4.028,4.028,0,0,0-2.812,1.136l-.689.664-6.347-6.346A8.365,8.365,0,0,1-421.2,140.93Z" transform="translate(435 -136.909)"/><path class="a" d="M-496.118,250.179a.808.808,0,0,1,1-.114c.14.085-.262-.281,7.017,6.988a.812.812,0,0,1,0,1.142l-3.349,3.3-7.96-8.021Z" transform="translate(499.402 -240.781)"/></g><g transform="translate(22.959 0)"><path class="a" d="M1865.758,885.9a10.584,10.584,0,1,0,10.583-10.584,10.6,10.6,0,0,0-10.583,10.584Zm19.243,0a8.659,8.659,0,1,1-8.659-8.659A8.669,8.669,0,0,1,1885,885.9Zm0,0" transform="translate(-1865.758 -875.32)"/><path class="a" d="M1929.617,908.274V909.4a2.886,2.886,0,0,0,.962,5.608.962.962,0,1,1,0,1.924,1.742,1.742,0,0,1-1.249-.728.962.962,0,1,0-1.473,1.238,3.99,3.99,0,0,0,1.76,1.253v1.123a.962.962,0,1,0,1.924,0v-1.127a2.886,2.886,0,0,0-.962-5.607.962.962,0,0,1,0-1.924,1.544,1.544,0,0,1,1.041.5.962.962,0,0,0,1.339-1.383,3.723,3.723,0,0,0-1.417-.886v-1.12a.962.962,0,1,0-1.924,0Zm0,0" transform="translate(-1919.966 -903.224)"/></g></g></g></svg>