<svg xmlns="http://www.w3.org/2000/svg" width="60" height="44" viewBox="0 0 60 44"><defs><style>.a{fill:#f97d00;}.b,.c{fill:#fff;}.c{fill-rule:evenodd;}</style></defs><g transform="translate(0 0)"><g transform="translate(0 0)"><g transform="translate(0)"><path class="a" d="M0,0H60a0,0,0,0,1,0,0V34A10,10,0,0,1,50,44H10A10,10,0,0,1,0,34V0A0,0,0,0,1,0,0Z"/></g></g><g transform="translate(3 12)"><g transform="translate(0.122 16.658)"><path class="b" d="M2.61,192.49l-.037-.2H2.56a.735.735,0,0,1-.583.25.624.624,0,0,1-.658-.624c0-.528.474-.782,1.194-.778V191.1c0-.108-.058-.262-.37-.262a1.143,1.143,0,0,0-.561.154l-.117-.408a1.683,1.683,0,0,1,.791-.179.791.791,0,0,1,.894.878V192a3.206,3.206,0,0,0,.029.495Zm-.075-.962c-.333,0-.591.075-.591.32a.227.227,0,0,0,.25.241.347.347,0,0,0,.329-.233.451.451,0,0,0,.012-.108Z" transform="translate(-1.32 -189.535)"/><path class="b" d="M26.61,180.95h.633v2.955H26.61Z" transform="translate(-24.271 -180.95)"/><path class="b" d="M40.917,192.281c0,.266.008.483.017.653h-.549l-.03-.287h-.012a.724.724,0,0,1-.636.333c-.412,0-.716-.258-.716-.886V190.9h.636v1.094c0,.3.1.474.316.474a.341.341,0,0,0,.316-.221.349.349,0,0,0,.021-.137V190.9h.636Z" transform="translate(-35.506 -189.98)"/><path class="b" d="M66.2,190.445c-.008.129-.017.3-.017.6v1.136a1.168,1.168,0,0,1-.308.916,1.254,1.254,0,0,1-.828.25,1.581,1.581,0,0,1-.733-.158l.125-.478a1.254,1.254,0,0,0,.591.154.486.486,0,0,0,.528-.537V192.2H65.55a.649.649,0,0,1-.549.266.9.9,0,0,1-.861-.994.973.973,0,0,1,.924-1.069.614.614,0,0,1,.558.287h.008l.021-.241Zm-.649.829a.5.5,0,0,0-.012-.117.347.347,0,0,0-.341-.278c-.229,0-.416.208-.416.578,0,.3.15.541.416.541a.344.344,0,0,0,.333-.258.537.537,0,0,0,.021-.166v-.3Z" transform="translate(-58.33 -189.526)"/><path class="b" d="M93.647,192.281c0,.266.008.483.017.653h-.549l-.03-.287h-.012a.724.724,0,0,1-.636.333c-.412,0-.716-.258-.716-.886V190.9h.636v1.094c0,.3.1.474.316.474a.341.341,0,0,0,.316-.221.349.349,0,0,0,.021-.137V190.9h.636Z" transform="translate(-83.359 -189.98)"/><path class="b" d="M117.483,191.674c.021.262.278.388.574.388a1.774,1.774,0,0,0,.561-.083l.083.428a2.01,2.01,0,0,1-.736.125.976.976,0,0,1-1.086-1.036,1.019,1.019,0,0,1,1.028-1.086.9.9,0,0,1,.907,1.016,1.486,1.486,0,0,1-.021.25h-1.311Zm.745-.433a.367.367,0,0,0-.358-.412.415.415,0,0,0-.391.412Z" transform="translate(-106.192 -189.535)"/><path class="b" d="M141.99,180.95h.633v2.955h-.633Z" transform="translate(-128.979 -180.95)"/><path class="b" d="M164.477,180.95V183.3c0,.229.008.47.017.608h-.561l-.029-.3H163.9a.711.711,0,0,1-.636.345.934.934,0,0,1-.869-1.044.963.963,0,0,1,.911-1.082.622.622,0,0,1,.537.228h.008v-1.1h.631Zm-.633,1.781a.911.911,0,0,0-.008-.112.38.38,0,0,0-.37-.313c-.287,0-.437.258-.437.578,0,.345.171.561.433.561a.37.37,0,0,0,.366-.3.517.517,0,0,0,.017-.145Z" transform="translate(-147.492 -180.95)"/><path class="b" d="M189.883,191.674c.021.262.278.388.574.388a1.774,1.774,0,0,0,.561-.083l.083.428a2.01,2.01,0,0,1-.736.125.976.976,0,0,1-1.086-1.036,1.019,1.019,0,0,1,1.028-1.086.9.9,0,0,1,.907,1.016,1.487,1.487,0,0,1-.021.25h-1.311Zm.745-.433a.367.367,0,0,0-.358-.412.415.415,0,0,0-.391.412Z" transform="translate(-171.896 -189.535)"/><path class="b" d="M223.954,192.431a1.541,1.541,0,0,1-.566.092.987.987,0,0,1-1.077-1.041,1.061,1.061,0,0,1,1.165-1.082,1.468,1.468,0,0,1,.483.079l-.1.47a.862.862,0,0,0-.353-.063.571.571,0,0,0,.013,1.14.991.991,0,0,0,.363-.062Z" transform="translate(-201.871 -189.526)"/><path class="b" d="M243.98,192.49l-.037-.2h-.013a.735.735,0,0,1-.583.25.624.624,0,0,1-.658-.624c0-.528.474-.782,1.194-.778V191.1c0-.108-.058-.262-.37-.262a1.143,1.143,0,0,0-.561.154l-.117-.408a1.683,1.683,0,0,1,.791-.179.791.791,0,0,1,.894.878V192a3.207,3.207,0,0,0,.029.495Zm-.075-.962c-.333,0-.591.075-.591.32a.227.227,0,0,0,.25.241.346.346,0,0,0,.329-.233.451.451,0,0,0,.012-.108Z" transform="translate(-220.366 -189.535)"/><path class="b" d="M267.817,191.125c0-.3-.008-.495-.017-.67h.545l.021.375h.017a.6.6,0,0,1,.549-.42.649.649,0,0,1,.133.008v.6a.9.9,0,0,0-.17-.017.407.407,0,0,0-.433.32.744.744,0,0,0-.013.141v1.032h-.633Z" transform="translate(-243.153 -189.535)"/><path class="b" d="M285.007,191.125c0-.3-.008-.495-.017-.67h.545l.021.375h.017a.6.6,0,0,1,.549-.42.649.649,0,0,1,.133.008v.6a.9.9,0,0,0-.17-.017.407.407,0,0,0-.433.32.744.744,0,0,0-.013.141v1.032h-.633Z" transform="translate(-258.753 -189.535)"/><path class="b" d="M302.876,191.441a1.021,1.021,0,0,1-1.074,1.086,1,1,0,0,1-1.053-1.049,1.015,1.015,0,0,1,1.086-1.078A.989.989,0,0,1,302.876,191.441Zm-1.473.02c0,.35.145.611.416.611.246,0,.4-.246.4-.611,0-.3-.117-.611-.4-.611C301.515,190.85,301.4,191.161,301.4,191.461Z" transform="translate(-273.056 -189.526)"/><path class="b" d="M326.894,191.936a1.231,1.231,0,0,0,.546.154c.191,0,.27-.067.27-.17s-.062-.154-.3-.233c-.42-.142-.583-.37-.578-.611,0-.378.325-.666.828-.666a1.36,1.36,0,0,1,.574.117l-.113.437a1,1,0,0,0-.441-.117c-.154,0-.241.063-.241.166s.079.145.328.233c.388.133.549.329.553.628,0,.378-.3.658-.882.658a1.442,1.442,0,0,1-.658-.142Z" transform="translate(-296.678 -189.535)"/></g><g transform="translate(0 0)"><path class="c" d="M394.783,33.307a2.82,2.82,0,0,1-.036.551A1.355,1.355,0,0,1,393.393,35a1.611,1.611,0,0,1-1.6-1.819c0-1.006.507-1.866,1.62-1.866a1.371,1.371,0,0,1,1.356,1.135,2.351,2.351,0,0,1,.018.358v.5Zm0-7.707v4.218h-.036a2.7,2.7,0,0,0-2.2-.775,3.947,3.947,0,0,0-3.9,4.25,3.8,3.8,0,0,0,3.707,4.123,3,3,0,0,0,2.683-1.347h.031l.115,1.151h2.759c-.031-.425-.065-1.478-.065-2.517V25.6Z" transform="translate(-352.858 -23.232)"/><path class="c" d="M502.812,68.113a1.954,1.954,0,0,1-.032.442,1.184,1.184,0,0,1-1.093.832c-.571,0-.885-.26-.885-.718,0-.653.652-1,2.011-1v.442Zm2.975-1.5c0-2.156-1.177-3.542-3.937-3.542a7.656,7.656,0,0,0-3.513.747l.54,1.93a5.573,5.573,0,0,1,2.433-.64c1.21,0,1.407.362,1.407.656v.047c-3.041,0-4.968,1-4.968,3.154a2.61,2.61,0,0,0,2.81,2.533,3.023,3.023,0,0,0,2.354-.885h.062l.166.688h2.777a11.731,11.731,0,0,1-.128-1.994V66.612Z" transform="translate(-451.918 -57.314)"/><path class="c" d="M.064,64.321c0-1.144-.032-2.076-.064-2.8H2.563l.115,1.028h.066a2.912,2.912,0,0,1,2.516-1.223,2.388,2.388,0,0,1,2.3,1.355h.032a3.614,3.614,0,0,1,1.195-1.012A3.234,3.234,0,0,1,10.3,61.33c1.78,0,2.925,1.242,2.925,3.593v4.638H10.256V65.381c0-1.044-.361-1.6-1.061-1.6a1.012,1.012,0,0,0-.981.734,2.153,2.153,0,0,0-.081.622v4.426H5.161V65.382c0-1.044-.36-1.6-1.062-1.6a1.04,1.04,0,0,0-.979.72,1.584,1.584,0,0,0-.083.6v4.46H.064V64.321Z" transform="translate(0 -55.71)"/><path class="c" d="M154.276,67.637c-1,0-1.455-.929-1.455-2.075,0-1.042.394-2.072,1.471-2.072.981,0,1.4.948,1.4,2.072,0,1.339-.524,2.075-1.4,2.075Zm-.031,2.142c2.58,0,4.688-1.568,4.688-4.316,0-2.414-1.847-4.113-4.51-4.113-3.088,0-4.8,1.831-4.8,4.279,0,2.645,2.108,4.15,4.608,4.15Z" transform="translate(-135.845 -55.729)"/><path class="c" d="M248.915,63.45l1.01,3.479a15.143,15.143,0,0,1,.393,1.748h.067c.1-.589.2-1.127.358-1.748l.915-3.479h3.3l-3.171,8.036h-3.166L245.55,63.45Z" transform="translate(-222.943 -57.634)"/><path class="c" d="M353.369,45.16a8.9,8.9,0,0,1-1.841-5.424,8.585,8.585,0,0,1,1.854-5.876l-2.2-1.18a11.083,11.083,0,0,0-2.12,7.056,11.326,11.326,0,0,0,2.12,6.616l2.189-1.192Z" transform="translate(-316.908 -29.735)"/><path class="c" d="M381.848,1.587A1.589,1.589,0,1,1,380.26,0a1.592,1.592,0,0,1,1.588,1.587Z" transform="translate(-343.787 0)"/></g></g></g></svg>