<svg xmlns="http://www.w3.org/2000/svg" width="60" height="44" viewBox="0 0 60 44"><defs><style>.a{fill:#f97d00;}.b{fill:#1d1c19;}.c{fill:#fff;}.d{fill:#fefefc;}</style></defs><g transform="translate(0)"><g transform="translate(0)"><g transform="translate(0)"><path class="a" d="M0,0H60a0,0,0,0,1,0,0V34A10,10,0,0,1,50,44H10A10,10,0,0,1,0,34V0A0,0,0,0,1,0,0Z"/></g></g><g transform="translate(3 8)"><path class="b" d="M63.883,19.58H61.018l-3.343,3.3.88-3.3H56.293L55.7,21.813a4.442,4.442,0,0,1-.4,5.021,4.294,4.294,0,0,1-.986.975h2.055l.945-1.483.945-1.7,1.181,3.184h2.422l-1.831-4.631Z" transform="translate(-24.598 -8.602)"/><path class="b" d="M70.2,19.484H73.05l-.242.916a3.142,3.142,0,0,1,2.28-1.093A2.079,2.079,0,0,1,77.2,20.736a3.827,3.827,0,0,1,2.953-1.429,2.2,2.2,0,0,1,2.363,2.451,6.19,6.19,0,0,1-.248,1.5l-1.181,4.465H78.254l1.116-4.3a2.842,2.842,0,0,0,.106-.667.774.774,0,0,0-.845-.88c-.762,0-1.223.549-1.488,1.483l-1.169,4.353H73.127l1.14-4.3a2.841,2.841,0,0,0,.106-.667.774.774,0,0,0-.868-.868c-.762,0-1.223.549-1.488,1.483l-1.181,4.353H68Z" transform="translate(-30.198 -8.489)"/><path class="c" d="M48.286,23.934a1.719,1.719,0,0,0-1.772-1.908c-1.423,0-2.363,1.565-2.363,2.747a1.719,1.719,0,0,0,1.772,1.914c1.429,0,2.363-1.565,2.363-2.752m-6.456.91A4.926,4.926,0,0,1,46.6,20a3.724,3.724,0,0,1,3.975,3.881,4.92,4.92,0,0,1-4.772,4.849,3.719,3.719,0,0,1-3.975-3.875" transform="translate(-19.486 -8.774)"/><path class="c" d="M13.447,27.549H4.8L5.225,25.9l5.127-4.613H6.578L7.1,19.38h6.84l-.431,1.648L8.379,25.653H12.8a3.213,3.213,0,0,0,1.772,1.908Z" transform="translate(-4.327 -8.521)"/><path class="c" d="M41.557,19.646a4.82,4.82,0,0,0-3.7,2.652c-1.294.077-2.132.756-2.546,2.363l-.744,2.953h-2.3l1.967-7.643h2.3l-.343,1.341c.626-.945,2.622-1.677,4.465-1.772a6.343,6.343,0,0,1,.9.077" transform="translate(-15.568 -8.586)"/><path class="c" d="M24.44,22.779a1.724,1.724,0,0,0,.065-.425.969.969,0,0,0-1.057-1,1.931,1.931,0,0,0-1.772,1.418h2.77ZM28.4,25.826l-.461,1.707H22.685A3.335,3.335,0,0,1,19,24.048a4.672,4.672,0,0,1,4.637-4.725,3.054,3.054,0,0,1,3.29,3.249,4.837,4.837,0,0,1-.3,1.612H21.5c-.13.9,1.181,1.677,2.1,1.677Z" transform="translate(-10.14 -8.493)"/><path class="d" d="M78.815,41.659a.969.969,0,0,1,0,.254.591.591,0,0,1-.591.508c-.413,0-.7-.3-.7-.815s.219-.845.715-.845a.591.591,0,0,1,.591.514.727.727,0,0,1,0,.165Zm0-3.479v1.908h0a1.181,1.181,0,0,0-1.016-.348,1.772,1.772,0,0,0-1.725,1.92,1.7,1.7,0,0,0,1.642,1.866,1.329,1.329,0,0,0,1.181-.591h0l.047.52h1.217V38.18H78.8Z" transform="translate(-33.5 -16.216)"/><path class="d" d="M85.892,43.077a.791.791,0,0,1,0,.2.532.532,0,0,1-.484.378c-.248,0-.384-.118-.384-.319,0-.289.289-.443.886-.443ZM87.2,42.4c0-.963-.52-1.589-1.737-1.589a3.367,3.367,0,0,0-1.553.337l.242.868a2.363,2.363,0,0,1,1.075-.289c.526,0,.591.165.591.289h0c-1.341,0-2.191.443-2.191,1.418a1.181,1.181,0,0,0,1.246,1.14,1.335,1.335,0,0,0,1.04-.4h0l.071.307h1.223a5.215,5.215,0,0,1-.059-.9V42.4Z" transform="translate(-36.596 -17.292)"/><path class="c" d="M49.26,42.058c0-.508,0-.933-.03-1.252h1.128l.047.461h.03a1.27,1.27,0,0,1,1.11-.549,1.075,1.075,0,0,1,1.022.591h0a1.589,1.589,0,0,1,.526-.455,1.388,1.388,0,0,1,.679-.154c.791,0,1.294.591,1.294,1.612v2.109H53.76V42.507c0-.473-.154-.715-.473-.715a.455.455,0,0,0-.431.331.957.957,0,0,0-.041.278v2.02H51.5V42.507c0-.473-.154-.715-.473-.715a.467.467,0,0,0-.431.319.679.679,0,0,0-.041.272v2H49.248V42.058Z" transform="translate(-22.515 -17.247)"/><path class="c" d="M61.64,43.511c-.443,0-.644-.413-.644-.939s.171-.921.644-.921.591.419.591.921C62.23,43.163,62.018,43.511,61.64,43.511Zm0,.957a1.92,1.92,0,0,0,2.073-1.943,1.849,1.849,0,0,0-2-1.849,1.906,1.906,0,1,0-.077,3.792Z" transform="translate(-26.756 -17.236)"/><path class="c" d="M67.71,40.84l.443,1.565c.077.266.124.526.171.78h0c.047-.26.089-.5.154-.78l.408-1.565h1.453l-1.37,3.638H67.574L66.21,40.87Z" transform="translate(-29.466 -17.305)"/><path class="c" d="M75.279,44.279a4.04,4.04,0,0,1-.809-2.457,3.9,3.9,0,0,1,.821-2.634l-.957-.508a5.026,5.026,0,0,0-.957,3.142,5.139,5.139,0,0,0,.939,2.953Z" transform="translate(-32.398 -16.421)"/><path class="c" d="M76.836,37.095a.7.7,0,1,1-.7-.715.7.7,0,0,1,.7.715" transform="translate(-33.24 -15.479)"/><path class="c" d="M22.161,6.966a25.032,25.032,0,0,0-2.617,1.14,4.347,4.347,0,0,0-1.294.992c-.095.118-.236.254-.183.408s.284.095.419.095l6.261.03c2.061,0,4.135,0,6.2.03.508,0,.591-.154.49-.591-.142-.821-.23-1.66-.3-2.5a8.99,8.99,0,0,1,.685,1.961c.343,1.181.343,1.181,1.548,1.27,2.794.213,5.593.408,8.446.62a2.363,2.363,0,0,1-.975.112c-7.135.071-14.276.266-21.411,0a17.82,17.82,0,0,1-2.569-.224c-.248-.047-.532-.077-.591-.366A.652.652,0,0,1,16.6,9.3a12.669,12.669,0,0,1,3.727-1.89,6.68,6.68,0,0,1,1.831-.467" transform="translate(-9.019 -3.277)"/><path class="b" d="M4.342,10.732C4.7,8.552,7.107,6.946,9.233,6.266a.591.591,0,0,0-.059-1.087l-3.26-.5c.065.337.644.4.7.744A33.131,33.131,0,0,1,27.472,2.657c7.206,1.282,13.485,5.434,20.779,5.906,2.073.136,4.294-.136,6.279.591,1.524.608,3.473,1.884,3.219,3.656-.118.715.059.774.165.047a3.537,3.537,0,0,0-1.353-3.822A8.875,8.875,0,0,0,51.4,7.542,37.294,37.294,0,0,1,45.611,7.1a37.642,37.642,0,0,1-5.452-1.553C36.539,4.27,33.019,2.711,29.268,1.86A35.787,35.787,0,0,0,5.477,4.754c-.431.219-.856.443-.384.461,1.553.041,2.788.892,3.839,1.063,0-.366-.041-.726-.059-1.093a7.088,7.088,0,0,0-4.8,5.523c-.118.709-.077,1.861.035,1.134Z" transform="translate(-4 -0.994)"/></g></g></svg>