<svg xmlns="http://www.w3.org/2000/svg" width="60" height="44" viewBox="0 0 60 44"><defs><style>.a{fill:#f97d00;}.b,.c{fill:#fff;}.c{fill-rule:evenodd;}.d{fill:#1a1818;}</style></defs><g transform="translate(-158 -370)"><g transform="translate(115 34)"><g transform="translate(43 336)"><g transform="translate(0 0)"><path class="a" d="M0,0H60a0,0,0,0,1,0,0V34A10,10,0,0,1,50,44H10A10,10,0,0,1,0,34V0A0,0,0,0,1,0,0Z"/></g></g></g><g transform="translate(-199.001 344)"><path class="b" d="M7.027,15.36h.006l-.006,0" transform="translate(355.367 25.808)"/><path class="b" d="M36.3,15.131c-.153,1.753-.218,5.013,1.943,5.747,1.369.464,3.312.093,4.734.093,1.112,0,4.039.528,3.894-1.415-.153-2.038-3.286-2.813-4.833-2.459-3.925.9-4.6,7.014-.9,8.679a4.379,4.379,0,0,0,5.094-1.131c1.024-1.28.823-3.2,2.859-3.249,4.366-.115,8.749,0,13.117,0l-.482-.367c.522,2.888,2.446,5.924,5.773,5.293a4.512,4.512,0,0,0,3.275-3.359c.141-.45.16-1.181.655-1.372a5.643,5.643,0,0,1,.929.086A8.321,8.321,0,0,0,74,21.385a2.7,2.7,0,0,0,2.293-2.621,13.829,13.829,0,0,0-.189-4.745c-.3-1.412-1.619-1.98-2.9-2.372-1.956-.6-4.015-.713-5.976-1.339A9.178,9.178,0,0,1,64.1,8.3a29.562,29.562,0,0,0-3.933-2.7,12.086,12.086,0,0,0-3.458-1.47c-.629-.121-.9.843-.266.965,3.1.6,6.046,3.1,8.332,5.075,2.232,1.926,5.619,1.611,8.311,2.494a2.687,2.687,0,0,1,2.2,2.818c.125,1.282.529,3.971-.8,4.73a5.559,5.559,0,0,1-2.131.468c-.5.016-1.037-.22-1.528-.025-.881.348-.819,1.505-1.095,2.272a3.3,3.3,0,0,1-3.479,2.459c-2.294-.283-3.205-2.626-3.564-4.619a.5.5,0,0,0-.482-.367H52.82c-2.137,0-5.636-.725-6.594,1.831-.694,1.849-1.642,3.277-4,2.846a3.488,3.488,0,0,1-2.579-3.746A3.585,3.585,0,0,1,43.028,18,3.06,3.06,0,0,1,45.5,19.085c.776,1.091-.146.885-.94.885a38.141,38.141,0,0,1-5.775,0,1.328,1.328,0,0,1-.73-.42c-1.049-1.089-.869-3.061-.751-4.419.056-.641-.945-.638-1,0" transform="translate(337.587 32.652)"/><path class="c" d="M66.164,6.181V9.009h-.022a1.792,1.792,0,0,0-1.469-.522,2.639,2.639,0,0,0-2.6,2.849A2.54,2.54,0,0,0,64.544,14.1a1.987,1.987,0,0,0,1.784-.9h.022l.076.772h1.838c-.022-.283-.043-.99-.043-1.686v-6.1Zm0,5.166a2.139,2.139,0,0,1-.022.371.907.907,0,0,1-.9.761,1.074,1.074,0,0,1-1.066-1.218c0-.674.337-1.251,1.077-1.251a.914.914,0,0,1,.9.761,1.761,1.761,0,0,1,.011.24Z" transform="translate(321.86 31.395)"/><path class="c" d="M84.6,14.435c0-1.436-.783-2.36-2.621-2.36a5.068,5.068,0,0,0-2.339.5L80,13.858a3.722,3.722,0,0,1,1.62-.424c.8,0,.935.24.935.435V13.9c-2.022,0-3.306.663-3.306,2.1a1.736,1.736,0,0,0,1.87,1.686,2.015,2.015,0,0,0,1.566-.587h.043l.109.457h1.849a7.6,7.6,0,0,1-.086-1.327Zm-1.98,1a1.3,1.3,0,0,1-.022.293.791.791,0,0,1-.729.554c-.38,0-.587-.174-.587-.479,0-.435.434-.663,1.337-.663Z" transform="translate(311.408 27.807)"/><path class="c" d="M.955,13.8c0-.762-.022-1.382-.044-1.86H2.619l.076.685h.044a1.933,1.933,0,0,1,1.674-.815,1.594,1.594,0,0,1,1.534.9h.022a2.426,2.426,0,0,1,.795-.675,2.168,2.168,0,0,1,1.011-.228c1.186,0,1.947.826,1.947,2.393v3.089H7.742V14.5c0-.7-.239-1.065-.707-1.065a.674.674,0,0,0-.653.489,1.457,1.457,0,0,0-.054.413v2.948H4.349V14.5c0-.7-.239-1.065-.707-1.065a.694.694,0,0,0-.653.478,1.085,1.085,0,0,0-.054.4v2.969H.955Z" transform="translate(359.09 27.971)"/><path class="c" d="M27.537,17.418a2.86,2.86,0,0,0,3.121-2.871,2.754,2.754,0,0,0-3-2.741c-2.056,0-3.2,1.218-3.2,2.849a2.8,2.8,0,0,0,3.067,2.762Zm.022-1.424c-.663,0-.968-.62-.968-1.381,0-.7.261-1.381.979-1.381.652,0,.935.63.935,1.381,0,.891-.348,1.381-.935,1.381Z" transform="translate(344.756 27.97)"/><path class="c" d="M41.793,12.139l.674,2.317a10.3,10.3,0,0,1,.261,1.164h.044c.065-.392.13-.75.239-1.164l.609-2.317h2.2l-2.11,5.351H41.6l-2.045-5.351Z" transform="translate(335.569 27.768)"/><path class="c" d="M58.716,15.6a5.91,5.91,0,0,1-1.225-3.61A5.722,5.722,0,0,1,58.723,8.08l-1.465-.788a7.382,7.382,0,0,0-1.411,4.7A7.546,7.546,0,0,0,57.258,16.4Z" transform="translate(325.651 30.719)"/><path class="c" d="M62.62,3.212a1.058,1.058,0,1,1-1.059-1.059A1.059,1.059,0,0,1,62.62,3.212" transform="translate(322.817 33.847)"/><g transform="translate(385.997 47.546)"><path class="d" d="M70.173,33.806c-.014-.392-.029-.865-.029-1.339H70.13c-.1.416-.237.88-.363,1.262L69.371,35H68.8l-.348-1.261c-.106-.382-.218-.846-.3-1.271h-.01c-.019.44-.034.943-.058,1.348l-.058,1.237h-.681l.208-3.257h.981l.319,1.087c.1.377.2.783.275,1.165h.014c.092-.377.2-.807.31-1.17L69.8,31.8h.962l.179,3.257h-.72Z" transform="translate(-67.346 -31.742)"/><path class="d" d="M79.917,33.675h-1.2v.774h1.339v.6H77.979V31.8H79.99v.6H78.719v.677h1.2Z" transform="translate(-73.818 -31.742)"/><path class="d" d="M84.575,35.052V31.8h.86l.677,1.193a9.435,9.435,0,0,1,.532,1.116h.014a12.041,12.041,0,0,1-.063-1.358V31.8h.677v3.257H86.5L85.8,33.8a12.028,12.028,0,0,1-.565-1.15l-.014.005c.019.43.029.889.029,1.421v.981Z" transform="translate(-77.833 -31.742)"/><path class="d" d="M92.925,34.211a1.878,1.878,0,0,0,.817.2c.338,0,.517-.14.517-.353s-.155-.319-.546-.459c-.542-.189-.894-.488-.894-.962,0-.556.464-.981,1.232-.981a2,2,0,0,1,.832.164l-.164.595a1.548,1.548,0,0,0-.682-.155c-.319,0-.473.145-.473.314,0,.208.184.3.6.459.575.212.846.512.846.971,0,.546-.42,1.01-1.315,1.01a2.127,2.127,0,0,1-.923-.2Z" transform="translate(-82.825 -31.659)"/><path class="d" d="M100.156,34.216l-.232.836h-.764l1-3.257h.967l1.01,3.257h-.793l-.251-.836Zm.826-.551-.2-.691c-.058-.193-.116-.435-.164-.628h-.01c-.049.193-.1.44-.15.628l-.193.691Z" transform="translate(-86.712 -31.742)"/><path class="d" d="M107.868,31.8h.74v2.639h1.3v.619h-2.035Z" transform="translate(-92.012 -31.742)"/></g><path class="d" d="M115.421,35.237l.335-1.78h-.276l.055-.277h.276l.013-.089a1.144,1.144,0,0,1,.4-.723,1.055,1.055,0,0,1,.638-.2,1.171,1.171,0,0,1,.565.131l-.557,2.932h-.353l.518-2.724a.528.528,0,0,0-.272-.051c-.34,0-.518.263-.582.608l-.022.11h.434l-.055.277h-.433l-.336,1.78Zm3.548-.119a1.419,1.419,0,0,1-.68.161.741.741,0,0,1-.782-.824,1.274,1.274,0,0,1,1.122-1.322.534.534,0,0,1,.6.527c0,.54-.608.684-1.368.671a.853.853,0,0,0,.042.391.468.468,0,0,0,.459.276,1.15,1.15,0,0,0,.553-.144Zm-.391-1.708c-.336,0-.587.327-.671.65.553,0,.986-.068.986-.387C118.892,33.5,118.765,33.41,118.578,33.41Zm1.364-.23.2.451c.055.132.1.234.136.327h.013c.081-.115.123-.183.225-.31l.378-.468h.408l-.867,1,.484,1.054h-.383l-.208-.463c-.068-.153-.1-.234-.149-.365h-.008c-.064.1-.123.191-.212.315l-.416.514h-.408l.9-1.058-.476-1Z" transform="translate(289.388 15.574)"/></g></g></svg>