<svg xmlns="http://www.w3.org/2000/svg" width="22.05" height="18" viewBox="0 0 22.05 18"><defs><style>.a{fill:#f97d00;}</style></defs><g transform="translate(-1106 -384)"><path class="a" d="M21.363,12.951c.117-.181.335-.561.36-.6l.327-.57-.327-.57c-.024-.043-.242-.422-.36-.6a26.638,26.638,0,0,0-3.6-4.557c-2.218-2.169-4.483-3.269-6.733-3.269S6.51,3.877,4.292,6.046A26.622,26.622,0,0,0,.687,10.6c-.117.181-.335.56-.36.6L0,11.777l.327.57c.025.043.243.422.36.6a26.638,26.638,0,0,0,3.6,4.558c2.218,2.169,4.483,3.269,6.733,3.269s4.515-1.1,6.733-3.269A26.639,26.639,0,0,0,21.363,12.951ZM2.095,11.778c3.013-4.622,6.017-6.966,8.93-6.966s5.917,2.344,8.93,6.966c-3.013,4.622-6.017,6.966-8.93,6.966S5.108,16.4,2.095,11.778Zm10.609,0a1.85,1.85,0,0,1-1.679,1.983,1.85,1.85,0,0,1-1.679-1.983,1.85,1.85,0,0,1,1.679-1.983A1.85,1.85,0,0,1,12.7,11.778Zm-1.679-5.8c-2.705,0-4.907,2.6-4.907,5.8s2.2,5.8,4.907,5.8,4.907-2.6,4.907-5.8S13.73,5.981,11.025,5.981Zm0,9.559A3.514,3.514,0,0,1,7.84,11.778a3.514,3.514,0,0,1,3.185-3.763,3.514,3.514,0,0,1,3.185,3.763A3.514,3.514,0,0,1,11.025,15.54Z" transform="translate(1106 381.223)"/></g></svg>