<svg xmlns="http://www.w3.org/2000/svg" width="18" height="18" viewBox="0 0 18 18"><defs><style>.a{fill:none;}.b{fill:#f97d00;}.c,.d{fill:#fafafa;}.c{stroke:#fafafa;stroke-width:0.5px;}</style></defs><g transform="translate(-158 -428)"><rect class="a" width="18" height="18" transform="translate(158 428)"/><g transform="translate(1)"><path class="b" d="M272.5,15v4h4.784Z" transform="translate(-102.744 413)"/><path class="b" d="M67.708,4.988V0H57.5V18H74.053V4.988Z" transform="translate(100.5 428)"/><g transform="translate(160.5 433)"><path class="c" d="M479.232,295.4c0,.222,0,.435,0,.648a1.957,1.957,0,0,1-.036.337c-.027.136-.105.191-.253.2a1.121,1.121,0,0,1-.126,0,.209.209,0,0,1-.224-.169,2.055,2.055,0,0,1-.047-.367c-.008-.184,0-.369,0-.553,0-.028,0-.057,0-.09-.035,0-.062,0-.09-.005-.411-.006-.821-.013-1.232-.017a.148.148,0,0,1-.121-.054.419.419,0,0,1-.135-.281.306.306,0,0,1,.278-.288c.309,0,.619-.007.928-.01.12,0,.241,0,.366,0v-1.876c-.074,0-.146,0-.219,0a1.688,1.688,0,0,1-1.622-1.055,1.444,1.444,0,0,1,.412-1.653,1.821,1.821,0,0,1,1.277-.462l.135,0c.005,0,.01,0,.022-.01v-.477c0-.142,0-.284,0-.426a.173.173,0,0,1,.048-.108c.234-.226.364-.226.6,0a.158.158,0,0,1,.045.1c0,.274,0,.548,0,.821v.091c.038,0,.068,0,.1.005.371.007.743.012,1.114.02.054,0,.129,0,.158.024a.641.641,0,0,1,.158.227.334.334,0,0,1-.188.373.217.217,0,0,1-.082.008h-1.253v1.861c.126.008.251.02.376.022a1.654,1.654,0,0,1,1.54,1.271,1.594,1.594,0,0,1-1.172,1.81,2.136,2.136,0,0,1-.666.082c-.025,0-.049,0-.086,0m.006-.635c.167-.023.326-.032.477-.068a.914.914,0,0,0,.757-.731.865.865,0,0,0-.4-.914,1.209,1.209,0,0,0-.839-.174Zm-.7-4.424c-.156.011-.306.009-.451.033a.939.939,0,0,0-.8.977,1.07,1.07,0,0,0,1.254.871Z" transform="translate(-476.588 -289.51)"/><g transform="translate(0 8.412)"><path class="d" d="M71.937,13.771H60.259v1.3H71.937Z" transform="translate(-60.259 -13.771)"/></g><g transform="translate(6.219 2.412)"><path class="d" d="M71.068,10.735h-5.46v1.3h5.46Z" transform="translate(-65.609 -10.735)"/></g><g transform="translate(6.219 5.412)"><path class="d" d="M71.068,10.735h-5.46v1.3h5.46Z" transform="translate(-65.609 -10.735)"/></g></g></g></g></svg>