<svg xmlns="http://www.w3.org/2000/svg" width="18" height="16.846" viewBox="0 0 18 16.846"><defs><style>.a{fill:#f97d00;}</style></defs><path class="a" d="M148.206,49.051a.9.9,0,0,0-.264.041l-1,.309L145.9,47.5a2.284,2.284,0,0,0-1.944-1.458H136.08a2.284,2.284,0,0,0-1.944,1.458l-1.04,1.9-.99-.305a.914.914,0,0,0-.264-.041.869.869,0,0,0-.818.963v.662a1.126,1.126,0,0,0,1.056,1.182h.113l-.168.458a9.8,9.8,0,0,0-.5,2.818v6.573a1.126,1.126,0,0,0,1.056,1.181h1.38a1.125,1.125,0,0,0,1.056-1.181V60.3h9.995v1.408a1.125,1.125,0,0,0,1.056,1.181h1.379a1.125,1.125,0,0,0,1.056-1.181V55.134a9.782,9.782,0,0,0-.5-2.819l-.168-.458h.128a1.125,1.125,0,0,0,1.056-1.182v-.661A.87.87,0,0,0,148.206,49.051Zm-14.353,2.164,1.575-3.356a1.373,1.373,0,0,1,1.166-.875h6.846a1.373,1.373,0,0,1,1.166.875l1.575,3.356c.176.481-.059.874-.524.874h-11.28C133.913,52.089,133.677,51.7,133.853,51.215Zm3.516,6.365a.451.451,0,0,1-.422.472h-2.992a.451.451,0,0,1-.423-.472V55.974a.451.451,0,0,1,.423-.472h2.992a.451.451,0,0,1,.422.472Zm9.1,0a.451.451,0,0,1-.422.472h-2.992a.451.451,0,0,1-.422-.472V55.974a.451.451,0,0,1,.422-.472h2.992a.451.451,0,0,1,.422.472Z" transform="translate(-131.024 -46.042)"/></svg>