<svg xmlns="http://www.w3.org/2000/svg" width="16" height="16.001" viewBox="0 0 16 16.001"><defs><style>.a{fill:#f97d00;}.b{fill:none;}</style></defs><g transform="translate(-40 -63.999)"><path class="a" d="M15.641,12.53,13.17,10.155a1.326,1.326,0,0,0-1.817.033l-1.245,1.2-.246-.131A12.394,12.394,0,0,1,6.869,9.171,11.993,11.993,0,0,1,4.7,6.288c-.046-.08-.09-.157-.134-.231l.835-.8.411-.4a1.2,1.2,0,0,0,.033-1.746L3.373.738A1.324,1.324,0,0,0,1.557.771l-.7.673.019.018a3.834,3.834,0,0,0-.574.973,3.906,3.906,0,0,0-.255.987c-.326,2.6.91,4.976,4.264,8.2,4.637,4.457,8.374,4.12,8.535,4.1a4.313,4.313,0,0,0,1.03-.249,4.059,4.059,0,0,0,1.009-.549l.015.013.705-.664A1.206,1.206,0,0,0,15.641,12.53Z" transform="translate(40 63.605)"/><rect class="b" width="16" height="16" transform="translate(40 64)"/></g></svg>