<svg xmlns="http://www.w3.org/2000/svg" width="24.534" height="24.494" viewBox="0 0 24.534 24.494"><defs><style>.a{fill:#fff;}</style></defs><g transform="translate(24132.703 3113.707)"><g transform="translate(-24129.355 -3113.707) rotate(9)"><g transform="translate(0 0)"><path class="a" d="M20.97,16.928l-3.313-3.313a1.727,1.727,0,0,0-2.435.046l-1.669,1.669-.329-.183a16.608,16.608,0,0,1-4.014-2.9A16.7,16.7,0,0,1,6.3,8.221C6.238,8.11,6.179,8,6.12,7.9L7.24,6.781l.551-.551a1.726,1.726,0,0,0,.044-2.436L4.523.481A1.725,1.725,0,0,0,2.087.527l-.934.939.026.025A5.4,5.4,0,0,0,.41,2.848,5.626,5.626,0,0,0,.068,4.224c-.437,3.626,1.22,6.941,5.717,11.438C12,21.878,17.011,21.409,17.227,21.386a5.6,5.6,0,0,0,1.38-.347,5.38,5.38,0,0,0,1.352-.766l.02.018.946-.926A1.729,1.729,0,0,0,20.97,16.928Z"/></g></g></g></svg>