<svg xmlns="http://www.w3.org/2000/svg" width="20" height="20.019" viewBox="0 0 20 20.019"><defs><style>.a{fill:red;}</style></defs><path class="a" d="M13.027,2.03V4.055a8.02,8.02,0,0,1,0,15.919v2a10.025,10.025,0,0,0,0-19.949m-2,.03A9.852,9.852,0,0,0,5.679,4.266L7.113,5.749a8.015,8.015,0,0,1,3.91-1.684v-2M4.265,5.679A9.909,9.909,0,0,0,2.05,11.022h2A8.037,8.037,0,0,1,5.7,7.113L4.265,5.679M2.06,13.027A10.064,10.064,0,0,0,4.276,18.37L5.7,16.937a8.022,8.022,0,0,1-1.634-3.91h-2M7.113,18.41,5.679,19.784a10.019,10.019,0,0,0,5.343,2.266v-2a8.022,8.022,0,0,1-3.91-1.634m7.509-10.4-2.6,2.6-2.6-2.6L8.015,9.428l2.6,2.6-2.6,2.6,1.413,1.413,2.6-2.6,2.6,2.6,1.413-1.413-2.6-2.6,2.6-2.6Z" transform="translate(-2.05 -2.03)"/></svg>