<svg xmlns="http://www.w3.org/2000/svg" width="29.971" height="30" viewBox="0 0 29.971 30"><defs><style>.a{fill:#F47920;}</style></defs><path class="a" d="M18.5,2.03a15.023,15.023,0,0,1,0,29.895v-3a12.018,12.018,0,0,0,0-23.856V2.03m-3,.045v3A12.011,12.011,0,0,0,9.636,7.6L7.488,5.38a14.763,14.763,0,0,1,8.007-3.3M5.37,7.5,7.518,9.646a12.043,12.043,0,0,0-2.464,5.859h-3A14.849,14.849,0,0,1,5.37,7.5M2.065,18.51h3a12.021,12.021,0,0,0,2.449,5.859L5.385,26.517a15.082,15.082,0,0,1-3.32-8.007m7.571,8.067A12.022,12.022,0,0,0,15.5,29.025v3a15.014,15.014,0,0,1-8.007-3.4l2.148-2.058M17,10.247l-6.76,6.76H15.5v6.009h3V17.007h5.258Z" transform="translate(-2.05 -2.03)"/></svg>