<svg xmlns="http://www.w3.org/2000/svg" width="16" height="13.738" viewBox="0 0 16 13.738"><defs><style>.a{fill:#f97d00;}</style></defs><path class="a" d="M39.414,128.046a4.375,4.375,0,0,1-4.311,0,5.091,5.091,0,0,0-3.1,3.723H42.516A5.09,5.09,0,0,0,39.414,128.046Zm-2.156-8.011a3.787,3.787,0,1,0,3.788,3.787A3.788,3.788,0,0,0,37.258,120.035Zm0,6.672A2.927,2.927,0,0,1,34.61,124.9h5.3A2.927,2.927,0,0,1,37.258,126.707Z" transform="translate(-32 -118.031)"/><g transform="translate(7.549)"><path class="a" d="M246.618,75.473h5.631a4.682,4.682,0,0,0-3.1-3.437,4.378,4.378,0,0,1-3.665.3,5.02,5.02,0,0,1-1,1.249A4.858,4.858,0,0,1,246.618,75.473Zm-.574-6.583h3.6a2.92,2.92,0,0,1-2.648,1.8,2.72,2.72,0,0,1-.908-.161,4.594,4.594,0,0,1-.233.9,3.79,3.79,0,1,0-2.052-5.645A4.681,4.681,0,0,1,246.043,68.89Z" transform="translate(-243.798 -64.025)"/></g></svg>