<svg xmlns="http://www.w3.org/2000/svg" width="20" height="15" viewBox="0 0 20 15"><defs><style>.a{fill:#f97d00;}</style></defs><g transform="translate(0 -64)"><g transform="translate(0 64)"><path class="a" d="M412.312,79.741a.347.347,0,0,0-.54-.007l-.528.6a.457.457,0,0,0-.005.579,9.247,9.247,0,0,1,0,11.31.457.457,0,0,0,.005.579l.528.6a.347.347,0,0,0,.54-.007,11.092,11.092,0,0,0,0-13.645Z" transform="translate(-394.659 -79.063)"/><path class="a" d="M1.489,86.564A9.028,9.028,0,0,1,3.42,80.909a.457.457,0,0,0-.005-.579l-.528-.6a.347.347,0,0,0-.54.007,11.092,11.092,0,0,0,0,13.645.347.347,0,0,0,.54.007l.528-.6a.457.457,0,0,0,.005-.579A9.028,9.028,0,0,1,1.489,86.564Z" transform="translate(0 -79.064)"/><path class="a" d="M245.705,224h-.372v.745h.372a.372.372,0,1,0,0-.745Z" transform="translate(-235.705 -217.711)"/><path class="a" d="M245.705,266.667h-.372v.745h.372a.372.372,0,1,0,0-.745Z" transform="translate(-235.705 -258.701)"/><path class="a" d="M71.891,64a7.5,7.5,0,1,0,7.766,7.5A7.645,7.645,0,0,0,71.891,64Zm-2.162,9.167a.432.432,0,0,1-.863,0V72.75H68v.417a.432.432,0,0,1-.863,0v-2.5a1.3,1.3,0,0,1,2.589,0v2.5Zm3.452-.833a1.274,1.274,0,0,1-1.294,1.25h-.863a.424.424,0,0,1-.431-.417V69.833a.424.424,0,0,1,.431-.417h.863a1.274,1.274,0,0,1,1.294,1.25,1.222,1.222,0,0,1-.33.833A1.222,1.222,0,0,1,73.18,72.333Zm2.157-1.25a1.251,1.251,0,1,1,0,2.5h-.863a.417.417,0,1,1,0-.833h.863a.417.417,0,1,0,0-.833,1.251,1.251,0,1,1,0-2.5H76.2a.417.417,0,1,1,0,.833h-.863a.417.417,0,1,0,0,.833Z" transform="translate(-61.887 -64)"/><path class="a" d="M160.372,224a.373.373,0,0,0-.372.372v1.117h.745v-1.117A.373.373,0,0,0,160.372,224Z" transform="translate(-153.721 -217.667)"/></g></g></svg>