<svg xmlns="http://www.w3.org/2000/svg" width="15.156" height="16" viewBox="0 0 15.156 16"><defs><style>.a{fill:#f97d00;}</style></defs><path class="a" d="M3.2-10.984v3.047H6.859v-3.078a1.954,1.954,0,0,1-1.008-.719,1.977,1.977,0,0,1-.4-1.219A1.984,1.984,0,0,1,6.047-14.4,1.963,1.963,0,0,1,7.5-15a1.971,1.971,0,0,1,1.445.6,1.971,1.971,0,0,1,.6,1.445,1.98,1.98,0,0,1-.391,1.2,2,2,0,0,1-1,.734v3.078h4.766V-11a2.04,2.04,0,0,1-1.023-.734,1.977,1.977,0,0,1-.4-1.219,1.984,1.984,0,0,1,.594-1.445,1.963,1.963,0,0,1,1.453-.6,1.945,1.945,0,0,1,1.438.6,1.984,1.984,0,0,1,.594,1.445,1.973,1.973,0,0,1-.383,1.2,2.078,2.078,0,0,1-.977.742v3.641a.613.613,0,0,1-.016.133.574.574,0,0,1-.047.133.6.6,0,0,1-.227.344.631.631,0,0,1-.4.141H8.156V-3a2,2,0,0,1,1,.734,1.98,1.98,0,0,1,.391,1.2,1.971,1.971,0,0,1-.6,1.445A1.971,1.971,0,0,1,7.5.984a1.971,1.971,0,0,1-1.445-.6,1.971,1.971,0,0,1-.6-1.445,1.977,1.977,0,0,1,.4-1.219,2.045,2.045,0,0,1,1.008-.734V-6.625H3.2v3.672a1.97,1.97,0,0,1,.938.734A2,2,0,0,1,4.5-1.047,1.984,1.984,0,0,1,3.906.4,1.963,1.963,0,0,1,2.453,1,1.945,1.945,0,0,1,1.016.4,1.984,1.984,0,0,1,.422-1.047,1.959,1.959,0,0,1,.844-2.289a2.054,2.054,0,0,1,1.063-.727v-8.031a2.131,2.131,0,0,1-.93-.75,1.946,1.946,0,0,1-.367-1.156,1.971,1.971,0,0,1,.6-1.445A1.971,1.971,0,0,1,2.656-15a1.963,1.963,0,0,1,1.453.6A1.984,1.984,0,0,1,4.7-12.953a1.991,1.991,0,0,1-.422,1.25,1.954,1.954,0,0,1-1.078.719Z" transform="translate(-0.422 15)"/></svg>