<svg xmlns="http://www.w3.org/2000/svg" width="14.115" height="16" viewBox="0 0 14.115 16"><defs><style>.a{fill:#f97d00;}</style></defs><path class="a" d="M14.781-3.75l-1.641-.937,1.422-.828a.5.5,0,0,0,.258-.328.531.531,0,0,0-.07-.422.534.534,0,0,0-.328-.25A.508.508,0,0,0,14-6.453L12.047-5.312,9.094-7l2.953-1.687L14-7.547a.344.344,0,0,0,.141.063.724.724,0,0,0,.141.016.578.578,0,0,0,.273-.07.442.442,0,0,0,.2-.2.531.531,0,0,0,.07-.422.5.5,0,0,0-.258-.328l-1.422-.828,1.641-.937a.548.548,0,0,0,.258-.336A.553.553,0,0,0,14.984-11a.536.536,0,0,0-.336-.25.517.517,0,0,0-.414.047l-1.641.938-.016-1.625a.517.517,0,0,0-.164-.391.557.557,0,0,0-.4-.156.525.525,0,0,0-.383.164.473.473,0,0,0-.148.383l.016,2.25-2.953,1.7v-3.391l1.984-1.109a.534.534,0,0,0,.25-.328.5.5,0,0,0-.047-.406.523.523,0,0,0-.328-.266.508.508,0,0,0-.422.063l-1.437.8v-1.875a.53.53,0,0,0-.156-.391A.53.53,0,0,0,8-15a.53.53,0,0,0-.391.156.53.53,0,0,0-.156.391v1.875l-1.437-.8a.508.508,0,0,0-.422-.062.523.523,0,0,0-.328.266.5.5,0,0,0-.047.406.534.534,0,0,0,.25.328l1.984,1.109v3.391L4.5-9.641l.016-2.25a.473.473,0,0,0-.148-.383.525.525,0,0,0-.383-.164H3.969a.538.538,0,0,0-.383.156.517.517,0,0,0-.164.391l-.016,1.625L1.766-11.2a.541.541,0,0,0-.414-.055A.5.5,0,0,0,1.016-11a.553.553,0,0,0-.055.414.548.548,0,0,0,.258.336l1.641.938-1.422.828a.5.5,0,0,0-.258.328.531.531,0,0,0,.07.422.442.442,0,0,0,.2.2.578.578,0,0,0,.273.07.724.724,0,0,0,.141-.016A.344.344,0,0,0,2-7.547L3.953-8.687,6.906-7,3.953-5.312,2-6.453a.508.508,0,0,0-.422-.062.534.534,0,0,0-.328.25.531.531,0,0,0-.07.422.5.5,0,0,0,.258.328l1.422.828L1.219-3.75a.548.548,0,0,0-.258.336A.553.553,0,0,0,1.016-3a.544.544,0,0,0,.211.2.578.578,0,0,0,.273.07.613.613,0,0,0,.133-.016A.574.574,0,0,0,1.766-2.8l1.641-.937.016,1.625a.517.517,0,0,0,.164.391.538.538,0,0,0,.383.156h.016a.525.525,0,0,0,.383-.164.473.473,0,0,0,.148-.383L4.5-4.359l2.953-1.7v3.391L5.469-1.562a.534.534,0,0,0-.25.328.5.5,0,0,0,.047.406.529.529,0,0,0,.2.211.564.564,0,0,0,.281.07.613.613,0,0,0,.133-.016.345.345,0,0,0,.133-.062l1.438-.8V.453a.547.547,0,1,0,1.094,0V-1.422l1.438.8a.345.345,0,0,0,.133.063.613.613,0,0,0,.133.016.564.564,0,0,0,.281-.07.529.529,0,0,0,.2-.211.5.5,0,0,0,.047-.406.534.534,0,0,0-.25-.328L8.547-2.672V-6.062l2.953,1.7-.016,2.25a.473.473,0,0,0,.148.383.525.525,0,0,0,.383.164h.016a.538.538,0,0,0,.383-.156.517.517,0,0,0,.164-.391l.016-1.625,1.641.938a.574.574,0,0,0,.133.047.613.613,0,0,0,.133.016.578.578,0,0,0,.273-.07.544.544,0,0,0,.211-.2.553.553,0,0,0,.055-.414.548.548,0,0,0-.258-.336Z" transform="translate(-0.943 15)"/></svg>