<svg xmlns="http://www.w3.org/2000/svg" width="17.067" height="16" viewBox="0 0 17.067 16"><defs><style>.a{fill:#f97d00;}</style></defs><path class="a" d="M17.36,5.368H14.8V3.684A1.69,1.69,0,0,0,13.093,2H7.973A1.69,1.69,0,0,0,6.267,3.684V5.368H3.707A1.69,1.69,0,0,0,2,7.053v9.263A1.69,1.69,0,0,0,3.707,18H17.36a1.69,1.69,0,0,0,1.707-1.684V7.053A1.69,1.69,0,0,0,17.36,5.368ZM7.973,3.684h5.12V5.368H7.973ZM17.36,16.316H3.707V14.632H17.36Zm0-4.211H3.707V7.053h2.56V8.737H7.973V7.053h5.12V8.737H14.8V7.053h2.56Z" transform="translate(-2 -2)"/></svg>