<svg xmlns="http://www.w3.org/2000/svg" xmlns:xlink="http://www.w3.org/1999/xlink" width="25.988" height="26.486" viewBox="0 0 25.988 26.486"><defs><style>.a{fill:none;}.b{fill:#fff;stroke:#fff;stroke-width:0.5px;}.c{filter:url(#a);}</style><filter id="a" x="1.499" y="1.416" width="22.991" height="25.07" filterUnits="userSpaceOnUse"><feOffset dy="1" input="SourceAlpha"/><feGaussianBlur stdDeviation="0.5" result="b"/><feFlood flood-opacity="0.365"/><feComposite operator="in" in2="b"/><feComposite in="SourceGraphic"/></filter></defs><path class="a" d="M0,0H25.988V25.988H0Z"/><g class="c" transform="matrix(1, 0, 0, 1, 0, 0)"><path class="b" d="M19.243,17.246a3.153,3.153,0,0,0-2.122.834L9.4,13.586a3.545,3.545,0,0,0,.1-.758,3.545,3.545,0,0,0-.1-.758l7.634-4.45a3.241,3.241,0,1,0-1.04-2.371,3.545,3.545,0,0,0,.1.758l-7.634,4.45a3.249,3.249,0,1,0,0,4.743l7.71,4.5a3.055,3.055,0,0,0-.087.7,3.162,3.162,0,1,0,3.162-3.162Zm0-13.081A1.083,1.083,0,1,1,18.16,5.249,1.086,1.086,0,0,1,19.243,4.166ZM6.249,13.911a1.083,1.083,0,1,1,1.083-1.083A1.086,1.086,0,0,1,6.249,13.911Zm12.994,7.6a1.083,1.083,0,1,1,1.083-1.083A1.086,1.086,0,0,1,19.243,21.513Z" transform="translate(0.25 0.17)"/></g></svg>