<svg xmlns="http://www.w3.org/2000/svg" xmlns:xlink="http://www.w3.org/1999/xlink" width="35" height="35" viewBox="0 0 35 35"><defs><style>.a{fill:none;}.b{clip-path:url(#a);}.c{fill:#F47920;}.d{fill:#fff;stroke:#fff;stroke-width:0.5px;}</style><clipPath id="a"><rect class="a" width="35" height="35"/></clipPath></defs><g class="b"><circle class="c" cx="17.5" cy="17.5" r="17.5"/><g transform="translate(3.012 5)"><path class="d" d="M19.243,17.246a3.153,3.153,0,0,0-2.122.834L9.4,13.586a3.545,3.545,0,0,0,.1-.758,3.545,3.545,0,0,0-.1-.758l7.634-4.45a3.241,3.241,0,1,0-1.04-2.371,3.545,3.545,0,0,0,.1.758l-7.634,4.45a3.249,3.249,0,1,0,0,4.743l7.71,4.5a3.055,3.055,0,0,0-.087.7,3.162,3.162,0,1,0,3.162-3.162Zm0-13.081A1.083,1.083,0,1,1,18.16,5.249,1.086,1.086,0,0,1,19.243,4.166ZM6.249,13.911a1.083,1.083,0,1,1,1.083-1.083A1.086,1.086,0,0,1,6.249,13.911Zm12.994,7.6a1.083,1.083,0,1,1,1.083-1.083A1.086,1.086,0,0,1,19.243,21.513Z" transform="translate(0.249 0.166)"/></g></g></svg>