<svg xmlns="http://www.w3.org/2000/svg" width="18" height="22" viewBox="0 0 18 22"><defs><style>.a{fill:#fff;}</style></defs><path class="a" d="M21,11c0,5.55-3.84,10.74-9,12-5.16-1.26-9-6.45-9-12V5l9-4,9,4v6M12,21c3.75-1,7-5.46,7-9.78V6.3L12,3.18,5,6.3v4.92C5,15.54,8.25,20,12,21m2.8-10V9.5A2.746,2.746,0,0,0,12,7,2.746,2.746,0,0,0,9.2,9.5V11A1.29,1.29,0,0,0,8,12.2v3.5A1.309,1.309,0,0,0,9.2,17h5.5A1.309,1.309,0,0,0,16,15.8V12.3A1.309,1.309,0,0,0,14.8,11m-1.3,0h-3V9.5A1.375,1.375,0,0,1,12,8.2a1.375,1.375,0,0,1,1.5,1.3Z" transform="translate(-3 -1)"/></svg>