<svg xmlns="http://www.w3.org/2000/svg" xmlns:xlink="http://www.w3.org/1999/xlink" width="82.645" height="82.645" viewBox="0 0 82.645 82.645"><defs><style>.a,.c{fill:none;}.b{clip-path:url(#a);}.c{stroke:#F47920;stroke-width:3px;}.c,.d{stroke-linecap:round;stroke-dasharray:0 10;}.d,.h{fill:#F47920;}.e{clip-path:url(#b);}.f{fill:#fff;}.g,.h{stroke:none;}</style><clipPath id="a"><rect class="a" width="82.645" height="82.645"/></clipPath><clipPath id="b"><rect class="a" width="45.981" height="27.828"/></clipPath></defs><g class="b"><g class="c"><circle class="g" cx="41.322" cy="41.322" r="41.322"/><circle class="a" cx="41.322" cy="41.322" r="39.822"/></g><g class="d" transform="translate(6 5.645)"><path class="g" d="M35.885,0A35.885,35.885,0,1,1,0,35.885,35.885,35.885,0,0,1,35.885,0Z"/><path class="h" d="M 35.88512420654297 -7.62939453125e-06 C 35.88754272460938 -7.62939453125e-06 35.88986206054688 -7.62939453125e-06 35.89228057861328 0 C 36.71993637084961 0.00095367431640625 37.39053726196289 0.6722335815429688 37.39041900634766 1.500114440917969 C 37.39028930664063 2.328536987304688 36.7186164855957 3.000053405761719 35.89018249511719 2.999992370605469 C 35.89018249511719 2.999992370605469 35.89018249511719 2.999992370605469 35.89018249511719 2.999992370605469 L 35.88512420654297 2.999992370605469 C 35.05670166015625 2.99993896484375 34.38512420654297 2.328315734863281 34.38512420654297 1.4998779296875 C 34.38512420654297 0.6714553833007813 35.05670166015625 -6.103515625e-05 35.88512420654297 -7.62939453125e-06 C 35.88512420654297 -7.62939453125e-06 35.88512420654297 -7.62939453125e-06 35.88512420654297 -7.62939453125e-06 Z M 45.35044097900391 1.318641662597656 C 45.48578643798828 1.318641662597656 45.62333297729492 1.337089538574219 45.75996398925781 1.375801086425781 C 45.76217651367188 1.376434326171875 45.76394271850586 1.376937866210938 45.76615905761719 1.377571105957031 C 45.76699066162109 1.3778076171875 45.767822265625 1.3780517578125 45.76865386962891 1.378288269042969 C 46.56519317626953 1.605934143066406 47.02631378173828 2.436195373535156 46.7985954284668 3.232711791992188 C 46.61025238037109 3.891494750976563 46.00971603393555 4.32086181640625 45.35698699951172 4.32086181640625 C 45.22052764892578 4.32086181640625 45.08176040649414 4.302085876464844 44.94403076171875 4.262725830078125 L 44.93918228149414 4.261337280273438 C 44.14265441894531 4.03369140625 43.68143081665039 3.203407287597656 43.90903091430664 2.406852722167969 C 44.09726715087891 1.748031616210938 44.69773483276367 1.318641662597656 45.35044097900391 1.318641662597656 Z M 54.08151245117188 5.2025146484375 C 54.35298919677734 5.202522277832031 54.62783050537109 5.276206970214844 54.87501907348633 5.430702209472656 C 54.87537002563477 5.430915832519531 54.8757209777832 5.431137084960938 54.87607192993164 5.431350708007813 C 54.87702941894531 5.431953430175781 54.87740707397461 5.43218994140625 54.87836074829102 5.432785034179688 C 54.87880325317383 5.433059692382813 54.87924575805664 5.433341979980469 54.87968826293945 5.433616638183594 C 55.58219528198242 5.872665405273438 55.79573822021484 6.798065185546875 55.35662078857422 7.500534057617188 C 55.072021484375 7.955837249755859 54.58322906494141 8.205715179443359 54.08313751220703 8.205715179443359 C 53.81163787841797 8.205715179443359 53.53672790527344 8.132003784179688 53.28953552246094 7.977512359619141 L 53.28526306152344 7.974842071533203 C 52.58274841308594 7.535781860351563 52.36913681030273 6.610336303710938 52.80813598632813 5.907791137695313 C 53.09266662597656 5.452445983886719 53.58145523071289 5.202499389648438 54.08151245117188 5.2025146484375 Z M 61.40634536743164 11.34161758422852 C 61.81580352783203 11.34162902832031 62.22371673583984 11.50831985473633 62.51981735229492 11.83610153198242 C 62.52005767822266 11.83636093139648 62.52029418945313 11.83662414550781 62.52053070068359 11.83688354492188 C 62.52203369140625 11.83855056762695 62.52289199829102 11.83950042724609 62.52439498901367 11.84116363525391 C 63.07875823974609 12.4559326171875 63.03029251098633 13.40371322631836 62.41585540771484 13.95867538452148 C 62.12891006469727 14.21784591674805 61.76926422119141 14.34555053710938 61.41082382202148 14.34555053710938 C 61.00128555297852 14.34555053710938 60.59331893920898 14.17883682250977 60.29718399047852 13.85101699829102 L 60.29380798339844 13.8472785949707 C 59.73847579956055 13.23253631591797 59.78660583496094 12.28396987915039 60.40129852294922 11.72859573364258 C 60.6882438659668 11.46935272216797 61.04788208007813 11.34160995483398 61.40634536743164 11.34161758422852 Z M 66.76907348632813 19.25173568725586 C 67.32253265380859 19.25178527832031 67.85478973388672 19.55939483642578 68.11573791503906 20.08928298950195 C 68.11772918701172 20.09334945678711 68.11888885498047 20.09569931030273 68.12088012695313 20.09976959228516 C 68.48298645019531 20.84269714355469 68.17582702636719 21.73902893066406 67.43339538574219 22.1033821105957 C 67.22077941894531 22.20772552490234 66.99551391601563 22.25714111328125 66.77364349365234 22.25714111328125 C 66.21943664550781 22.25714111328125 65.68653869628906 21.94875335693359 65.42586517333984 21.41769027709961 L 65.42365264892578 21.41316986083984 C 65.05861663818359 20.66950225830078 65.36554718017578 19.77067565917969 66.10918426513672 19.40558242797852 C 66.32187652587891 19.30116653442383 66.547119140625 19.25171661376953 66.76907348632813 19.25173568725586 Z M 69.74130249023438 28.33178329467773 C 70.45477294921875 28.33182907104492 71.08732604980469 28.84287643432617 71.21633911132813 29.56984329223633 C 71.21641540527344 29.57028961181641 71.21649932861328 29.57073211669922 71.21657562255859 29.5711784362793 C 71.21678161621094 29.57233047485352 71.21686553955078 29.57278823852539 71.21706390380859 29.57394027709961 C 71.21714782714844 29.57437896728516 71.21722412109375 29.57482147216797 71.21730041503906 29.57526397705078 C 71.36205291748047 30.39094924926758 70.81814575195313 31.16949081420898 70.00245666503906 31.31417083740234 C 69.91383361816406 31.32989120483398 69.82568359375 31.33748245239258 69.73870849609375 31.33748245239258 C 69.02510070800781 31.33748245239258 68.39244842529297 30.8262939453125 68.26342010498047 30.0992317199707 L 68.26253509521484 30.09426498413086 C 68.11778259277344 29.27858352661133 68.66166687011719 28.49994659423828 69.47733306884766 28.35513687133789 C 69.56605529785156 28.33938598632813 69.65423583984375 28.33177947998047 69.74130249023438 28.33178329467773 Z M 70.09259033203125 37.88648986816406 C 70.14303588867188 37.88648986816406 70.19397735595703 37.8890266418457 70.2452392578125 37.89420700073242 C 71.06876373291016 37.97745132446289 71.66901397705078 38.71201324462891 71.58687591552734 39.53538131713867 C 71.58651733398438 39.53891754150391 71.58615875244141 39.54247283935547 71.58580017089844 39.5460090637207 C 71.5062255859375 40.31739807128906 70.85520172119141 40.89197540283203 70.09567260742188 40.89197540283203 C 70.04518127441406 40.89197540283203 69.99407958984375 40.88942718505859 69.94277191162109 40.88423156738281 C 69.11854553222656 40.80078125 68.51798248291016 40.06498336791992 68.60137176513672 39.24076080322266 L 68.60187530517578 39.23573684692383 C 68.68006896972656 38.46277618408203 69.33199310302734 37.886474609375 70.09259033203125 37.88648986816406 Z M 67.81782531738281 47.16485214233398 C 68.00347900390625 47.16486358642578 68.19232940673828 47.1995735168457 68.37519836425781 47.27283096313477 C 69.14420318603516 47.58090209960938 69.51782989501953 48.45403289794922 69.20968627929688 49.22303009033203 C 69.20942687988281 49.22368621826172 69.20915985107422 49.22434234619141 69.20890045166016 49.22500228881836 C 69.20805358886719 49.22711944580078 69.20716857910156 49.22932434082031 69.20632171630859 49.23144149780273 C 68.97068023681641 49.81547546386719 68.40871429443359 50.17053604125977 67.81492614746094 50.17053604125977 C 67.62919616699219 50.17053604125977 67.44034576416016 50.13579940795898 67.25739288330078 50.06247711181641 C 66.48841857910156 49.75428771972656 66.11484527587891 48.88106536865234 66.4229736328125 48.11206817626953 L 66.42484283447266 48.10739517211914 C 66.65970611572266 47.52126693725586 67.22275543212891 47.16481781005859 67.81782531738281 47.16485214233398 Z M 63.0628547668457 55.45359802246094 C 63.38428497314453 55.45361328125 63.70823287963867 55.55649566650391 63.98177337646484 55.76887512207031 C 64.63544464111328 56.27639770507813 64.75445556640625 57.21723937988281 64.24818420410156 57.8714599609375 C 64.24681091308594 57.87323379516602 64.24732971191406 57.87256240844727 64.24595642089844 57.87433624267578 C 64.24528503417969 57.87519454956055 64.24461364746094 57.87605285644531 64.24394989013672 57.87691497802734 C 64.24325561523438 57.87780380249023 64.24160003662109 57.87994384765625 64.24090576171875 57.88082885742188 C 63.94524383544922 58.25962829589844 63.50376129150391 58.45790100097656 63.05752563476563 58.45790100097656 C 62.73606872558594 58.45790100097656 62.4120979309082 58.35496520996094 62.1385498046875 58.14251327514648 C 61.48427581787109 57.63436126708984 61.36578369140625 56.6920051574707 61.87387847900391 56.03768920898438 L 61.87697219848633 56.03369903564453 C 62.17266845703125 55.65291595458984 62.61536407470703 55.45357513427734 63.0628547668457 55.45359802246094 Z M 56.21117782592773 62.12139129638672 C 56.67246627807617 62.12142944335938 57.12770843505859 62.33349990844727 57.4216194152832 62.73382949829102 C 57.9118766784668 63.40160751342773 57.76794815063477 64.34034729003906 57.10012435913086 64.83055877685547 C 57.09983062744141 64.83077239990234 57.09954071044922 64.83099365234375 57.09925079345703 64.83120727539063 C 57.09834289550781 64.83187103271484 57.0968132019043 64.83299255371094 57.09590911865234 64.83365631103516 C 57.09583282470703 64.83370971679688 57.09576416015625 64.83376312255859 57.09568786621094 64.83381652832031 C 56.8282585144043 65.03012084960938 56.51744842529297 65.12471008300781 56.20933532714844 65.12471008300781 C 55.7480354309082 65.12471008300781 55.29285430908203 64.91258239746094 54.99898529052734 64.51216888427734 C 54.50881958007813 63.84431457519531 54.65283203125 62.90551376342773 55.32065582275391 62.41529846191406 L 55.32471466064453 62.41231155395508 C 55.59218597412109 62.21597671508789 55.90299606323242 62.12136459350586 56.21117782592773 62.12139129638672 Z M 47.79864120483398 66.65035247802734 C 48.40874862670898 66.65036010742188 48.98226928710938 67.02535247802734 49.20601654052734 67.63108825683594 C 49.49306488037109 68.40819549560547 49.09577178955078 69.27082061767578 48.31864166259766 69.55779266357422 C 48.31692504882813 69.55843353271484 48.31520843505859 69.55906677246094 48.3134880065918 69.55970001220703 C 48.14211273193359 69.62298583984375 47.96662902832031 69.65299224853516 47.79403686523438 69.65299224853516 C 47.18395614624023 69.65299224853516 46.61049652099609 69.27796173095703 46.3868408203125 68.67218017578125 C 46.09991455078125 67.89502716064453 46.49729919433594 67.03237152099609 47.27444458007813 66.74538421630859 L 47.27915954589844 66.74364471435547 C 47.45053100585938 66.68035888671875 47.62603759765625 66.65034484863281 47.79864120483398 66.65035247802734 Z M 38.46258926391602 68.67520904541016 C 39.24070358276367 68.67526245117188 39.89868927001953 69.27616882324219 39.95705413818359 70.06466674804688 C 40.01811218261719 70.88971710205078 39.39967346191406 71.60816192626953 38.57516098022461 71.67093658447266 C 38.57278442382813 71.67111206054688 38.56969833374023 71.67134094238281 38.56732177734375 71.67151641845703 C 38.56700134277344 71.67153930664063 38.56668090820313 71.67156219482422 38.56636047363281 71.67158508300781 C 38.52869033813477 71.67436981201172 38.49132919311523 71.67573547363281 38.45415878295898 71.67573547363281 C 37.67605209350586 71.67573547363281 37.0181884765625 71.07477569580078 36.9599494934082 70.28626251220703 C 36.89892578125 69.46009063720703 37.51919555664063 68.74082183837891 38.34537124633789 68.67973327636719 L 38.35040664672852 68.67935943603516 C 38.3880729675293 68.67657470703125 38.42541885375977 68.67520904541016 38.46258926391602 68.67520904541016 Z M 28.91353988647461 68.06340026855469 C 29.01373291015625 68.06340026855469 29.11542129516602 68.07349395751953 29.2173957824707 68.09447479248047 L 29.22232437133789 68.09549713134766 C 30.03376007080078 68.262451171875 30.55625534057617 69.05560302734375 30.38935852050781 69.86704254150391 C 30.24343872070313 70.57656097412109 29.61888885498047 71.06507110595703 28.92179870605469 71.06507110595703 C 28.82277679443359 71.06507110595703 28.72217178344727 71.05519104003906 28.62139511108398 71.03469848632813 C 28.61911392211914 71.03422546386719 28.61616134643555 71.03362274169922 28.6138801574707 71.03314971923828 C 28.61344146728516 71.03305816650391 28.61299896240234 71.03296661376953 28.6125602722168 71.03287506103516 C 27.8011360168457 70.86592102050781 27.27873611450195 70.07279205322266 27.44575881958008 69.26138305664063 C 27.59178161621094 68.55194091796875 28.21648406982422 68.06340026855469 28.91353988647461 68.06340026855469 Z M 19.92101669311523 64.84702301025391 C 20.15606307983398 64.84703826904297 20.39464950561523 64.90245056152344 20.61718368530273 65.01930999755859 L 20.62164306640625 65.02165222167969 C 21.35508728027344 65.40680694580078 21.63747787475586 66.31364440917969 21.25238418579102 67.04712677001953 C 20.9841194152832 67.55805206298828 20.46276092529297 67.85008239746094 19.92314910888672 67.85008239746094 C 19.68892288208008 67.85008239746094 19.45119094848633 67.79502105712891 19.22931289672852 67.67898559570313 C 19.22830963134766 67.67845916748047 19.22707748413086 67.67781066894531 19.22607421875 67.67728424072266 C 19.22478103637695 67.67660522460938 19.22348785400391 67.67592620849609 19.22219467163086 67.67523956298828 C 18.48874664306641 67.29009246826172 18.20645523071289 66.38330078125 18.59166717529297 65.64988708496094 C 18.86000061035156 65.13899230957031 19.38137435913086 64.84698486328125 19.92101669311523 64.84702301025391 Z M 12.15731811523438 59.27134323120117 C 12.5292854309082 59.2713623046875 12.90192031860352 59.40887069702148 13.19234848022461 59.68582916259766 L 13.19600677490234 59.68931198120117 C 13.79552459716797 60.26103210449219 13.81811141967773 61.21053695678711 13.24644088745117 61.81011199951172 C 12.95167541503906 62.1192626953125 12.55656433105469 62.27498626708984 12.16067886352539 62.27498626708984 C 11.78878784179688 62.27498626708984 11.41619873046875 62.13747406005859 11.12580490112305 61.86054992675781 C 11.12483596801758 61.859619140625 11.12386322021484 61.85869598388672 11.12289428710938 61.85777282714844 C 11.1220817565918 61.85699844360352 11.12260055541992 61.85749053955078 11.12178802490234 61.85671997070313 C 10.52228927612305 61.28503036499023 10.49978256225586 60.33559417724609 11.07154846191406 59.73611450195313 C 11.36632919311523 59.42703628540039 11.76144790649414 59.27132415771484 12.15731811523438 59.27134323120117 Z M 6.217201232910156 51.78129959106445 C 6.731529235839844 51.78131103515625 7.232391357421875 52.0460205078125 7.511856079101563 52.52145385742188 L 7.514419555664063 52.52580642700195 C 7.934230804443359 53.23998260498047 7.69561767578125 54.1593017578125 6.981475830078125 54.57917022705078 C 6.742652893066406 54.71957778930664 6.481040954589844 54.78632354736328 6.222694396972656 54.78632354736328 C 5.708503723144531 54.78632354736328 5.207687377929688 54.52162170410156 4.928268432617188 54.0462646484375 C 4.927337646484375 54.0446891784668 4.926406860351563 54.04311370849609 4.92547607421875 54.04152679443359 C 4.505668640136719 53.32734680175781 4.74432373046875 52.40811157226563 5.458534240722656 51.98835754394531 C 5.697288513183594 51.84803771972656 5.958930969238281 51.78129577636719 6.217201232910156 51.78129959106445 Z M 2.575843811035156 42.94984436035156 C 3.244468688964844 42.94984817504883 3.854171752929688 43.40018463134766 4.027900695800781 44.07771301269531 L 4.029159545898438 44.08259582519531 C 4.23492431640625 44.88505554199219 3.751220703125 45.70244216918945 2.948768615722656 45.90827941894531 C 2.82373046875 45.94035339355469 2.698417663574219 45.95567321777344 2.575019836425781 45.95567321777344 C 1.906539916992188 45.95567321777344 1.296928405761719 45.50539779663086 1.12322998046875 44.82797241210938 C 1.123123168945313 44.82756042480469 1.123016357421875 44.82715225219727 1.122909545898438 44.82674407958984 C 1.122627258300781 44.82562255859375 1.122428894042969 44.82485961914063 1.122138977050781 44.82373809814453 C 1.122047424316406 44.82337188720703 1.121955871582031 44.82300567626953 1.121864318847656 44.82263946533203 C 0.9160919189453125 44.02018356323242 1.399818420410156 43.20288848876953 2.202301025390625 42.99718475341797 C 2.327247619628906 42.96515655517578 2.452537536621094 42.9498405456543 2.575843811035156 42.94984436035156 Z M 1.511573791503906 33.45038223266602 C 1.525093078613281 33.45038223266602 1.538719177246094 33.4505615234375 1.552314758300781 33.45092391967773 C 2.380455017089844 33.47300720214844 3.033935546875 34.1622428894043 3.011909484863281 34.99037170410156 L 3.011772155761719 34.99542999267578 C 2.990119934082031 35.81007385253906 2.322982788085938 36.45568466186523 1.512931823730469 36.45568466186523 C 1.49951171875 36.45568466186523 1.485923767089844 36.45550537109375 1.472427368164063 36.45514678955078 C 0.6443405151367188 36.43318557739258 -0.00911712646484375 35.74414443969727 0.01282501220703125 34.91606903076172 C 0.0129241943359375 34.9124641418457 0.01299285888671875 34.90969848632813 0.013092041015625 34.90609359741211 C 0.036956787109375 34.09355163574219 0.7030715942382813 33.45034408569336 1.511573791503906 33.45038223266602 Z M 3.087272644042969 24.02451324462891 C 3.236785888671875 24.02452087402344 3.388931274414063 24.04706573486328 3.539085388183594 24.09445190429688 C 4.329109191894531 24.34375762939453 4.767501831054688 25.18632507324219 4.518257141113281 25.97636032104492 L 4.516738891601563 25.98115921020508 C 4.314849853515625 26.62109756469727 3.723731994628906 27.03033828735352 3.086517333984375 27.03033828735352 C 2.937049865722656 27.03033828735352 2.785011291503906 27.0078125 2.634902954101563 26.96046447753906 C 1.845985412597656 26.71164321899414 1.407707214355469 25.87126922607422 1.654579162597656 25.08222961425781 C 1.6552734375 25.08003616333008 1.65625 25.07694244384766 1.656936645507813 25.07475280761719 C 1.657066345214844 25.07434844970703 1.657196044921875 25.07394027709961 1.657325744628906 25.07353591918945 C 1.859199523925781 24.43364715576172 2.450141906738281 24.02447128295898 3.087272644042969 24.02451324462891 Z M 7.209709167480469 15.4046516418457 C 7.494430541992188 15.40465545654297 7.782314300537109 15.48559951782227 8.037372589111328 15.65476989746094 C 8.727760314941406 16.11266708374023 8.916252136230469 17.04356002807617 8.458419799804688 17.73397064208984 L 8.455631256103516 17.7381706237793 C 8.166877746582031 18.17359924316406 7.690109252929688 18.40937423706055 7.204032897949219 18.40937423706055 C 6.919387817382813 18.40937423706055 6.631462097167969 18.32844161987305 6.37646484375 18.15937042236328 C 5.686019897460938 17.70157241821289 5.497451782226563 16.77077102661133 5.955299377441406 16.08036041259766 C 5.95599365234375 16.07930755615234 5.956687927246094 16.0782585144043 5.957382202148438 16.07720947265625 C 5.9580078125 16.07627105712891 5.959068298339844 16.07466888427734 5.959693908691406 16.07373046875 C 6.248519897460938 15.63967895507813 6.724517822265625 15.40464782714844 7.209709167480469 15.4046516418457 Z M 13.5424919128418 8.246555328369141 C 13.96562957763672 8.246555328369141 14.38618469238281 8.424644470214844 14.68285369873047 8.771381378173828 C 15.22143173217773 9.400852203369141 15.14776992797852 10.34777069091797 14.51834869384766 10.88639450073242 L 14.51451110839844 10.88967895507813 C 14.23176193237305 11.13162994384766 13.88499069213867 11.25003814697266 13.53989028930664 11.25003814697266 C 13.11676406860352 11.25003814697266 12.6961784362793 11.07197952270508 12.39949035644531 10.72532272338867 C 11.86081695556641 10.0959358215332 11.93439483642578 9.149078369140625 12.56381988525391 8.610466003417969 C 12.56521987915039 8.609264373779297 12.56660842895508 8.608078002929688 12.56800842285156 8.606887817382813 C 12.85071563720703 8.364963531494141 13.19746398925781 8.246555328369141 13.5424919128418 8.246555328369141 Z M 21.59487152099609 3.099723815917969 C 22.16361236572266 3.099746704101563 22.70756912231445 3.424942016601563 22.95967864990234 3.975959777832031 C 23.30433654785156 4.729286193847656 22.97307586669922 5.619430541992188 22.21978378295898 5.964149475097656 L 22.21519470214844 5.966239929199219 C 22.01289367675781 6.058822631835938 21.80073928833008 6.102645874023438 21.59191131591797 6.102645874023438 C 21.02313613891602 6.102645874023438 20.47914123535156 5.777473449707031 20.22694778442383 5.22650146484375 C 19.88223266601563 4.473365783691406 20.21317672729492 3.583480834960938 20.96619033813477 3.238616943359375 C 20.96825408935547 3.2376708984375 20.96855545043945 3.237533569335938 20.97061920166016 3.236587524414063 C 20.97096252441406 3.236434936523438 20.9713020324707 3.236274719238281 20.97164154052734 3.236122131347656 C 21.17394256591797 3.143547058105469 21.38605499267578 3.099716186523438 21.59487152099609 3.099723815917969 Z M 30.75569152832031 0.3798675537109375 C 31.48594665527344 0.3798904418945313 32.12589645385742 0.914031982421875 32.2371826171875 1.658088684082031 C 32.35973739624023 2.477394104003906 31.79489898681641 3.240982055664063 30.97559356689453 3.36358642578125 L 30.97060775756836 3.364334106445313 C 30.89534759521484 3.375595092773438 30.82059478759766 3.381057739257813 30.74672698974609 3.381057739257813 C 30.01645660400391 3.381057739257813 29.37640762329102 2.846916198730469 29.26500701904297 2.102874755859375 C 29.14247131347656 1.28448486328125 29.70581817626953 0.521697998046875 30.52366638183594 0.3978118896484375 C 30.52482604980469 0.39764404296875 30.52833938598633 0.3971176147460938 30.52949905395508 0.396942138671875 C 30.5302734375 0.3968276977539063 30.53104782104492 0.3967132568359375 30.53181838989258 0.3965911865234375 C 30.60707855224609 0.3853302001953125 30.68182754516602 0.3798675537109375 30.75569152832031 0.3798675537109375 Z"/></g><g class="e" transform="translate(19 27.645)"><g transform="translate(14.682)"><path class="f" d="M1803.979,989.812a2.615,2.615,0,0,0-2.428-1.741h-19.132a2.452,2.452,0,0,0-2.437,1.741l-3.652,10.437v13.909a1.645,1.645,0,0,0,1.741,1.741h1.741a1.642,1.642,0,0,0,1.73-1.741v-1.741h20.874v1.741a1.645,1.645,0,0,0,1.741,1.741h1.741a1.642,1.642,0,0,0,1.73-1.741v-13.909Zm-21.56,17.391a2.612,2.612,0,1,1,2.606-2.606,2.675,2.675,0,0,1-2.606,2.606Zm19.132,0a2.612,2.612,0,1,1,2.607-2.606,2.685,2.685,0,0,1-2.607,2.606Zm-21.739-8.7,2.607-7.83h19.132l2.607,7.83Zm0,0" transform="translate(-1776.33 -988.071)"/></g><g transform="translate(0 9.892)"><path class="f" d="M1792.467,989.087a1.526,1.526,0,0,0-1.417-1.016h-11.166a1.431,1.431,0,0,0-1.422,1.016l-2.131,6.091v8.117a.96.96,0,0,0,1.016,1.016h1.016a.959.959,0,0,0,1.01-1.016v-1.016h12.183v1.016a.96.96,0,0,0,1.016,1.016h1.016a.959.959,0,0,0,1.01-1.016v-8.117Zm-12.583,10.15a1.524,1.524,0,1,1,1.521-1.521,1.562,1.562,0,0,1-1.521,1.521Zm11.166,0a1.524,1.524,0,1,1,1.521-1.521,1.567,1.567,0,0,1-1.521,1.521Zm-12.688-5.075,1.521-4.57h11.166l1.521,4.57Zm0,0" transform="translate(-1776.33 -988.071)"/></g></g></g></svg>