<svg xmlns="http://www.w3.org/2000/svg" xmlns:xlink="http://www.w3.org/1999/xlink" width="82.645" height="82.645" viewBox="0 0 82.645 82.645"><defs><style>.a,.c{fill:none;}.b{clip-path:url(#a);}.c,.d{stroke:#F47920;stroke-linecap:round;stroke-width:3px;stroke-dasharray:0 10;}.d{fill:#F47920;}.e{clip-path:url(#b);}.f{fill:#fff;}.g{stroke:none;}</style><clipPath id="a"><rect class="a" width="82.645" height="82.645"/></clipPath><clipPath id="b"><rect class="a" width="37.082" height="32.377"/></clipPath></defs><g class="b"><g class="c"><circle class="g" cx="41.322" cy="41.322" r="41.322"/><circle class="a" cx="41.322" cy="41.322" r="39.822"/></g><g class="d" transform="translate(6 5.645)"><circle class="g" cx="35.885" cy="35.885" r="35.885"/><circle class="a" cx="35.885" cy="35.885" r="34.385"/></g><g class="e" transform="translate(23 25.645)"><path class="f" d="M1519.013,990.91a.838.838,0,0,0-.122-.447l-5.516-9.7a.914.914,0,0,0-.788-.462h-24.239a.9.9,0,0,0-.789.462l-5.508,9.7a.919.919,0,0,0-.121.447,5.318,5.318,0,0,0,3.182,4.864v16a.912.912,0,0,0,.909.91h28.891a.912.912,0,0,0,.909-.91V995.888a.416.416,0,0,0-.007-.1,5.333,5.333,0,0,0,3.2-4.88Zm-31.134,19.011v-13.7c.107.008-.735.008-.629.008a5.313,5.313,0,0,1,8.82,0,5.306,5.306,0,0,1,8.812,0,5.307,5.307,0,0,1,8.812,0c.106,0-.743-.008-.636-.008v13.692" transform="translate(-1481.931 -980.302)"/></g></g></svg>