<svg xmlns="http://www.w3.org/2000/svg" width="82.645" height="82.645" viewBox="0 0 82.645 82.645"><defs><style>.a,.e{fill:none;}.a{stroke:#622279;stroke-linecap:round;stroke-width:3px;stroke-dasharray:0 10;}.b{fill:#280024;}.c{fill:#f37920;}.d{stroke:none;}</style></defs><g transform="translate(-208 -284.355)"><g class="a" transform="translate(208 284.355)"><circle class="d" cx="41.322" cy="41.322" r="41.322"/><circle class="e" cx="41.322" cy="41.322" r="39.822"/></g><circle class="b" cx="35.885" cy="35.885" r="35.885" transform="translate(214 290)"/><g transform="translate(2892.841 6.316)"><g transform="translate(-2651.159 305.684)"><path class="c" d="M1803.979,989.812a2.615,2.615,0,0,0-2.428-1.741h-19.132a2.452,2.452,0,0,0-2.437,1.741l-3.652,10.437v13.909a1.645,1.645,0,0,0,1.741,1.741h1.741a1.642,1.642,0,0,0,1.73-1.741v-1.741h20.874v1.741a1.645,1.645,0,0,0,1.741,1.741h1.741a1.642,1.642,0,0,0,1.73-1.741v-13.909Zm-21.56,17.391a2.612,2.612,0,1,1,2.606-2.606,2.675,2.675,0,0,1-2.606,2.606Zm19.132,0a2.612,2.612,0,1,1,2.607-2.606,2.685,2.685,0,0,1-2.607,2.606Zm-21.739-8.7,2.607-7.83h19.132l2.607,7.83Zm0,0" transform="translate(-1776.33 -988.071)"/></g><g transform="translate(-2665.841 315.576)"><path class="c" d="M1792.467,989.087a1.526,1.526,0,0,0-1.417-1.016h-11.166a1.431,1.431,0,0,0-1.422,1.016l-2.131,6.091v8.117a.96.96,0,0,0,1.016,1.016h1.016a.959.959,0,0,0,1.01-1.016v-1.016h12.183v1.016a.96.96,0,0,0,1.016,1.016h1.016a.959.959,0,0,0,1.01-1.016v-8.117Zm-12.583,10.15a1.524,1.524,0,1,1,1.521-1.521,1.562,1.562,0,0,1-1.521,1.521Zm11.166,0a1.524,1.524,0,1,1,1.521-1.521,1.567,1.567,0,0,1-1.521,1.521Zm-12.688-5.075,1.521-4.57h11.166l1.521,4.57Zm0,0" transform="translate(-1776.33 -988.071)"/></g></g></g></svg>