<svg xmlns="http://www.w3.org/2000/svg" xmlns:xlink="http://www.w3.org/1999/xlink" width="82.645" height="82.645" viewBox="0 0 82.645 82.645"><defs><style>.a,.d{fill:none;}.b{clip-path:url(#a);}.c,.g{fill:#F47920;}.d{stroke-linecap:round;stroke-dasharray:0 10;}.e{fill:#fff;}.f,.g{stroke:none;}</style><clipPath id="a"><rect class="a" width="82.645" height="82.645"/></clipPath></defs><g class="b"><circle class="c" cx="35.885" cy="35.885" r="35.885" transform="translate(5.8 5.8)"/><g class="d"><path class="f" d="M41.322,0A41.322,41.322,0,1,1,0,41.322,41.322,41.322,0,0,1,41.322,0Z"/><path class="g" d="M 41.322265625 0 C 41.32505035400391 0 41.3266487121582 0 41.32943725585938 0 C 42.15709686279297 0.00095367431640625 42.82769393920898 0.6722183227539063 42.82758712768555 1.500091552734375 C 42.82748031616211 2.328521728515625 42.15581130981445 3.000053405761719 41.32738494873047 3 C 41.32738494873047 3 41.32738494873047 3 41.32738494873047 3 L 41.322265625 3 C 40.49383926391602 2.999946594238281 39.822265625 2.328330993652344 39.822265625 1.499908447265625 C 39.822265625 0.671478271484375 40.49383926391602 -5.340576171875e-05 41.322265625 0 C 41.322265625 0 41.322265625 0 41.322265625 0 Z M 50.87223815917969 1.15203857421875 C 50.98969268798828 1.152046203613281 51.10911560058594 1.165946960449219 51.228271484375 1.194969177246094 C 51.23215866088867 1.1959228515625 51.23268890380859 1.196060180664063 51.236572265625 1.197013854980469 C 51.23682403564453 1.197074890136719 51.23706817626953 1.197135925292969 51.23731994628906 1.197196960449219 C 52.04173278808594 1.395256042480469 52.53324127197266 2.207878112792969 52.33513259887695 3.012275695800781 C 52.16668701171875 3.696235656738281 51.55392837524414 4.154006958007813 50.87971496582031 4.154006958007813 C 50.76100158691406 4.154006958007813 50.6403694152832 4.139808654785156 50.51993179321289 4.110160827636719 L 50.51498413085938 4.10894775390625 C 49.71058654785156 3.910888671875 49.21898651123047 3.098236083984375 49.41698455810547 2.293815612792969 C 49.58534240722656 1.609786987304688 50.19799423217773 1.1519775390625 50.87223815917969 1.15203857421875 Z M 59.86328887939453 4.5692138671875 C 60.09782409667969 4.569229125976563 60.33589935302734 4.624420166015625 60.55796813964844 4.740753173828125 C 60.56027221679688 4.741966247558594 60.56111907958984 4.742408752441406 60.56342315673828 4.743621826171875 C 60.56438064575195 4.744132995605469 60.56534576416016 4.744644165039063 60.56630706787109 4.745147705078125 C 61.29914474487305 5.131439208984375 61.58003997802734 6.038665771484375 61.19369506835938 6.771492004394531 C 60.92494201660156 7.28125 60.40425872802734 7.572296142578125 59.86542129516602 7.572296142578125 C 59.62964248657227 7.572296142578125 59.39027404785156 7.516502380371094 59.16721343994141 7.398918151855469 L 59.16269302368164 7.396530151367188 C 58.42985153198242 7.010238647460938 58.14888000488281 6.102973937988281 58.53513336181641 5.370094299316406 C 58.80381774902344 4.860298156738281 59.32448196411133 4.569175720214844 59.86328887939453 4.5692138671875 Z M 67.76921081542969 10.04914093017578 C 68.12362670898438 10.04917144775391 68.47953796386719 10.17409515380859 68.76525115966797 10.42811584472656 C 68.76569366455078 10.42850494384766 68.76612854003906 10.42889404296875 68.76657104492188 10.42928314208984 C 68.76850128173828 10.43099975585938 68.76921844482422 10.43163299560547 68.77114868164063 10.433349609375 C 69.38856506347656 10.98401641845703 69.44361114501953 11.93090057373047 68.89366149902344 12.54936981201172 C 68.59725952148438 12.88272094726563 68.18563842773438 13.05269622802734 67.77208709716797 13.05269622802734 C 67.4176025390625 13.05269622802734 67.06167602539063 12.927734375 66.77591705322266 12.67367553710938 L 66.77210235595703 12.67029571533203 C 66.15298461914063 12.11985015869141 66.09726715087891 11.17172241210938 66.64766693115234 10.55255889892578 C 66.94405364990234 10.21913146972656 67.35564422607422 10.04910278320313 67.76921081542969 10.04914093017578 Z M 74.13852691650391 17.25824737548828 C 74.61503601074219 17.25826263427734 75.08360290527344 17.48485565185547 75.37457275390625 17.90673065185547 C 75.37530517578125 17.90779876708984 75.37545013427734 17.90800476074219 75.37618255615234 17.90907287597656 C 75.37684631347656 17.91004180908203 75.37751770019531 17.91101837158203 75.37818908691406 17.9119873046875 C 75.84812164306641 18.59422302246094 75.67600250244141 19.52821350097656 74.99372863769531 19.99810409545898 C 74.73387908935547 20.17707061767578 74.43754577636719 20.26289367675781 74.14421081542969 20.26289367675781 C 73.66733551025391 20.26289367675781 73.19842529296875 20.03601455688477 72.90746307373047 19.61361312866211 L 72.90457153320313 19.60941314697266 C 72.43463897705078 18.92717361450195 72.60671997070313 17.99311828613281 73.28891754150391 17.52313232421875 C 73.54878997802734 17.34410858154297 73.84515380859375 17.25823974609375 74.13852691650391 17.25824737548828 Z M 78.59840393066406 25.77973556518555 C 79.20475006103516 25.77979278564453 79.77574157714844 26.15019607543945 80.002197265625 26.75115966796875 C 80.00283813476563 26.75286483764648 80.00349426269531 26.75458526611328 80.00413513183594 26.75629043579102 C 80.29624938964844 27.53152084350586 79.90460968017578 28.3967170715332 79.12937164306641 28.68878555297852 C 78.9552001953125 28.75440216064453 78.77651977539063 28.78549957275391 78.60078430175781 28.78549957275391 C 77.99430847167969 28.78549957275391 77.42324829101563 28.41500473022461 77.19676208496094 27.81395721435547 L 77.19496917724609 27.80920028686523 C 76.90285491943359 27.03397369384766 77.29446411132813 26.16869354248047 78.06964874267578 25.87651824951172 C 78.24391174316406 25.81084442138672 78.42258453369141 25.77972030639648 78.59840393066406 25.77973556518555 Z M 80.87245178222656 35.12422561645508 C 81.62221527099609 35.12425994873047 82.26992797851563 35.68539810180664 82.36008453369141 36.44809722900391 C 82.36040496826172 36.45079803466797 82.36087036132813 36.45477676391602 82.36119079589844 36.45747375488281 C 82.4561767578125 37.2791748046875 81.86789703369141 38.02297210693359 81.04601287841797 38.11941146850586 C 80.98660278320313 38.12638473510742 80.92771148681641 38.12977600097656 80.86932373046875 38.12977600097656 C 80.11909484863281 38.12977600097656 79.470947265625 37.56781768798828 79.38131713867188 36.80445098876953 L 79.38072967529297 36.79940032958984 C 79.28411865234375 35.97661209106445 79.872802734375 35.23126602172852 80.69557189941406 35.13461303710938 C 80.75502777099609 35.12762832641602 80.81401824951172 35.12422180175781 80.87245178222656 35.12422561645508 Z M 80.84123992919922 44.74796676635742 C 80.90247344970703 44.74796676635742 80.96439361572266 44.75171279907227 81.02671813964844 44.7593994140625 C 81.84892272949219 44.86078643798828 82.43321228027344 45.60949325561523 82.33175659179688 46.43169403076172 C 82.33176422119141 46.43166351318359 82.33175659179688 46.43170547485352 82.33175659179688 46.43170547485352 C 82.33152770996094 46.43351364135742 82.33130645751953 46.43533706665039 82.33107757568359 46.43716049194336 C 82.23733520507813 47.19696807861328 81.5908203125 47.75354766845703 80.8443603515625 47.75354766845703 C 80.78307342529297 47.75354766845703 80.72108459472656 47.74979400634766 80.65870666503906 47.74209213256836 C 79.83651733398438 47.64058685302734 79.25223541259766 46.89178466796875 79.35369110107422 46.06959915161133 L 79.35431671142578 46.06451797485352 C 79.44806671142578 45.30465698242188 80.09470367431641 44.74795913696289 80.84123992919922 44.74796676635742 Z M 78.51728057861328 54.07881164550781 C 78.69583129882813 54.07882690429688 78.87751007080078 54.11094665527344 79.05416870117188 54.17870330810547 C 79.82765197753906 54.47537231445313 80.21414184570313 55.34289169311523 79.91741180419922 56.11635971069336 C 79.91713714599609 56.11706924438477 79.9168701171875 56.11778259277344 79.91659545898438 56.11849212646484 C 79.91565704345703 56.12094879150391 79.91493225097656 56.12283325195313 79.91398620605469 56.12528991699219 C 79.68408966064453 56.71979522705078 79.11662292480469 57.08457183837891 78.51476287841797 57.08457183837891 C 78.33617401123047 57.08457183837891 78.15443420410156 57.05241394042969 77.97772979736328 56.98461151123047 C 77.20429229736328 56.68783950805664 76.81784057617188 55.82023620605469 77.11456298828125 55.04677200317383 L 77.11638641357422 55.04201507568359 C 77.3453369140625 54.44519805908203 77.91405487060547 54.07876586914063 78.51728057861328 54.07881164550781 Z M 74.01011657714844 62.5750732421875 C 74.30632019042969 62.57508850097656 74.60557556152344 62.66260528564453 74.86693572998047 62.84489440917969 C 75.54621887207031 63.31865692138672 75.71289825439453 64.25326538085938 75.23948669433594 64.93266296386719 C 75.23800659179688 64.93479156494141 75.23789978027344 64.93494415283203 75.23641967773438 64.93706512451172 C 75.23626708984375 64.93729400634766 75.23610687255859 64.93752288818359 75.23594665527344 64.937744140625 C 74.94432830810547 65.35581970214844 74.47824096679688 65.57968139648438 74.00445556640625 65.57968139648438 C 73.70822906494141 65.57968139648438 73.40895080566406 65.49212646484375 73.14757537841797 65.30976867675781 C 72.46814727783203 64.83576965332031 72.30157470703125 63.90071868896484 72.77553558349609 63.22125244140625 L 72.77845001220703 63.21707916259766 C 73.07009887695313 62.79896545410156 73.53626251220703 62.57504272460938 74.01011657714844 62.5750732421875 Z M 67.59571075439453 69.74768829345703 C 68.01219940185547 69.74770355224609 68.42666625976563 69.92017364501953 68.72317504882813 70.25761413574219 C 69.27001190185547 70.87992858886719 69.20878601074219 71.82766723632813 68.58644104003906 72.37445068359375 C 68.58614349365234 72.37471008300781 68.58585357666016 72.37496948242188 68.58555603027344 72.37522888183594 C 68.58458709716797 72.37608337402344 68.58419799804688 72.37642669677734 68.58322143554688 72.37728118896484 C 68.58291625976563 72.37754821777344 68.58261108398438 72.37781524658203 68.58230590820313 72.37808227539063 C 68.29745483398438 72.62834930419922 67.94444274902344 72.75122833251953 67.59291076660156 72.75122833251953 C 67.17640686035156 72.75122833251953 66.76197814941406 72.57872009277344 66.46547698974609 72.2412109375 C 65.91873168945313 71.61882781982422 65.98001098632813 70.67102813720703 66.60235595703125 70.12423706054688 L 66.606201171875 70.12086486816406 C 66.89108276367188 69.87056732177734 67.24411010742188 69.74767303466797 67.59571075439453 69.74768829345703 Z M 59.65706634521484 75.18130493164063 C 60.19898223876953 75.18132781982422 60.72227478027344 75.47590637207031 60.98942565917969 75.98999786376953 C 61.37142562866211 76.72509002685547 61.08515930175781 77.63063812255859 60.35003662109375 78.01258850097656 C 60.34976959228516 78.01272583007813 60.34950256347656 78.01287078857422 60.34922790527344 78.01300811767578 C 60.34807586669922 78.01361083984375 60.34814071655273 78.01357269287109 60.34698486328125 78.01417541503906 C 60.34637451171875 78.01448822021484 60.34576797485352 78.01480102539063 60.34516143798828 78.01512145996094 C 60.12413787841797 78.12995910644531 59.88781356811523 78.18437194824219 59.65484619140625 78.18437194824219 C 59.11296463012695 78.18437194824219 58.58969497680664 77.88973236083984 58.32261276245117 77.3756103515625 C 57.94070434570313 76.64046478271484 58.22705078125 75.73487854003906 58.96217346191406 75.35292053222656 L 58.96669006347656 75.35057067871094 C 59.18771362304688 75.23573303222656 59.42408752441406 75.18129730224609 59.65706634521484 75.18130493164063 Z M 50.65142822265625 78.54605102539063 C 51.32907867431641 78.54611206054688 51.94380569458008 79.00853729248047 52.10887908935547 79.69644165039063 C 52.30204772949219 80.50135803222656 51.80661010742188 81.3104248046875 51.00216293334961 81.50450897216797 C 51.0008659362793 81.50482177734375 51.00021362304688 81.50498199462891 50.9989128112793 81.50529479980469 C 50.99759674072266 81.50560760498047 50.99628067016602 81.50592041015625 50.99495697021484 81.50624084472656 C 50.87729644775391 81.53446960449219 50.75968933105469 81.5479736328125 50.64379119873047 81.5479736328125 C 49.96615982055664 81.5479736328125 49.35149765014648 81.08545684814453 49.18650436401367 80.39754486083984 C 48.99330520629883 79.59195709228516 49.48971939086914 78.78224182128906 50.29529190063477 78.58897399902344 L 50.30023956298828 78.58778381347656 C 50.41790008544922 78.55955505371094 50.5355224609375 78.54604339599609 50.65142822265625 78.54605102539063 Z M 41.08619689941406 79.64385223388672 C 41.08912658691406 79.64385223388672 41.09206771850586 79.64385986328125 41.09499740600586 79.64387512207031 L 41.10012054443359 79.64390563964844 C 41.92853164672852 79.64865112304688 42.59627914428711 80.32406616210938 42.59158706665039 81.15248107910156 C 42.58691024780273 81.97801208496094 41.91635894775391 82.64387512207031 41.09189605712891 82.64387512207031 C 41.08901977539063 82.64387512207031 41.08600234985352 82.64386749267578 41.0831184387207 82.64385223388672 C 41.08234024047852 82.64384460449219 41.08156585693359 82.64384460449219 41.08078765869141 82.64383697509766 C 41.07939910888672 82.64382934570313 41.07604217529297 82.64381408691406 41.07465362548828 82.64380645751953 C 40.24763107299805 82.63742828369141 39.58152389526367 81.96265411376953 39.58633041381836 81.13525390625 C 39.59111404418945 80.30976867675781 40.26180267333984 79.64384460449219 41.08619689941406 79.64385223388672 Z M 31.54180908203125 78.43489074707031 C 31.66328430175781 78.43489837646484 31.78683090209961 78.44976806640625 31.90998458862305 78.48085021972656 L 31.91493225097656 78.48210906982422 C 32.71817398071289 78.68482208251953 33.20502471923828 79.50033569335938 33.00235748291016 80.3035888671875 C 32.83076477050781 80.98368072509766 32.21997451782227 81.43690490722656 31.54915618896484 81.43690490722656 C 31.4288444519043 81.43690490722656 31.3065299987793 81.42230987548828 31.18454742431641 81.39183807373047 C 31.18196487426758 81.39118194580078 31.18164443969727 81.39110565185547 31.17905807495117 81.39044952392578 C 31.17843627929688 81.39029693603516 31.17781066894531 81.39013671875 31.17718505859375 81.38997650146484 C 31.1758918762207 81.38965606689453 31.17358016967773 81.38906860351563 31.17228698730469 81.38874053955078 C 30.37106323242188 81.18457794189453 29.88593673706055 80.37025451660156 30.08842468261719 79.56816101074219 C 30.26010894775391 78.88808441162109 30.87096786499023 78.43484497070313 31.54180908203125 78.43489074707031 Z M 22.57595062255859 74.96437835693359 C 22.8145751953125 74.96437835693359 23.05667114257813 75.02146148681641 23.28181076049805 75.14181518554688 L 23.28631973266602 75.14422607421875 C 24.01691818237305 75.53475952148438 24.29262542724609 76.44364166259766 23.90213394165039 77.17426300048828 C 23.63195037841797 77.67977905273438 23.11376190185547 77.96746826171875 22.57802963256836 77.96746826171875 C 22.34008026123047 77.96746826171875 22.09862518310547 77.91068267822266 21.87401580810547 77.79099273681641 C 21.87286758422852 77.79038238525391 21.8717155456543 77.78976440429688 21.87056732177734 77.78915405273438 C 21.86950302124023 77.78858184814453 21.86843490600586 77.78800964355469 21.86737060546875 77.78743743896484 C 21.13677215576172 77.39690399169922 20.86114501953125 76.48806762695313 21.25173187255859 75.75749206542969 C 21.52195358276367 75.25205993652344 22.04024124145508 74.96437072753906 22.57595062255859 74.96437835693359 Z M 14.700927734375 69.43850708007813 C 15.05829620361328 69.43851470947266 15.41695404052734 69.56546783447266 15.70357513427734 69.82324981689453 L 15.70737457275391 69.82666778564453 C 16.32331848144531 70.38065338134766 16.37359619140625 71.32909393310547 15.81964874267578 71.94507598876953 C 15.52344512939453 72.27447509765625 15.11454010009766 72.44207763671875 14.70389556884766 72.44207763671875 C 14.34659576416016 72.44207763671875 13.98796844482422 72.31510925292969 13.70138549804688 72.05735778808594 C 13.70044708251953 72.0565185546875 13.69951629638672 72.05567932128906 13.69858551025391 72.05484771728516 C 13.69666290283203 72.05312347412109 13.69629669189453 72.05279541015625 13.69438171386719 72.05106353759766 C 13.08119201660156 71.49671173095703 13.03201293945313 70.55033874511719 13.58514404296875 69.93540191650391 C 13.88136291503906 69.60608673095703 14.29030609130859 69.43849182128906 14.700927734375 69.43850708007813 Z M 8.370407104492188 62.19184112548828 C 8.850250244140625 62.19186782836914 9.321784973144531 62.421630859375 9.612037658691406 62.84825134277344 L 9.614906311035156 62.85247802734375 C 10.08090209960938 63.53741455078125 9.903450012207031 64.47046661376953 9.218544006347656 64.93650817871094 C 8.960197448730469 65.11229705810547 8.666656494140625 65.19651031494141 8.376091003417969 65.19651031494141 C 7.896339416503906 65.19651031494141 7.424880981445313 64.96675109863281 7.134651184082031 64.54017639160156 C 7.133613586425781 64.53865051269531 7.132583618164063 64.53713226318359 7.131561279296875 64.53562927246094 C 6.665557861328125 63.85069274902344 6.843063354492188 62.91770553588867 7.528022766113281 62.45175933837891 C 7.786354064941406 62.27602767944336 8.079872131347656 62.19182205200195 8.370407104492188 62.19184112548828 Z M 3.96343994140625 53.64375305175781 C 4.5731201171875 53.64378356933594 5.146385192871094 54.01826095581055 5.37042236328125 54.62346649169922 L 5.372200012207031 54.62823867797852 C 5.659797668457031 55.40514373779297 5.263175964355469 56.26814651489258 4.486282348632813 56.55580139160156 C 4.314537048339844 56.61939239501953 4.138641357421875 56.6495361328125 3.96563720703125 56.6495361328125 C 3.356040954589844 56.6495361328125 2.782882690429688 56.27509307861328 2.558868408203125 55.66994476318359 C 2.558731079101563 55.66957473754883 2.558586120605469 55.66920471191406 2.558448791503906 55.6688346862793 C 2.557540893554688 55.66636657714844 2.556198120117188 55.66275405883789 2.555290222167969 55.66028594970703 C 2.270912170410156 54.88456344604492 2.667526245117188 54.02441024780273 3.44293212890625 53.7374267578125 C 3.614639282226563 53.67387390136719 3.79046630859375 53.64374160766602 3.96343994140625 53.64375305175781 Z M 1.749053955078125 44.28641510009766 C 2.502998352050781 44.28643417358398 3.152503967285156 44.85346984863281 3.238067626953125 45.62030410766602 L 3.238624572753906 45.62538528442383 C 3.330490112304688 46.44870376586914 2.737533569335938 47.19063949584961 1.914222717285156 47.28255844116211 C 1.857643127441406 47.28887557983398 1.801567077636719 47.29195404052734 1.745933532714844 47.29195404052734 C 0.99212646484375 47.29195404052734 0.3426971435546875 46.7249755859375 0.2571563720703125 45.9582405090332 C 0.2570953369140625 45.95771789550781 0.2570419311523438 45.95719528198242 0.2569808959960938 45.9566764831543 C 0.2568283081054688 45.955322265625 0.2568435668945313 45.95543670654297 0.2566909790039063 45.95408248901367 C 0.2566452026367188 45.95364761352539 0.256591796875 45.95320892333984 0.2565460205078125 45.95277404785156 C 0.1646804809570313 45.12945175170898 0.7576522827148438 44.38759994506836 1.580970764160156 44.29578399658203 C 1.637458801269531 44.28948593139648 1.693519592285156 44.28641128540039 1.749053955078125 44.28641510009766 Z M 1.829048156738281 34.66244506835938 C 1.893165588378906 34.66244506835938 1.958030700683594 34.66655349731445 2.0233154296875 34.67499923706055 C 2.844894409179688 34.78125381469727 3.424835205078125 35.53341293334961 3.318641662597656 36.35501098632813 L 3.317985534667969 36.36008071899414 C 3.22021484375 37.11647796630859 2.575050354003906 37.66804504394531 1.832130432128906 37.66804504394531 C 1.768104553222656 37.66804504394531 1.703254699707031 37.6639404296875 1.638069152832031 37.655517578125 C 0.8176727294921875 37.54952621459961 0.2382278442382813 36.79945373535156 0.3422470092773438 35.97927474975586 C 0.3424224853515625 35.97792816162109 0.3428802490234375 35.97437286376953 0.3430557250976563 35.97302627563477 C 0.3430709838867188 35.97294235229492 0.34307861328125 35.97285842895508 0.3430862426757813 35.97277069091797 C 0.3434371948242188 35.9700813293457 0.3435134887695313 35.9694709777832 0.3438644409179688 35.96677780151367 C 0.443145751953125 35.21226119995117 1.087394714355469 34.66244125366211 1.829048156738281 34.66244506835938 Z M 4.212867736816406 25.34540939331055 C 4.394271850585938 25.34541702270508 4.578804016113281 25.37856674194336 4.757972717285156 25.44852066040039 C 5.529678344726563 25.74978637695313 5.911079406738281 26.61962509155273 5.60986328125 27.3913459777832 L 5.608009338378906 27.39609146118164 C 5.376708984375 27.98869323730469 4.8101806640625 28.35115432739258 4.210189819335938 28.35115432739258 C 4.028831481933594 28.35115432739258 3.844375610351563 28.31802368164063 3.665237426757813 28.24811935424805 C 2.893684387207031 27.94701766967773 2.512214660644531 27.07767486572266 2.813041687011719 26.30608367919922 C 2.813041687011719 26.30608367919922 2.813613891601563 26.30459976196289 2.813613891601563 26.30459976196289 C 2.814170837402344 26.30318069458008 2.814727783203125 26.30176544189453 2.815277099609375 26.30034637451172 C 3.046554565429688 25.70780181884766 3.612968444824219 25.34537887573242 4.212867736816406 25.34540939331055 Z M 8.772193908691406 16.87660980224609 C 9.07122802734375 16.87663269042969 9.373329162597656 16.96584320068359 9.63616943359375 17.15148162841797 C 10.31285095214844 17.62938690185547 10.47402191162109 18.56538391113281 9.996170043945313 19.24210739135742 L 9.99322509765625 19.24626541137695 C 9.700981140136719 19.66012954711914 9.237403869628906 19.88118743896484 8.766548156738281 19.88118743896484 C 8.467498779296875 19.88118743896484 8.165504455566406 19.79200744628906 7.902641296386719 19.60641098022461 C 7.22589111328125 19.12859725952148 7.064651489257813 18.19266510009766 7.542518615722656 17.51596069335938 C 7.542884826660156 17.51543426513672 7.543251037597656 17.51491546630859 7.543609619140625 17.51439666748047 C 7.54510498046875 17.51228332519531 7.546333312988281 17.51054382324219 7.547828674316406 17.50843048095703 C 7.840202331542969 17.0965576171875 8.302536010742188 16.87656402587891 8.772193908691406 16.87660980224609 Z M 15.22482299804688 9.741973876953125 C 15.64421844482422 9.741996765136719 16.06139373779297 9.916946411132813 16.35797119140625 10.25849151611328 C 16.90114593505859 10.88400268554688 16.83441162109375 11.83142852783203 16.20893096923828 12.37464141845703 L 16.205078125 12.37798309326172 C 15.92112731933594 12.62458801269531 15.57083129882813 12.74549865722656 15.22210693359375 12.74549865722656 C 14.80268096923828 12.74549865722656 14.38554382324219 12.57057952880859 14.08892059326172 12.22908020019531 C 13.54581451416016 11.60379028320313 13.61228179931641 10.65674591064453 14.23733520507813 10.11347961425781 C 14.23831176757813 10.11263275146484 14.2374267578125 10.1134033203125 14.2384033203125 10.11255645751953 C 14.23868560791016 10.11231231689453 14.23896789550781 10.112060546875 14.23925018310547 10.11181640625 C 14.24022674560547 10.11096954345703 14.24137878417969 10.10997009277344 14.24234771728516 10.10912322998047 C 14.52623748779297 9.862724304199219 14.87626647949219 9.741950988769531 15.22482299804688 9.741973876953125 Z M 23.19400405883789 4.354774475097656 C 23.73897933959961 4.354812622070313 24.26469421386719 4.652862548828125 24.53019714355469 5.1712646484375 C 24.90784072875977 5.908615112304688 24.61625289916992 6.812530517578125 23.87893295288086 7.190216064453125 L 23.87439727783203 7.192543029785156 C 23.65546035766602 7.304695129394531 23.42190933227539 7.357826232910156 23.19173049926758 7.357826232910156 C 22.646728515625 7.357826232910156 22.12097930908203 7.059776306152344 21.85540008544922 6.541412353515625 C 21.47766494750977 5.804115295410156 21.76915740966797 4.900238037109375 22.50649261474609 4.522560119628906 C 22.50712966918945 4.522232055664063 22.50776672363281 4.521903991699219 22.50840377807617 4.521575927734375 C 22.50956344604492 4.520980834960938 22.50896072387695 4.521286010742188 22.5101203918457 4.52069091796875 C 22.51054382324219 4.520477294921875 22.51096343994141 4.520263671875 22.51138687133789 4.520050048828125 C 22.73032379150391 4.40789794921875 22.96383666992188 4.354759216308594 23.19400405883789 4.354774475097656 Z M 32.22452545166016 1.043601989746094 C 32.90560913085938 1.043632507324219 33.52207183837891 1.51068115234375 33.68374633789063 2.202507019042969 C 33.87226486206055 3.009201049804688 33.37115859985352 3.816024780273438 32.56447982788086 4.004600524902344 L 32.55950546264648 4.005760192871094 C 32.44463729858398 4.032608032226563 32.32984161376953 4.04547119140625 32.21675109863281 4.04547119140625 C 31.53565216064453 4.04547119140625 30.91911315917969 3.578414916992188 30.75734710693359 2.886611938476563 C 30.56908416748047 2.081573486328125 31.06766510009766 1.276412963867188 31.87147521972656 1.085723876953125 C 31.87407684326172 1.085113525390625 31.87697982788086 1.084434509277344 31.87957763671875 1.083824157714844 C 31.88031005859375 1.083656311035156 31.88104248046875 1.083488464355469 31.88177108764648 1.083320617675781 C 31.99663925170898 1.056465148925781 32.1114387512207 1.043594360351563 32.22452545166016 1.043601989746094 Z"/></g><path class="e" d="M-4237.7-320.009l-27.041,26.606-16.986-17.13,6.917-6.617,10.068,9.8,20.151-19.863Z" transform="translate(4301.304 352.215)"/></g></svg>