<svg xmlns="http://www.w3.org/2000/svg" width="24" height="24" viewBox="0 0 24 24"><defs><style>.a{fill:#fff;}.b{fill:none;}</style></defs><g transform="translate(-907.357 -39)"><g transform="translate(907.357 41)"><path class="a" d="M154.036,49.726a1.1,1.1,0,0,0-.319.049l-1.211.366-1.258-3.369a2.753,2.753,0,0,0-2.348-1.731H137.13a2.754,2.754,0,0,0-2.348,1.731l-1.256,3.364-1.2-.362a1.121,1.121,0,0,0-.319-.048,1.038,1.038,0,0,0-.988,1.143v.785a1.346,1.346,0,0,0,1.275,1.4h.137l-.2.543a11.454,11.454,0,0,0-.6,3.346V63.64a1.345,1.345,0,0,0,1.276,1.4h1.666a1.345,1.345,0,0,0,1.275-1.4V61.968h14.332V63.64a1.345,1.345,0,0,0,1.276,1.4h1.666a1.345,1.345,0,0,0,1.275-1.4V56.947a11.437,11.437,0,0,0-.6-3.347l-.2-.543h.154a1.345,1.345,0,0,0,1.276-1.4V50.87A1.039,1.039,0,0,0,154.036,49.726ZM134.441,52.3l1.9-5.1a1.655,1.655,0,0,1,1.408-1.038H148.28a1.656,1.656,0,0,1,1.408,1.038l1.9,5.1c.213.571-.072,1.038-.633,1.038H135.074C134.513,53.333,134.228,52.866,134.441,52.3Zm4.247,6.446a.539.539,0,0,1-.51.561h-3.614a.539.539,0,0,1-.511-.561V56.833a.539.539,0,0,1,.511-.561h3.614a.539.539,0,0,1,.51.561Zm13.255,0a.539.539,0,0,1-.51.561h-3.614a.539.539,0,0,1-.51-.561V56.833a.539.539,0,0,1,.51-.561h3.614a.539.539,0,0,1,.51.561Z" transform="translate(-131.024 -45.042)"/></g><rect class="b" width="24" height="24" transform="translate(907.357 39)"/></g></svg>