<svg xmlns="http://www.w3.org/2000/svg" width="33.6" height="24" viewBox="0 0 33.6 24"><defs><style>.a{fill:#f8f8f8;}.b{fill:#e7e7e7;}.c{fill:#1a1f71;}</style></defs><path class="a" d="M30.72,24H2.88A2.876,2.876,0,0,1,0,21.12V2.88A2.876,2.876,0,0,1,2.88,0H30.72A2.876,2.876,0,0,1,33.6,2.88V21.12A2.876,2.876,0,0,1,30.72,24Z"/><path class="b" d="M30.72.96a1.926,1.926,0,0,1,1.92,1.92V21.12a1.926,1.926,0,0,1-1.92,1.92H2.88A1.926,1.926,0,0,1,.96,21.12V2.88A1.926,1.926,0,0,1,2.88.96H30.72m0-.96H2.88A2.876,2.876,0,0,0,0,2.88V21.12A2.876,2.876,0,0,0,2.88,24H30.72a2.876,2.876,0,0,0,2.88-2.88V2.88A2.876,2.876,0,0,0,30.72,0Z"/><path class="c" d="M43.96,80.928,42.2,89.3h2.119l1.756-8.376Zm13.647,0H55.8a.963.963,0,0,0-.9.608L51.718,89.3h2.224l.439-1.255H57.1l.258,1.255h1.966ZM55,86.332l1.107-3.139.639,3.139Zm-14.181-5.4-2.2,5.7-.9-4.845a1,1,0,0,0-.983-.863H33.148l-.048.245a9.239,9.239,0,0,1,2.09.706.945.945,0,0,1,.5.745l1.689,6.7h2.233l3.445-8.376H40.82Zm8.045,2.334c0-.294.286-.628.9-.7a4.015,4.015,0,0,1,2.09.383l.372-1.785a5.717,5.717,0,0,0-1.975-.363c-2.09,0-3.569,1.138-3.588,2.776-.019,1.206,1.059,1.883,1.851,2.285.821.412,1.107.677,1.1,1.04,0,.559-.658.814-1.269.824a4.317,4.317,0,0,1-2.176-.53l-.382,1.834a6.451,6.451,0,0,0,2.367.451c2.233,0,3.684-1.128,3.7-2.864-.019-2.246-3.006-2.383-2.987-3.354Z" transform="translate(-29.853 -73.135)"/></svg>