<svg xmlns="http://www.w3.org/2000/svg" xmlns:xlink="http://www.w3.org/1999/xlink" width="31.18" height="33.432" viewBox="0 0 31.18 33.432"><defs><style>.a,.c,.d,.e{fill:none;}.b{clip-path:url(#a);}.c,.d,.e{stroke:#606060;}.c{stroke-width:3px;}.d{stroke-width:2px;}.e{stroke-width:1.5px;}.f{stroke:none;}</style><clipPath id="a"><rect class="a" width="31.18" height="33.432"/></clipPath></defs><g class="b"><path class="c" d="M-475.356,706.93a50.531,50.531,0,0,0,.405-7.486,23.411,23.411,0,0,1-7.494-1.285,18.6,18.6,0,0,1-5.663-3.9,18.829,18.829,0,0,1-5.9,3.9,24.158,24.158,0,0,1-7.522,1.285s-.83,10.386,2.525,16.588S-488.107,724-488.107,724a9.114,9.114,0,0,0,3.131-1.4" transform="translate(503.189 -692.1)"/><g class="d" transform="translate(16.618 15.822)"><ellipse class="f" cx="7.281" cy="7.281" rx="7.281" ry="7.281"/><ellipse class="a" cx="7.281" cy="7.281" rx="6.281" ry="6.281"/></g><path class="e" d="M-361.233,665.688v5.3h4.748" transform="translate(385.129 -647.138)"/></g></svg>