<svg xmlns="http://www.w3.org/2000/svg" xmlns:xlink="http://www.w3.org/1999/xlink" width="23.893" height="24" viewBox="0 0 23.893 24">
  <defs>
    <linearGradient id="linear-gradient" x1="0.5" y1="1" x2="0.5" gradientUnits="objectBoundingBox">
      <stop offset="0" stop-color="#20b038"/>
      <stop offset="1" stop-color="#60d66a"/>
    </linearGradient>
  </defs>
  <g id="Grupo_13329" data-name="Grupo 13329" transform="translate(-323.023 280.684)">
    <path id="Caminho_6278" data-name="Caminho 6278" d="M103.5,125.982l1.629-5.949a11.485,11.485,0,1,1,9.952,5.75h-.005a11.481,11.481,0,0,1-5.488-1.4Zm0,0" transform="translate(219.941 -383.08)" fill="url(#linear-gradient)"/>
    <g id="Grupo_13328" data-name="Grupo 13328" transform="translate(323.023 -280.684)">
      <path id="Caminho_6283" data-name="Caminho 6283" d="M118.435,100.8a11.9,11.9,0,0,0-18.724,14.35l-1.688,6.163,6.306-1.654a11.89,11.89,0,0,0,5.685,1.448h.005a11.9,11.9,0,0,0,8.415-20.306Zm-8.415,18.3h0a9.878,9.878,0,0,1-5.032-1.378l-.361-.214-3.742.981,1-3.648-.235-.374a9.888,9.888,0,1,1,8.376,4.633Zm0,0" transform="translate(-98.023 -97.316)" fill="#fff" fill-rule="evenodd"/>
      <path id="Caminho_6284" data-name="Caminho 6284" d="M188.191,189.928c-.3-.149-1.759-.868-2.031-.967s-.471-.149-.669.149-.768.967-.941,1.165-.347.223-.644.075a8.135,8.135,0,0,1-2.39-1.475,8.958,8.958,0,0,1-1.654-2.058c-.173-.3-.019-.458.131-.607.133-.133.3-.347.446-.52a2.041,2.041,0,0,0,.3-.5.548.548,0,0,0-.025-.521c-.074-.149-.652-1.619-.916-2.207-.223-.495-.457-.5-.669-.513-.173-.007-.372-.007-.57-.007a1.092,1.092,0,0,0-.793.372,3.332,3.332,0,0,0-1.041,2.479,5.784,5.784,0,0,0,1.214,3.074,12.206,12.206,0,0,0,5.078,4.487c2.511.99,3.022.793,3.567.744a3,3,0,0,0,2.006-1.413,2.487,2.487,0,0,0,.173-1.413C188.687,190.151,188.488,190.076,188.191,189.928Zm0,0" transform="translate(-170.771 -175.545)" fill="#fff" fill-rule="evenodd"/>
    </g>
  </g>
</svg>
