<svg xmlns="http://www.w3.org/2000/svg" width="60" height="42" viewBox="0 0 60 42"><defs><style>.a,.e{fill:#fff;}.b{fill:none;}.c{fill:#e7e7e7;}.d{fill:#0079c1;}.d,.e{fill-rule:evenodd;}</style></defs><g transform="translate(-177 -7)"><path class="a" d="M54.857,42H5.143A5.085,5.085,0,0,1,0,36.96V5.04A5.085,5.085,0,0,1,5.143,0H54.857A5.085,5.085,0,0,1,60,5.04V36.96A5.085,5.085,0,0,1,54.857,42Z" transform="translate(177 7)"/><g transform="translate(177 7)"><path class="b" d="M54.857,42H5.143A5.085,5.085,0,0,1,0,36.96V5.04A5.085,5.085,0,0,1,5.143,0H54.857A5.085,5.085,0,0,1,60,5.04V36.96A5.085,5.085,0,0,1,54.857,42Z"/><path class="c" d="M54.857,1.68a3.4,3.4,0,0,1,3.429,3.36V36.96a3.4,3.4,0,0,1-3.429,3.36H5.143a3.4,3.4,0,0,1-3.429-3.36V5.04A3.4,3.4,0,0,1,5.143,1.68H54.857m0-1.68H5.143A5.085,5.085,0,0,0,0,5.04V36.96A5.085,5.085,0,0,0,5.143,42H54.857A5.085,5.085,0,0,0,60,36.96V5.04A5.085,5.085,0,0,0,54.857,0Z"/></g><g transform="translate(194 15)"><path class="d" d="M0,0H25.116V25.116H0V0Z" transform="translate(0 0)"/><path class="e" d="M5.824,20.138V16.2H10l.448.584.463-.584H26.064v3.671a1.751,1.751,0,0,1-.855.272H16.818l-.5-.621v.621H14.658V19.077a1.388,1.388,0,0,1-.715.148H13.38v.913H10.874l-.447-.6-.455.6Z" transform="translate(-0.948 -2.637)"/><path class="e" d="M0,12.218l.942-2.2H2.57l.534,1.23v-1.23H5.129l.318.888.308-.888h9.086v.447a1.961,1.961,0,0,1,1.262-.447l2.948.01.525,1.213V10.022H21.27l.466.7v-.7h1.71v3.943h-1.71l-.447-.7v.7H18.8l-.25-.621h-.669l-.246.621H15.948a1.669,1.669,0,0,1-1.108-.438v.438H12.3l-.5-.621v.621H2.328l-.25-.621H1.411l-.249.621H0V12.218Z" transform="translate(0 -1.632)"/><path class="d" d="M1.276,10.6.006,13.557H.832l.234-.591H2.429l.233.591h.845L2.238,10.6Zm.47.687.415,1.033H1.329l.417-1.033Z" transform="translate(-0.001 -1.727)"/><path class="d" d="M4.292,13.556V10.6l1.175,0,.683,1.9L6.818,10.6H7.983v2.953H7.245V11.38l-.783,2.176H5.815L5.03,11.38v2.176Z" transform="translate(-0.699 -1.726)"/><path class="d" d="M9.3,13.556V10.6h2.409v.661H10.05v.5h1.624v.622H10.05v.524h1.663v.641Z" transform="translate(-1.515 -1.726)"/><path class="d" d="M12.691,10.6v2.953h.738V12.508h.311l.885,1.049h.9l-.971-1.088a.9.9,0,0,0,.81-.907.955.955,0,0,0-1.032-.958H12.691Zm.738.661h.844a.339.339,0,0,1,.35.311.334.334,0,0,1-.339.311h-.855v-.621Z" transform="translate(-2.066 -1.727)"/><path class="d" d="M17,13.556h-.753V10.6H17Z" transform="translate(-2.645 -1.726)"/><path class="d" d="M19,13.556h-.162a1.3,1.3,0,0,1-1.265-1.464A1.353,1.353,0,0,1,19.043,10.6h.815v.7h-.846a.71.71,0,0,0-.689.8.723.723,0,0,0,.8.812h.194L19,13.556Z" transform="translate(-2.862 -1.726)"/><path class="d" d="M20.952,10.6l-1.27,2.953h.826l.234-.591H22.1l.233.591h.845L21.914,10.6Zm.47.687.415,1.033h-.831l.416-1.033Z" transform="translate(-3.205 -1.727)"/><path class="d" d="M23.968,13.556V10.6h.938l1.2,1.855V10.6h.738v2.953h-.908l-1.229-1.9v1.9Z" transform="translate(-3.902 -1.726)"/><path class="d" d="M6.427,19.728V16.775H8.836v.661H7.173v.5H8.8v.622H7.173v.524H8.836v.641Z" transform="translate(-1.046 -2.731)"/><path class="d" d="M20.524,19.728V16.775h2.409v.661H21.27v.5h1.617v.622H21.27v.524h1.663v.641Z" transform="translate(-3.342 -2.731)"/><path class="d" d="M9.41,19.728l1.172-1.458-1.2-1.494h.93l.715.923.717-.923h.893l-1.185,1.476,1.175,1.477H11.7L11,18.819l-.678.909Z" transform="translate(-1.528 -2.731)"/><path class="d" d="M13.364,16.776v2.953h.758V18.8H14.9a1.022,1.022,0,0,0,1.156-1.027.972.972,0,0,0-1.06-.993Zm.758.667h.818a.333.333,0,0,1,.364.34.341.341,0,0,1-.367.34h-.815v-.68Z" transform="translate(-2.176 -2.731)"/><path class="d" d="M16.961,16.775v2.953H17.7V18.679h.311l.885,1.049h.9l-.971-1.088a.9.9,0,0,0,.81-.907.955.955,0,0,0-1.032-.958Zm.738.661h.844a.339.339,0,0,1,.35.311.334.334,0,0,1-.339.311H17.7v-.621Z" transform="translate(-2.761 -2.731)"/><path class="d" d="M23.792,19.728v-.641H25.27c.219,0,.313-.118.313-.248s-.095-.249-.313-.249H24.6a.825.825,0,0,1-.9-.884c0-.473.3-.93,1.158-.93h1.437l-.311.665H24.74c-.238,0-.311.125-.311.244a.257.257,0,0,0,.272.257h.7a.81.81,0,0,1,.928.847.885.885,0,0,1-.963.939Z" transform="translate(-3.859 -2.731)"/><path class="d" d="M27.028,19.728v-.641h1.415c.219,0,.313-.118.313-.248s-.095-.249-.313-.249h-.605a.825.825,0,0,1-.9-.884c0-.473.3-.93,1.158-.93H29.5l-.311.665H27.975c-.238,0-.311.125-.311.244a.257.257,0,0,0,.272.257h.637a.81.81,0,0,1,.928.847.885.885,0,0,1-.963.939Z" transform="translate(-4.385 -2.731)"/></g></g></svg>