<svg xmlns="http://www.w3.org/2000/svg" width="60" height="42" viewBox="0 0 60 42"><defs><style>.a,.f{fill:#fff;}.b{fill:none;}.c{fill:#e7e7e7;}.d{fill:#b5dc19;}.d,.e,.f,.g{fill-rule:evenodd;}.e{fill:#a3ca3f;}.g{fill:#194084;}</style></defs><g transform="translate(-573 -7)"><g transform="translate(153)"><path class="a" d="M54.857,42H5.143A5.085,5.085,0,0,1,0,36.96V5.04A5.085,5.085,0,0,1,5.143,0H54.857A5.085,5.085,0,0,1,60,5.04V36.96A5.085,5.085,0,0,1,54.857,42Z" transform="translate(420 7)"/><g transform="translate(420 7)"><path class="b" d="M54.857,42H5.143A5.085,5.085,0,0,1,0,36.96V5.04A5.085,5.085,0,0,1,5.143,0H54.857A5.085,5.085,0,0,1,60,5.04V36.96A5.085,5.085,0,0,1,54.857,42Z"/><path class="c" d="M54.857,1.68a3.4,3.4,0,0,1,3.429,3.36V36.96a3.4,3.4,0,0,1-3.429,3.36H5.143a3.4,3.4,0,0,1-3.429-3.36V5.04A3.4,3.4,0,0,1,5.143,1.68H54.857m0-1.68H5.143A5.085,5.085,0,0,0,0,5.04V36.96A5.085,5.085,0,0,0,5.143,42H54.857A5.085,5.085,0,0,0,60,36.96V5.04A5.085,5.085,0,0,0,54.857,0Z"/></g></g><g transform="translate(-605.636 -6674.688)"><g transform="translate(1187.636 6690.688)"><path class="d" d="M-358.554,0h-33.74V6.65C-392.278,16.8-383.624,25.012-373,25h22.539V7.647a7.231,7.231,0,0,0-2.149-5.423A8.758,8.758,0,0,0-358.554,0" transform="translate(392.294 0)"/></g><g transform="translate(1194.332 6702.272)"><path class="e" d="M-13.307-51.821l-.028-.078-1.2-3.4-.028-.078.078-.028,3.5-1.23A1.133,1.133,0,0,1-10.6-56.7a1.139,1.139,0,0,1,1.077.765l.845,2.395.028.077-.079.028-4.5,1.583Z" transform="translate(14.559 56.697)"/></g><g transform="translate(1194.227 6702.188)"><path class="f" d="M-32.493-45.406l-1.652.58-1.194-3.4,2.846-1,.651-.228a1.064,1.064,0,0,1,.353-.06,1.058,1.058,0,0,1,1,.708l.846,2.4Zm0-3.993-2.9,1.023-.155.054.054.156,1.2,3.4.054.156.154-.055,1.6-.561,2.9-1.022.156-.054-.055-.157-.843-2.4a1.227,1.227,0,0,0-1.156-.819,1.247,1.247,0,0,0-.408.071Z" transform="translate(35.551 49.679)"/></g><g transform="translate(1195.74 6705.793)"><path class="g" d="M-32.575-49.43h0a2.9,2.9,0,0,1-2.732-1.934l-.305-.87-.028-.078.078-.028,4.756-1.676a1.226,1.226,0,0,1,.389-.066,1.183,1.183,0,0,1,1.11.784l.874,2.494.029.078-.078.028-3.13,1.1a2.918,2.918,0,0,1-.963.164" transform="translate(35.641 54.081)"/></g><g transform="translate(1195.633 6705.711)"><path class="f" d="M-39.588-48.841a2.734,2.734,0,0,1-.554.055,2.815,2.815,0,0,1-2.653-1.88l-.306-.871,3.513-1.236,1.243-.438a1.076,1.076,0,0,1,.362-.061,1.091,1.091,0,0,1,1.03.729l.878,2.494-3.131,1.1a2.7,2.7,0,0,1-.382.1m0-4.106-3.568,1.254-.157.057.054.154.307.87a2.981,2.981,0,0,0,2.81,1.989,2.922,2.922,0,0,0,.554-.051,2.879,2.879,0,0,0,.438-.118l3.129-1.1.156-.054-.054-.156L-36.8-52.6a1.252,1.252,0,0,0-1.185-.84,1.27,1.27,0,0,0-.417.071Z" transform="translate(43.313 53.437)"/></g><g transform="translate(1194.369 6693.749)"><path class="g" d="M-121.247-178.066a2.16,2.16,0,0,1-2.457-2.374,3.727,3.727,0,0,1,.811-2.417,2.9,2.9,0,0,1,2.3-1.016,2.9,2.9,0,0,1,1.729.48,1.917,1.917,0,0,1,.751,1.587v.044h-1.578v-.044c0-.591-.295-.856-.953-.856-1.17,0-1.477,1.475-1.477,2.254,0,.516.17,1.13.983,1.13a1.235,1.235,0,0,0,1.164-.975l.01-.032h1.585l-.02.059a2.845,2.845,0,0,1-2.845,2.16m5.587-1.121a1.411,1.411,0,0,0,1-1.161l.118-.423a2.8,2.8,0,0,1-1.059.209l-.061,0-.063.006c-.636.07-1.06.239-1.06.836,0,.418.416.565.774.565a1.618,1.618,0,0,0,.35-.035m0-2.3.059-.008c.948-.093,1.382-.137,1.382-.673,0-.572-.689-.617-.9-.617a1.39,1.39,0,0,0-.541.1.858.858,0,0,0-.517.66l-1.438.036a1.753,1.753,0,0,1,.872-1.492,2.87,2.87,0,0,1,1.083-.353,4.485,4.485,0,0,1,.614-.037,2.73,2.73,0,0,1,1.965.565,1.2,1.2,0,0,1,.337.86,5.592,5.592,0,0,1-.117.966l-.483,2.185a3.341,3.341,0,0,0-.072.723,1.025,1.025,0,0,0,.05.3l.02.058H-114.9l-.045-.467a2.1,2.1,0,0,1-.717.453,2.537,2.537,0,0,1-.9.161c-1.246,0-1.806-.738-1.806-1.471,0-1.039.771-1.729,2.116-1.891Zm4.522,3.277h-1.58l.012-.052,1.133-5.427.007-.034h1.509l-.011.054-.172.752a2.067,2.067,0,0,1,1.8-.953,3.373,3.373,0,0,1,.466.03l.049,0-.009.049-.3,1.447-.009.045-.045-.009-.109-.025a2.607,2.607,0,0,0-.512-.07c-1.177,0-1.532.937-1.707,1.749l-.5,2.4Zm5.311-1.1c.887-.212,1.3-1.4,1.3-2.221,0-.717-.376-1.129-1.027-1.129a1.309,1.309,0,0,0-.278.03c-.9.2-1.3,1.352-1.3,2.193a1.037,1.037,0,0,0,1.016,1.162,1.23,1.23,0,0,0,.288-.033m0-4.559.122,0a1.666,1.666,0,0,1,1.519.8l.576-2.687,1.534-.035-1.542,7.545-1.479.035.068-.567a1.656,1.656,0,0,1-.8.585,2.25,2.25,0,0,1-.773.13,2,2,0,0,1-2.111-2.186,4.243,4.243,0,0,1,.738-2.483,2.678,2.678,0,0,1,2.146-1.135m.851-3.037a3.226,3.226,0,0,1-1.612-.383,1.547,1.547,0,0,1-.8-1.393v-.271h1.507v.228c0,.465.529.707,1.053.707.216,0,.921-.044.921-.621,0-.342-.168-.455-.517-.567l-1.172-.378c-.782-.253-1.235-.573-1.235-1.463,0-1.247,1.26-1.806,2.507-1.806a2.568,2.568,0,0,1,1.894.572,1.668,1.668,0,0,1,.429,1.248v.046h-1.509v-.046c-.011-.469-.284-.707-.813-.707-.406,0-.89.087-.89.5,0,.189.111.344.667.516l.765.247c.774.256,1.491.631,1.491,1.635a1.674,1.674,0,0,1-.864,1.5,3.607,3.607,0,0,1-1.824.438m-9.26-.15h-1.618l.011-.057.676-3.256a3.579,3.579,0,0,0,.1-.666c0-.309-.36-.525-.685-.525-1.083,0-1.419,1.057-1.515,1.511l-.621,2.956-.008.037h-1.62l.012-.057,1.16-5.555.008-.035h1.555l-.012.056-.139.629a2.42,2.42,0,0,1,1.889-.836c1.077,0,1.669.547,1.669,1.538a5.743,5.743,0,0,1-.163.967l-.687,3.256Zm-14.794-3.418h-1.236l-.432,2.016h2.06a1.135,1.135,0,0,0,1.276-1.19c0-.762-.664-.826-1.287-.826Zm0-2.947h-.623l-.359,1.706h1.857a.985.985,0,0,0,1.094-.964c0-.506-.269-.742-.846-.742Zm0,6.365h-3.626l1.566-7.731,2.06-.034h1.208a3.537,3.537,0,0,1,1.847.356,1.594,1.594,0,0,1,.692,1.484,2,2,0,0,1-.392,1.207,1.587,1.587,0,0,1-.942.6,1.574,1.574,0,0,1,1.034,1.556,2.337,2.337,0,0,1-.909,1.918,3.385,3.385,0,0,1-2.072.644Zm18.965-3.467h1.219c-.007-.518-.138-1.089-.987-1.089a1.694,1.694,0,0,0-.232.013,1.517,1.517,0,0,0-1.219,1.076Zm0-2.328.146,0a2.81,2.81,0,0,1,1.906.622,2.365,2.365,0,0,1,.731,1.852,4.661,4.661,0,0,1-.087.879l-2.7.036h-1.4l-.007.279c0,.661.429,1.039,1.18,1.039a1.238,1.238,0,0,0,.23-.021,1.384,1.384,0,0,0,.872-.723l1.564-.018h.067l-.025.06a2.675,2.675,0,0,1-2.478,1.925c-.142.011-.29.018-.444.018a2.293,2.293,0,0,1-2.518-2.475,3.762,3.762,0,0,1,.832-2.409,2.917,2.917,0,0,1,2.131-1.061m-12.465,2.436.06-.006c.973-.1,1.416-.14,1.416-.691,0-.585-.7-.63-.922-.63a1.358,1.358,0,0,0-.555.106.872.872,0,0,0-.527.671l-1.474.038a1.8,1.8,0,0,1,.895-1.527,2.884,2.884,0,0,1,1.107-.361,5.053,5.053,0,0,1,.63-.04,2.8,2.8,0,0,1,2.012.58,1.227,1.227,0,0,1,.344.876,5.446,5.446,0,0,1-.119.994l-.493,2.237a3.286,3.286,0,0,0-.075.744,1.09,1.09,0,0,0,.051.306l.022.062h-1.59l-.047-.482a2.1,2.1,0,0,1-.735.466,2.6,2.6,0,0,1-.917.165c-1.278,0-1.851-.758-1.851-1.506,0-1.063.791-1.768,2.168-1.937Zm.051,2.354c.638-.14.829-.662.977-1.182l.123-.436a2.861,2.861,0,0,1-1.087.217l-.127.009c-.651.072-1.088.245-1.088.856,0,.427.427.577.793.577a2,2,0,0,0,.409-.042" transform="translate(132.657 194.822)"/></g></g></g></svg>