<svg xmlns="http://www.w3.org/2000/svg" width="60" height="42" viewBox="0 0 60 42"><defs><style>.a{fill:#fff;}.b{fill:none;}.c{fill:#e7e7e7;}.d{fill:#00437a;}</style></defs><g transform="translate(-573 -7)"><g transform="translate(153)"><path class="a" d="M54.857,42H5.143A5.085,5.085,0,0,1,0,36.96V5.04A5.085,5.085,0,0,1,5.143,0H54.857A5.085,5.085,0,0,1,60,5.04V36.96A5.085,5.085,0,0,1,54.857,42Z" transform="translate(420 7)"/><g transform="translate(420 7)"><path class="b" d="M54.857,42H5.143A5.085,5.085,0,0,1,0,36.96V5.04A5.085,5.085,0,0,1,5.143,0H54.857A5.085,5.085,0,0,1,60,5.04V36.96A5.085,5.085,0,0,1,54.857,42Z"/><path class="c" d="M54.857,1.68a3.4,3.4,0,0,1,3.429,3.36V36.96a3.4,3.4,0,0,1-3.429,3.36H5.143a3.4,3.4,0,0,1-3.429-3.36V5.04A3.4,3.4,0,0,1,5.143,1.68H54.857m0-1.68H5.143A5.085,5.085,0,0,0,0,5.04V36.96A5.085,5.085,0,0,0,5.143,42H54.857A5.085,5.085,0,0,0,60,36.96V5.04A5.085,5.085,0,0,0,54.857,0Z"/></g></g><g transform="translate(518.735 -49.514)"><g transform="translate(72.265 65.514)"><path class="d" d="M92.063,90.514h-19.8v-25H95.687V86.892a3.622,3.622,0,0,1-3.624,3.622" transform="translate(-72.265 -65.514)"/></g><path class="a" d="M293.365,120.488l5.951,5.844a.833.833,0,0,1,0,1.188l-5.949,5.843V130.1l2.794-2.758a.582.582,0,0,0,0-.827l-2.8-2.767Z" transform="translate(-208.84 -51.926)"/><path class="a" d="M167.948,120.488,162,126.332a.833.833,0,0,0,0,1.188l5.949,5.843V130.1l-2.794-2.758a.581.581,0,0,1,0-.827l2.8-2.767Z" transform="translate(-84.521 -51.926)"/><path class="a" d="M188.8,393.493l-.583-1.839-.57,1.839Zm-.031-2.446,1.316,3.888h-.827l-.263-.806h-1.547l-.27.806h-.827l1.215-3.591a.437.437,0,0,1,.414-.3Z" transform="translate(-107.764 -307.482)"/><path class="a" d="M261.81,393.949c0,.286-.15.379-.508.379h-.808v-1.062h.877c.313,0,.439.128.439.391Zm-1.316-2.294h.758c.288,0,.414.1.414.315v.344c0,.228-.113.362-.42.362h-.752Zm1.5,1.255a.619.619,0,0,0,.464-.63v-.4c0-.525-.32-.829-1.109-.829H259.7v3.888h1.754c.758,0,1.14-.345,1.14-.893v-.415a.7.7,0,0,0-.608-.718" transform="translate(-177.046 -307.483)"/><path class="a" d="M135.737,389.548h1.134v-.282a.385.385,0,0,0-.385-.386h-.749c-1.014.01-1.449.422-1.449,1.126v1.752c0,.7.436,1.116,1.449,1.126v0h1.091V392.6a.385.385,0,0,0-.385-.385h-.707v0c-.495-.014-.66-.189-.66-.587v-1.495c0-.4.165-.573.66-.587" transform="translate(-58.584 -305.436)"/><path class="a" d="M388.241,393.306v-3.3h-.352a.437.437,0,0,0-.437.437v3.509h2.506v-.648Z" transform="translate(-297.71 -306.501)"/><path class="a" d="M317.515,393.493l-.583-1.839-.57,1.839Zm-.031-2.446,1.316,3.888h-.827l-.263-.806h-1.547l-.27.806h-.827l1.178-3.481a.6.6,0,0,1,.567-.407Z" transform="translate(-229.337 -307.482)"/></g></g></svg>