<svg xmlns="http://www.w3.org/2000/svg" width="29.533" height="27.588" viewBox="0 0 29.533 27.588"><defs><style>.a{fill:#f0c41b;}.b{fill:#f3d55c;}</style></defs><g transform="translate(-55 -245)"><path class="a" d="M29.193,37.647H7.059A2.3,2.3,0,0,1,5,35.174v-18.7A2.3,2.3,0,0,1,7.059,14H29.193a2.3,2.3,0,0,1,2.059,2.473v18.7a2.3,2.3,0,0,1-2.059,2.473" transform="translate(51.641 232.971)"/><path class="b" d="M29.834,40.588H7.7c-2.039,0-3.7-1.994-3.7-4.444v-18.7C4,14.994,5.66,13,7.7,13H29.834c2.039,0,3.7,1.994,3.7,4.444v18.7c0,2.449-1.66,4.444-3.7,4.444M7.7,16.941a.465.465,0,0,0-.418.5v18.7a.465.465,0,0,0,.418.5H29.834a.466.466,0,0,0,.418-.5v-18.7a.466.466,0,0,0-.418-.5Z" transform="translate(51 232)"/><path class="a" d="M27.407,16.473A2.294,2.294,0,0,0,25.348,14H13.059A2.293,2.293,0,0,0,11,16.473v18.7a2.294,2.294,0,0,0,2.059,2.473H15.5a2.3,2.3,0,0,0,2.059-2.473V24.355a2.294,2.294,0,0,1,2.059-2.473h5.726a2.3,2.3,0,0,0,2.059-2.473Z" transform="translate(55.485 232.971)"/><path class="b" d="M16.145,40.588H13.7c-2.039,0-3.7-1.994-3.7-4.444v-18.7C10,14.994,11.66,13,13.7,13H25.989c2.039,0,3.7,1.994,3.7,4.444V20.38c0,2.449-1.66,4.444-3.7,4.444H20.263a.465.465,0,0,0-.418.5V36.144c0,2.449-1.66,4.444-3.7,4.444M13.7,16.941a.465.465,0,0,0-.418.5v18.7a.465.465,0,0,0,.418.5h2.445a.466.466,0,0,0,.418-.5V25.326c0-2.449,1.66-4.444,3.7-4.444h5.726a.466.466,0,0,0,.418-.5V17.444a.466.466,0,0,0-.418-.5Z" transform="translate(54.844 232)"/><line class="a" x2="9.844" transform="translate(73.048 262.735)"/><path class="b" d="M25.485,24.941H15.641A1.828,1.828,0,0,1,14,22.971,1.828,1.828,0,0,1,15.641,21h9.844a1.828,1.828,0,0,1,1.641,1.971,1.828,1.828,0,0,1-1.641,1.971" transform="translate(57.407 239.764)"/><line class="a" x1="9.844" transform="translate(56.641 254.853)"/><path class="b" d="M15.485,20.941H5.641A1.828,1.828,0,0,1,4,18.971,1.828,1.828,0,0,1,5.641,17h9.844a1.828,1.828,0,0,1,1.641,1.971,1.828,1.828,0,0,1-1.641,1.971" transform="translate(51 235.882)"/><line class="a" x1="9.844" transform="translate(56.641 262.735)"/><path class="b" d="M15.485,24.941H5.641A1.828,1.828,0,0,1,4,22.971,1.828,1.828,0,0,1,5.641,21h9.844a1.828,1.828,0,0,1,1.641,1.971,1.828,1.828,0,0,1-1.641,1.971" transform="translate(51 239.764)"/></g></svg>