<svg xmlns="http://www.w3.org/2000/svg" width="60" height="42" viewBox="0 0 60 42"><defs><style>.a{fill:#fff;}.b{fill:none;}.c{fill:#e7e7e7;}.d{fill:#004c94;}</style></defs><g transform="translate(-420 -7)"><path class="a" d="M54.857,42H5.143A5.085,5.085,0,0,1,0,36.96V5.04A5.085,5.085,0,0,1,5.143,0H54.857A5.085,5.085,0,0,1,60,5.04V36.96A5.085,5.085,0,0,1,54.857,42Z" transform="translate(420 7)"/><g transform="translate(420 7)"><path class="b" d="M54.857,42H5.143A5.085,5.085,0,0,1,0,36.96V5.04A5.085,5.085,0,0,1,5.143,0H54.857A5.085,5.085,0,0,1,60,5.04V36.96A5.085,5.085,0,0,1,54.857,42Z"/><path class="c" d="M54.857,1.68a3.4,3.4,0,0,1,3.429,3.36V36.96a3.4,3.4,0,0,1-3.429,3.36H5.143a3.4,3.4,0,0,1-3.429-3.36V5.04A3.4,3.4,0,0,1,5.143,1.68H54.857m0-1.68H5.143A5.085,5.085,0,0,0,0,5.04V36.96A5.085,5.085,0,0,0,5.143,42H54.857A5.085,5.085,0,0,0,60,36.96V5.04A5.085,5.085,0,0,0,54.857,0Z"/></g><g transform="translate(427 16)"><path class="d" d="M35.079,17.634c5.093.023,9.743-3.931,9.743-8.741C44.823,3.635,40.173,0,35.079,0H30.7c-5.155,0-9.4,3.635-9.4,8.894,0,4.811,4.243,8.764,9.4,8.741Z" transform="translate(-9.897 0)"/><path class="a" d="M32.591,13.567V4.016a5.138,5.138,0,0,1,3.472,4.775,5.139,5.139,0,0,1-3.472,4.775M25.251,8.791a5.144,5.144,0,0,1,3.47-4.775v9.549a5.138,5.138,0,0,1-3.47-4.773M30.656.719a8.31,8.31,0,0,0-8.528,8.072,8.311,8.311,0,0,0,8.528,8.071,8.311,8.311,0,0,0,8.53-8.071A8.312,8.312,0,0,0,30.656.719" transform="translate(-9.837 0.01)"/><path d="M12.53,23.4c0,.718.542.8,1.024.8a2.654,2.654,0,0,0,2.827-2.908,2.878,2.878,0,0,0-3.083-3c-.405,0-.59.027-.769.038V23.4Zm-.966-4.373c0-.839-.462-.783-.906-.792v-.242c.384.018.778.018,1.163.018.414,0,.975-.018,1.7-.018,2.552,0,3.94,1.612,3.94,3.263,0,.924-.571,3.244-4.059,3.244-.5,0-.966-.018-1.428-.018-.443,0-.877.009-1.32.018v-.242c.59-.056.877-.075.906-.709C11.565,23.547,11.565,19.025,11.565,19.025Z" transform="translate(-10.659 0.254)"/><path d="M18.388,18.8a.458.458,0,1,1,0-.915.471.471,0,0,1,.482.448.479.479,0,0,1-.482.466m-1.054,5.454h.188c.275,0,.473,0,.473-.308V21.423c0-.41-.148-.466-.512-.652v-.149c.463-.131,1.015-.307,1.054-.336a.36.36,0,0,1,.178-.047c.048,0,.069.056.069.131v3.579c0,.308.216.308.493.308h.167V24.5c-.335,0-.68-.018-1.034-.018s-.709.009-1.074.018v-.242Z" transform="translate(-10.181 0.252)"/><path d="M20.217,21.446c0-.345-.109-.437-.571-.615v-.177a13.72,13.72,0,0,0,1.3-.448c.03,0,.059.019.059.093v.606a2.977,2.977,0,0,1,1.706-.7c.837,0,1.132.578,1.132,1.305v2.4c0,.308.216.308.493.308h.178v.242c-.346,0-.69-.018-1.044-.018s-.709.009-1.065.018v-.242h.178c.276,0,.473,0,.473-.308V21.5c0-.531-.343-.792-.906-.792a2.717,2.717,0,0,0-1.143.447v2.758c0,.308.218.308.494.308h.177v.242c-.345,0-.69-.018-1.045-.018s-.709.009-1.064.018v-.242h.178c.275,0,.473,0,.473-.308V21.446Z" transform="translate(-10.021 0.285)"/><path d="M26.678,21.6c.246,0,.274-.122.274-.233A.811.811,0,0,0,26.1,20.5,1.159,1.159,0,0,0,24.963,21.6Zm-1.744.3a2.15,2.15,0,0,0,0,.541,1.589,1.589,0,0,0,1.447,1.612,1.931,1.931,0,0,0,1.331-.625l.137.131a2.33,2.33,0,0,1-1.822,1.054,1.9,1.9,0,0,1-1.882-2.032,2.122,2.122,0,0,1,1.989-2.369A1.533,1.533,0,0,1,27.8,21.669a1.108,1.108,0,0,1-.009.168l-.09.056Z" transform="translate(-9.693 0.285)"/><path d="M27.768,24.225h.266c.275,0,.473,0,.473-.308V21.3c0-.289-.364-.345-.512-.42v-.14c.719-.289,1.113-.532,1.2-.532.058,0,.088.028.088.122v.839h.02c.245-.363.66-.96,1.26-.96a.527.527,0,0,1,.562.494.464.464,0,0,1-.463.477c-.306,0-.306-.224-.65-.224a.808.808,0,0,0-.719.774v2.189c0,.308.2.308.473.308h.551v.242c-.542-.009-.954-.018-1.378-.018-.4,0-.818.009-1.172.018Z" transform="translate(-9.433 0.285)"/><path d="M31.32,23.171a1.269,1.269,0,0,0,1.242,1.138c.581,0,.8-.336.8-.661,0-1.1-2.146-.746-2.146-2.247,0-.522.444-1.194,1.527-1.194a2.7,2.7,0,0,1,1.122.271l.07.95h-.226a.992.992,0,0,0-1.074-.922c-.394,0-.768.214-.768.615,0,1.091,2.286.756,2.286,2.219,0,.615-.522,1.269-1.694,1.269a2.711,2.711,0,0,1-1.2-.316l-.108-1.072Z" transform="translate(-9.191 0.285)"/><path d="M42.658,19.68h-.245a1.857,1.857,0,0,0-2.108-1.528,2.728,2.728,0,0,0-2.779,2.955,3.1,3.1,0,0,0,2.936,3.235,1.973,1.973,0,0,0,1.98-1.613l.226.056-.226,1.361a5.77,5.77,0,0,1-2.178.495A3.418,3.418,0,0,1,36.5,21.135a3.546,3.546,0,0,1,3.734-3.283,7.446,7.446,0,0,1,2.324.495Z" transform="translate(-8.808 0.252)"/><path d="M42.579,24.265h.186c.276,0,.474,0,.474-.308V18.764c0-.606-.148-.625-.522-.727v-.149a6.376,6.376,0,0,0,1.015-.4,1.059,1.059,0,0,1,.216-.1c.06,0,.079.057.079.131v6.442c0,.308.216.308.493.308h.166v.242c-.334,0-.679-.018-1.034-.018s-.709.009-1.074.018Z" transform="translate(-8.372 0.245)"/><path d="M48.763,23.952c0,.168.108.177.275.177.118,0,.266-.009.394-.009v.2a10.4,10.4,0,0,0-1.419.289l-.049-.028v-.756a2.725,2.725,0,0,1-1.745.783A1.034,1.034,0,0,1,45.136,23.5V21.109c0-.242-.04-.476-.59-.522v-.177c.355-.009,1.141-.065,1.27-.065.109,0,.109.065.109.271v2.4c0,.28,0,1.082.856,1.082a2.254,2.254,0,0,0,1.192-.568V21.024c0-.187-.473-.288-.826-.381v-.168c.885-.056,1.438-.131,1.537-.131.079,0,.079.065.079.168Z" transform="translate(-8.231 0.287)"/><path d="M50.4,23.453a1.031,1.031,0,0,0,1.015.951,1.622,1.622,0,0,0,1.5-1.809,1.809,1.809,0,0,0-1.575-1.846,1.554,1.554,0,0,0-.937.438S50.4,23.453,50.4,23.453Zm0-2.536a2.55,2.55,0,0,1,1.468-.671A1.855,1.855,0,0,1,53.7,22.2a2.41,2.41,0,0,1-2.355,2.443,3.036,3.036,0,0,1-1.37-.327l-.295.214-.206-.1a10.516,10.516,0,0,0,.137-1.66V18.763c0-.606-.149-.625-.523-.727v-.149a6.376,6.376,0,0,0,1.015-.4,1.006,1.006,0,0,1,.218-.1c.059,0,.078.057.078.131C50.4,17.514,50.4,20.917,50.4,20.917Z" transform="translate(-7.906 0.245)"/></g></g></svg>