<svg xmlns="http://www.w3.org/2000/svg" width="60" height="42" viewBox="0 0 60 42"><defs><style>.a{fill:#fff;}.b{fill:none;}.c{fill:#e7e7e7;}.d{fill:#ffbe00;}.e{fill:#0096db;}.f{fill:#e82717;}</style></defs><g transform="translate(-254 -7)"><path class="a" d="M54.857,42H5.143A5.085,5.085,0,0,1,0,36.96V5.04A5.085,5.085,0,0,1,5.143,0H54.857A5.085,5.085,0,0,1,60,5.04V36.96A5.085,5.085,0,0,1,54.857,42Z" transform="translate(254 7)"/><g transform="translate(254 7)"><path class="b" d="M54.857,42H5.143A5.085,5.085,0,0,1,0,36.96V5.04A5.085,5.085,0,0,1,5.143,0H54.857A5.085,5.085,0,0,1,60,5.04V36.96A5.085,5.085,0,0,1,54.857,42Z"/><path class="c" d="M54.857,1.68a3.4,3.4,0,0,1,3.429,3.36V36.96a3.4,3.4,0,0,1-3.429,3.36H5.143a3.4,3.4,0,0,1-3.429-3.36V5.04A3.4,3.4,0,0,1,5.143,1.68H54.857m0-1.68H5.143A5.085,5.085,0,0,0,0,5.04V36.96A5.085,5.085,0,0,0,5.143,42H54.857A5.085,5.085,0,0,0,60,36.96V5.04A5.085,5.085,0,0,0,54.857,0Z"/></g><g transform="translate(262 20)"><path class="d" d="M1159.423,550.035a4.916,4.916,0,0,1,6.367,3.676l3.366-.687a8.346,8.346,0,0,0-10.821-6.246Z" transform="translate(-1152.635 -546.349)"/><path class="e" d="M1157.223,560.236l2.277-2.562a4.871,4.871,0,0,1,0-7.319l-2.277-2.562a8.283,8.283,0,0,0,0,12.443" transform="translate(-1154.408 -545.697)"/><path class="f" d="M1165.79,552.776a4.913,4.913,0,0,1-6.367,3.672l-1.09,3.258a8.355,8.355,0,0,0,10.823-6.239Z" transform="translate(-1152.636 -543.502)"/><path d="M1168.06,557.114a5.985,5.985,0,0,1-.351-.675,5.112,5.112,0,0,1,2.553-6.651,5.12,5.12,0,0,1,4.706.342,5.028,5.028,0,0,1,2.1,2.536c.064.149.121.309.176.446Zm3.067-5.341a2.534,2.534,0,0,0-1.537,2.691l4.62-1.988A2.453,2.453,0,0,0,1171.127,551.773Zm3.659,4.326h0l-.1-.064a2.7,2.7,0,0,1-1.25,1.045,2.424,2.424,0,0,1-2.676-.27l-.063.1,0,0-1.171,1.753a4.916,4.916,0,0,0,.931.511,5.088,5.088,0,0,0,6.115-1.878Z" transform="translate(-1148.675 -545.039)"/><path d="M1177.032,547.878v9.7l1.515.613-.86,2-1.672-.694a1.9,1.9,0,0,1-.826-.689,2.167,2.167,0,0,1-.322-1.2v-9.732Z" transform="translate(-1145.279 -545.659)"/><g transform="translate(33.317 4.339)"><path d="M1179.787,554.07a2.76,2.76,0,0,1,.948-2.081l-1.554-1.733a5.093,5.093,0,0,0-.006,7.627l1.553-1.734A2.764,2.764,0,0,1,1179.787,554.07Z" transform="translate(-1177.461 -548.979)"/><path d="M1181.472,555.476a2.815,2.815,0,0,1-.877-.144l-.743,2.207a5.1,5.1,0,0,0,6.61-3.8l-2.283-.466A2.766,2.766,0,0,1,1181.472,555.476Z" transform="translate(-1176.382 -547.618)"/><path d="M1181.474,549.376a5.113,5.113,0,0,0-1.614.26l.736,2.211a2.763,2.763,0,0,1,3.583,2.072l2.281-.461A5.093,5.093,0,0,0,1181.474,549.376Z" transform="translate(-1176.378 -549.376)"/></g></g></g></svg>