<svg xmlns="http://www.w3.org/2000/svg" width="60" height="42" viewBox="0 0 60 42"><defs><style>.a,.f{fill:#fff;}.b{fill:none;}.c{fill:#e7e7e7;}.d{fill:#f87602;}.d,.e,.f{fill-rule:evenodd;}.e{fill:#ffe000;}</style></defs><g transform="translate(-254 -70)"><g transform="translate(-319 63)"><g transform="translate(153)"><path class="a" d="M54.857,42H5.143A5.085,5.085,0,0,1,0,36.96V5.04A5.085,5.085,0,0,1,5.143,0H54.857A5.085,5.085,0,0,1,60,5.04V36.96A5.085,5.085,0,0,1,54.857,42Z" transform="translate(420 7)"/><g transform="translate(420 7)"><path class="b" d="M54.857,42H5.143A5.085,5.085,0,0,1,0,36.96V5.04A5.085,5.085,0,0,1,5.143,0H54.857A5.085,5.085,0,0,1,60,5.04V36.96A5.085,5.085,0,0,1,54.857,42Z"/><path class="c" d="M54.857,1.68a3.4,3.4,0,0,1,3.429,3.36V36.96a3.4,3.4,0,0,1-3.429,3.36H5.143a3.4,3.4,0,0,1-3.429-3.36V5.04A3.4,3.4,0,0,1,5.143,1.68H54.857m0-1.68H5.143A5.085,5.085,0,0,0,0,5.04V36.96A5.085,5.085,0,0,0,5.143,42H54.857A5.085,5.085,0,0,0,60,36.96V5.04A5.085,5.085,0,0,0,54.857,0Z"/></g></g></g><g transform="translate(-173 -1044)"><path class="d" d="M444.682,1127.305l17.562-4.176a4.8,4.8,0,0,1,5.769,3.553l4.176,17.562a4.779,4.779,0,0,1-.675,3.755H444.678l-3.549-14.926a4.8,4.8,0,0,1,3.553-5.769Z" transform="translate(0)"/><path class="a" d="M469.03,1211.331v7.5h1.7v-3.14h2.794v3.14h1.692v-7.5h-1.692v2.884h-2.794v-2.884Z" transform="translate(-24.386 -76.846)"/><path class="a" d="M595.082,1229.614a4.02,4.02,0,0,0,.056-.668,2.415,2.415,0,0,0-2.427-2.717,2.727,2.727,0,0,0-2.75,2.906,2.613,2.613,0,0,0,2.906,2.772,5.377,5.377,0,0,0,1.971-.334l-.223-1.147a4.794,4.794,0,0,1-1.5.223c-.79,0-1.481-.334-1.536-1.035Zm-3.518-1.158a1.111,1.111,0,0,1,1.047-1.1.983.983,0,0,1,.957,1.1Z" transform="translate(-129.592 -89.807)"/><path class="a" d="M633.649,1231.8h1.692v-2.761a2,2,0,0,1,.033-.379,1.088,1.088,0,0,1,1.158-.857,2.41,2.41,0,0,1,.456.045v-1.592a1.74,1.74,0,0,0-.356-.022,1.6,1.6,0,0,0-1.47,1.125h-.045l-.056-1H633.6c.022.468.044.991.044,1.793v3.651Z" transform="translate(-167.562 -89.807)"/><path class="e" d="M524.055,1209.008a.87.87,0,1,1-.87.87.87.87,0,0,1,.87-.87Z" transform="translate(-71.499 -74.825)"/><path class="f" d="M527.629,1230.549h.849a1.11,1.11,0,0,0,1.239-1.116c0-.569-.041-1.858-1.1-1.858-1.211,0-1.014,1.6-1.009,2.436,0,.179.012.358.016.537Zm-4.444-4.184h1.74v3.068a1.011,1.011,0,0,0,1.014,1.116c0-1.381,0-2.8-.047-4.184h1.454q.048.4.087.8c.687-1.374,2.851-1.071,3.579.088.752,1.2,1.008,4.626-2.533,4.626h-.825c.008.7.009,1.393.009,2.091h-1.74c0-.669,0-1.37.009-2.091a2.461,2.461,0,0,1-2.747-2.446v-3.068Z" transform="translate(-71.499 -89.828)"/></g></g></svg>