<svg xmlns="http://www.w3.org/2000/svg" width="60" height="42" viewBox="0 0 60 42"><defs><style>.a,.e{fill:#fff;}.b{fill:none;}.c{fill:#e7e7e7;}.d{fill:#7f181a;}.d,.e{fill-rule:evenodd;}</style></defs><g transform="translate(-340 -7)"><path class="a" d="M54.857,42H5.143A5.085,5.085,0,0,1,0,36.96V5.04A5.085,5.085,0,0,1,5.143,0H54.857A5.085,5.085,0,0,1,60,5.04V36.96A5.085,5.085,0,0,1,54.857,42Z" transform="translate(340 7)"/><g transform="translate(340 7)"><path class="b" d="M54.857,42H5.143A5.085,5.085,0,0,1,0,36.96V5.04A5.085,5.085,0,0,1,5.143,0H54.857A5.085,5.085,0,0,1,60,5.04V36.96A5.085,5.085,0,0,1,54.857,42Z"/><path class="c" d="M54.857,1.68a3.4,3.4,0,0,1,3.429,3.36V36.96a3.4,3.4,0,0,1-3.429,3.36H5.143a3.4,3.4,0,0,1-3.429-3.36V5.04A3.4,3.4,0,0,1,5.143,1.68H54.857m0-1.68H5.143A5.085,5.085,0,0,0,0,5.04V36.96A5.085,5.085,0,0,0,5.143,42H54.857A5.085,5.085,0,0,0,60,36.96V5.04A5.085,5.085,0,0,0,54.857,0Z"/></g><g transform="translate(347 18)"><path class="d" d="M12.8,0H7.967C5.832.1,4.087.909,3.583,2.587c-.262.875-.407,1.836-.613,2.744C1.925,9.944,1,14.684,0,19.2H37.618c2.908,0,4.905-.581,5.445-2.766.251-1.015.491-2.164.731-3.279.935-4.346,1.87-8.693,2.828-13.16Z"/><path class="e" d="M14.383,10.035c.2-.132.462-.732.165-.981a.588.588,0,0,0-.471-.067.577.577,0,0,0-.4.2c-.128.165-.246.663-.047.848A.766.766,0,0,0,14.383,10.035Zm-2.875-.981c-.145.889-.308,1.76-.471,2.632-1.05.01-2.122.049-3.135-.022.191-.853.329-1.756.518-2.61H7.289c-.405,2.175-.773,4.383-1.226,6.513H7.218c.181-1.093.35-2.2.589-3.234a29.765,29.765,0,0,1,3.111.022c-.195,1.079-.431,2.12-.613,3.212H11.46c.371-2.207.762-4.394,1.226-6.513Zm16.334,1.874a1.586,1.586,0,0,0-1.933.781c.074-.242.1-.525.165-.781h-.9c-.219,1.607-.542,3.116-.848,4.639h1.013a17.4,17.4,0,0,1,.518-2.989,1.425,1.425,0,0,1,1.862-.959C27.737,11.364,27.814,11.168,27.842,10.927Zm.566,3.546a2.211,2.211,0,0,1-.094-.892A3.02,3.02,0,0,1,29,11.8a2.606,2.606,0,0,1,2.4-.134c.026-.266.082-.5.118-.759a4,4,0,0,0-3.347.6,3.659,3.659,0,0,0-.8,3.167c.365,1.13,2,1.191,3.323.759.059-.227.089-.48.141-.714C30.112,15.075,28.729,15.259,28.407,14.474ZM39.792,10.95a1.583,1.583,0,0,0-1.933.714c.083-.219.088-.511.165-.736h-.9q-.362,2.39-.872,4.639h1.037a9.981,9.981,0,0,1,.235-1.673c.216-1.287.535-2.7,2.121-2.275C39.7,11.4,39.725,11.154,39.792,10.95Zm-26.446-.022c-.028,0-.026.035-.024.067-.223,1.581-.526,3.086-.848,4.573h1.013c.244-1.591.522-3.149.872-4.639Zm8.91-.09a2.723,2.723,0,0,0-1.791.691,3.728,3.728,0,0,0-.848,2.81c.183,1.545,2.216,1.49,3.842,1.115.028-.271.1-.5.141-.759a3.4,3.4,0,0,1-2.522.156c-.52-.311-.523-1.1-.354-1.784,1.093-.033,2.229-.026,3.323,0a3.126,3.126,0,0,0,.094-1.495C23.912,10.941,23.091,10.777,22.256,10.838Zm.967,1.7h-2.38a1.378,1.378,0,0,1,1.343-1.115C22.915,11.391,23.438,11.672,23.222,12.533Zm-4.808-1.605a2.8,2.8,0,0,0-2.357.405c0,.015-.011.017-.024.019l.024-.019a.008.008,0,0,0,0,0c.007-.149.063-.253.071-.4h-.872c-.363,2.288-.794,4.512-1.249,6.714h1.013c.147-.857.244-1.762.448-2.565.231.844,1.743.683,2.38.357C19.164,14.759,20.179,11.554,18.414,10.927Zm-.8,3.769c-.543.543-1.875.535-1.98-.379a4.312,4.312,0,0,1,.189-1.227c.078-.417.135-.816.212-1.182.534-.617,2.1-.692,2.263.335A3.271,3.271,0,0,1,17.612,14.7ZM43.563,8.92a20.063,20.063,0,0,1-.354,2.074c-2.486-.744-4.011.986-3.984,3.123a1.617,1.617,0,0,0,.354,1.115,2.4,2.4,0,0,0,2.5.2,1.708,1.708,0,0,0,.354-.335c.066-.078.17-.282.189-.223a4.679,4.679,0,0,0-.094.691h.919a57.755,57.755,0,0,1,1.132-6.647H43.563ZM41.3,15.054a.941.941,0,0,1-1.037-1.048c-.027-1.161.511-2.449,1.6-2.565a2.8,2.8,0,0,1,1.249.179C42.773,12.922,42.9,15.021,41.3,15.054Zm-8.745-4.126c-.05.265-.126.505-.189.759.6-.142,2.46-.577,2.64.179a1.261,1.261,0,0,1-.118.714c-1.684-.151-3.057.114-3.418,1.249a1.371,1.371,0,0,0,.542,1.718,2.332,2.332,0,0,0,2.617-.691,2.746,2.746,0,0,0-.07.714h.872a12.158,12.158,0,0,1,.259-2.141,8.052,8.052,0,0,0,.283-1.74C35.9,10.461,33.755,10.894,32.555,10.927Zm1.651,3.747c-.522.484-1.988.622-1.839-.535.124-.961,1.23-1.165,2.428-1.026A2.763,2.763,0,0,1,34.206,14.674Z" transform="translate(-1.962 -3.21)"/></g></g></svg>