<svg xmlns="http://www.w3.org/2000/svg" width="11.843" height="14.5" viewBox="0 0 11.843 14.5"><defs><style>.a{fill:#f97d00;}</style></defs><path class="a" d="M11.806,3.241l-.32-.96a.893.893,0,0,0-.848-.611H7.947V.794A.8.8,0,0,0,7.153,0H4.689A.8.8,0,0,0,3.9.794V1.67H1.2a.893.893,0,0,0-.848.611l-.32.96a.719.719,0,0,0,.681.946h.335l.737,9.108A1.318,1.318,0,0,0,3.095,14.5H8.9A1.318,1.318,0,0,0,10.2,13.295l.737-9.108h.185a.718.718,0,0,0,.681-.946ZM4.745.849H7.1V1.67H4.745ZM9.356,13.226a.463.463,0,0,1-.459.424h-5.8a.463.463,0,0,1-.459-.424L1.9,4.186h8.182ZM.9,3.337l.263-.787A.044.044,0,0,1,1.2,2.52h9.433a.044.044,0,0,1,.042.03l.263.787Zm0,0" transform="translate(0 0)"/><path class="a" d="M268.7,174.169h.023a.429.429,0,0,0,.428-.407l.4-7.735a.429.429,0,0,0-.857-.045l-.4,7.735A.429.429,0,0,0,268.7,174.169Zm0,0" transform="translate(-260.707 -160.986)"/><path class="a" d="M106.216,173.766a.429.429,0,0,0,.428.406h.024a.429.429,0,0,0,.405-.452l-.422-7.735a.429.429,0,1,0-.857.047Zm0,0" transform="translate(-102.801 -160.988)"/><path class="a" d="M194.683,174.172a.429.429,0,0,0,.429-.429v-7.735a.429.429,0,0,0-.858,0v7.735A.429.429,0,0,0,194.683,174.172Zm0,0" transform="translate(-188.757 -160.988)"/></svg>