<svg xmlns="http://www.w3.org/2000/svg" width="60" height="42.857" viewBox="0 0 60 42.857"><defs><style>.a{fill:#fff;}.b{fill:#e7e7e7;}.c{fill:#231f20;}.d{fill:#ff5f00;}.e{fill:#eb001b;}.f{fill:#f79e1b;}</style></defs><g transform="translate(-100 -7)"><path class="a" d="M54.857,42H5.143A5.085,5.085,0,0,1,0,36.96V5.04A5.085,5.085,0,0,1,5.143,0H54.857A5.085,5.085,0,0,1,60,5.04V36.96A5.085,5.085,0,0,1,54.857,42Z" transform="translate(100 7)"/><g transform="translate(100 7)"><g transform="translate(0 0)"><path class="b" d="M54.857,1.714a3.439,3.439,0,0,1,3.429,3.429V37.714a3.439,3.439,0,0,1-3.429,3.429H5.143a3.439,3.439,0,0,1-3.429-3.429V5.143A3.439,3.439,0,0,1,5.143,1.714H54.857m0-1.714H5.143A5.136,5.136,0,0,0,0,5.143V37.714a5.136,5.136,0,0,0,5.143,5.143H54.857A5.136,5.136,0,0,0,60,37.714V5.143A5.136,5.136,0,0,0,54.857,0Z"/></g></g><g transform="translate(-707.304 -7291.303)"><path class="c" d="M25.5,95.665v-1.7a1.011,1.011,0,0,0-1.068-1.079,1.051,1.051,0,0,0-.954.483,1,1,0,0,0-.9-.483.9.9,0,0,0-.8.4v-.335H21.19v2.715h.6V94.172a.636.636,0,0,1,.665-.721c.392,0,.591.256.591.716v1.511h.6V94.172a.639.639,0,0,1,.665-.721c.4,0,.6.256.6.716v1.511Zm8.824-2.715h-.971v-.824h-.6v.824h-.54v.54h.551v1.25c0,.63.244,1.005.943,1.005a1.386,1.386,0,0,0,.738-.21l-.17-.505a1.091,1.091,0,0,1-.523.153c-.284,0-.392-.182-.392-.454V93.49h.966Zm5.038-.068a.8.8,0,0,0-.716.4v-.329h-.585v2.715h.591V94.143c0-.449.193-.7.568-.7a.963.963,0,0,1,.369.068l.182-.568a1.264,1.264,0,0,0-.42-.074Zm-7.617.284a2.03,2.03,0,0,0-1.108-.284c-.687,0-1.136.329-1.136.869,0,.443.329.716.937.8l.284.04c.324.045.477.131.477.284,0,.21-.216.329-.619.329a1.445,1.445,0,0,1-.9-.284l-.284.46a1.96,1.96,0,0,0,1.176.352c.784,0,1.238-.369,1.238-.886s-.358-.727-.949-.812L30.57,94c-.256-.034-.46-.085-.46-.267s.193-.318.517-.318a1.749,1.749,0,0,1,.852.233Zm15.821-.284a.8.8,0,0,0-.716.4v-.329h-.585v2.715h.591V94.143c0-.449.193-.7.568-.7a.963.963,0,0,1,.369.068l.182-.568a1.264,1.264,0,0,0-.42-.074ZM39.95,94.3a1.372,1.372,0,0,0,1.448,1.42,1.42,1.42,0,0,0,.977-.324l-.284-.477a1.193,1.193,0,0,1-.71.244.872.872,0,0,1,0-1.738,1.193,1.193,0,0,1,.71.244l.284-.477a1.42,1.42,0,0,0-.977-.324,1.372,1.372,0,0,0-1.448,1.42Zm5.532,0V92.951h-.591v.329a1.031,1.031,0,0,0-.852-.4,1.42,1.42,0,0,0,0,2.84,1.031,1.031,0,0,0,.852-.4v.329h.591Zm-2.2,0a.815.815,0,1,1,.222.615A.821.821,0,0,1,43.284,94.3Zm-7.128-1.42a1.42,1.42,0,1,0,.04,2.84,1.65,1.65,0,0,0,1.127-.369l-.284-.437a1.292,1.292,0,0,1-.789.284.753.753,0,0,1-.812-.665h2.016v-.227a1.291,1.291,0,0,0-1.289-1.42Zm0,.528a.673.673,0,0,1,.687.659h-1.42a.7.7,0,0,1,.721-.659Zm14.8.9V91.86h-.568v1.42a1.031,1.031,0,0,0-.852-.4,1.42,1.42,0,0,0,0,2.84,1.031,1.031,0,0,0,.852-.4v.329h.568Zm.985.963a.273.273,0,0,1,.256.162.264.264,0,0,1,0,.21.271.271,0,0,1-.148.142.267.267,0,0,1-.108.023.284.284,0,0,1-.256-.165.267.267,0,0,1,0-.21.276.276,0,0,1,.264-.162Zm0,.48a.2.2,0,0,0,.082-.017.213.213,0,0,0,.065-.045.2.2,0,0,0-.065-.329.2.2,0,0,0-.082-.017.213.213,0,0,0-.082.017.208.208,0,0,0-.068.045.206.206,0,0,0,.159.346Zm.017-.338a.114.114,0,0,1,.074.023.071.071,0,0,1,.026.06.068.068,0,0,1-.02.051.1.1,0,0,1-.06.026l.082.094h-.065l-.077-.094h-.026v.094h-.054v-.25Zm-.062.048v.068h.062a.06.06,0,0,0,.034,0,.028.028,0,0,0,0-.026.028.028,0,0,0,0-.026.06.06,0,0,0-.034,0Zm-3.124-1.153a.815.815,0,1,1,.222.615A.821.821,0,0,1,48.771,94.308Zm-19.945,0V92.951h-.591v.329a1.031,1.031,0,0,0-.852-.4,1.42,1.42,0,0,0,0,2.84,1.031,1.031,0,0,0,.852-.4v.329h.591Zm-2.2,0a.348.348,0,1,1-.006,0Z" transform="translate(800.828 7236.227)"/><g transform="translate(820.304 7306.303)"><rect class="d" width="8.946" height="16.077" transform="translate(12.068 2.187)"/><path class="e" d="M27.791,25.38a10.207,10.207,0,0,1,3.9-8.04,10.224,10.224,0,1,0,0,16.077A10.207,10.207,0,0,1,27.791,25.38Z" transform="translate(-15.155 -15.153)"/><path class="f" d="M89.942,25.377A10.224,10.224,0,0,1,73.4,33.414a10.224,10.224,0,0,0,0-16.077,10.224,10.224,0,0,1,16.542,8.037Z" transform="translate(-56.859 -15.151)"/><path class="f" d="M127.694,72.458v-.329h.133V72.06h-.338v.068h.145v.329Zm.656,0v-.4h-.1l-.119.284-.119-.284h-.091v.4h.074v-.3l.111.258h.077l.111-.258v.3Z" transform="translate(-95.588 -55.898)"/></g></g></g></svg>