<svg xmlns="http://www.w3.org/2000/svg" width="60" height="42" viewBox="0 0 60 42"><defs><style>.a{fill:#fff;}.b{fill:#e7e7e7;}.c{fill:#1a1f71;}</style></defs><g transform="translate(-22 -7)"><g transform="translate(22 7)"><path class="a" d="M54.857,42H5.143A5.085,5.085,0,0,1,0,36.96V5.04A5.085,5.085,0,0,1,5.143,0H54.857A5.085,5.085,0,0,1,60,5.04V36.96A5.085,5.085,0,0,1,54.857,42Z"/><path class="b" d="M54.857,1.68a3.4,3.4,0,0,1,3.429,3.36V36.96a3.4,3.4,0,0,1-3.429,3.36H5.143a3.4,3.4,0,0,1-3.429-3.36V5.04A3.4,3.4,0,0,1,5.143,1.68H54.857m0-1.68H5.143A5.085,5.085,0,0,0,0,5.04V36.96A5.085,5.085,0,0,0,5.143,42H54.857A5.085,5.085,0,0,0,60,36.96V5.04A5.085,5.085,0,0,0,54.857,0Z"/><path class="c" d="M52.606,81.019,49.452,95.374h3.805l3.154-14.355Zm24.511,0h-3.24a1.731,1.731,0,0,0-1.611,1.042L66.541,95.374h3.994l.788-2.152h4.885l.463,2.152H80.2L77.116,81.019ZM72.437,90.28,74.425,84.9l1.148,5.379H72.437Zm-25.47-9.262-3.959,9.766-1.611-8.3A1.776,1.776,0,0,0,39.63,81H33.186l-.086.42a17.145,17.145,0,0,1,3.754,1.21,1.621,1.621,0,0,1,.891,1.277L40.779,95.39H44.79l6.188-14.355H46.966Zm14.449,4c0-.5.514-1.076,1.611-1.193a7.521,7.521,0,0,1,3.754.656l.668-3.059A10.7,10.7,0,0,0,63.9,80.8c-3.754,0-6.41,1.95-6.445,4.757-.034,2.068,1.9,3.227,3.325,3.917,1.474.706,1.988,1.16,1.971,1.782,0,.958-1.183,1.4-2.28,1.412a8.048,8.048,0,0,1-3.908-.908L55.879,94.9a12.071,12.071,0,0,0,4.251.773c4.011,0,6.616-1.933,6.65-4.908-.034-3.849-5.4-4.085-5.365-5.749Z" transform="translate(-27.423 -67.23)"/></g></g></svg>