<svg xmlns="http://www.w3.org/2000/svg" width="129.503" height="68" viewBox="0 0 129.503 68"><defs><style>.a{fill:#1d1c19;}.b{fill:#fff;}.c{fill:#fefefc;}</style></defs><g transform="translate(0 0.006)"><path class="a" d="M77.253,19.58h-6.87l-8.017,7.9,2.111-7.9H59.051l-1.417,5.354a10.652,10.652,0,0,1-.949,12.04,10.3,10.3,0,0,1-2.366,2.337h4.929l2.266-3.555,2.266-4.065,2.833,7.635h5.808L68.032,28.221Z" transform="translate(16.958 6.741)"/><path class="a" d="M73.284,19.738h6.828l-.581,2.2A7.536,7.536,0,0,1,85,19.313a4.986,4.986,0,0,1,5.057,3.428,9.179,9.179,0,0,1,7.083-3.428c3.7,0,5.666,2.266,5.666,5.878a14.846,14.846,0,0,1-.595,3.6L99.375,39.5H92.59l2.677-10.312a6.813,6.813,0,0,0,.255-1.6A1.856,1.856,0,0,0,93.5,25.475c-1.827,0-2.932,1.317-3.57,3.555l-2.8,10.44H80.3l2.734-10.312a6.812,6.812,0,0,0,.255-1.6A1.856,1.856,0,0,0,81.2,25.475c-1.827,0-2.932,1.317-3.57,3.555L74.8,39.47H68Z" transform="translate(22.656 6.625)"/><path class="b" d="M57.312,29.434a4.122,4.122,0,0,0-4.25-4.575c-3.414,0-5.666,3.754-5.666,6.587a4.122,4.122,0,0,0,4.249,4.589c3.428,0,5.666-3.754,5.666-6.6M41.83,31.615A11.814,11.814,0,0,1,53.275,20c5.878,0,9.533,3.938,9.533,9.306A11.8,11.8,0,0,1,51.363,40.936c-5.878,0-9.533-3.924-9.533-9.292" transform="translate(11.756 6.916)"/><path class="b" d="M25.538,38.97H4.8l1.02-3.952,12.3-11.063H9.064L10.31,19.38h16.4l-1.034,3.952-12.3,11.091h10.6A7.706,7.706,0,0,0,28.229,39Z" transform="translate(-3.667 6.658)"/><path class="b" d="M54.556,19.795a11.559,11.559,0,0,0-8.881,6.36c-3.1.184-5.114,1.813-6.105,5.666L37.784,38.9H32.26l4.717-18.33H42.5L41.68,23.79c1.5-2.266,6.289-4.023,10.709-4.25a15.213,15.213,0,0,1,2.167.184" transform="translate(7.77 6.724)"/><path class="b" d="M32.046,27.623A4.136,4.136,0,0,0,32.2,26.6,2.323,2.323,0,0,0,29.666,24.2a4.632,4.632,0,0,0-4.25,3.4H32.06Zm9.5,7.309-1.1,4.094H27.839c-5.482,0-8.839-3.258-8.839-8.357A11.2,11.2,0,0,1,30.12,19.337a7.323,7.323,0,0,1,7.89,7.791,11.6,11.6,0,0,1-.708,3.867H24.992c-.312,2.153,2.833,4.023,5.043,4.023Z" transform="translate(2.247 6.63)"/><path class="c" d="M82.658,46.523a2.324,2.324,0,0,1,0,.609,1.417,1.417,0,0,1-1.416,1.218c-.992,0-1.686-.708-1.686-1.955s.524-2.026,1.714-2.026A1.417,1.417,0,0,1,82.687,45.6a1.742,1.742,0,0,1,0,.4Zm0-8.343v4.575h0a2.833,2.833,0,0,0-2.436-.836,4.249,4.249,0,0,0-4.136,4.6A4.08,4.08,0,0,0,80.024,51a3.187,3.187,0,0,0,2.833-1.416h0l.113,1.247h2.918V38.18H82.63Z" transform="translate(26.016 14.488)"/><path class="c" d="M89.055,46.25a1.9,1.9,0,0,1,0,.482,1.275,1.275,0,0,1-1.162.907c-.595,0-.921-.283-.921-.765,0-.694.694-1.062,2.125-1.062ZM92.2,44.621c0-2.309-1.247-3.81-4.165-3.81a8.074,8.074,0,0,0-3.725.807l.581,2.082a5.666,5.666,0,0,1,2.578-.694c1.261,0,1.417.4,1.417.694h0c-3.215,0-5.255,1.062-5.255,3.4a2.833,2.833,0,0,0,2.989,2.734,3.2,3.2,0,0,0,2.493-.949h0l.17.737h2.932a12.507,12.507,0,0,1-.142-2.153V44.635Z" transform="translate(29.166 15.583)"/><path class="b" d="M49.3,43.958c0-1.218,0-2.238-.071-3h2.706l.113,1.1h.071a3.045,3.045,0,0,1,2.663-1.317,2.578,2.578,0,0,1,2.451,1.417h0a3.81,3.81,0,0,1,1.261-1.091,3.329,3.329,0,0,1,1.629-.368c1.9,0,3.1,1.417,3.1,3.867v5.057h-3.13V45.035c0-1.133-.368-1.714-1.133-1.714a1.091,1.091,0,0,0-1.034.793,2.3,2.3,0,0,0-.1.666v4.844H54.684V45.035c0-1.133-.368-1.714-1.133-1.714a1.119,1.119,0,0,0-1.034.765,1.629,1.629,0,0,0-.1.652v4.788H49.272V43.958Z" transform="translate(14.838 15.537)"/><path class="b" d="M64.505,47.483c-1.062,0-1.544-.992-1.544-2.252s.411-2.21,1.544-2.21,1.417,1.006,1.417,2.21C65.922,46.648,65.412,47.483,64.505,47.483Zm0,2.295a4.6,4.6,0,0,0,4.972-4.66,4.434,4.434,0,0,0-4.788-4.434c-3.272,0-5.1,1.955-5.1,4.6a4.519,4.519,0,0,0,4.915,4.49Z" transform="translate(19.153 15.525)"/><path class="b" d="M69.808,40.84l1.062,3.754c.184.637.3,1.261.411,1.87h0c.113-.623.212-1.2.368-1.87l.977-3.754h3.485l-3.286,8.726H69.482L66.21,40.911Z" transform="translate(21.911 15.596)"/><path class="b" d="M77.944,52.108A9.689,9.689,0,0,1,76,46.216,9.349,9.349,0,0,1,77.972,39.9L75.677,38.68a12.054,12.054,0,0,0-2.295,7.536A12.323,12.323,0,0,0,75.635,53.3Z" transform="translate(24.894 14.696)"/><path class="b" d="M78.8,38.094a1.686,1.686,0,1,1-1.686-1.714A1.686,1.686,0,0,1,78.8,38.094" transform="translate(25.751 13.738)"/><path class="b" d="M30.41,7.519a60.032,60.032,0,0,0-6.275,2.734,10.425,10.425,0,0,0-3.1,2.38c-.227.283-.567.609-.439.977s.68.227,1.006.227l15.015.071c4.944,0,9.916,0,14.873.071,1.218,0,1.417-.368,1.176-1.417-.34-1.969-.552-3.98-.722-5.992a21.559,21.559,0,0,1,1.643,4.7c.822,2.833.822,2.833,3.711,3.045,6.7.51,13.414.977,20.256,1.487a5.666,5.666,0,0,1-2.337.269c-17.111.17-34.237.637-51.348,0a42.736,42.736,0,0,1-6.162-.538c-.595-.113-1.275-.184-1.417-.878a1.563,1.563,0,0,1,.793-1.53A30.384,30.384,0,0,1,26.019,8.6,16.021,16.021,0,0,1,30.41,7.477" transform="translate(1.107 1.322)"/><path class="a" d="M4.822,24.346c.85-5.227,6.629-9.08,11.729-10.709a1.416,1.416,0,0,0-.142-2.606L8.59,9.827c.156.807,1.544.949,1.686,1.785,15.709-7.777,32.735-9.7,50.017-6.629s32.339,13.032,49.832,14.165c4.972.326,10.3-.326,15.057,1.417,3.655,1.459,8.329,4.519,7.72,8.768-.283,1.714.142,1.856.4.113.623-3.995-.1-6.757-3.244-9.165-3.584-2.72-7.975-3.4-12.38-3.584a89.438,89.438,0,0,1-13.882-1.062,90.273,90.273,0,0,1-13.074-3.725C82.035,8.85,73.593,5.11,64.6,3.07A85.826,85.826,0,0,0,7.541,10.011c-1.034.524-2.054,1.062-.921,1.1,3.725.1,6.686,2.139,9.207,2.55,0-.878-.1-1.742-.142-2.621A17,17,0,0,0,4.17,24.29c-.283,1.7-.184,4.462.085,2.72Z" transform="translate(-4 -1)"/></g></svg>