<svg xmlns="http://www.w3.org/2000/svg" width="60" height="42.857" viewBox="0 0 60 42.857"><g transform="translate(-171 -646)"><path d="M58.147,5h-48A5.136,5.136,0,0,0,5,10.143V41a5.136,5.136,0,0,0,5.143,5.143h48A5.136,5.136,0,0,0,63.29,41V10.143A5.136,5.136,0,0,0,58.147,5Z" transform="translate(167 642)" fill="#b3131b"/><path d="M54.857,1.714a3.439,3.439,0,0,1,3.429,3.429V37.714a3.439,3.439,0,0,1-3.429,3.429H5.143a3.439,3.439,0,0,1-3.429-3.429V5.143A3.439,3.439,0,0,1,5.143,1.714H54.857m0-1.714H5.143A5.136,5.136,0,0,0,0,5.143V37.714a5.136,5.136,0,0,0,5.143,5.143H54.857A5.136,5.136,0,0,0,60,37.714V5.143A5.136,5.136,0,0,0,54.857,0Z" transform="translate(171 646)" fill="#e7e7e7"/><g transform="translate(-50.77 -56.423)"><path d="M461.2,211.342l.045.234.045.234.083.152a1.927,1.927,0,0,0,.186.273l.1.12.183.111.183.111.21.059c.115.033.291.072.39.088l.18.028.414-.012h0l.414-.012.26-.067.26-.067.169-.08a3.182,3.182,0,0,0,.337-.192,2.6,2.6,0,0,0,.319-.261,3.522,3.522,0,0,0,.272-.311.8.8,0,0,1,.131-.153,2.581,2.581,0,0,1-.034.315,4.651,4.651,0,0,0-.044.5v.191h1.125l.017-.436.017-.437.08-.567c.044-.312.115-.774.158-1.026s.118-.68.166-.95.125-.69.17-.935l.082-.444,0-.384,0-.384-.087-.177-.087-.177-.118-.113-.118-.113-.193-.1-.193-.1-.288-.064-.288-.064-.4-.03-.4-.03-.511.032c-.281.017-.676.052-.878.076l-.368.045h-.5l-.036.176c-.02.1-.076.327-.124.512a2.669,2.669,0,0,0-.077.345,2.007,2.007,0,0,0,.3-.068c.158-.043.495-.113.748-.156l.46-.078.414-.017.414-.017.266.047.266.047.178.088.178.088.1.148.1.148v.234l0,.234-.053.257-.053.257-1.1,0-1.1,0-.361.1a4.167,4.167,0,0,0-.488.161.752.752,0,0,1-.156.062,1.739,1.739,0,0,0-.262.146l-.234.145-.184.184a1.994,1.994,0,0,0-.493.728l-.1.238-.047.267-.047.268Z" transform="translate(-201.264 514.527)" fill="#fff"/><path d="M295.386,209.971v.912l.047.2a3.748,3.748,0,0,0,.109.368,2.5,2.5,0,0,0,.141.306,1.726,1.726,0,0,0,.2.271,2.608,2.608,0,0,0,.28.247,2.19,2.19,0,0,0,.333.2l.18.082.251.061c.138.033.347.073.463.088s.364.029.549.031h0l.337,0,.337-.031c.185-.017.489-.052.674-.078s.506-.085.712-.13l.374-.082.019-.138c.01-.076.052-.3.094-.5l.075-.364-.017-.016-.016-.016-.115.055c-.063.03-.259.1-.436.161l-.322.106-.337.065-.337.065h-1.072l-.184-.059a2.859,2.859,0,0,1-.33-.131l-.147-.073-.121-.109-.121-.109-.095-.165-.094-.165-.059-.207-.059-.207v-.766l.052-.342.053-.342.461-.022.461-.022,1.7.011,1.7.011.051-.218c.028-.12.072-.368.1-.552l.045-.333v-.561l-.048-.209-.049-.209-.08-.139a1.928,1.928,0,0,0-.173-.245,1.362,1.362,0,0,0-.2-.184,2.993,2.993,0,0,0-.263-.159l-.153-.081-.268-.064-.268-.064-.33-.031-.33-.032-.306.02-.306.02-.368.071-.368.071-.23.092a4.212,4.212,0,0,0-.429.2,3.012,3.012,0,0,0-.337.225c-.076.062-.207.181-.292.266a2.771,2.771,0,0,0-.278.338,4.494,4.494,0,0,0-.233.4c-.06.118-.138.284-.173.368s-.1.257-.143.383-.111.368-.151.536q-.07.306-.121.616Z" transform="translate(-50.769 514.547)" fill="#fff"/><path d="M312.63,216.505c0,.007.694.014,1.542.014h1.542l.032-.3.032-.3-.028-.18-.028-.18-.043-.081a1.09,1.09,0,0,0-.137-.182l-.094-.1-.171-.078-.171-.078-.235-.03-.235-.03-.307.02a3.279,3.279,0,0,0-.429.051,2.3,2.3,0,0,0-.322.127l-.2.1-.2.2-.2.2-.092.183c-.051.1-.128.284-.173.407S312.63,216.5,312.63,216.505Z" transform="translate(-66.42 506.445)" fill="#b3131b"/><path d="M474.72,241.514l.013.295.013.294.066.126a1.434,1.434,0,0,0,.141.216l.076.09.139.071a1.72,1.72,0,0,0,.3.113l.162.042.245-.013h0l.245-.013.248-.079.249-.079.113-.076a.574.574,0,0,1,.138-.077,1.246,1.246,0,0,0,.208-.182l.184-.182.112-.188a1.638,1.638,0,0,0,.112-.207c0-.01.041-.123.091-.251s.126-.363.168-.523.1-.4.119-.531l.041-.24-.048-.02-.048-.02h-1.532l-.245.058-.245.058-.2.095-.2.1-.186.184-.186.184-.1.2a2.954,2.954,0,0,0-.149.379Z" transform="translate(-213.535 483.664)" fill="#b3131b"/><path d="M216.388,215.433h1.317l.018-.049a.485.485,0,0,0,.019-.139c0-.05.022-.231.048-.4s.089-.568.138-.88.124-.781.165-1.042.091-.6.112-.743a1.081,1.081,0,0,1,.055-.268.523.523,0,0,1,.095.145l.077.145.17.171.17.171.209.084.209.084.249.032.249.032.316-.019.316-.019.342-.089.342-.089.184-.084a3.771,3.771,0,0,0,.4-.224l.215-.14.2-.2a4.5,4.5,0,0,0,.345-.392,1.737,1.737,0,0,0,.145-.209.884.884,0,0,1,.087-.145,3.414,3.414,0,0,0,.217-.435c.072-.169.184-.472.249-.674l.119-.368.061-.318c.034-.175.077-.465.1-.643l.035-.325-.02-.276-.02-.276-.064-.276-.064-.276-.1-.206-.1-.206-.2-.212-.2-.212-.237-.122-.237-.122-.26-.063-.26-.062-.26-.019-.26-.019-.29.033-.29.033-.237.061-.237.06-.206.1a3.706,3.706,0,0,0-.366.2,1.823,1.823,0,0,0-.2.144.951.951,0,0,1-.122.094l-.08.053.056-.269c.031-.148.057-.286.058-.307v-.038h-1.123l-.1.62c-.054.341-.14.868-.19,1.172q-.167,1-.337,2.007c-.05.295-.133.764-.184,1.042l-.166.9-.169.919c-.052.287-.137.742-.188,1.011s-.133.7-.183.95-.1.491-.108.528Z" transform="translate(20.93 514.547)" fill="#fff"/><path d="M194.827,214.108h1.318l.018-.048a.569.569,0,0,0,.019-.155c0-.059.042-.365.092-.679q.173-1.076.355-2.15c.042-.244.115-.651.164-.9q.084-.436.166-.873.091-.481.187-.962c.06-.3.116-.56.126-.575l.017-.027-.666.008-.666.008-.056.4q-.069.483-.148.965c-.051.312-.128.788-.172,1.057q-.079.484-.168.965l-.167.888c-.043.228-.119.627-.171.889s-.1.511-.152.766c-.033.16-.068.322-.078.36Z" transform="translate(40.499 513.022)" fill="#fff"/><path d="M104.7,188.837h1.489l.053-.329c.029-.181.087-.529.127-.774l.168-1.011c.052-.312.13-.774.173-1.026s.112-.645.153-.871a3.834,3.834,0,0,1,.091-.429l.017-.017h4l.022.022.022.022-.035.177c-.019.1-.075.4-.125.667l-.187,1.011c-.052.286-.129.693-.169.9q-.093.49-.182.98c-.059.329-.108.615-.108.636v.038h1.495l.033-.191c.018-.105.047-.295.065-.421s.06-.4.094-.6.1-.6.152-.888.132-.776.184-1.088.128-.767.17-1.011q.08-.46.166-.919.092-.49.183-.98c.051-.278.128-.7.17-.934s.12-.663.172-.95.118-.621.147-.743l.052-.222h-1.514l-.021.146c-.011.08-.048.3-.081.5q-.066.383-.135.766c-.041.228-.115.662-.166.965s-.1.595-.143.892l-.051.341-1.111.023-1.111.022-.931-.022c-.512-.012-.933-.024-.937-.027a2.62,2.62,0,0,1,.039-.265q.049-.276.1-.55c.033-.16.094-.477.137-.7s.091-.51.108-.628q.032-.219.077-.437c.026-.122.074-.379.108-.572s.07-.372.08-.4l.018-.049h-1.5l-.048.268q-.042.233-.078.467c-.017.109-.073.461-.124.781s-.128.8-.17,1.057l-.168,1.057q-.089.552-.187,1.1c-.052.287-.127.693-.167.9l-.169.889q-.083.437-.172.873c-.042.2-.087.437-.1.521s-.062.327-.106.54-.079.409-.079.437Z" transform="translate(122.297 538.293)" fill="#fff"/><path d="M361.711,212.559h1.308l.02-.277c.011-.152.048-.459.082-.682s.105-.667.157-.987.148-.853.214-1.184.14-.66.165-.731a.84.84,0,0,0,.046-.171,1.627,1.627,0,0,1,.109-.28,3.782,3.782,0,0,1,.249-.445l.14-.207.187-.173.187-.173.231-.11.23-.11.352,0,.352,0,.173.052c.1.028.181.052.191.052s.018-.032.018-.072.034-.242.077-.448.077-.385.077-.4a.809.809,0,0,0-.222-.087,2.829,2.829,0,0,0-.375-.087l-.153-.019-.2.035a2.562,2.562,0,0,0-.362.1,2.055,2.055,0,0,0-.329.166,2.393,2.393,0,0,0-.315.253,3.587,3.587,0,0,0-.307.361l-.2.276-.044.061.027-.122c.015-.067.055-.288.091-.49s.072-.392.08-.421l.016-.054h-1.168v.074c0,.041-.035.285-.077.544s-.112.691-.154.96-.119.738-.169,1.042q-.08.483-.169.965-.173.92-.354,1.838c-.052.261-.113.57-.137.686s-.043.223-.043.237Z" transform="translate(-110.966 514.572)" fill="#fff"/><path d="M211.214,179.083l-.061-.1-.061-.1-.107-.066-.107-.066h-.461l-.157.07-.157.07-.091.1-.091.1-.072.168-.072.169-.014.262-.013.262.067.131.067.13.129.058.128.058h.372l.148-.05.148-.05.131-.133.131-.133.069-.177.069-.177,0-.26Z" transform="translate(26.953 539.331)" fill="#fff"/><path d="M571.244,184.932l.035.383.035.383.041.138c.023.076.07.211.106.3l.065.162.118.16.118.16.135.11.135.11.184.091a2.532,2.532,0,0,0,.377.144,3.41,3.41,0,0,0,.383.078c.1.014.321.026.481.028h0l.291,0,.276-.045c.152-.025.345-.064.429-.088a2.276,2.276,0,0,0,.337-.137l.184-.094.158-.139.158-.139.167-.222a2.581,2.581,0,0,0,.184-.268l.018-.046-.015.153q-.016.154-.042.306c-.015.084-.036.246-.047.36l-.02.207h1.2v-.414l.091-.781c.05-.43.125-1,.166-1.271s.1-.656.139-.858.1-.568.142-.812.118-.672.169-.95.132-.719.18-.98l.167-.9c.044-.236.122-.65.174-.919s.11-.562.168-.843c.041-.194.074-.363.074-.375V177.9h-1.311l-.019.192c-.01.105-.061.453-.111.774s-.133.83-.184,1.134-.1.6-.108.654l-.017.1-.052-.022c-.028-.012-.183-.055-.343-.1l-.291-.073-.4-.031-.4-.031-.337.031-.337.031-.306.078-.306.077-.291.142L573.1,181l-.214.159-.215.159-.185.2a4.477,4.477,0,0,0-.327.4l-.142.2-.167.346c-.091.191-.2.443-.248.561s-.123.38-.175.581l-.094.367-.046.476Z" transform="translate(-301.141 540.1)" fill="#fff"/><path d="M529.624,212.811h1.338V212.4l.077-.508c.042-.279.112-.721.156-.982q.061-.368.119-.735c.023-.143.082-.453.133-.689s.114-.491.14-.567a.978.978,0,0,0,.049-.177,2.068,2.068,0,0,1,.127-.306l.126-.267.167-.221.166-.221.182-.137a2.649,2.649,0,0,1,.358-.222l.176-.085.383,0,.383,0,.151.048.151.048.026-.016.025-.016,0-.1a3.942,3.942,0,0,1,.073-.445l.072-.347-.081-.032q-.116-.043-.234-.08l-.153-.048h-.552l-.225.079-.225.079-.169.1-.169.1-.219.23-.219.23-.118.178a.846.846,0,0,1-.127.168c0-.005.03-.21.078-.454s.088-.475.089-.513v-.069h-1.134v.02c0,.011-.028.207-.063.437q-.075.492-.154.984c-.05.312-.133.815-.183,1.118q-.081.483-.169.965c-.043.227-.118.627-.168.888s-.132.682-.182.935l-.148.743Z" transform="translate(-263.366 514.319)" fill="#fff"/><path d="M403.515,210.016v.766l.029.223.029.223.092.229.092.229.106.166.106.166.168.166.169.166.178.094.178.094.234.065a4.151,4.151,0,0,0,.414.091,5.063,5.063,0,0,0,.517.03h0l.337,0,.383-.045c.211-.025.491-.066.623-.092q.239-.048.475-.113a1.7,1.7,0,0,0,.26-.088,1.477,1.477,0,0,0,.081-.309c.031-.158.07-.37.087-.471a.838.838,0,0,0,.019-.2c-.006-.007-.029,0-.05.019a2.69,2.69,0,0,1-.334.141l-.295.11-.42.081-.42.081-.357-.012-.357-.012-.2-.07-.2-.07-.157-.137-.157-.137-.1-.189-.1-.189-.05-.253-.049-.253v-.657l.06-.4.06-.4.064-.215c.035-.118.075-.256.088-.306a3.3,3.3,0,0,1,.125-.322c.055-.126.154-.322.219-.434l.119-.2.146-.151.146-.151.154-.1.154-.1.2-.061a3.662,3.662,0,0,1,.428-.1l.23-.036.337.017.337.017.4.08.4.08.162.06c.089.033.166.061.171.061a2,2,0,0,0,.047-.253c.021-.139.059-.368.084-.508a1.27,1.27,0,0,0,.032-.269,1.706,1.706,0,0,0-.266-.042c-.139-.016-.517-.044-.839-.063l-.587-.034-.414.032-.414.032-.306.064-.306.064-.2.079a2.878,2.878,0,0,0-.353.174q-.123.075-.243.156a4.242,4.242,0,0,0-.321.292l-.235.231-.131.192a4.923,4.923,0,0,0-.277.489l-.146.3-.112.322c-.062.177-.147.467-.191.643l-.079.322-.029.291Z" transform="translate(-148.908 514.556)" fill="#fff"/><path d="M239.254,219.229l.039.165a2.15,2.15,0,0,0,.108.318l.068.153.119.113.119.113.17.078.17.078.167.03.167.03.256-.015h0l.256-.015.26-.088.26-.088.112-.084q.112-.085.219-.176a1.708,1.708,0,0,0,.22-.25,4.27,4.27,0,0,0,.241-.4l.128-.242.1-.3c.057-.165.14-.454.183-.643l.079-.344.016-.582.016-.582-.051-.2a2.056,2.056,0,0,0-.123-.338l-.072-.141-.133-.134-.133-.134-.158-.073-.158-.073-.225-.048-.225-.048-.276.016-.276.016-.215.067-.214.066-.164.093a2.846,2.846,0,0,0-.34.239l-.176.146-.08.424c-.044.233-.123.665-.175.96s-.13.722-.173.95l-.079.414-.016.264Z" transform="translate(0.177 506.147)" fill="#b3131b"/><path d="M586.053,219.351l.042.2.043.2.093.179.093.179.126.1.126.1.149.064a1.7,1.7,0,0,0,.305.092l.156.028.231-.012h0l.231-.012.244-.077.244-.077.168-.112a2.574,2.574,0,0,0,.271-.208,1.762,1.762,0,0,0,.2-.233,2.694,2.694,0,0,0,.18-.316,2.564,2.564,0,0,0,.128-.337q.054-.194.105-.389c.034-.126.1-.416.14-.643s.12-.634.169-.9.119-.656.154-.858.072-.405.081-.452l.017-.084-.087-.034c-.048-.019-.218-.07-.378-.114l-.291-.081h-1.011l-.241.083-.241.083-.137.084a2.039,2.039,0,0,0-.282.224,3,3,0,0,0-.269.307,3.205,3.205,0,0,0-.219.35q-.1.193-.188.391a1.482,1.482,0,0,0-.093.245,2.457,2.457,0,0,1-.077.283l-.077.245-.049.352-.049.352,0,.4Z" transform="translate(-314.582 505.926)" fill="#b3131b"/></g></g></svg>