<svg xmlns="http://www.w3.org/2000/svg" width="60" height="42.857" viewBox="0 0 60 42.857"><defs><style>.a{fill:#f8f8f8;}.b{fill:#e7e7e7;}.c{fill:#0f2496;}</style></defs><path class="a" d="M54.857,42.857H5.143A5.136,5.136,0,0,1,0,37.714V5.143A5.136,5.136,0,0,1,5.143,0H54.857A5.136,5.136,0,0,1,60,5.143V37.714A5.136,5.136,0,0,1,54.857,42.857Z"/><path class="b" d="M54.857,1.714a3.439,3.439,0,0,1,3.429,3.429V37.714a3.439,3.439,0,0,1-3.429,3.429H5.143a3.439,3.439,0,0,1-3.429-3.429V5.143A3.439,3.439,0,0,1,5.143,1.714H54.857m0-1.714H5.143A5.136,5.136,0,0,0,0,5.143V37.714a5.136,5.136,0,0,0,5.143,5.143H54.857A5.136,5.136,0,0,0,60,37.714V5.143A5.136,5.136,0,0,0,54.857,0Z"/><path class="c" d="M52.6,81.023,49.449,95.681h3.8l3.153-14.658Zm24.506,0H73.869a1.73,1.73,0,0,0-1.611,1.064L66.534,95.681h3.993l.788-2.2H76.2l.463,2.2h3.53Zm-4.678,9.458,1.988-5.493,1.148,5.493ZM46.964,81.023,43.005,91l-1.611-8.479a1.786,1.786,0,0,0-1.765-1.51H33.186l-.086.429a16.889,16.889,0,0,1,3.753,1.236,1.654,1.654,0,0,1,.891,1.3L40.777,95.7h4.01L50.974,81.04h-4.01ZM61.41,85.108c0-.515.514-1.1,1.611-1.219a7.378,7.378,0,0,1,3.753.669l.668-3.124A10.5,10.5,0,0,0,63.9,80.8c-3.753,0-6.409,1.991-6.444,4.858-.034,2.111,1.9,3.3,3.325,4,1.474.721,1.988,1.184,1.971,1.819,0,.978-1.182,1.425-2.279,1.442a7.912,7.912,0,0,1-3.907-.927l-.685,3.21a11.848,11.848,0,0,0,4.25.79c4.01,0,6.615-1.974,6.649-5.012-.034-3.931-5.4-4.171-5.364-5.87Z" transform="translate(-27.419 -66.958)"/></svg>