<svg xmlns="http://www.w3.org/2000/svg" xmlns:xlink="http://www.w3.org/1999/xlink" width="278" height="208" viewBox="0 0 278 208"><defs><style>.a,.b,.y{fill:#fff;}.b{stroke:#f58024;}.c{clip-path:url(#a);}.d{clip-path:url(#b);}.e{fill:#d8d8d8;}.f{fill:#dfe1e5;}.g{fill:#ff5a52;}.h{fill:#e6c029;}.i{fill:#53c22b;}.j{fill:#55575a;}.k{fill:#5d6063;}.l,.p{fill:#3c4043;}.l,.o,.p{font-size:13px;font-family:ArialMT, Arial;}.l{letter-spacing:-0.015em;}.m{fill:#b6b4b6;}.n{fill:#f1f3f4;}.o,.w{fill:#80868a;}.q{fill:#5f6367;}.r{fill:#f63832;}.s{fill:#319d5a;}.t{fill:#1f8bf3;}.u{fill:#f0a100;}.v{clip-path:url(#w);}.x{fill:#F47920;}.y{stroke:#dcdcdc;}.aa,.ab,.z{fill:#58595b;}.z{font-size:8px;}.aa,.z{font-family:Roboto-Regular, Roboto;}.aa{font-size:10px;}.ac{stroke:none;}.ad{fill:none;}.ae{filter:url(#u);}.af{filter:url(#s);}.ag{filter:url(#q);}.ah{filter:url(#o);}.ai{filter:url(#m);}.aj{filter:url(#k);}.ak{filter:url(#i);}.al{filter:url(#g);}.am{filter:url(#e);}.an{filter:url(#c);}</style><clipPath id="a"><rect class="a" width="278" height="208" transform="translate(8462 -2085)"/></clipPath><clipPath id="b"><circle class="a" cx="136" cy="136" r="136" transform="translate(8465 -2116)"/></clipPath><filter id="c" x="-128" y="-24" width="1205" height="832" filterUnits="userSpaceOnUse"><feOffset dy="12" input="SourceAlpha"/><feGaussianBlur stdDeviation="17" result="d"/><feFlood flood-opacity="0.502"/><feComposite operator="in" in2="d"/><feComposite in="SourceGraphic"/></filter><filter id="e" x="-61" y="100" width="3" height="3.5" filterUnits="userSpaceOnUse"><feOffset dy="0.5" input="SourceAlpha"/><feGaussianBlur result="f"/><feFlood flood-color="#999b9c"/><feComposite operator="in" in2="f"/><feComposite in="SourceGraphic"/></filter><filter id="g" x="-56" y="100" width="3" height="3.5" filterUnits="userSpaceOnUse"><feOffset dy="0.5" input="SourceAlpha"/><feGaussianBlur result="h"/><feFlood flood-color="#999b9c"/><feComposite operator="in" in2="h"/><feComposite in="SourceGraphic"/></filter><filter id="i" x="-51" y="100" width="3" height="3.5" filterUnits="userSpaceOnUse"><feOffset dy="0.5" input="SourceAlpha"/><feGaussianBlur result="j"/><feFlood flood-color="#999b9c"/><feComposite operator="in" in2="j"/><feComposite in="SourceGraphic"/></filter><filter id="k" x="-61" y="105" width="3" height="3.5" filterUnits="userSpaceOnUse"><feOffset dy="0.5" input="SourceAlpha"/><feGaussianBlur result="l"/><feFlood flood-color="#999b9c"/><feComposite operator="in" in2="l"/><feComposite in="SourceGraphic"/></filter><filter id="m" x="-56" y="105" width="3" height="3.5" filterUnits="userSpaceOnUse"><feOffset dy="0.5" input="SourceAlpha"/><feGaussianBlur result="n"/><feFlood flood-color="#999b9c"/><feComposite operator="in" in2="n"/><feComposite in="SourceGraphic"/></filter><filter id="o" x="-51" y="105" width="3" height="3.5" filterUnits="userSpaceOnUse"><feOffset dy="0.5" input="SourceAlpha"/><feGaussianBlur result="p"/><feFlood flood-color="#999b9c"/><feComposite operator="in" in2="p"/><feComposite in="SourceGraphic"/></filter><filter id="q" x="-61" y="110" width="3" height="3.5" filterUnits="userSpaceOnUse"><feOffset dy="0.5" input="SourceAlpha"/><feGaussianBlur result="r"/><feFlood flood-color="#999b9c"/><feComposite operator="in" in2="r"/><feComposite in="SourceGraphic"/></filter><filter id="s" x="-56" y="110" width="3" height="3.5" filterUnits="userSpaceOnUse"><feOffset dy="0.5" input="SourceAlpha"/><feGaussianBlur result="t"/><feFlood flood-color="#999b9c"/><feComposite operator="in" in2="t"/><feComposite in="SourceGraphic"/></filter><filter id="u" x="-51" y="110" width="3" height="3.5" filterUnits="userSpaceOnUse"><feOffset dy="0.5" input="SourceAlpha"/><feGaussianBlur result="v"/><feFlood flood-color="#999b9c"/><feComposite operator="in" in2="v"/><feComposite in="SourceGraphic"/></filter><clipPath id="w"><path class="b" d="M0,0H1103a0,0,0,0,1,0,0V614a5,5,0,0,1-5,5H5a5,5,0,0,1-5-5V0A0,0,0,0,1,0,0Z" transform="translate(0 111)"/></clipPath></defs><g class="c" transform="translate(-8462 2085)"><g class="d"><g class="an" transform="matrix(1, 0, 0, 1, 8462, -2085)"><rect class="e" width="1103" height="730" rx="5" transform="translate(-77 15)"/></g><g transform="translate(8385 -2070)"><path class="f" d="M5,0H1098a5,5,0,0,1,5,5V45a0,0,0,0,1,0,0H0a0,0,0,0,1,0,0V5A5,5,0,0,1,5,0Z"/><circle class="g" cx="6" cy="6" r="6" transform="translate(13 15.5)"/><circle class="h" cx="6" cy="6" r="6" transform="translate(33 15.5)"/><circle class="i" cx="6" cy="6" r="6" transform="translate(53 15.5)"/><path class="j" d="M5,11V7H1A1,1,0,0,1,1,5H5V1A1,1,0,0,1,7,1V5h4a1,1,0,0,1,0,2H7v4a1,1,0,0,1-2,0Z" transform="translate(334 19)"/><g transform="translate(70 8)"><path class="a" d="M16,0S8,0,8,8V26s0,8-8,8H16Z" transform="translate(0 0)"/><path class="a" d="M-16,0s8,0,8,8V26s0,8,8,8H-16Z" transform="translate(256)"/><rect class="a" width="224" height="34" transform="translate(16)"/><path class="k" d="M5.165,4.108,8,1.277A.748.748,0,0,0,6.938.218L4.107,3.049,1.276.218A.748.748,0,0,0,.218,1.277L3.049,4.108.218,6.939A.748.748,0,1,0,1.276,8L4.107,5.166,6.938,8A.748.748,0,0,0,8,6.939Z" transform="translate(228 13)"/></g><text class="l" transform="translate(119 17)"><tspan x="0" y="12">Movida Zero KM</tspan></text></g><path class="a" d="M0,0H1103a0,0,0,0,1,0,0V683a5,5,0,0,1-5,5H5a5,5,0,0,1-5-5V0A0,0,0,0,1,0,0Z" transform="translate(8385 -2028)"/><rect class="m" width="1103" height="1" transform="translate(8385 -1960)"/><rect class="n" width="919" height="28" rx="14" transform="translate(8493 -2024)"/><text class="o" transform="translate(8519 -2017)"><tspan x="0" y="12">http://movidazerokm.com.br</tspan></text><text class="p" transform="translate(8422 -1986)"><tspan x="0" y="12">Apps</tspan></text><path class="q" d="M5.54,11.787.251,6.633A.746.746,0,0,1,.032,6.2a.733.733,0,0,1,.009-.456.746.746,0,0,1,.21-.379L5.54.213a.749.749,0,0,1,1.047,0L6.594.206A.743.743,0,0,1,6.587,1.26l-4.1,4h9.783a.731.731,0,0,1,0,1.462H2.461L6.587,10.74a.744.744,0,0,1,.007,1.055l-.007-.007a.75.75,0,0,1-1.047,0Z" transform="translate(8401 -2016)"/><path class="q" d="M-5.54,11.787-.251,6.633A.746.746,0,0,0-.032,6.2.731.731,0,0,0,0,5.988a.728.728,0,0,0-.041-.242.746.746,0,0,0-.21-.379L-5.54.213a.749.749,0,0,0-1.047,0L-6.594.206A.743.743,0,0,0-6.587,1.26l4.1,4h-9.783A.731.731,0,0,0-13,5.988a.73.73,0,0,0,.731.731h9.808L-6.587,10.74a.744.744,0,0,0-.007,1.055l.007-.007A.747.747,0,0,0-6.064,12,.749.749,0,0,0-5.54,11.787Z" transform="translate(8446 -2016)"/><path class="q" d="M13,5.467V0L10.846,2.213A6.1,6.1,0,0,0,6.264.142,6.351,6.351,0,0,0,0,6.575,6.343,6.343,0,0,0,6.264,13a6.242,6.242,0,0,0,5.783-3.977.819.819,0,0,0,.058-.3A.719.719,0,0,0,10.731,8.4a.4.4,0,0,0-.038.1,4.814,4.814,0,0,1-4.429,3.01,4.871,4.871,0,0,1-4.8-4.934,4.872,4.872,0,0,1,4.8-4.934A4.69,4.69,0,0,1,9.817,3.268L7.658,5.488c0-.041,5.342-.021,5.342-.021" transform="translate(8466 -2016)"/><g transform="translate(8401 -1985)"><g class="am" transform="matrix(1, 0, 0, 1, 61, -100)"><rect class="r" width="3" height="3" transform="translate(-61 100)"/></g><g class="al" transform="matrix(1, 0, 0, 1, 61, -100)"><rect class="r" width="3" height="3" transform="translate(-56 100)"/></g><g class="ak" transform="matrix(1, 0, 0, 1, 61, -100)"><rect class="r" width="3" height="3" transform="translate(-51 100)"/></g><g class="aj" transform="matrix(1, 0, 0, 1, 61, -100)"><rect class="s" width="3" height="3" transform="translate(-61 105)"/></g><g class="ai" transform="matrix(1, 0, 0, 1, 61, -100)"><rect class="t" width="3" height="3" transform="translate(-56 105)"/></g><g class="ah" transform="matrix(1, 0, 0, 1, 61, -100)"><rect class="u" width="3" height="3" transform="translate(-51 105)"/></g><g class="ag" transform="matrix(1, 0, 0, 1, 61, -100)"><rect class="s" width="3" height="3" transform="translate(-61 110)"/></g><g class="af" transform="matrix(1, 0, 0, 1, 61, -100)"><rect class="u" width="3" height="3" transform="translate(-56 110)"/></g><g class="ae" transform="matrix(1, 0, 0, 1, 61, -100)"><rect class="u" width="3" height="3" transform="translate(-51 110)"/></g></g><path class="w" d="M7.98,8.961a1,1,0,1,0-1-1,1,1,0,0,0,1,1m2.985-4.478a1,1,0,0,1,1,1v4.976a1,1,0,0,1-1,1H5a1,1,0,0,1-1-1V5.478a1,1,0,0,1,1-1h.5v-1a2.488,2.488,0,0,1,4.976,0v1h.5M7.98,2A1.493,1.493,0,0,0,6.488,3.488v1H9.473v-1A1.493,1.493,0,0,0,7.98,2Z" transform="translate(8498 -2016)"/><rect class="x" width="1103" height="139" transform="translate(8385 -1959)"/><g transform="translate(-133 -53)"><g class="y" transform="translate(8626 -1944)"><rect class="ac" width="219" height="90" rx="3"/><rect class="ad" x="0.5" y="0.5" width="218" height="89" rx="2.5"/></g><g transform="translate(0 -115)"><g class="y" transform="translate(8717 -1774)"><rect class="ac" width="56" height="23" rx="3"/><rect class="ad" x="0.5" y="0.5" width="55" height="22" rx="2.5"/></g><g class="y" transform="translate(8778 -1774)"><rect class="ac" width="56" height="23" rx="3"/><rect class="ad" x="0.5" y="0.5" width="55" height="22" rx="2.5"/></g><text class="z" transform="translate(8731 -1760)"><tspan x="0" y="0">Permitir</tspan></text><text class="z" transform="translate(8790 -1760)"><tspan x="0" y="0">Bloquear</tspan></text></g><text class="aa" transform="translate(8642 -1916)"><tspan x="0" y="0">www.movidazerokm.com.br deseja</tspan></text><path class="ab" d="M10.261,8.334V6.519A.519.519,0,0,0,9.742,6H3.519A.519.519,0,0,0,3,6.519V11.7a.519.519,0,0,0,.519.519H9.742a.519.519,0,0,0,.519-.519V9.89l2.075,2.075v-5.7Z" transform="translate(8639 -1910)"/><text class="z" transform="translate(8659 -1898)"><tspan x="0" y="0">Usar câmera</tspan></text><path class="k" d="M4.041,3.214,6.256,1A.586.586,0,0,0,5.428.171L3.213,2.386,1,.171A.586.586,0,0,0,.171,1L2.386,3.214.171,5.429A.585.585,0,0,0,1,6.257L3.213,4.042,5.428,6.257a.585.585,0,0,0,.828-.828Z" transform="translate(8830 -1936)"/></g></g></g></svg>