<svg xmlns="http://www.w3.org/2000/svg" xmlns:xlink="http://www.w3.org/1999/xlink" width="377" height="326" viewBox="0 0 377 326"><defs><style>.a,.b,.i,.n{fill:#fff;}.b{stroke:#707070;}.c{clip-path:url(#a);}.d{clip-path:url(#b);}.e,.j,.k,.l{fill:#58595b;}.f{fill:#F47920;}.g{fill:url(#e);}.h{clip-path:url(#f);}.i{stroke:#dcdcdc;}.j{font-size:8px;}.j,.k{font-family:Roboto-Regular, Roboto;}.k{font-size:10px;}.m,.n{stroke:none;}.o{fill:none;}.p{filter:url(#c);}</style><clipPath id="a"><rect class="a" width="278" height="208" transform="translate(8462 -2085)"/></clipPath><clipPath id="b"><rect class="b" width="377" height="326" rx="3" transform="translate(-9824.603 8683.629)"/></clipPath><filter id="c" x="14.968" y="0.234" width="347.781" height="596.236" filterUnits="userSpaceOnUse"><feOffset dy="12" input="SourceAlpha"/><feGaussianBlur stdDeviation="18" result="d"/><feFlood flood-opacity="0.502"/><feComposite operator="in" in2="d"/><feComposite in="SourceGraphic"/></filter><linearGradient id="e" x1="1.022" y1="0.5" x2="0" y2="0.5" gradientUnits="objectBoundingBox"><stop offset="0" stop-color="#fff"/><stop offset="0.693" stop-color="#fff"/><stop offset="1" stop-color="#fff" stop-opacity="0"/></linearGradient><clipPath id="f"><rect class="b" width="228.911" height="406.029" transform="translate(0)"/></clipPath></defs><g transform="translate(1 -244)"><g class="d" transform="translate(9823.603 -8439.629)"><g transform="translate(-9755.635 8725.863)"><g transform="translate(0 0)"><g transform="translate(0)"><g class="p" transform="matrix(1, 0, 0, 1, -68.97, -42.23)"><g class="e" transform="translate(68.97 42.23)"><path class="m" d="M 204.4641723632812 485.2357482910156 L 35.31655120849609 485.2357482910156 C 30.95248985290527 485.2357482910156 26.72061538696289 484.3817443847656 22.73842811584473 482.6973571777344 C 18.89055252075195 481.0698547363281 15.43417835235596 478.7392883300781 12.46530342102051 475.7704162597656 C 9.496428489685059 472.8015441894531 7.165865421295166 469.3451843261719 5.538365364074707 465.4972839355469 C 3.85399055480957 461.5151062011719 2.999990701675415 457.2832336425781 2.999990701675415 452.9191589355469 L 2.999990701675415 35.31654739379883 C 2.999990701675415 30.95248413085938 3.85399055480957 26.72060966491699 5.538365364074707 22.7384204864502 C 7.165865421295166 18.89054679870605 9.496428489685059 15.43417167663574 12.46530342102051 12.46529674530029 C 15.43417835235596 9.496421813964844 18.89055252075195 7.165858745574951 22.73842811584473 5.538358688354492 C 26.72061538696289 3.853983879089355 30.95248985290527 2.999983787536621 35.31655120849609 2.999983787536621 L 204.4641723632812 2.999983787536621 C 208.8282470703125 2.999983787536621 213.0601196289062 3.853983879089355 217.0422973632812 5.538358688354492 C 220.8901824951172 7.165858745574951 224.3465576171875 9.496421813964844 227.3154296875 12.46529674530029 C 230.2843017578125 15.43417167663574 232.6148681640625 18.89054679870605 234.2423706054688 22.7384204864502 C 235.9267425537109 26.72060966491699 236.7807464599609 30.95248413085938 236.7807464599609 35.31654739379883 L 236.7807464599609 452.9191589355469 C 236.7807464599609 457.2832336425781 235.9267425537109 461.5151062011719 234.2423706054688 465.4972839355469 C 232.6148681640625 469.3451843261719 230.2843017578125 472.8015441894531 227.3154296875 475.7704162597656 C 224.3465576171875 478.7392883300781 220.8901824951172 481.0698547363281 217.0422973632812 482.6973571777344 C 213.0601196289062 484.3817443847656 208.8282470703125 485.2357482910156 204.4641723632812 485.2357482910156 Z"/><path class="n" d="M 35.31655883789062 6 C 19.1513671875 6 5.999969482421875 19.15133666992188 5.999969482421875 35.3165283203125 L 5.999969482421875 452.919189453125 C 5.999969482421875 469.0843811035156 19.1513671875 482.2357177734375 35.31655883789062 482.2357177734375 L 204.4641723632812 482.2357177734375 C 220.6293640136719 482.2357177734375 233.7807006835938 469.0843811035156 233.7807006835938 452.919189453125 L 233.7807006835938 35.3165283203125 C 233.7807006835938 19.15133666992188 220.6293640136719 6 204.4641723632812 6 L 35.31655883789062 6 M 35.31655883789062 0 L 204.4641723632812 0 C 223.9689636230469 0 239.7807006835938 15.81179809570312 239.7807006835938 35.3165283203125 L 239.7807006835938 452.919189453125 C 239.7807006835938 472.4239196777344 223.9689636230469 488.2357177734375 204.4641723632812 488.2357177734375 L 35.31655883789062 488.2357177734375 C 15.811767578125 488.2357177734375 -3.0517578125e-05 472.4239196777344 -3.0517578125e-05 452.919189453125 L -3.0517578125e-05 35.3165283203125 C -3.0517578125e-05 15.81179809570312 15.811767578125 0 35.31655883789062 0 Z"/></g></g><path class="f" d="M33.627,0H194.681c25.53.27,33.627,15.055,33.627,33.627H0C-.524,9.205,15.055,0,33.627,0Z" transform="translate(5.737 5.681)"/></g></g><rect class="g" width="21.101" height="239.781" transform="translate(239.886 432.873) rotate(90)"/></g></g><g transform="translate(-8548 2351)"><g class="i" transform="translate(8626 -1944)"><rect class="m" width="219" height="90" rx="3"/><rect class="o" x="0.5" y="0.5" width="218" height="89" rx="2.5"/></g><g transform="translate(0 -115)"><text class="j" transform="translate(8731 -1760)"><tspan x="0" y="0">Bloquear</tspan></text><text class="j" transform="translate(8791 -1760)"><tspan x="0" y="0">Permitir</tspan></text></g><text class="k" transform="translate(8642 -1916)"><tspan x="0" y="0">www.movidazerokm.com.br deseja</tspan></text><path class="l" d="M10.261,8.334V6.519A.519.519,0,0,0,9.742,6H3.519A.519.519,0,0,0,3,6.519V11.7a.519.519,0,0,0,.519.519H9.742a.519.519,0,0,0,.519-.519V9.89l2.075,2.075v-5.7Z" transform="translate(8639 -1910)"/><text class="j" transform="translate(8659 -1898)"><tspan x="0" y="0">Usar câmera</tspan></text></g></g></svg>