<svg xmlns="http://www.w3.org/2000/svg" width="51.039" height="48.728" viewBox="0 0 51.039 48.728"><defs><style>.a{fill:#f4f4f4;}.b{fill:none;stroke:#F47920;stroke-miterlimit:10;}</style></defs><g transform="translate(-655 -358.637)"><path class="a" d="M702.382,376.2v-.18l-2.791-12.578a6.116,6.116,0,0,0-5.95-4.8h-26.86a6.105,6.105,0,0,0-5.95,4.8l-2.791,12.638a.684.684,0,0,0,0,.488A6.082,6.082,0,0,0,655,381.85V394a5.741,5.741,0,0,0,2.492,4.555,2.621,2.621,0,0,0-.06.3v4.256a4.229,4.229,0,0,0,4.256,4.256H662.9a4.228,4.228,0,0,0,4.255-4.256v-3.04H693.89v3.04a4.229,4.229,0,0,0,4.256,4.256h1.206a4.229,4.229,0,0,0,4.256-4.256v-4.256a6.076,6.076,0,0,0,2.432-4.864v-12.2A6.2,6.2,0,0,0,702.382,376.2Zm-39.12-12.21a3.635,3.635,0,0,1,3.529-2.85h26.85a3.6,3.6,0,0,1,3.529,2.85l2.611,11.721h-39.13Zm1.456,39.06a1.788,1.788,0,0,1-1.824,1.824h-1.216a1.787,1.787,0,0,1-1.824-1.824V399.71a6.443,6.443,0,0,0,1.824.3h3.04Zm36.448,0a1.787,1.787,0,0,1-1.824,1.824h-1.216a1.788,1.788,0,0,1-1.824-1.824v-3.04h3.648a7.6,7.6,0,0,0,1.216-.119Zm2.432-9.109a3.662,3.662,0,0,1-3.648,3.647H661.678c-1.944,0-4.256-1.644-4.256-3.647V381.79a3.662,3.662,0,0,1,3.648-3.648h38.88a3.663,3.663,0,0,1,3.648,3.648Z"/><path class="a" d="M664.11,383.614a3.648,3.648,0,1,0,3.647,3.648A3.663,3.663,0,0,0,664.11,383.614Zm0,4.864a1.216,1.216,0,1,1,1.216-1.216A1.221,1.221,0,0,1,664.11,388.478Z"/><path class="a" d="M696.92,383.614a3.648,3.648,0,1,0,3.648,3.648A3.662,3.662,0,0,0,696.92,383.614Zm0,4.864a1.216,1.216,0,1,1,1.216-1.216A1.221,1.221,0,0,1,696.92,388.478Z"/><path class="b" d="M687.621,393.969H673.409a1.361,1.361,0,0,1-1.366-1.365V390.84a1.361,1.361,0,0,1,1.366-1.366h14.212a1.361,1.361,0,0,1,1.366,1.366V392.6A1.361,1.361,0,0,1,687.621,393.969Z"/></g></svg>