<svg width="1028" height="260" viewBox="0 0 1028 260" fill="none" xmlns="http://www.w3.org/2000/svg">
<rect width="1028" height="260" fill="#DDE6EC"/>
<path d="M483.383 117.437C480.383 118.395 476.984 120.662 476.484 123.736L476.15 125.303C475.992 126.328 475.934 124.703 476.1 123.703C476.413 121.911 477.209 120.238 478.403 118.864C479.123 118.035 479.972 117.334 480.913 116.786C479.914 116.396 478.802 115.985 477.541 115.951C476.875 115.929 477.475 115.612 478.083 115.304C488.469 110.126 500.321 108.684 511.646 111.221C515.411 112.075 519.012 113.436 522.618 114.799C524.078 115.35 525.538 115.902 527.011 116.421C529.516 117.344 532.086 118.076 534.701 118.612C537.403 119.032 540.133 119.241 542.867 119.237C545.458 119.345 548.041 119.745 550.149 121.345C551.998 122.761 552.424 124.386 552.057 126.736C551.905 127.761 551.655 127.678 551.822 126.67C552.18 124.17 549.431 122.37 547.281 121.512C545.295 120.784 543.139 120.766 541.01 120.749C540.139 120.741 539.273 120.734 538.424 120.679C532.685 120.307 527.392 118.32 522.069 116.322C517.848 114.737 513.608 113.145 509.112 112.347C499.469 110.633 489.96 111.563 481.121 115.569L483.299 115.904C483.453 115.959 483.588 116.059 483.686 116.19C483.784 116.322 483.841 116.479 483.85 116.643C483.859 116.806 483.819 116.969 483.736 117.11C483.653 117.252 483.53 117.365 483.383 117.437Z" fill="#919CA5"/>
<path d="M532.433 125.511H536.449L536.108 126.805C536.508 126.339 537 125.961 537.554 125.695C538.108 125.429 538.711 125.281 539.325 125.261C539.974 125.219 540.618 125.395 541.157 125.76C541.695 126.125 542.097 126.659 542.299 127.277C542.801 126.653 543.435 126.149 544.155 125.8C544.876 125.451 545.665 125.267 546.466 125.261C548.642 125.261 549.798 126.594 549.798 128.718C549.769 129.436 549.652 130.147 549.448 130.836L547.78 137.135H543.789L545.364 131.069C545.451 130.763 545.501 130.447 545.514 130.128C545.538 129.964 545.524 129.797 545.473 129.639C545.423 129.481 545.337 129.337 545.222 129.217C545.108 129.097 544.967 129.005 544.812 128.948C544.656 128.89 544.489 128.869 544.324 128.885C543.25 128.885 542.6 129.66 542.225 130.976L540.578 137.117H536.56L538.168 131.052C538.255 130.745 538.306 130.429 538.318 130.111C538.34 129.944 538.324 129.775 538.27 129.616C538.216 129.457 538.126 129.313 538.007 129.194C537.888 129.076 537.743 128.986 537.584 128.933C537.425 128.879 537.256 128.863 537.089 128.885C536.015 128.885 535.365 129.66 534.99 130.976L533.325 137.117H529.325L532.433 125.511Z" fill="#919CA5"/>
<path d="M531.416 125.486H527.375L522.659 130.133L523.901 125.486H520.709L519.876 128.635C520.511 129.734 520.797 130.999 520.698 132.263C520.598 133.528 520.117 134.732 519.318 135.717C518.931 136.248 518.461 136.712 517.926 137.092H520.825L522.158 135.001L523.491 132.61L525.158 137.101H528.574L525.992 130.569L531.416 125.486Z" fill="#919CA5"/>
<path d="M537.323 141.039C537.434 140.878 537.494 140.688 537.498 140.493C537.5 140.361 537.476 140.23 537.427 140.108C537.378 139.986 537.305 139.874 537.213 139.781C537.121 139.687 537.011 139.612 536.889 139.561C536.768 139.511 536.638 139.484 536.506 139.484C536.311 139.484 536.119 139.542 535.957 139.65C535.794 139.759 535.667 139.913 535.591 140.093C535.516 140.273 535.495 140.472 535.532 140.664C535.569 140.856 535.662 141.032 535.799 141.172C535.936 141.311 536.111 141.407 536.303 141.447C536.494 141.487 536.693 141.47 536.874 141.397C537.056 141.324 537.212 141.2 537.323 141.039Z" fill="#919CA5"/>
<path fill-rule="evenodd" clip-rule="evenodd" d="M539.923 140.984V143.675C539.74 143.486 539.515 143.343 539.266 143.257C539.017 143.172 538.751 143.147 538.49 143.184C538.149 143.192 537.814 143.269 537.504 143.411C537.195 143.554 536.917 143.758 536.689 144.011C536.462 144.265 536.288 144.562 536.179 144.885C536.07 145.208 536.029 145.55 536.057 145.889C536.025 146.217 536.06 146.548 536.161 146.861C536.261 147.174 536.425 147.463 536.643 147.711C536.86 147.958 537.126 148.158 537.423 148.298C537.721 148.438 538.045 148.515 538.374 148.525C538.7 148.544 539.025 148.476 539.318 148.33C539.61 148.184 539.859 147.964 540.04 147.692L540.106 148.426H541.823V140.984H539.923ZM539.923 145.892C539.939 146.011 539.939 146.131 539.923 146.25C539.895 146.45 539.794 146.633 539.641 146.765C539.488 146.897 539.292 146.968 539.09 146.966C538.507 146.966 538.098 146.55 538.098 145.816C538.098 145.083 538.407 144.625 539.106 144.625C539.31 144.623 539.507 144.696 539.66 144.829C539.814 144.962 539.913 145.147 539.94 145.349C539.949 145.427 539.949 145.506 539.94 145.584L539.923 145.892Z" fill="#919CA5"/>
<path fill-rule="evenodd" clip-rule="evenodd" d="M547.389 145.417C547.389 144.059 546.655 143.176 544.939 143.176C544.181 143.157 543.43 143.32 542.748 143.651L543.089 144.875C543.555 144.62 544.075 144.48 544.606 144.467C545.347 144.467 545.439 144.702 545.439 144.875C543.548 144.875 542.348 145.5 542.348 146.875C542.356 147.097 542.407 147.315 542.5 147.517C542.593 147.718 542.725 147.899 542.889 148.049C543.053 148.199 543.245 148.315 543.454 148.389C543.663 148.464 543.885 148.496 544.106 148.483C544.377 148.501 544.647 148.461 544.9 148.364C545.154 148.268 545.383 148.118 545.573 147.925L545.673 148.359H547.397C547.333 147.94 547.305 147.516 547.314 147.092V145.425L547.389 145.417ZM545.539 146.375C545.551 146.469 545.551 146.565 545.539 146.659C545.494 146.808 545.404 146.939 545.282 147.034C545.159 147.13 545.01 147.185 544.855 147.192C544.505 147.192 544.313 147.026 544.313 146.742C544.313 146.334 544.722 146.118 545.563 146.118L545.539 146.375Z" fill="#919CA5"/>
<path d="M513.726 145H513.71V148.275H515.56V145.459C515.553 145.328 515.573 145.198 515.619 145.075C515.661 144.947 515.743 144.835 515.852 144.754C515.96 144.674 516.091 144.629 516.227 144.625C516.677 144.625 516.893 144.967 516.893 145.634V148.333H518.741V145.484C518.742 145.351 518.762 145.219 518.8 145.092C518.838 144.959 518.917 144.842 519.027 144.758C519.137 144.674 519.27 144.627 519.408 144.625C519.858 144.625 520.075 144.967 520.075 145.634V148.332H521.916V145.358C521.916 143.917 521.21 143.083 520.093 143.083C519.76 143.073 519.43 143.147 519.134 143.3C518.843 143.456 518.589 143.675 518.393 143.941C518.26 143.677 518.053 143.457 517.796 143.309C517.54 143.161 517.246 143.091 516.951 143.108C516.645 143.092 516.341 143.155 516.067 143.291C515.793 143.427 515.558 143.63 515.385 143.882H515.343L515.276 143.235H513.685C513.726 143.684 513.726 144.284 513.726 145Z" fill="#919CA5"/>
<path fill-rule="evenodd" clip-rule="evenodd" d="M525.208 148.416C525.584 148.447 525.963 148.398 526.319 148.274C526.676 148.15 527.002 147.952 527.278 147.694C527.553 147.436 527.772 147.123 527.919 146.775C528.066 146.427 528.139 146.053 528.133 145.675C528.134 145.315 528.06 144.957 527.916 144.627C527.772 144.296 527.561 143.998 527.297 143.753C527.032 143.508 526.719 143.321 526.379 143.203C526.038 143.084 525.676 143.038 525.316 143.067C523.392 143.067 522.317 144.217 522.317 145.773C522.317 146.141 522.395 146.505 522.544 146.842C522.693 147.178 522.91 147.48 523.182 147.729C523.454 147.977 523.774 148.166 524.123 148.284C524.471 148.402 524.841 148.446 525.208 148.414L525.208 148.416ZM525.208 147.066C524.584 147.066 524.3 146.483 524.3 145.742C524.3 145.001 524.542 144.442 525.208 144.442C525.875 144.442 526.042 145.034 526.042 145.742C526.042 146.575 525.742 147.066 525.208 147.066Z" fill="#919CA5"/>
<path d="M530.574 145.409L529.95 143.201L527.833 143.242L529.758 148.333H531.724L533.657 143.201H531.607L531.033 145.409C530.952 145.754 530.898 146.057 530.841 146.373L530.816 146.509C530.751 146.151 530.683 145.784 530.574 145.409Z" fill="#919CA5"/>
<path d="M536.49 149.299C535.739 148.301 535.338 147.083 535.347 145.834C535.267 144.495 535.68 143.174 536.507 142.118L535.157 141.401C534.223 142.685 533.748 144.246 533.807 145.834C533.809 147.326 534.272 148.781 535.132 150L536.49 149.299Z" fill="#919CA5"/>
<path d="M490.848 116.813C492.047 116.207 493.279 115.67 494.539 115.205V115.18C493.651 115.277 492.782 115.499 491.956 115.841C490.069 116.431 488.293 117.33 486.7 118.502C486.543 118.59 486.415 118.722 486.332 118.882C486.249 119.042 486.215 119.223 486.234 119.402C486.311 119.78 486.66 119.844 486.989 119.904C487.015 119.909 487.041 119.914 487.067 119.919C488.266 120.112 489.477 120.217 490.692 120.235C498.624 120.53 506.561 120.422 514.496 120.314C516.629 120.285 518.762 120.256 520.895 120.235C521.359 120.279 521.828 120.225 522.27 120.077C520.524 119.947 518.792 119.821 517.068 119.697C514.82 119.534 512.586 119.372 510.355 119.202C509.511 119.14 509.086 119.109 508.813 118.889C508.537 118.667 508.416 118.25 508.172 117.411C507.958 116.455 507.634 115.528 507.206 114.646C507.306 115.83 507.43 117.013 507.63 118.171C507.772 118.788 507.655 119.005 506.939 119.005C504.023 118.963 501.098 118.963 498.19 118.963L489.358 118.921C489.319 118.921 489.274 118.925 489.226 118.928C489.043 118.942 488.826 118.959 488.767 118.787C488.701 118.6 488.843 118.431 488.969 118.28C488.988 118.257 489.007 118.235 489.025 118.213C489.539 117.635 490.158 117.16 490.848 116.813Z" fill="#919CA5"/>
<path fill-rule="evenodd" clip-rule="evenodd" d="M501.113 136.86L501.118 136.841H502.796L503.847 132.677C504.429 130.411 505.614 129.452 507.438 129.344C507.932 128.338 508.668 127.47 509.58 126.818C510.491 126.165 511.55 125.748 512.661 125.603V125.561C512.24 125.495 511.814 125.459 511.387 125.453C508.787 125.587 505.97 126.62 505.088 127.953L505.57 126.059H502.321L500.158 134.464L494.989 134.502C493.689 134.502 491.839 133.402 492.023 132.136H499.264C499.531 131.407 499.672 130.638 499.68 129.861C499.722 129.244 499.63 128.624 499.41 128.046C499.191 127.467 498.849 126.942 498.409 126.507C497.969 126.072 497.44 125.737 496.858 125.525C496.277 125.313 495.656 125.229 495.039 125.278C494.171 125.285 493.313 125.462 492.514 125.801C491.716 126.139 490.991 126.633 490.384 127.252C489.776 127.871 489.296 128.605 488.973 129.41C488.649 130.215 488.488 131.076 488.498 131.944C488.498 134.943 490.473 136.86 493.697 136.86H501.113ZM496.263 129.551C496.258 129.749 496.229 129.947 496.176 130.139H492.272C492.425 129.584 492.748 129.092 493.197 128.733C493.647 128.374 494.198 128.166 494.772 128.139C494.966 128.121 495.161 128.145 495.344 128.208C495.528 128.272 495.696 128.374 495.837 128.507C495.978 128.641 496.089 128.803 496.162 128.983C496.236 129.163 496.27 129.356 496.263 129.551Z" fill="#919CA5"/>
<path d="M488.865 136.843H476.667L477.267 134.519L484.502 128.011H479.175L479.908 125.32H489.555L488.947 127.645L481.712 134.169H487.947C488.152 134.767 488.481 135.316 488.912 135.78C489.343 136.243 489.866 136.612 490.448 136.861L488.865 136.843Z" fill="#919CA5"/>
<path fill-rule="evenodd" clip-rule="evenodd" d="M507.52 132.669C507.55 130.883 508.265 129.177 509.519 127.905C510.772 126.633 512.468 125.892 514.253 125.837C517.71 125.837 519.86 128.153 519.86 131.311C519.835 133.098 519.121 134.808 517.867 136.082C516.613 137.357 514.915 138.098 513.128 138.151C509.67 138.151 507.52 135.843 507.52 132.686V132.669ZM516.627 131.386C516.666 131.039 516.629 130.689 516.52 130.358C516.411 130.026 516.231 129.723 515.994 129.467C515.757 129.212 515.467 129.011 515.145 128.877C514.823 128.744 514.476 128.682 514.127 128.695C512.119 128.695 510.794 130.903 510.794 132.569C510.755 132.916 510.79 133.268 510.899 133.6C511.008 133.932 511.187 134.237 511.424 134.493C511.662 134.749 511.951 134.951 512.274 135.085C512.597 135.219 512.945 135.282 513.294 135.269C515.31 135.269 516.627 133.06 516.627 131.386L516.627 131.386Z" fill="#919CA5"/>
</svg>
