<svg width="310" height="248" viewBox="0 0 310 248" fill="none" xmlns="http://www.w3.org/2000/svg">
<rect width="310" height="248" fill="#DDE6EC"/>
<path d="M124.383 111.437C121.383 112.395 117.984 114.662 117.484 117.736L117.15 119.303C116.992 120.328 116.934 118.703 117.1 117.703C117.413 115.911 118.209 114.238 119.403 112.864C120.123 112.035 120.972 111.334 121.913 110.786C120.914 110.396 119.802 109.985 118.541 109.951C117.875 109.929 118.475 109.612 119.083 109.304C129.469 104.126 141.321 102.684 152.646 105.221C156.411 106.075 160.012 107.436 163.618 108.799C165.078 109.35 166.538 109.902 168.011 110.421C170.516 111.344 173.086 112.076 175.701 112.612C178.403 113.032 181.133 113.241 183.867 113.237C186.458 113.345 189.041 113.745 191.149 115.345C192.998 116.761 193.424 118.386 193.057 120.736C192.905 121.761 192.655 121.678 192.822 120.67C193.18 118.17 190.431 116.37 188.281 115.512C186.295 114.784 184.139 114.766 182.01 114.749C181.139 114.741 180.273 114.734 179.424 114.679C173.685 114.307 168.392 112.32 163.069 110.322C158.848 108.737 154.608 107.145 150.112 106.347C140.469 104.633 130.96 105.563 122.121 109.569L124.299 109.904C124.453 109.959 124.588 110.059 124.686 110.19C124.784 110.322 124.841 110.479 124.85 110.643C124.859 110.806 124.819 110.969 124.736 111.11C124.653 111.252 124.53 111.365 124.383 111.437Z" fill="#919CA5"/>
<path d="M173.433 119.511H177.449L177.108 120.805C177.508 120.339 178 119.961 178.554 119.695C179.108 119.429 179.711 119.281 180.325 119.261C180.974 119.219 181.618 119.395 182.157 119.76C182.695 120.125 183.097 120.659 183.299 121.277C183.801 120.653 184.435 120.149 185.155 119.8C185.876 119.451 186.665 119.267 187.466 119.261C189.642 119.261 190.798 120.594 190.798 122.718C190.769 123.436 190.652 124.147 190.448 124.836L188.78 131.135H184.789L186.364 125.069C186.451 124.763 186.501 124.447 186.514 124.128C186.538 123.964 186.524 123.797 186.473 123.639C186.423 123.481 186.337 123.337 186.222 123.217C186.108 123.097 185.967 123.005 185.812 122.948C185.656 122.89 185.489 122.869 185.324 122.885C184.25 122.885 183.6 123.66 183.225 124.976L181.578 131.117H177.56L179.168 125.052C179.255 124.745 179.306 124.429 179.318 124.111C179.34 123.944 179.324 123.775 179.27 123.616C179.216 123.457 179.126 123.313 179.007 123.194C178.888 123.076 178.743 122.986 178.584 122.933C178.425 122.879 178.256 122.863 178.089 122.885C177.015 122.885 176.365 123.66 175.99 124.976L174.325 131.117H170.325L173.433 119.511Z" fill="#919CA5"/>
<path d="M172.416 119.486H168.375L163.659 124.133L164.901 119.486H161.709L160.876 122.635C161.511 123.734 161.797 124.999 161.698 126.263C161.598 127.528 161.117 128.732 160.318 129.717C159.931 130.248 159.461 130.712 158.926 131.092H161.825L163.158 129.001L164.491 126.61L166.158 131.101H169.574L166.992 124.569L172.416 119.486Z" fill="#919CA5"/>
<path d="M178.323 135.039C178.434 134.878 178.494 134.688 178.498 134.493C178.5 134.361 178.476 134.23 178.427 134.108C178.378 133.986 178.305 133.874 178.213 133.781C178.121 133.687 178.011 133.612 177.889 133.561C177.768 133.511 177.638 133.484 177.506 133.484C177.311 133.484 177.119 133.542 176.957 133.65C176.794 133.759 176.667 133.913 176.591 134.093C176.516 134.273 176.495 134.472 176.532 134.664C176.569 134.856 176.662 135.032 176.799 135.172C176.936 135.311 177.111 135.407 177.303 135.447C177.494 135.487 177.693 135.47 177.874 135.397C178.056 135.324 178.212 135.2 178.323 135.039Z" fill="#919CA5"/>
<path fill-rule="evenodd" clip-rule="evenodd" d="M180.923 134.984V137.675C180.74 137.486 180.515 137.343 180.266 137.257C180.017 137.172 179.751 137.147 179.49 137.184C179.149 137.192 178.814 137.269 178.504 137.411C178.195 137.554 177.917 137.758 177.689 138.011C177.462 138.265 177.288 138.562 177.179 138.885C177.07 139.208 177.029 139.55 177.057 139.889C177.025 140.217 177.06 140.548 177.161 140.861C177.261 141.174 177.425 141.463 177.643 141.711C177.86 141.958 178.126 142.158 178.423 142.298C178.721 142.438 179.045 142.515 179.374 142.525C179.7 142.544 180.025 142.476 180.318 142.33C180.61 142.184 180.859 141.964 181.04 141.692L181.106 142.426H182.823V134.984H180.923ZM180.923 139.892C180.939 140.011 180.939 140.131 180.923 140.25C180.895 140.45 180.794 140.633 180.641 140.765C180.488 140.897 180.292 140.968 180.09 140.966C179.507 140.966 179.098 140.55 179.098 139.816C179.098 139.083 179.407 138.625 180.106 138.625C180.31 138.623 180.507 138.696 180.66 138.829C180.814 138.962 180.913 139.147 180.94 139.349C180.949 139.427 180.949 139.506 180.94 139.584L180.923 139.892Z" fill="#919CA5"/>
<path fill-rule="evenodd" clip-rule="evenodd" d="M188.389 139.417C188.389 138.059 187.655 137.176 185.939 137.176C185.181 137.157 184.43 137.32 183.748 137.651L184.089 138.875C184.555 138.62 185.075 138.48 185.606 138.467C186.347 138.467 186.439 138.702 186.439 138.875C184.548 138.875 183.348 139.5 183.348 140.875C183.356 141.097 183.407 141.315 183.5 141.517C183.593 141.718 183.725 141.899 183.889 142.049C184.053 142.199 184.245 142.315 184.454 142.389C184.663 142.464 184.885 142.496 185.106 142.483C185.377 142.501 185.647 142.461 185.9 142.364C186.154 142.268 186.383 142.118 186.573 141.925L186.673 142.359H188.397C188.333 141.94 188.305 141.516 188.314 141.092V139.425L188.389 139.417ZM186.539 140.375C186.551 140.469 186.551 140.565 186.539 140.659C186.494 140.808 186.404 140.939 186.282 141.034C186.159 141.13 186.01 141.185 185.855 141.192C185.505 141.192 185.313 141.026 185.313 140.742C185.313 140.334 185.722 140.118 186.563 140.118L186.539 140.375Z" fill="#919CA5"/>
<path d="M154.726 139H154.71V142.275H156.56V139.459C156.553 139.328 156.573 139.198 156.619 139.075C156.661 138.947 156.743 138.835 156.852 138.754C156.96 138.674 157.091 138.629 157.227 138.625C157.677 138.625 157.893 138.967 157.893 139.634V142.333H159.741V139.484C159.742 139.351 159.762 139.219 159.8 139.092C159.838 138.959 159.917 138.842 160.027 138.758C160.137 138.674 160.27 138.627 160.408 138.625C160.858 138.625 161.075 138.967 161.075 139.634V142.332H162.916V139.358C162.916 137.917 162.21 137.083 161.093 137.083C160.76 137.073 160.43 137.147 160.134 137.3C159.843 137.456 159.589 137.675 159.393 137.941C159.26 137.677 159.053 137.457 158.796 137.309C158.54 137.161 158.246 137.091 157.951 137.108C157.645 137.092 157.341 137.155 157.067 137.291C156.793 137.427 156.558 137.63 156.385 137.882H156.343L156.276 137.235H154.685C154.726 137.684 154.726 138.284 154.726 139Z" fill="#919CA5"/>
<path fill-rule="evenodd" clip-rule="evenodd" d="M166.208 142.416C166.584 142.447 166.963 142.398 167.319 142.274C167.676 142.15 168.002 141.952 168.278 141.694C168.553 141.436 168.772 141.123 168.919 140.775C169.066 140.427 169.139 140.053 169.133 139.675C169.134 139.315 169.06 138.957 168.916 138.627C168.772 138.296 168.561 137.998 168.297 137.753C168.032 137.508 167.719 137.321 167.379 137.203C167.038 137.084 166.676 137.038 166.316 137.067C164.392 137.067 163.317 138.217 163.317 139.773C163.317 140.141 163.395 140.505 163.544 140.842C163.693 141.178 163.91 141.48 164.182 141.729C164.454 141.977 164.774 142.166 165.123 142.284C165.471 142.402 165.841 142.446 166.208 142.414L166.208 142.416ZM166.208 141.066C165.584 141.066 165.3 140.483 165.3 139.742C165.3 139.001 165.542 138.442 166.208 138.442C166.875 138.442 167.042 139.034 167.042 139.742C167.042 140.575 166.742 141.066 166.208 141.066Z" fill="#919CA5"/>
<path d="M171.574 139.409L170.95 137.201L168.833 137.242L170.758 142.333H172.724L174.657 137.201H172.607L172.033 139.409C171.952 139.754 171.898 140.057 171.841 140.373L171.816 140.509C171.751 140.151 171.683 139.784 171.574 139.409Z" fill="#919CA5"/>
<path d="M177.49 143.299C176.739 142.301 176.338 141.083 176.347 139.834C176.267 138.495 176.68 137.174 177.507 136.118L176.157 135.401C175.223 136.685 174.748 138.246 174.807 139.834C174.809 141.326 175.272 142.781 176.132 144L177.49 143.299Z" fill="#919CA5"/>
<path d="M131.848 110.813C133.047 110.207 134.279 109.67 135.539 109.205V109.18C134.651 109.277 133.782 109.499 132.956 109.841C131.069 110.431 129.293 111.33 127.7 112.502C127.543 112.59 127.415 112.722 127.332 112.882C127.249 113.042 127.215 113.223 127.234 113.402C127.311 113.78 127.66 113.844 127.989 113.904C128.015 113.909 128.041 113.914 128.067 113.919C129.266 114.112 130.477 114.217 131.692 114.235C139.624 114.53 147.561 114.422 155.496 114.314C157.629 114.285 159.762 114.256 161.895 114.235C162.359 114.279 162.828 114.225 163.27 114.077C161.524 113.947 159.792 113.821 158.068 113.697C155.82 113.534 153.586 113.372 151.355 113.202C150.511 113.14 150.086 113.109 149.813 112.889C149.537 112.667 149.416 112.25 149.172 111.411C148.958 110.455 148.634 109.528 148.206 108.646C148.306 109.83 148.43 111.013 148.63 112.171C148.772 112.788 148.655 113.005 147.939 113.005C145.023 112.963 142.098 112.963 139.19 112.963L130.358 112.921C130.319 112.921 130.274 112.925 130.226 112.928C130.043 112.942 129.826 112.959 129.767 112.787C129.701 112.6 129.843 112.431 129.969 112.28C129.988 112.257 130.007 112.235 130.025 112.213C130.539 111.635 131.158 111.16 131.848 110.813Z" fill="#919CA5"/>
<path fill-rule="evenodd" clip-rule="evenodd" d="M142.113 130.86L142.118 130.841H143.796L144.847 126.677C145.429 124.411 146.614 123.452 148.438 123.344C148.932 122.338 149.668 121.47 150.58 120.818C151.491 120.165 152.55 119.748 153.661 119.603V119.561C153.24 119.495 152.814 119.459 152.387 119.453C149.787 119.587 146.97 120.62 146.088 121.953L146.57 120.059H143.321L141.158 128.464L135.989 128.502C134.689 128.502 132.839 127.402 133.023 126.136H140.264C140.531 125.407 140.672 124.638 140.68 123.861C140.722 123.244 140.63 122.624 140.41 122.046C140.191 121.467 139.849 120.942 139.409 120.507C138.969 120.072 138.44 119.737 137.858 119.525C137.277 119.313 136.656 119.229 136.039 119.278C135.171 119.285 134.313 119.462 133.514 119.801C132.716 120.139 131.991 120.633 131.384 121.252C130.776 121.871 130.296 122.605 129.973 123.41C129.649 124.215 129.488 125.076 129.498 125.944C129.498 128.943 131.473 130.86 134.697 130.86H142.113ZM137.263 123.551C137.258 123.749 137.229 123.947 137.176 124.139H133.272C133.425 123.584 133.748 123.092 134.197 122.733C134.647 122.374 135.198 122.166 135.772 122.139C135.966 122.121 136.161 122.145 136.344 122.208C136.528 122.272 136.696 122.374 136.837 122.507C136.978 122.641 137.089 122.803 137.162 122.983C137.236 123.163 137.27 123.356 137.263 123.551Z" fill="#919CA5"/>
<path d="M129.865 130.843H117.667L118.267 128.519L125.502 122.011H120.175L120.908 119.32H130.555L129.947 121.645L122.712 128.169H128.947C129.152 128.767 129.481 129.316 129.912 129.78C130.343 130.243 130.866 130.612 131.448 130.861L129.865 130.843Z" fill="#919CA5"/>
<path fill-rule="evenodd" clip-rule="evenodd" d="M148.52 126.669C148.55 124.883 149.265 123.177 150.519 121.905C151.772 120.633 153.468 119.892 155.253 119.837C158.71 119.837 160.86 122.153 160.86 125.311C160.835 127.098 160.121 128.808 158.867 130.082C157.613 131.357 155.915 132.098 154.128 132.151C150.67 132.151 148.52 129.843 148.52 126.686V126.669ZM157.627 125.386C157.666 125.039 157.629 124.689 157.52 124.358C157.411 124.026 157.231 123.723 156.994 123.467C156.757 123.212 156.467 123.011 156.145 122.877C155.823 122.744 155.476 122.682 155.127 122.695C153.119 122.695 151.794 124.903 151.794 126.569C151.755 126.916 151.79 127.268 151.899 127.6C152.008 127.932 152.187 128.237 152.424 128.493C152.662 128.749 152.951 128.951 153.274 129.085C153.597 129.219 153.945 129.282 154.294 129.269C156.31 129.269 157.627 127.06 157.627 125.386L157.627 125.386Z" fill="#919CA5"/>
</svg>
