<svg xmlns="http://www.w3.org/2000/svg" width="15.156" height="16" viewBox="0 0 15.156 16"><defs><style>.a{fill:#58595b;}</style></defs><g transform="translate(-202.036 -804)"><g transform="translate(-192 46.351)"><g transform="translate(394.036 757.649)"><path class="a" d="M.633-6.5V-20.812H2.32v1.266a1.2,1.2,0,0,0,.375.875,1.217,1.217,0,0,0,.891.375h.828a1.217,1.217,0,0,0,.891-.375,1.2,1.2,0,0,0,.375-.875v-1.266h5.062v1.266a1.2,1.2,0,0,0,.375.875,1.217,1.217,0,0,0,.891.375h.828a1.217,1.217,0,0,0,.891-.375,1.2,1.2,0,0,0,.375-.875v-1.266h1.687V-6.5Zm14.313-9.266H1.477v8.422H14.945ZM4.008-10.7H2.32v-1.687H4.008Zm0,2.516H2.32V-9.875H4.008ZM6.523-10.7H4.836v-1.687H6.523Zm0,2.516H4.836V-9.875H6.523Zm2.531-5.047H7.367v-1.687H9.055Zm0,2.531H7.367v-1.687H9.055Zm0,2.516H7.367V-9.875H9.055Zm2.531-5.047H9.9v-1.687h1.688Zm0,2.531H9.9v-1.687h1.688Zm0,2.516H9.9V-9.875h1.688ZM14.1-13.234H12.43v-1.687H14.1Zm0,2.531H12.43v-1.687H14.1Zm-1.594-8.422h-.172a.666.666,0,0,1-.531-.266.891.891,0,0,1-.219-.578v-1.687a.857.857,0,0,1,.219-.609.7.7,0,0,1,.531-.234h.172a.666.666,0,0,1,.531.266.891.891,0,0,1,.219.578v1.594a1.03,1.03,0,0,1-.219.664.659.659,0,0,1-.531.273Zm-8.422,0H3.914a.666.666,0,0,1-.531-.266.891.891,0,0,1-.219-.578v-1.687a.857.857,0,0,1,.219-.609.7.7,0,0,1,.531-.234h.172a.666.666,0,0,1,.531.266.891.891,0,0,1,.219.578v1.594a1.03,1.03,0,0,1-.219.664.659.659,0,0,1-.531.273Z" transform="translate(-0.633 22.5)"/></g></g></g></svg>