<svg xmlns="http://www.w3.org/2000/svg" width="18" height="18" viewBox="0 0 18 18"><defs><style>.a{fill:#f97d00;}.b{fill:#fff;}</style></defs><g transform="translate(-1007 -2315)"><path class="a" d="M6.4,16.4a1.8,1.8,0,1,0,1.8,1.8A1.8,1.8,0,0,0,6.4,16.4ZM1,2V3.8H2.8l3.24,6.831-1.215,2.2A1.74,1.74,0,0,0,4.6,13.7a1.805,1.805,0,0,0,1.8,1.8H17.2V13.7H6.778a.223.223,0,0,1-.225-.225l.027-.108L7.39,11.9h6.7a1.791,1.791,0,0,0,1.575-.927l3.222-5.841A.879.879,0,0,0,19,4.7a.9.9,0,0,0-.9-.9H4.789L3.943,2H1ZM15.4,16.4a1.8,1.8,0,1,0,1.8,1.8A1.8,1.8,0,0,0,15.4,16.4Z" transform="translate(1006 2313)"/><path class="b" d="M4185.858-16083.563l2.314,4.818h5.7l2.879-4.818Z" transform="translate(-3174.177 18402)"/></g></svg>