<svg id="Grupo_722" data-name="Grupo 722" xmlns="http://www.w3.org/2000/svg" width="32" height="32" viewBox="0 0 32 32">
  <rect id="Retângulo_1683" data-name="Retângulo 1683" width="32" height="32" fill="#fff"/>
  <path id="Caminho_3707" data-name="Caminho 3707" d="M71.643,76.738c.536-.018,1.073,0,1.612,0h.221V73.94c-.286-.029-.586-.07-.887-.084-.551-.024-1.1-.052-1.654-.04a4.059,4.059,0,0,0-2.333.722,3.5,3.5,0,0,0-1.4,2.332,8.3,8.3,0,0,0-.1,1.2c-.014.626,0,1.252,0,1.88v.235H64.429V83.3h2.656v7.84h3.246V83.315h2.648c.136-1.037.268-2.065.408-3.134h-.6c-.754,0-2.482,0-2.482,0s.008-1.545.025-2.217C70.362,77.045,70.906,76.764,71.643,76.738Z" transform="translate(-52.952 -66.444)" fill="#f97d00" fill-rule="evenodd"/>
</svg>
