<svg id="Grupo_723" data-name="Grupo 723" xmlns="http://www.w3.org/2000/svg" width="32" height="32" viewBox="0 0 32 32">
  <rect id="Retângulo_1684" data-name="Retângulo 1684" width="32" height="32" fill="#fff"/>
  <path id="Caminho_3708" data-name="Caminho 3708" d="M150.181,151.49H139.327a2.468,2.468,0,0,0-2.468,2.469v10.854a2.469,2.469,0,0,0,2.468,2.469h10.854a2.47,2.47,0,0,0,2.471-2.469V153.959A2.47,2.47,0,0,0,150.181,151.49Zm-2.045,2.178a.439.439,0,0,1,.44-.44h1.907a.44.44,0,0,1,.44.44v1.907a.44.44,0,0,1-.44.44h-1.907a.44.44,0,0,1-.44-.44Zm-6.293,4.579a3.126,3.126,0,0,1,5.822,0,3.092,3.092,0,0,1,.217,1.139,3.127,3.127,0,1,1-6.254,0A3.091,3.091,0,0,1,141.843,158.246Zm9.136,6.567a.8.8,0,0,1-.8.8H139.327a.8.8,0,0,1-.8-.8v-6.567h1.559a4.8,4.8,0,1,0,9.328,0h1.561Z" transform="translate(-128.755 -143.386)" fill="#f97d00" fill-rule="evenodd"/>
</svg>
