<svg xmlns="http://www.w3.org/2000/svg" width="32" height="32" viewBox="0 0 32 32">
  <g id="Grupo_14244" data-name="Grupo 14244" transform="translate(-144)">
    <g id="Grupo_5688" data-name="Grupo 5688" transform="translate(144)">
      <path id="Caminho_3767" data-name="Caminho 3767" d="M0,0H32V32H0Z" fill="#fff"/>
    </g>
    <g id="twitter-logo-silhouette" transform="translate(150 8.128)">
      <g id="Grupo_2084" data-name="Grupo 2084" transform="translate(0 0)">
        <path id="Caminho_4524" data-name="Caminho 4524" d="M19.551,59.32a8.009,8.009,0,0,1-2.3.632,4.027,4.027,0,0,0,1.763-2.217,8.085,8.085,0,0,1-2.548.974,4.014,4.014,0,0,0-6.834,3.656,11.386,11.386,0,0,1-8.266-4.19A4.015,4.015,0,0,0,2.6,63.527a4.011,4.011,0,0,1-1.817-.5v.05A4.014,4.014,0,0,0,4,67.006a4.062,4.062,0,0,1-1.057.141,3.849,3.849,0,0,1-.755-.075,4.013,4.013,0,0,0,3.746,2.785A8.046,8.046,0,0,1,.958,71.572,8.526,8.526,0,0,1,0,71.517a11.336,11.336,0,0,0,6.147,1.8,11.332,11.332,0,0,0,11.41-11.41l-.013-.519A8.009,8.009,0,0,0,19.551,59.32Z" transform="translate(-0.001 -57.441)" fill="#f97d00"/>
      </g>
    </g>
  </g>
</svg>
