<svg id="Grupo_724" data-name="Grupo 724" xmlns="http://www.w3.org/2000/svg" width="32" height="32" viewBox="0 0 32 32">
  <path id="Caminho_3767" data-name="Caminho 3767" d="M0,0H32V32H0Z" fill="#fff"/>
  <path id="Caminho_3709" data-name="Caminho 3709" d="M62.269,126.635a2.082,2.082,0,0,1-1.375-1.337c-.6-1.638-.773-8.49.375-9.839a2.22,2.22,0,0,1,1.5-.8c3.091-.332,12.642-.285,13.743.112a2.15,2.15,0,0,1,1.351,1.3c.653,1.692.675,7.854-.085,9.485a2.1,2.1,0,0,1-.97.978C75.654,127.141,63.787,127.135,62.269,126.635Zm4.91-3.212,5.566-2.886-5.566-2.9Z" transform="translate(-53.386 -104.721)" fill="#f97d00" fill-rule="evenodd"/>
</svg>
